<?xml version="1.0" encoding="UTF-8"?><svg id="Layer_2" xmlns="http://www.w3.org/2000/svg" xmlns:xlink="http://www.w3.org/1999/xlink" viewBox="0 0 3510.77 2150.73"><defs><style>.cls-1{fill:none;}.cls-2{clip-path:url(#clippath);}.cls-3{fill:#ff1d1d;}.cls-4{fill:#ff781d;}.cls-5{fill:#33ff38;}</style><clipPath id="clippath"><path id="_剪裁路徑" class="cls-1" d="m1489.56,36.49c44.38,0,89.35,1.1,115.16,3.87,57.19,6.13,202.21,53.11,214.47,71.49,12.26,18.38,4.08,42.89,9.45,49.02,5.37,6.13,100.85,85.79,123.31,85.79s67.4-57.19,96-69.45c15.99-6.85,56.87-7.96,94.81-7.96,18.09,0,35.51.25,49.24.25,8.99,0,16.4-.11,21.39-.46,26.56-1.9,23.16-24.94,73.28-24.94,3.84,0,8,.14,12.51.43,63.32,4.09,142.98,110.3,173.62,110.3s96-24.51,124.6-26.55c1.37-.1,2.68-.14,3.96-.14,24.18,0,33.08,16.63,53.92,16.63,1.1,0,2.23-.05,3.4-.14,24.51-2.04,43.92-21.96,59.23-26.72,15.32-4.76,36.77-1.37,62.81-10.56,26.04-9.19,47.49-22.98,61.28-22.98s180.77-67.4,191.49-76.6c10.72-9.19-18.38-19.91,18.38-24.51,26.19-2.38,53.76-3.39,81.72-3.39,151.98,0,314.94,29.91,322.71,32.5,9.19,3.06,26.04,21.45,21.45,30.64-4.6,9.19-42.89,45.96-44.43,64.34-1.53,18.38,22.98,50.55,16.85,67.4-6.08,16.71-79.94,81.21-106.56,81.21-.23,0-.46,0-.68-.01-23.49-1.02-33.7-36.77-44.39-50.04-4.71-5.86-21.86-6.94-41.23-6.94-11.45,0-23.68.38-34.56.38-12.44,0-23.14-.5-28.93-2.63-19-7-32.12-53.17-53.76-53.17-.46,0-.92.02-1.39.06-22.47,2.04-107.23,42.89-127.66,42.89-7.43,0-15.39.27-23.02.27-13.34,0-25.63-.83-32.13-5.38-10.21-7.15-33.7-10.21-51.06-16.34-17.36-6.13-40.85-21.45-55.15-23.49-.68-.1-1.34-.14-2-.14-13.21,0-22.84,18.72-50.08,22.61-28.6,4.08-100.08,21.45-108.26,28.6-8.17,7.15,12.26,13.28-15.32,76.6-27.57,63.32-66.38,72.51-76.6,78.64-10.21,6.13-7.15,48-57.19,54.13-1.95.24-3.93.35-5.94.35-49.65,0-116.93-69.96-124.78-73.89-1.52-.76-3.21-1.06-5.06-1.06-7.09,0-16.48,4.42-27.07,4.42-1.52,0-3.07-.09-4.64-.3-15.32-2.04-23.49-11.23-44.94-17.36-2.19-.63-4.2-.9-6.08-.9-13.35,0-20.21,13.83-39.27,13.83-4.53,0-9.76-.78-15.93-2.72-35.74-11.23-32.68-51.06-42.89-55.15-10.21-4.08-30.64-24.51-40.85-29.62-10.21-5.11-34.72-6.13-44.94-6.13s-46.98-22.47-54.13-34.72c-7.15-12.26-26.55-59.23-35.74-59.23s-65.36,46.98-67.4,56.17c-2.04,9.19,9.19,26.55-12.25,43.92-5.45,4.41-12.47,5.99-20.02,5.99-19.01,0-41.35-9.99-50.24-9.99-1.49,0-2.61.28-3.27.94-6.13,6.13,5.11,26.55,12.26,45.96,7.15,19.4-15.32,56.17-31.66,63.32-2.32,1.02-4.84,1.47-7.5,1.47-16.03,0-36.7-16.78-44.59-29.05-9.19-14.3-25.53-30.64-37.79-36.77-12.26-6.13-43.92-8.17-55.15-12.26-11.23-4.08-45.96-21.45-56.17-40.85-10.21-19.4-49.02-69.45-84.77-72.51-1.87-.16-3.79-.24-5.75-.24-35.51,0-84.18,25.12-85.15,31.9-1.02,7.15,7.15,22.47,17.36,27.57,10.21,5.11,29.62,16.34,34.72,18.38.94.38,2.3.48,4.01.48,1.87,0,4.15-.12,6.76-.12,7.91,0,18.81,1.09,30.08,9.85,18.38,14.3,49.02,72.51,59.23,81.7,10.21,9.19,48,27.57,62.3,48,14.3,20.43,25.53,46.98,31.66,68.43,6.13,21.45-2.04,134.81-2.04,150.13s8.17,4.09,8.17,19.4-27.57,89.87-31.66,97.02c-4.08,7.15,3.06,46.98,0,57.19-3.06,10.21-19.4,29.62-19.4,34.72s13.28,14.3,11.23,27.57c-2.04,13.28-63.32,85.79-76.6,92.94-13.28,7.15-37.79,5.11-45.96,15.32-8.17,10.21-33.7,64.34-38.81,71.49-5.11,7.15-23.49,3.06-25.53,7.15-2.04,4.08,0,25.53-1.02,42.89-1.02,17.36-89.87,115.4-102.13,134.81-12.26,19.4-22.47,99.06-21.45,103.15,1.02,4.09,25.53,23.49,25.53,35.74s-11.23,85.79-17.36,102.13c-6.13,16.34-19.4,241.02-21.45,252.26-2.04,11.23-37.79,94.98-46.98,106.21-9.19,11.23-20.43,8.17-25.53,13.28-5.11,5.11-2.04,10.21-15.32,15.32-4.17,1.6-10.46,2.2-17.37,2.2-15.1,0-33.19-2.84-38.8-4.24-8.17-2.04-33.7-29.62-35.74-36.77-1.89-6.6,10.18-28.03,3.16-28.03-.58,0-1.28.15-2.14.46-11.23,4.09-174.64,165.45-187.91,168.51-7.97,1.84-27.7,3.31-45.3,3.31-11.73,0-22.52-.65-28.24-2.29-14.3-4.09-51.06-13.28-64.34-17.36-.78-.24-2.08-.35-3.87-.35-28.71,0-179.96,29.37-196.3,36.1-17.36,7.15-41.87,22.47-49.02,28.6-7.15,6.13-4.08,24.51-14.3,28.6-3.4,1.36-12.37,1.82-23.07,1.82-21.41,0-49.78-1.82-54.54-1.82-7.15,0-48-18.38-61.28-24.51-13.28-6.13-32.68-3.06-48-6.13-15.12-3.02-164.57-78.68-178.25-78.68-.18,0-.34.01-.47.04-3.4.68-7.72.91-12.18.91-8.93,0-18.46-.91-22.54-.91-6.13,0-31.66-17.36-38.81-20.43-7.15-3.06-34.72-20.43-43.91-27.57-9.19-7.15-45.96-49.02-50.04-55.15-4.09-6.13-14.3-45.96-15.32-50.04s-19.4-24.51-23.49-31.66c-4.08-7.15-5.11-30.64-7.15-42.89-2.04-12.26,19.4-25.53,27.57-30.64,8.17-5.11,24.51-23.49,35.74-23.49,10.62,0,46.81,23.74,55.9,23.74.52,0,.96-.08,1.29-.25,6.13-3.06,31.66-78.64,56.17-79.66.79-.03,1.57-.05,2.33-.05,23.03,0,35.78,14.38,45.67,15.37,10.21,1.02,44.94,4.08,60.26,10.21s10.21,11.23,17.36,13.28c.78.22,1.54.31,2.33.31,3.07,0,6.57-1.36,13.62-1.36,7.61,0,19.37,1.59,39.2,8.2,42.89,14.3,42.89,35.74,51.06,38.81,2.45.92,22.91,1.1,50.89,1.1,18.65,0,40.64-.08,62.86-.08,55.53,0,112.47.51,122.17,4.09,19.4,7.15,16.34,25.53,28.6,25.53s78.64-38.81,94.98-49.02c16.34-10.21,77.62-76.6,92.94-87.83,15.32-11.23,13.28-18.38,23.49-32.68,10.21-14.3,29.62-22.47,37.79-28.6,8.17-6.13,2.04-29.62,15.32-42.89s60.26-54.13,56.17-58.21c-1.63-1.63-5.88-2.12-10.92-2.12-7.55,0-16.86,1.1-21.77,1.1-7.89,0-5.3-13.33-13.39-13.33-.29,0-.59.02-.91.05-8.92.99-52.48,32.77-68.11,32.77-.47,0-.92-.03-1.34-.09-14.3-2.04-14.3-13.28-15.32-24.51-1.02-11.23-24.51-17.36-21.45-31.66,3.06-14.3,8.17-18.38,14.3-26.55,6.13-8.17,3.06-26.55-4.09-52.08-7.15-25.53-24.51-35.74-29.62-49.02-5.11-13.28-7.15-50.04-11.23-64.34-4.09-14.3-29.62-18.38-35.74-33.7-6.13-15.32,2.04-38.81,2.04-43.91s-17.36-17.36-19.4-28.6c-2.04-11.23-12.26-59.23-7.15-76.29,5.11-17.06,33.7-39.11,46.98-50.34,13.28-11.23,5.11-37.79,11.23-54.13,6.13-16.34,13.28-4.09,40.85-35.74,27.57-31.66,64.34-135.83,79.66-144,4.64-2.47,8.62-3.36,12.26-3.36,8.38,0,14.94,4.69,23.49,5.4,1.4.12,3.03.17,4.84.17,10.75,0,27.8-1.77,40.87-1.77,3.94,0,7.52.16,10.46.58,14.3,2.04,52.08,56.17,54.13,66.38,2.04,10.21,10.21,177.7,14.3,204.26,4.09,26.55,6.13,55.15,21.45,61.28,4.29,1.72,8.41,2.55,12.4,2.55,10.27,0,19.62-5.53,28.45-15.83,12.26-14.3,9.19-33.7,38.81-52.09,29.62-18.38,100.09-21.45,104.17-28.6,4.08-7.15-2.04-24.51,17.36-37.79,19.4-13.28,96-33.7,103.15-42.89,7.15-9.19-15.32-31.66-15.32-45.96s24.51-172.6,18.38-182.81c-1.91-3.18-12.72-3.98-27.11-3.98s-33.21.84-49.71.84c-19.18,0-35.71-1.14-40.62-6.05-13.28-13.28-13.28-131.74-11.23-150.13,2.04-18.38,9.19-34.72,28.6-43.91,19.4-9.19,41.87-11.23,41.87-20.43,0-3.58-3.73-4.53-8.7-4.53-5.54,0-12.62,1.17-17.82,1.17-2.1,0-3.89-.19-5.15-.73-4.87-2.09-15.44-7.5-29.43-7.5-6.54,0-13.83,1.18-21.63,4.43-24.51,10.21-36.77,24.51-43.92,29.62-4.31,3.08-27.95,7.65-48.72,7.65-13.66,0-26.08-1.98-30.94-7.65-12.26-14.3-42.89-157.28-42.89-175.66s28.6-75.57,46.98-89.87c14.3-11.12,38.48-12.36,58.13-12.36,5.61,0,10.86.1,15.4.1,20.43,0,71.49-57.19,79.66-67.4,8.17-10.21-12.26-42.89-16.34-53.11-4.08-10.21,2.04-57.19,32.68-61.28,16.81-2.24,69.88-3.87,123.82-3.87m-227.23,244.07c-7.76,0-12.93-2.24-23.22-2.24-18.38,0-18.38,23.49-21.45,42.89-3.06,19.4,1.02,18.38,9.19,76.6,6.21,44.24,8.29,49.55,14.76,49.55,2.04,0,4.52-.53,7.71-.53,13.28,0,10.21-19.4,17.36-25.53,1.84-1.58,3.55-2.14,5.27-2.14,4.29,0,8.7,3.46,15.65,3.46,1.13,0,2.32-.09,3.59-.3,12.26-2.04,3.06-6.13,20.43-15.32,3.33-1.76,7.45-2.51,12.13-2.51,19.71,0,49.33,13.27,71.61,19.87,6.28,1.86,12.35,2.08,18.05,2.08,1.75,0,3.46-.02,5.14-.02,16.83,0,29.7,2.08,34,47.98,6.13,65.36-62.3,59.23-70.47,72.51-8.17,13.28-10.21,86.81,8.17,101.11,2.8,2.18,6.86,3.03,11.81,3.03,17.68,0,46.76-10.84,70.82-10.84,13.44,0,25.33,3.39,32.78,13.94,24.51,34.72-8.17,218.55-8.17,233.87s24.51,57.19,17.36,68.43c-7.15,11.23-3.06,17.36-74.55,36.77-71.49,19.4-28.6,22.47-50.04,51.06-21.45,28.6-22.47,11.23-80.68,24.51-58.21,13.27-37.79,11.24-50.04,20.43-12.26,9.19-15.32,31.66-32.68,49.02-12.73,12.73-66.05,22.71-98.85,22.71-11.95,0-21.18-1.33-24.72-4.32-13.28-11.23-13.28-9.19-20.43-75.57-7.15-66.38-15.32-217.53-17.36-231.83-2.04-14.3-16.34-18.38-25.53-24.51-4.92-3.28-14.81-5.39-24.35-5.39-8.29,0-16.31,1.59-20.58,5.39-9.19,8.17-54.13,108.26-63.32,126.64-9.19,18.38-28.6,19.4-42.89,37.79-14.3,18.38,4.09,38.81-12.26,60.26-16.34,21.45-48,13.28-49.02,31.66-1.02,18.38,29.62,38.81,33.7,57.19,4.09,18.38-8.17,28.6-4.09,49.02,4.09,20.43,20.43,2.04,34.72,25.53,14.3,23.49-4.09,33.7,6.13,65.36,10.21,31.66,22.47,39.83,30.64,64.34,8.17,24.51,7.15,35.74,6.13,60.26-1.02,24.51-21.45,11.23-10.21,32.68,2.3,4.39,5.5,6.17,9.28,6.17,14.66,0,37.99-26.83,50.98-31.7,3.04-1.14,5.69-1.64,8.12-1.64,10.65,0,17.13,9.67,33.76,17.98,20.43,10.21,44.94,6.13,52.09,28.6,7.15,22.47-2.04,52.09-22.47,73.53-20.43,21.45-32.68,37.79-37.79,56.17-5.11,18.38-27.57,32.68-39.83,39.83-12.26,7.15-11.23,21.45-30.64,40.85-19.4,19.4-184.85,154.21-227.74,156.26-1.58.08-3.1.11-4.57.11-38.29,0-38.29-24.89-63.86-31.77-6.64-1.79-23.35-2.36-45.06-2.36-39.06,0-94.26,1.86-135.8,1.86-27.7,0-49.33-.83-56.07-3.58-22.47-9.19-5.11-17.36-25.53-28.6s-28.6-4.09-64.34-14.3c-30.14-8.61-66.81-34.64-88.59-34.64-4.05,0-7.59.9-10.47,2.98-17.98,12.98-11.54,77.72-48.48,77.72-.84,0-1.7-.03-2.58-.1-31.23-2.4-49.9-18.62-64.38-18.62-3.99,0-7.66,1.23-11.19,4.32-16.34,14.3,9.19,22.47,19.4,34.72,10.21,12.26,5.11,23.49,10.21,38.81.82,2.45.95,3.67.83,4.22-.35-.17-.58-.23-.72-.23-.45,0-.01.63.36.63.15,0,.29-.11.36-.4,2.5,1.2,11.11,7.76,36.96,34.58,54.13,56.17,65.36,34.72,89.87,43.91,24.51,9.19,163.4,71.49,188.94,81.7,10.02,4.01,16.11,4.87,21.29,4.87,3.91,0,7.3-.49,11.47-.49,4.39,0,9.65.54,17.28,2.77,23.94,6.98,72.25,27.61,86.85,27.61.35,0,.67-.01.98-.04,13.28-1.02,18.38-36.77,73.53-55.15,52.2-17.4,205.94-42.12,236.97-42.12,1.75,0,3.12.08,4.05.24,17.36,3.06,33.7,12.26,46.98,14.3,8.18,1.26,21.02,3.68,33.97,3.68,8.06,0,16.17-.94,23.22-3.68,18.38-7.15,176.68-165.45,190.98-172.6,1.97-.99,4.43-1.43,7.22-1.43,17.46,0,48.03,17.28,55.08,26.96,8.17,11.23-6.13,39.83,13.28,48,3.46,1.46,6.14,2.07,8.24,2.07,9.69,0,7.15-13.01,12.18-16.37,6.13-4.09,14.3-4.09,17.36-10.21,3.06-6.13,20.43-55.15,24.51-67.4,4.08-12.26,5.11-52.09,8.17-112.34,3.06-60.26,10.21-116.43,13.28-137.87,3.06-21.45,20.43-69.45,19.4-76.6-1.02-7.15-23.49-19.4-26.55-26.55-3.06-7.15,4.08-50.04,7.15-79.66,3.06-29.62,6.13-42.89,20.43-70.99,14.3-28.1,34.72-44.41,53.11-63.82,18.38-19.4,24.51-38.81,35.74-57.19,11.23-18.38,9.19-46.98,14.3-67.4,5.11-20.43,23.49-19.4,39.83-30.64,16.34-11.23,25.53-43.92,38.81-59.23,13.28-15.32,45.96-16.34,60.26-19.4,14.3-3.06,19.4-29.62,29.42-42.89,10.01-13.28-.82-23.49,5.31-41.87,6.13-18.38,14.3-25.53,18.38-34.72,4.08-9.19-6.13-33.7-2.04-53.11,4.09-19.4,27.57-66.38,30.64-83.74,3.06-17.36-4.09,0-6.13-30.64-2.04-30.64,1.02-78.64-1.02-112.34-2.04-33.7,2.04-7.15-21.45-54.13-23.49-46.98-54.13-37.79-64.34-55.15-10.21-17.36-33.7-69.45-61.28-77.62-27.57-8.17-34.72-26.55-54.13-37.79-19.4-11.23-51.06-62.3-48-83.74,3.06-21.45,23.49-26.55,42.89-27.57,19.4-1.02,40.85-26.55,58.21-30.64,5.31-1.25,15.58-1.83,27.93-1.83,28.04,0,66.77,2.99,82.37,7.96,22.47,7.15,78.64,84.77,92.94,101.11,14.3,16.34,39.83,14.3,61.28,19.4,20.63,4.91,31.81,28.71,39.9,28.71.32,0,.64-.04.95-.12,8.17-2.04-17.23-62.36,0-75.57,6.35-4.87,13.54-6.76,20.95-6.76,25.35,0,53.32,22.04,59.51,22.04.73,0,1.15-.31,1.24-.99,1.02-8.17-69.45-41.87-86.81-56.17-17.36-14.3-58.21-34.72-68.43-46.98-10.21-12.26,8.17-29.62-7.15-52.09-15.32-22.47-140.94-41.87-170.55-52.09-15.76-5.44-70.28-8.85-119.08-8.85-42.89,0-81.35,2.64-85.17,8.85-8.17,13.28,27.57,70.47,21.45,87.83-6.13,17.36-93.96,82.72-123.57,93.96-13.03,4.94-20.72,6.33-26.82,6.33m1743.88-95.25c-2.04,0-3.59-.31-6.02-.31s-5.47.29-10.61,1.4c-23.49,5.11-56.17,15.62-57.19,27.21-1.02,11.6,42.38,11,49.53,14.06,6.49,2.78,20.24,10.46,29.5,10.46.94,0,1.83-.08,2.67-.25,15.29-3.14,39.83-11.74,56.17-24,16.34-12.26,50.04-33.62,70.47-33.62s40.85,16.34,60.26,45.96c15.93,24.31,31.17,32.8,58.71,32.8,6.01,0,12.61-.4,19.93-1.14,20-2,27.27-10.61,34.87-10.61,7.93,0,16.22,9.36,39.68,45.33.3.46.86.67,1.64.67,8.43,0,42.36-24.94,43.3-33.35,1.02-9.19-21.45-51.06-22.47-62.3-1.02-11.23,30.64-25.53,29.62-36.77-.91-9.97-197.23-26.37-266.42-26.37-8.78,0-15.51.26-19.54.84-35.75,5.11-17.36,13.28-71.49,35.74-29.9,12.41-37.67,14.23-42.6,14.23m-708.29,8.52c-1.25,0-2.51-.07-3.83-.27-.51-.08-1.07-.12-1.67-.12-15.1,0-58.31,23.68-76.97,25.65-1.91.2-3.92.29-6,.29-19.12,0-44.83-7.74-61.4-10.51-4.81-.8-10.45-1.18-16.18-1.18-16.2,0-33.11,3.05-33.86,8.33-1.02,7.15,35.74,49.02,48,54.13,12.26,5.11,42.89,14.3,59.23,17.36,16.34,3.06,26.55,22.47,38.81,26.55,12.26,4.08,23.49-2.04,36.77,8.17,12.55,9.66,4.11,37.57,9.19,37.57.29,0,.63-.09,1.02-.29,7.15-3.57,39.83-3.58,53.11-4.6.28-.02.57-.03.86-.03,13.45,0,37.19,22.52,49.18,23.52.38.03.76.05,1.14.05,7.34,0,15.51-5.51,26.86-5.51,7.22,0,15.73,2.24,26.13,9.55,27.28,19.2,72.57,66.4,88.36,66.4.17,0,.33,0,.49-.02,15.32-1.02,18.38-37.79,25.53-43.92,7.15-6.13,27.57-9.19,36.77-15.32,9.19-6.13,64.68-66.38,38.47-103.15-6.58-9.23-19.95-14.48-37.09-14.48-14.13,0-30.82,3.57-48.35,11.41-21.03,9.41-44.77,11.92-64.86,11.92-16.98,0-31.36-1.79-39.31-2.73-17.36-2.04-69.45-36.77-101.11-72.51-20.85-23.54-31.51-26.71-40.16-26.71-3.18,0-6.08.43-9.12.43M1489.56,26.49c-55.32,0-107.95,1.66-125.14,3.96-13.16,1.75-24.19,9.65-31.89,22.84-10.05,17.2-12.91,41.67-8.75,52.07,1.08,2.69,2.83,6.14,5.04,10.5,3.08,6.07,6.92,13.63,9.55,20.55,3.16,8.32,3.03,11.65,2.9,12.5-3.95,4.85-18.11,21-34,36.14-28.12,26.8-37.15,27.11-37.53,27.11-2.1,0-4.38-.02-6.79-.05-2.76-.03-5.61-.05-8.61-.05-22.59,0-47.89,1.72-64.27,14.46-13.72,10.67-27.74,36.23-33.14,46.73-4.15,8.08-17.7,35.64-17.7,51.04,0,11.35,8.81,55.67,17.11,91.61,5.03,21.8,9.98,41.15,14.32,55.96,7.21,24.62,11.06,31.31,13.88,34.59,6.43,7.5,19.03,11.14,38.53,11.14s46.91-4.07,54.53-9.51c2.13-1.52,4.37-3.48,6.96-5.74,7.14-6.24,17.92-15.67,34.99-22.78,5.84-2.43,11.82-3.66,17.79-3.66,10.44,0,18.74,3.69,23.7,5.9.66.29,1.26.56,1.79.79.87.37,1.8.68,2.8.91-4.36,1.52-8.89,3.26-13.35,5.37-20.24,9.59-31.44,26.55-34.25,51.85-1.19,10.69-1.52,46.53-.18,78.5.8,19.15,2.08,35.18,3.8,47.63,3.07,22.19,7.02,28.72,10.48,32.17,6.55,6.55,19.47,8.98,47.69,8.98,8.61,0,17.7-.22,26.5-.44,8.32-.21,16.18-.4,23.21-.4,9.97,0,15.29.44,18.1.86.11,5.03-.35,16.85-3.36,44.37-2.7,24.64-6.63,54.59-9.78,78.65-4.09,31.2-6.23,47.72-6.23,52.9,0,8.99,5.12,18.15,10.07,27.01,2.17,3.88,5.61,10.04,6.46,13.23-6.47,3.86-27.68,11.33-42.11,16.41-24.27,8.55-47.2,16.63-57.9,23.95-17.4,11.9-18.89,27.11-19.78,36.19-.1.99-.21,2.18-.35,3.18-4.85,1.48-15.62,3.35-24.54,4.91-25.57,4.46-57.4,10.01-76.49,21.86-22.03,13.67-28.39,28.37-33.5,40.18-2.34,5.41-4.37,10.09-7.62,13.89-7.11,8.3-13.94,12.33-20.86,12.33-2.76,0-5.6-.6-8.69-1.83-8.05-3.22-11.24-25.54-13.81-43.48-.47-3.29-.96-6.69-1.47-10.04-2.25-14.65-5.97-76.58-8.96-126.35-3.13-52.07-4.49-73.73-5.42-78.35-1.81-9.06-16.14-29.63-24.32-40.36-24.4-31.99-34.78-33.47-38.2-33.96-3.21-.46-7.09-.68-11.87-.68-7.16,0-15.2.49-22.97.97-6.73.41-13.09.8-17.9.8-1.61,0-2.95-.04-4.01-.13-2.78-.23-5.52-1.16-8.7-2.23-4.46-1.5-9.51-3.21-15.62-3.21-5.7,0-11.25,1.48-16.96,4.53-9.5,5.07-18.1,21.96-38.47,65.39-14.44,30.79-30.81,65.68-44.03,80.86-13.53,15.53-21.1,19.18-26.64,21.84-5.8,2.79-11.8,5.68-16.04,16.96-3.05,8.14-3.23,17.31-3.41,26.19-.2,9.83-.4,19.99-4.92,23.82-1.51,1.28-3.22,2.7-5.08,4.24-15.78,13.1-39.64,32.89-45.02,50.87-4.65,15.52.44,47.3,6.02,76.35.36,1.88.66,3.44.87,4.6,1.68,9.23,8.97,17.23,14.83,23.65,1.35,1.48,3.07,3.37,4.12,4.68-.2,1.03-.47,2.29-.7,3.4-2.26,10.64-6.04,28.45-.33,42.7,4.27,10.69,13.99,16.68,22.56,21.96,5.84,3.6,11.87,7.32,12.86,10.78,1.62,5.69,3.04,16.6,4.42,27.15,1.98,15.22,3.85,29.59,7.1,38.03,2.59,6.73,7.13,12.26,11.95,18.11,6.69,8.13,13.6,16.55,17.37,30.01,3.82,13.64,5.95,23.45,6.7,30.87.95,9.4-.65,12.08-.99,12.52-1.01,1.35-2.03,2.62-3.02,3.86-4.94,6.18-10.05,12.57-13.06,26.6-2.99,13.95,7.62,22.69,14.64,28.48,2.25,1.85,5.98,4.93,6.64,6.38.06.63.11,1.26.16,1.89.51,6.02,1.04,12.24,3.88,17.98,3.74,7.58,10.41,12.1,19.8,13.44.88.13,1.81.19,2.76.19,11.15,0,27.53-9.1,49.45-21.95,5.7-3.34,13.04-7.65,17.35-9.75,1.69,4.11,5.5,12.21,15.6,12.21,2.55,0,5.71-.23,9.36-.49,1.69-.12,3.47-.25,5.25-.36-8.77,8.97-21.75,21.01-29.33,28.04-6.59,6.12-12.29,11.4-15.85,14.96-9.78,9.78-11.52,22.99-12.79,32.64-.42,3.23-1.05,8.02-1.84,9.61-1.91,1.37-4.83,3.1-7.92,4.92-9.74,5.75-23.08,13.62-31.62,25.58-4.18,5.85-6.58,10.73-8.52,14.66-3.09,6.27-4.96,10.05-12.75,15.77-7.51,5.51-23.23,21.25-41.44,39.49-19.09,19.12-42.86,42.91-50.88,47.93-8.13,5.08-28.18,16.93-47.27,27.37-31.13,17.01-40.23,19.66-42.24,20.07-.69-.83-1.78-2.71-2.6-4.13-3.61-6.25-9.07-15.7-22.7-20.73-7.88-2.9-31.64-4.7-125.63-4.7-11.6,0-23.14.02-34.17.04-10.1.02-19.77.04-28.69.04-10.04,0-39.05,0-46.98-.62-.6-.79-1.42-2.02-2.11-3.06-5.74-8.61-16.42-24.62-49.7-35.72-17.59-5.86-31.45-8.71-42.36-8.71-5.08,0-8.62.59-11.21,1.02-.5.08-1.03.17-1.48.24-2.53-3.99-6.31-8.54-16.91-12.77-13.85-5.54-39.69-8.6-60.65-10.65-.87-.09-1.65-.16-2.32-.23-1.66-.17-5.46-2.23-8.81-4.06-8.79-4.79-20.84-11.36-37.85-11.36-.91,0-1.83.02-2.75.06-11.13.46-21.62,8.85-33.01,26.4-8.25,12.71-15.48,27.83-21.29,39.98-1.99,4.16-4.29,8.98-6.03,12.31-4.96-2.04-12.9-6.14-18.17-8.86-16.43-8.48-26.89-13.67-34.45-13.67-11.48,0-22.78,9.73-32.76,18.32-3.15,2.71-6.41,5.52-8.28,6.69l-.23.14c-11.37,7.11-35.03,21.89-31.91,40.62.6,3.6,1.13,8.45,1.69,13.58,1.7,15.67,3.09,26.4,6.65,32.63,2.28,3.99,7.28,10.21,12.58,16.79,3.5,4.34,8.68,10.79,10.09,13.14.96,3.78,3.55,13.76,6.39,23.75,6.65,23.42,8.99,26.92,10.11,28.6,4.73,7.1,42.16,49.66,52.22,57.5,9.45,7.35,37.67,25.25,46.12,28.87,1.99.85,7.38,4.08,12.14,6.92,16.65,9.95,24.58,14.32,30.61,14.32,1.36,0,3.92.15,6.63.31,4.59.27,10.3.6,15.92.6,5.09,0,9.28-.28,12.73-.85,2.3.56,10.01,3.07,34.83,14.24,18.58,8.36,41.26,19.06,63.19,29.41,48.86,23.05,71.03,33.3,78.19,34.74,6.92,1.38,14.23,1.65,21.29,1.9,9.43.34,18.34.66,24.48,3.5,8.45,3.9,21.63,9.81,33.25,14.69,23.59,9.91,29,10.74,32.21,10.74,1.29,0,5.5.2,10.38.43,11.7.55,29.38,1.39,44.16,1.39,18.03,0,23.66-1.28,26.79-2.53,10.57-4.23,13.03-14.89,14.82-22.68.57-2.47,1.52-6.58,2.35-7.68,6.18-5.25,29.76-20.08,46.24-26.87,6.04-2.49,41.94-10.65,91.56-19.99,49.51-9.33,89.13-15.35,100.94-15.35.71,0,1.14.02,1.36.04,7.92,2.41,22.84,6.33,37.28,10.11,10.71,2.81,20.83,5.46,26.83,7.18,6.21,1.77,16.63,2.67,30.98,2.67,18.3,0,38.74-1.53,47.54-3.57,3.45-.8,7.36-1.7,42.84-33.89,19.95-18.11,44.76-41.42,68.75-63.96,21.78-20.47,47.18-44.34,63.23-58.72-.51,3.06-.56,5.92.21,8.63,1.99,6.96,12.1,18.31,17.95,24.45,10.8,11.35,19.21,17.83,24.99,19.27,6.14,1.53,25.13,4.54,41.22,4.54,9.09,0,15.95-.94,20.96-2.87,11.64-4.48,15.03-10.02,17.5-15.32.56-1.2.81-1.71,1.15-2.1.7-.34,2.55-.8,3.93-1.14,5.88-1.46,14.77-3.67,22.42-13.03,6.42-7.85,20.05-38.11,27.6-55.45,2.01-4.61,19.66-45.32,21.48-55.31.75-4.11,2.24-25.01,5.26-68.1,2.45-34.9,5.5-78.34,8.42-114.17,4.5-55.19,6.6-66.15,7.31-68.3,6.84-18.31,17.98-92.49,17.98-105.6,0-11.3-9.65-22.25-21.3-34.37-1.37-1.43-3.09-3.21-4.24-4.49.9-14.88,10.6-79.95,19.91-94.69,3.94-6.24,18.16-23.32,33.21-41.4,14.93-17.94,31.86-38.27,45.21-55.63,20.43-26.56,24.86-36.21,25.23-42.53.47-8.05.32-16.68.19-24.3-.06-3.63-.14-8.09-.08-11.42.33-.02.65-.04.95-.06,7.59-.46,17.98-1.09,23.65-9.03,2.42-3.39,6.99-12.29,14.86-27.72,8.21-16.09,19.45-38.13,23.62-43.34,2.36-2.95,12-4.68,19.04-5.95,8.26-1.49,16.81-3.02,23.85-6.81,11.18-6.02,37.61-37.17,45.45-46.57,9.13-10.96,17.51-21.71,23.59-30.26,10.23-14.39,12.16-19.9,12.7-23.39,1.93-12.56-5.03-22.14-9.2-27.86-.35-.48-.76-1.04-1.13-1.57,1.43-2.52,3.97-6.37,5.81-9.15,5.11-7.73,10.39-15.73,12.38-22.36,1.86-6.19,1.29-16.08.14-31.64-.57-7.7-1.51-20.45-.71-24.05,3.18-6.08,11.57-28.47,17.81-46.56,9.85-28.53,14.85-46.98,14.85-54.84,0-8.95-2.45-14.39-8.12-17.83-.03-.41-.05-.93-.05-1.58,0-3.54.51-13.46,1.15-26.03,2.82-55.21,5.18-110.48.51-126.85-7.3-25.55-19.67-52.25-33.08-71.41-10.75-15.36-31.38-28.43-47.95-38.93-6.75-4.27-13.12-8.31-15.85-10.77-3.14-2.82-11.74-16.36-18.65-27.23-13.53-21.27-28.86-45.39-41.13-54.94-13.78-10.72-27.27-11.96-36.22-11.96-1.54,0-2.96.04-4.2.07-.98.03-1.83.05-2.56.05-.41,0-.7,0-.89-.02-2.84-1.29-10.09-5.26-15.99-8.49-6.23-3.41-12.66-6.94-17.38-9.29-5.44-2.72-10.38-10.92-11.62-15.43,8.98-7.02,46.25-25.1,74.94-25.1,1.7,0,3.35.07,4.89.2,30.46,2.61,67.26,49.14,76.77,67.21,12.53,23.81,51.78,42.02,61.6,45.59,5.67,2.06,14.24,3.45,24.17,5.05,10.8,1.74,24.24,3.91,29.92,6.75,10.15,5.07,25.33,19.98,33.85,33.23,9.07,14.1,32.53,33.64,53,33.64,4.13,0,8-.78,11.51-2.31,11.98-5.24,23.06-19.69,29.43-31.47,5.33-9.85,13.41-28.74,7.61-44.47-1.8-4.89-3.81-9.75-5.76-14.45-2.12-5.12-5.24-12.65-6.76-17.89,2.42.61,5.2,1.4,7.8,2.13,10.66,3.01,23.92,6.76,36.59,6.76,10.73,0,19.58-2.76,26.31-8.21,20.01-16.2,17.64-33.55,16.22-43.92-.23-1.66-.53-3.84-.53-5.03,2.25-3.4,11.69-13.21,27.54-26.45,13.55-11.32,23.8-18.47,28.83-21.31,1.48,1.86,3.93,5.39,7.57,11.95,4.29,7.73,8.69,16.82,12.57,24.84,3.31,6.84,6.17,12.74,8.27,16.34,5.61,9.61,20.72,20.03,29.23,25.38,8.49,5.34,24.13,14.3,33.54,14.3,14.7,0,33.88,1.78,40.46,5.07,3.76,1.88,10.79,7.63,17,12.71,8.59,7.03,16.73,13.68,23.4,16.73.97,1.66,2.37,5.74,3.42,8.8,4.92,14.3,13.15,38.24,41.39,47.12,6.81,2.14,13,3.18,18.93,3.18,13.17,0,22.02-5.37,28.48-9.29,4.79-2.91,7.65-4.55,10.79-4.55,1.03,0,2.12.17,3.33.52,9.29,2.66,15.77,5.9,22.04,9.04,7.52,3.77,14.62,7.33,24.32,8.62,1.93.26,3.94.39,5.96.39,7.03,0,13.43-1.57,18.58-2.83,3.35-.82,6.51-1.59,8.49-1.59.25,0,.43.01.55.03,1.62,1.18,5.9,4.91,9.71,8.23,24.81,21.65,76.43,66.69,119.59,66.69,2.43,0,4.84-.14,7.16-.43,17.93-2.2,32.19-8.94,42.39-20.06,8.62-9.4,12.77-20.07,15.79-27.87,1.08-2.78,2.53-6.51,3.43-7.83,1.09-.59,2.82-1.38,4.64-2.21,7.71-3.53,20.62-9.44,34.51-21.69,16.45-14.5,30.23-34.37,40.98-59.04,19.71-45.25,16.31-63.68,14.48-73.58-.02-.1-.04-.2-.06-.3,4.7-2.13,17.16-6.51,42.17-12.85,22.11-5.61,45.91-10.65,59.22-12.55,17.68-2.53,29.04-10.53,37.34-16.38,4.67-3.29,8.71-6.14,11.33-6.14.19,0,.39.01.59.04,6.78.97,17.81,6.48,28.48,11.8,8.35,4.17,16.98,8.48,24.75,11.22,7.09,2.5,14.89,4.46,22.44,6.36,10.54,2.65,21.43,5.39,26.22,8.74,9.02,6.31,23.53,7.18,37.87,7.18,3.92,0,7.94-.07,11.83-.14,3.9-.07,7.58-.13,11.19-.13,11.7,0,34.27-8.57,70.05-22.69,23.05-9.09,49.18-19.4,58.52-20.25.16-.01.32-.02.49-.02,6.57,0,15.18,12.94,22.1,23.33,8.54,12.83,16.61,24.95,28.2,29.22,6.26,2.31,15.64,3.25,32.38,3.25,5.46,0,11.33-.1,17.01-.19,5.82-.09,11.84-.19,17.55-.19,10.08,0,17.42.31,23.12.98,7.49.88,9.98,2.16,10.52,2.49,2.39,3.06,5.13,8.15,8.03,13.53,8.85,16.46,20.98,38.99,43.52,39.97.37.02.74.02,1.11.02,8.14,0,18.63-3.83,32.08-11.71,10.54-6.18,22.7-14.77,35.18-24.85,4.36-3.52,42.73-34.84,48.69-51.23,4.67-12.85-1.9-28.55-8.26-43.73-3.99-9.53-8.51-20.32-8.02-26.26.77-9.2,20.07-31.75,29.35-42.59,7.89-9.22,12.1-14.21,14.05-18.11,1.76-3.52,3.15-9.44-.26-17.66-4.59-11.09-17.2-23.68-26.97-26.94-5.14-1.71-49.75-10.02-109.16-17.65-54.53-7.01-136.39-15.36-216.71-15.36-29.77,0-57.57,1.16-82.62,3.43-.11.01-.22.02-.33.04-12.83,1.6-22.21,4.18-26.28,11.52-3.68,6.64-.77,12.93.8,16.31.01.03.03.06.04.09-9.08,5.09-42.71,19.96-89.53,38.78-53.19,21.38-87.95,33.6-93.91,34.33-10.46.08-22.08,5.36-36.76,12.02-8.33,3.78-17.77,8.06-27.6,11.53-14.03,4.95-26.87,5.95-38.2,6.83-8.66.67-16.83,1.31-24.24,3.61-6.96,2.16-13.93,6.48-21.31,11.06-10.72,6.64-22.86,14.17-35.78,15.24-.87.07-1.73.11-2.57.11-7.54,0-13.11-2.95-20.15-6.69-8.79-4.66-18.74-9.94-33.77-9.94-1.54,0-3.1.06-4.67.17-13.92.99-34.73,6.61-56.76,12.57-24.23,6.54-51.69,13.96-67.12,13.96-1.61,0-6.71-.99-19.24-10.17-9.8-7.18-21.47-17.33-33.82-28.08-17.46-15.19-37.25-32.42-57.27-46.04-23.96-16.31-44.45-24.81-62.64-25.98-4.6-.3-9.03-.45-13.16-.45-32.91,0-45.68,9.41-55.95,16.97-6.06,4.47-10.07,7.42-18.04,7.99-4.19.3-10.76.44-20.68.44-6.36,0-13.57-.05-21.2-.11-9.01-.07-18.34-.14-28.04-.14-54.88,0-84.42,2.62-98.75,8.77-14.4,6.17-30.6,20.8-47.75,36.3-9.37,8.47-19.06,17.22-27.45,23.46-10.77,8.01-15.38,8.88-16.86,8.88-1.14-.02-12.61-1.25-61.52-38.18-26.17-19.76-48.86-39.05-53.62-43.57-.29-1.78-.29-5.63-.28-8.54.02-11.18.05-26.48-9.01-40.07-2.81-4.21-9.31-10.48-34.95-21.68-16.04-7.01-37-14.83-60.62-22.61-49.38-16.27-98.9-28.67-126.15-31.59-31.87-3.41-86.5-3.92-116.23-3.92h0Zm-89.48,72.26c6.97-2.13,28.91-5.16,76.37-5.16,50.6,0,102.55,3.72,115.82,8.3,9.57,3.3,27.88,7.35,49.08,12.03,24.2,5.35,51.63,11.41,74.63,18.13,34.18,9.99,40.67,16.38,41.84,18.1,6.22,9.13,4.92,16.65,3.42,25.36-1.42,8.24-3.19,18.49,4.31,27.49,6.79,8.15,22.48,17.78,39.09,27.98,11.6,7.12,23.59,14.49,30.66,20.31,5.7,4.69,15.84,10.85,27.59,17.62-8.34.79-15.79,3.67-22.21,8.59-15.31,11.74-9.7,39.53-5.12,61.94-6.86-6.78-15.67-13.98-27.33-16.76-6.46-1.54-13.1-2.45-19.52-3.34-14.76-2.03-28.7-3.95-36.54-12.92-3.06-3.5-8.55-10.47-14.91-18.55-11.24-14.27-26.62-33.83-41.23-50.28-18.88-21.27-31.61-32.13-41.29-35.21-17.2-5.47-56.84-8.43-85.4-8.43-14.14,0-24.31.7-30.22,2.1-9.65,2.27-18.86,8.82-28.61,15.76-9.37,6.66-19.98,14.21-27.83,14.63-13.21.7-23.56,3.06-31.64,7.23-11.65,6.02-18.79,16.02-20.63,28.92-2.37,16.58,9.55,39.82,16.86,52.2,9.01,15.25,23.21,34.19,36.02,41.61,6.49,3.76,11.63,8.67,17.07,13.87,9.39,8.98,20.04,19.17,39.23,24.85,19.09,5.66,38.74,42.21,49.3,61.85,2.38,4.43,4.44,8.25,6.2,11.25,5.49,9.33,14.51,13.12,23.24,16.78,12.98,5.44,27.69,11.61,40.78,37.78,9.82,19.64,15.13,27.07,17.98,31.07.54.76,1.16,1.62,1.36,1.98.21.92.37,4.04.55,7.64.12,2.51.28,5.63.52,9.58,1,16.55.74,37.03.49,56.83-.26,20.53-.51,39.92.53,55.57.99,14.79,3.22,21.18,6.71,25.39-.09.68-.23,1.61-.45,2.85-1.36,7.7-8.37,24.62-14.55,39.55-7.1,17.16-13.82,33.37-16.03,43.87-2.55,12.13-.46,25.29,1.23,35.87.83,5.21,2.08,13.07,1.43,15.32-1.16,2.57-2.93,5.26-4.98,8.36-4.19,6.35-9.41,14.26-13.72,27.18-3.5,10.5-2.58,18.79-1.83,25.45.79,7.09.92,9.73-1.97,13.57-4.21,5.58-7.43,12.59-10.54,19.36-3.66,7.95-8.66,18.85-12.98,19.77-2.74.59-6.45,1.12-10.74,1.74-17.78,2.56-42.12,6.06-54.98,20.9-6.33,7.3-11.57,17.52-16.64,27.4-6.31,12.3-12.83,25.02-20.28,30.14-4.51,3.1-9.52,5.23-14.37,7.29-11.65,4.96-24.85,10.57-29.5,29.16-2,7.98-2.97,16.94-3.92,25.61-1.56,14.32-3.17,29.12-9.21,39.01-3.73,6.1-6.91,12.29-9.99,18.27-6.61,12.85-12.86,24.99-24.48,37.25-3.99,4.21-8.2,8.4-12.28,12.45-15.06,14.97-30.64,30.44-42.48,53.71-14.88,29.24-18.26,43.56-21.46,74.5-.9,8.69-2.18,18.71-3.41,28.41-4.5,35.34-5.93,49.34-2.98,56.22,2.42,5.65,8.57,10.5,15.69,16.12,3.08,2.43,7.97,6.29,9.94,8.52-.83,4.99-4.64,17.89-7.5,27.58-4.7,15.94-10.04,34.01-11.69,45.57-1.64,11.45-9.97,71.95-13.36,138.78-.61,11.93-1.14,23.29-1.62,33.31-1.79,37.91-3.21,67.85-6.05,76.37-4.83,14.49-21.24,60.47-23.92,65.99-.65.55-2.97,1.41-4.52,1.98-2.76,1.02-6.21,2.29-9.49,4.48-5.03,3.35-6.57,8.71-7.69,12.62-.15.53-.34,1.17-.53,1.77-.68-.19-1.59-.49-2.78-.99-4.51-1.9-5.09-6.42-4.55-19.06.39-9,.78-18.31-4.52-25.6-6.6-9.07-22.43-17.69-27.13-20.11-7.93-4.09-23.15-10.96-36.03-10.96-4.46,0-8.4.83-11.69,2.48-6.95,3.47-28.88,23.97-81.04,73.46-23.98,22.75-48.79,46.28-69.34,65.1-30.26,27.69-37.92,32.8-39.82,33.7-5.11,1.97-11.68,2.97-19.52,2.97-10.27,0-20.83-1.7-28.55-2.95-1.39-.22-2.7-.43-3.9-.62-5.37-.83-12.02-3.29-19.06-5.91-8.34-3.1-17.78-6.6-27.7-8.35-1.53-.27-3.37-.4-5.79-.4-33.42,0-187.91,25.22-240.13,42.63-38.4,12.8-54.79,33.94-64.58,46.57-2.45,3.16-5.47,7.06-6.98,8.09-7.77-.16-32.28-9.09-50.23-15.62-12.65-4.6-24.59-8.95-33.61-11.58-7.41-2.16-13.79-3.17-20.08-3.17-2.45,0-4.65.14-6.59.27-1.69.11-3.29.22-4.89.22-3.55,0-8.42-.49-17.58-4.16-11.18-4.47-45-19.33-80.81-35.07-46.43-20.4-94.44-41.5-108.33-46.71-8.53-3.2-15.79-3.38-22.2-3.53-13.79-.33-28.06-.68-63.98-37.96-20.22-20.98-30.05-29.73-35.04-33.56-.14-.47-.29-.96-.46-1.47-1.62-4.87-1.98-9.37-2.36-14.13-.67-8.46-1.43-18.05-9.66-27.92-3.74-4.49-8.53-8.09-13.17-11.58-2.85-2.15-7.41-5.57-8.93-7.61.3-.38.8-.92,1.59-1.61,1.75-1.53,3.11-1.84,4.61-1.84,4.17,0,10.44,2.68,17.7,5.78,11.78,5.04,26.45,11.31,45.92,12.8,1.13.09,2.26.13,3.35.13,13.81,0,24.7-6.7,32.37-19.91,5.81-10.02,8.95-22.12,11.99-33.82,2.66-10.24,5.96-22.97,9.98-25.88,1-.72,2.56-1.09,4.62-1.09,10.07,0,26.94,8.26,43.26,16.24,14.12,6.91,28.73,14.06,42.58,18.02,17.36,4.96,28.55,6.03,37.55,6.9,9.68.93,15.52,1.49,24.72,6.55,5.91,3.25,6.24,4.74,6.95,8,1.6,7.26,4.43,14.88,19.61,21.09,5.5,2.25,16.55,4.33,59.86,4.33,21.19,0,46.07-.49,70.12-.95,23.94-.47,46.54-.91,65.68-.91,28.9,0,39.05,1.1,42.46,2.02,8.02,2.16,12.71,6.57,18.64,12.15,9.45,8.89,21.21,19.96,47.82,19.96,1.63,0,3.33-.04,5.04-.12,11.88-.57,29.57-8.19,55.66-23.98,20.11-12.18,44.5-28.86,72.5-49.59,47.63-35.26,95.46-74.88,106.19-85.6,10.9-10.9,16.11-20.61,19.92-27.7,3.44-6.41,5.25-9.58,8.69-11.59,9.36-5.46,37.84-22.07,44.43-45.79,4.17-15.02,14.1-29.59,35.39-51.95,23.01-24.15,32.95-57.7,24.76-83.46-2.95-9.28-8.44-16.09-16.78-20.82-6.65-3.77-14.21-5.67-21.52-7.51-6.41-1.61-13.05-3.28-18.84-6.18-6.03-3.01-10.69-6.31-14.81-9.22-7.14-5.05-13.89-9.82-23.42-9.82-3.73,0-7.54.74-11.63,2.28-6.79,2.55-14.07,8.39-22.49,15.16-5.23,4.2-10.63,8.54-15.55,11.69-5.87,3.76-8.54,4.19-9.34,4.22-.12-.15-.29-.4-.51-.81-.67-1.28-1.14-2.29-1.47-3.07,4.74-3.05,12.16-8.8,12.82-24.56.06-1.35.11-2.66.17-3.93.97-22.57,1.5-35-6.8-59.9-4.12-12.37-9.27-21.04-14.26-29.43-5.51-9.28-11.21-18.88-16.35-34.81-4.15-12.88-2.8-21.14-1.37-29.89,1.7-10.41,3.64-22.21-5.73-37.6-9.76-16.03-21.63-17.68-28.73-18.67-1.32-.18-3.09-.43-3.81-.69-.17-.3-.56-1.14-.92-2.93-1.61-8.03.05-14.04,1.97-20.99,2.17-7.86,4.63-16.76,2.07-28.24-2.38-10.71-10.62-20.58-18.59-30.12-7.14-8.55-15.23-18.23-14.89-24.34.05-.88.06-1.11,1.29-1.88,2.32-1.44,6.48-2.65,10.89-3.93,10.47-3.04,24.81-7.21,34.81-20.34,10.75-14.12,9.69-27.98,8.83-39.13-.75-9.72-.96-15.49,3.36-21.05,5.54-7.12,12.1-11.18,19.05-15.49,8.76-5.43,18.7-11.58,24.89-23.97,2.37-4.74,6.92-14.49,12.69-26.83,8.42-18.04,18.91-40.49,28.41-59.82,14.56-29.64,18.95-35.83,20.04-37.08,1.28-1.01,5.62-2.77,13.82-2.77,9.13,0,16.5,2.17,18.81,3.71,2.4,1.6,4.96,3.01,7.43,4.36,8.74,4.8,12.95,7.68,13.75,13.24.73,5.14,2.53,32.54,4.62,64.26,3.5,53.29,8.29,126.27,12.7,167.23,6.93,64.35,7.34,68.21,22.67,81.09l1.24,1.04c3.39,2.87,10.32,6.69,31.18,6.69,28.82,0,88.85-8.57,105.92-25.64,10.1-10.1,15.89-21.7,20.55-31.01,3.76-7.54,7.02-14.04,11.06-17.08,4.51-3.38,6.34-6.16,7.63-8.5,5.23-2.56,29.32-8.05,38.64-10.18,21.55-4.91,34.79-5.45,44.46-5.84,18.01-.73,26.62-1.91,42-22.42,10.23-13.64,9.08-24.07,8.39-30.3-.12-1.12-.29-2.62-.24-3.25.34-.4,1.86-1.92,7.23-4.31,6.27-2.79,15.85-5.91,29.28-9.56,64.71-17.57,71.46-25.12,78.62-38.03.58-1.05,1.13-2.04,1.75-3.02,6.88-10.81.11-28.25-7.72-48.45-3.6-9.27-8.07-20.81-8.07-25.35,0-2.55,1.66-14.79,3.41-27.75,3.95-29.14,9.91-73.18,12.55-114.18,4.45-69.05-3.36-88.84-9.63-97.71-8.51-12.06-22.29-18.17-40.94-18.17-14.04,0-29.32,3.33-42.8,6.27-10.77,2.35-20.94,4.56-28.02,4.56-4.43,0-5.62-.89-5.67-.92-4.29-3.33-9.3-18.33-10.19-43.36-.8-22.75,2.15-40.06,4.18-44.21,1.97-1.4,8.72-3.45,13.26-4.83,12.19-3.71,27.36-8.32,39.65-18.96,14.98-12.97,21.44-31.57,19.22-55.3-2.24-23.92-6.86-38.45-14.96-47.11-8.59-9.18-19.04-9.94-29-9.94-.85,0-1.71,0-2.57.01-.85,0-1.7.01-2.57.01-4.64,0-10.02-.13-15.21-1.67-6.33-1.88-13.32-4.32-20.71-6.92-18.75-6.57-38.14-13.37-53.74-13.37-6.64,0-12.14,1.2-16.81,3.67-10.26,5.43-13.7,10.08-16.02,14.02-.33.08-.78.17-1.37.27-.67.11-1.31.17-1.95.17-2.19,0-4.14-.69-6.4-1.48-2.65-.93-5.66-1.98-9.24-1.98-4.3,0-8.26,1.53-11.78,4.55-5.09,4.37-6.85,10.65-8.4,16.19-.61,2.17-1.59,5.69-2.44,6.93h-.01c-2.11,0-3.9.17-5.37.32-2.51-7.39-5.62-29.5-7.19-40.73-3.22-22.91-5.84-36.95-7.58-46.23-2.68-14.3-3.23-17.27-1.63-27.41.46-2.92.85-5.9,1.23-8.79,1.02-7.75,2.07-15.76,4.32-20.91,1.93-4.41,3.71-4.76,6.02-4.76,4.72,0,8.13.54,11.74,1.12,3.48.55,7.09,1.13,11.48,1.13,8.28,0,17.65-2.15,30.37-6.98,17.79-6.75,50.48-29.02,73.07-46.05,14.03-10.58,26.48-20.76,35.98-29.46,15.41-14.1,19-20.48,20.41-24.48,3.99-11.32-1.66-27.19-11.44-52-3.26-8.26-6.33-16.06-8.39-22.78-1.63-5.3-2.12-8.38-2.24-10.07h0Zm1606.13,96.55c6.99,0,15.72-2.24,46.43-14.99,27.83-11.55,37.59-19.63,44.72-25.54,6.08-5.03,8.86-7.33,24.35-9.55,2.36-.34,7.42-.74,18.13-.74h0c31.26,0,91.1,3.45,148.9,8.59,58.79,5.23,89.47,9.78,103,12.7-2.27,2.09-4.87,4.26-6.7,5.78-9.51,7.93-19.35,16.13-18.37,26.97.59,6.51,4.82,16.55,11.67,32.4,3.66,8.46,9.59,22.19,10.64,27.33-1.6,2.22-6.41,7.28-15.28,13.92-6.03,4.51-11.26,7.71-14.73,9.5-10.63-16.13-17.43-25.54-22.94-31.83-5.46-6.22-12.28-12.58-21.53-12.58-5.36,0-9.73,2.06-14.36,4.25-5.36,2.53-11.43,5.4-21.51,6.41-7.31.73-13.5,1.09-18.93,1.09-24.09,0-36.32-6.87-50.35-28.28-21.95-33.49-45.03-50.48-68.62-50.48-27.58,0-68.54,29.67-76.47,35.62-14.49,10.87-37.21,19.13-52.18,22.2-.05.01-.25.05-.66.05-5.09,0-14.64-4.54-20.35-7.25-1.98-.94-3.7-1.76-5.22-2.41-3.42-1.47-8.33-2.04-17.41-3-5.72-.61-12.21-1.29-17.79-2.33-1.88-.35-3.43-.7-4.68-1.03,2.53-1.66,6.64-3.88,13.25-6.46,12.19-4.76,25.58-7.99,32.48-9.49,3.64-.79,6.41-1.18,8.48-1.18.86,0,1.6.06,2.46.13,1.02.08,2.18.18,3.56.18h0Zm-708.29,8.52c1.86,0,3.54-.12,5.16-.24,1.39-.1,2.7-.19,3.95-.19,3.9,0,12,0,32.67,23.34,14.95,16.87,35.96,35.26,57.67,50.46,10.07,7.05,35.07,23.63,49.76,25.36l1.09.13c8.44,1,22.58,2.67,39.39,2.67,26.77,0,49.97-4.3,68.94-12.79,15.41-6.9,30.72-10.54,44.27-10.54,13.54,0,24.36,3.84,28.95,10.28,4.76,6.67,6.18,14.82,4.36,24.9-5.33,29.46-35.76,61.11-40.23,64.12-3.22,2.15-9.82,4.26-15.65,6.13-8.64,2.77-16.8,5.39-22.07,9.91-4.79,4.1-7.13,11.36-10.09,20.54-1.72,5.33-3.5,10.83-5.63,15.21-2.06,4.23-3.52,5.44-3.96,5.72-1.15-.25-5.62-1.72-17.04-10.41-9.01-6.85-19.63-16.08-29.9-25-12.36-10.73-25.13-21.83-35.49-29.12-10.87-7.65-21.3-11.37-31.88-11.37-7.84,0-14.24,2.04-19.38,3.67-2.96.95-5.77,1.84-7.48,1.84-.11,0-.21,0-.31-.01-3.17-.26-11.97-5.83-17.79-9.52-11.4-7.22-22.17-14.04-32.23-14.04-.55,0-1.1.02-1.63.06-3.53.27-8.79.48-14.35.7-13.09.52-23.29,1-30.8,2,.1-10.56-.49-25.02-11.3-33.33-10.81-8.31-20.82-8.45-28.87-8.55-4.08-.05-7.59-.1-10.83-1.18-3.25-1.08-7.64-5.25-11.88-9.28-7.2-6.84-16.16-15.35-28.24-17.61-15.92-2.98-45.74-11.97-57.23-16.76-2.44-1.02-10.89-7.7-23.21-21.31-7.48-8.27-12.89-15.27-15.97-19.82,4.55-1.07,11.87-2.09,21.19-2.09,5.4,0,10.43.36,14.53,1.05,5.02.84,11.14,2.2,17.62,3.65,14.67,3.28,31.31,6.99,45.43,6.99,2.48,0,4.85-.12,7.05-.35,10.56-1.11,25.65-7.31,41.62-13.86,12.06-4.95,28.57-11.73,34.3-11.73.13,0,.19,0,.19,0,1.67.26,3.42.39,5.31.39h0Z"/></clipPath></defs><g id="trail"><g id="difficulty"><g class="cls-2"><g id="hard"><path class="cls-3" d="m1130.52,888.66c8.52-16.91,12.6-31.16,13.58-50.17.45-8.73-1.47-17.76-2.84-26.25-.52-3.22-1.25-6.35-2.36-9.42-2.92-8.07-6.15-16.33-10.31-23.86-2.83-5.13-6.65-9.62-10.22-14.24-9.26-11.99-19.01-21.11-32.16-29.39-7.08-4.45-15.32-7.35-23.01-10.35-3.02-1.18-6.02-2.06-9.21-2.61-8.03-1.39-17.2-3.28-25.71-2.85-7.34.38-14.94,1.6-22.16,2.87-1.91.34-3.81.72-5.67,1.27-15.94,4.65-28.43,11.87-41.22,21.75-4.91,3.79-9.74,7.36-14.03,11.83-6.43,6.69-12.22,14.75-17.6,22-14.06,18.96-21.57,41.96-30.6,63.5l7-16.59c-5.1,12.06-10.68,23.9-18.71,34.32,3.62-4.69,7.24-9.37,10.86-14.06-4.47,5.57-9.53,10.41-15.14,14.82,4.69-3.62,9.37-7.24,14.06-10.86-12.7,9.69-27.07,16.78-40.2,25.81-17.25,11.86-34.07,25.28-47.33,41.62-17.11,21.09-31.76,42.39-40.34,68.47-7.7,23.4-4.63,49.54,6.93,71.04,6.26,11.64,16.01,20.03,24.03,30.16l-10.86-14.06c1.48,2.05,2.67,4.14,3.67,6.46-2.33-5.53-4.67-11.06-7-16.59.85,2.29,1.43,4.56,1.8,6.97l-2.48-18.46c.31,2.94.29,5.8-.01,8.75l2.48-18.46c-.71,5.14-2.2,10-4.21,14.78l7-16.59c-3.04,6.8-6.94,13.05-11.48,18.95l10.86-14.06c-7.96,10.14-16.12,20.12-23.78,30.49-7.85,10.62-12.64,21.7-17.52,34.14-1.31,3.35-2.39,6.65-3.06,10.19-1.66,8.75-3.54,18.42-2.98,27.45,1.22,19.51,4.6,31.49,12.97,48.89,7.42,15.43,19.75,28.89,32.29,40.47,9.33,8.61,19.17,16.75,27.03,26.79l-10.86-14.06c4.42,5.84,7.9,12.18,10.78,18.91-2.33-5.53-4.67-11.06-7-16.59,6.3,15.22,9.4,31.42,13.72,47.26,3.55,13.02,8.61,25.18,14.02,37.58s13.9,23.13,22.69,34.05c6.29,6.77,13.74,11.56,22.35,14.36,8.28,4.35,17.2,6.34,26.76,5.98,17.03,0,37.38-7.57,49.11-20.34,12.15-13.24,21.17-30.61,20.34-49.11l-2.48-18.46c-3.3-11.77-9.25-21.98-17.86-30.65l-.92-1.15c3.62,4.69,7.24,9.37,10.86,14.06-4.48-5.81-8-12.12-10.91-18.85l7,16.59c-5.17-12.39-8.2-25.46-11.47-38.44-4.66-18.53-10.82-36.67-19.69-53.68-5.44-10.44-13.18-19.85-20.73-28.77-3.95-4.66-8.35-8.93-12.84-13.07-9.04-8.35-18.62-16.23-26.29-25.93l10.86,14.06c-2.79-3.66-5.2-7.48-7.09-11.67l7,16.59c-1.45-3.47-2.45-7-2.99-10.72l2.48,18.46c-.38-3.38-.37-6.66.02-10.04l-2.48,18.46c.62-4.06,1.75-7.89,3.3-11.7l-7,16.59c3.43-7.79,8.28-14.71,13.46-21.42l-10.86,14.06c8.7-11.13,18.16-21.79,25.85-33.65,2.32-3.59,4.37-7.32,6.15-11.21,3.98-8.7,8.63-18.12,10.77-27.65,1.68-7.48,2.53-15.32,3.26-22.91.19-1.95.33-3.9.25-5.86-.3-7.52-1.48-15.42-2.94-22.77-.38-1.91-.92-3.72-1.58-5.55-5.78-15.98-11.87-25.81-22.95-38.85-2.76-3.25-5.9-6.12-8.62-9.41l10.86,14.06c-1.2-1.58-2.23-3.17-3.13-4.95,2.33,5.53,4.67,11.06,7,16.59-.63-1.52-1.05-2.93-1.4-4.54l2.48,18.46c-.28-2.21-.29-4.27-.07-6.49l-2.48,18.46c.53-3.37,1.49-6.51,2.73-9.68l-7,16.59c4.89-11.5,11.67-22.22,19.27-32.1l-10.86,14.06c8.39-10.67,17.99-20.22,28.72-28.53l-14.06,10.86c9.2-6.98,19.17-12.72,29.03-18.71,14.28-8.67,28.54-18.48,40.42-30.23,24.96-24.69,36.14-55.96,49.43-87.55l-7,16.59c4.83-11.37,10.25-22.34,17.71-32.24l-10.86,14.06c3.94-5.07,8.29-9.7,13.29-13.74-4.69,3.62-9.37,7.24-14.06,10.86,3.81-2.94,7.82-5.41,12.22-7.38-5.53,2.33-11.06,4.67-16.59,7,3.97-1.64,8.03-2.78,12.29-3.38l-18.46,2.48c2.87-.3,5.65-.3,8.52,0l-18.46-2.48c3.6.49,7.03,1.42,10.4,2.77l-16.59-7c3.74,1.63,7.16,3.68,10.41,6.15l-14.06-10.86c3.22,2.59,6.09,5.47,8.69,8.69l-10.86-14.06c2.78,3.62,5.1,7.46,6.96,11.63-2.33-5.53-4.67-11.06-7-16.59,1.74,4.16,2.95,8.4,3.58,12.86-.83-6.15-1.65-12.31-2.48-18.46.4,3.61.39,7.17-.07,10.77l2.48-18.46c-.53,3.23-1.4,6.29-2.66,9.3,2.33-5.53,4.67-11.06,7-16.59-.33.76-.69,1.51-1.08,2.24-5.08,7.97-7.82,16.58-8.24,25.82-2.07,9.23-1.65,18.46,1.24,27.7,4.44,16.11,16.89,33.57,31.92,41.51,16.12,8.52,35.65,12.79,53.52,7,16.61-5.37,33.39-15.81,41.51-31.92h0Z"/><path class="cls-3" d="m332.07,2061c46.03,30.18,92.85,58.99,145.62,76.05,26.73,8.64,55.58,13.24,83.63,13.66,17.1.26,34.23-2.04,51.05-4.85,10.64-1.77,21.12-4.58,31.16-8.55,16.78-6.63,32.91-13.51,47.52-24.12,14.67-10.64,28.41-22.41,42.7-33.53-4.69,3.62-9.37,7.24-14.06,10.86,8.7-6.7,17.75-12.85,27.82-17.31-5.53,2.33-11.06,4.67-16.59,7,7.55-3.18,15.33-5.15,23.44-6.28l-18.46,2.48c25.54-3.11,52.03.22,77.62,1.53,26.22,1.34,52.45,2.96,78.69,3.91,28.61,1.03,57.72-.42,85.67-7.06,32.8-7.8,61.94-25.14,86.62-47.78,9.11-8.36,17.16-17.74,24.75-27.48,10.98-14.09,21.53-28.33,31.65-43.05,5.08-7.97,7.82-16.58,8.24-25.82,2.07-9.23,1.65-18.46-1.24-27.7-4.44-16.11-16.89-33.57-31.92-41.51-16.12-8.52-35.65-12.79-53.52-7l-16.59,7c-10.44,6.17-18.74,14.48-24.92,24.92-6.74,9.8-13.53,19.56-20.79,28.99l10.86-14.06c-10.2,13.11-21.33,25.46-34.49,35.67l14.06-10.86c-7.84,5.93-16.19,10.92-25.2,14.86l16.59-7c-12.13,5.1-24.84,8.16-37.87,9.92,6.15-.83,12.31-1.65,18.46-2.48-19.03,2.39-38.22,2.1-57.34,1.25-20.94-.93-41.88-2.11-62.82-3.17-20.95-1.07-41.94-2.63-62.91-3.02-15.66-.3-31.08,1.51-46.53,4.21-14.33,2.5-28.42,8.69-41.2,15.27-22.07,11.37-40.3,29.26-59.82,44.36l14.06-10.86c-10.28,7.86-21.1,14.59-33.01,19.69l16.59-7c-12.51,5.2-25.57,8.6-38.98,10.51l18.46-2.48c-17.43,2.3-35,2.05-52.43-.24l18.46,2.48c-22.67-3.15-44.49-9.83-65.55-18.71l16.59,7c-36.87-15.79-70.55-37.73-103.98-59.65-7.97-5.08-16.58-7.82-25.82-8.24-9.23-2.07-18.46-1.65-27.7,1.24-16.11,4.44-33.57,16.89-41.51,31.92-8.52,16.12-12.79,35.65-7,53.52s16.22,31.22,31.92,41.51h0Z"/><path class="cls-3" d="m1883.95,318.72l-.73.98c3.62-4.69,7.24-9.37,10.86-14.06-1.27,1.54-2.62,2.91-4.16,4.18,4.69-3.62,9.37-7.24,14.06-10.86-1.87,1.41-3.82,2.56-5.96,3.53l16.59-7c-2.57,1.04-5.14,1.73-7.89,2.17l18.46-2.48c-3.23.39-6.39.39-9.62.04l18.46,2.48c-3.7-.51-7.23-1.45-10.7-2.84l16.59,7c-3.05-1.32-5.88-2.93-8.57-4.89l14.06,10.86c-2.86-2.24-5.17-4.78-7.45-7.58-6.18-7.57-14.01-13.76-22.14-19.12-.74-.49-1.46-.96-2.22-1.4-4.43-2.61-13.33-6.36-18.28-7.75-6.69-1.88-14.86-2.72-21.86-2.91l-18.46,2.48-1.13.22c-5.01,1.38-13.8,5.13-18.27,7.75-4.11,2.4-11.57,8.36-15.09,11.57-4.51,4.11-11.34,13.9-12.14,15.36-7.5,13.57-11.43,27.17-11.46,42.83,0,3.55,1.03,8.66,1.37,11.18.51,3.82.92,8.23,1.75,12.18.47,2.24,1.13,4.43,1.86,6.59,3.19,9.36,8.33,18.11,9.75,28.01l-2.48-18.46c.32,3.1.3,6.1-.1,9.19l2.48-18.46c-.37,2.14-.9,4.16-1.66,6.19,2.33-5.53,4.67-11.06,7-16.59-.83,1.92-1.81,3.63-3.08,5.29,3.62-4.69,7.24-9.37,10.86-14.06-.81.93-1.62,1.73-2.56,2.53,4.69-3.62,9.37-7.24,14.06-10.86-1.02.74-1.99,1.34-3.12,1.91,5.53-2.33,11.06-4.67,16.59-7-1.48.61-2.85.99-4.42,1.3l18.46-2.48c-1.72.16-3.25.16-4.97.02l18.46,2.48c-2.88-.46-5.53-1.28-8.23-2.38,5.53,2.33,11.06,4.67,16.59,7-9.16-4.18-17.53-10.27-25.49-16.4l14.06,10.86c-13.34-10.47-24.19-23.04-36.18-34.92-16.21-16.07-35.81-27.96-54.86-40.26-30.18-19.49-59.97-39.79-91.52-57.03-19.3-10.55-39.59-19.7-60.31-27.04-20.42-7.24-41.95-10.84-63.52-12.51-7.44-.58-14.92-.58-22.36.02-12.95,1.05-26.18,2.63-38.84,5.79-22.72,5.68-43.35,16.33-61.73,30.53-3.65,2.82-7.7,5.66-11.13,8.87s-6.11,7.24-8.95,10.92c-7.39,9.56-12.94,19.18-15.68,31.42-.66,2.93-2.96,15.81-2.73,22.63.24,7.32,1.32,15.59,3.02,22.68.46,1.9,1.09,3.69,1.82,5.51,2.71,6.81,5.14,14.22,9.08,20.49,4.87,7.77,10.64,15.81,17.73,21.87,7.25,6.21,15.08,12.64,23.65,17.1,12.61,6.56,26.21,11.08,39.33,16.53-5.53-2.33-11.06-4.67-16.59-7,16.72,7.1,32.39,16.28,46.81,27.32-4.69-3.62-9.37-7.24-14.06-10.86,14.34,11.14,27.22,23.96,38.41,38.27-3.62-4.69-7.24-9.37-10.86-14.06,7.91,10.27,14.88,21.18,20.83,32.7,4.36,8.09,10.33,14.59,17.89,19.49,6.71,6.14,14.58,10.28,23.62,12.43,9.23,2.89,18.46,3.31,27.7,1.24,9.24-.42,17.85-3.17,25.82-8.24,14.83-9.56,27.88-23.8,31.92-41.51l2.48-18.46c-.04-12.54-3.2-24.22-9.48-35.05-8.96-17.36-20.52-32.69-32.64-47.98-8.69-10.96-18.38-21.1-29.01-30.19-14.64-12.52-30.25-24.5-47.03-34.06-17.2-9.8-35.84-16.53-54.09-24.05,5.53,2.33,11.06,4.67,16.59,7-5.59-2.37-10.93-5.04-15.82-8.67l14.06,10.86c-2.42-1.93-4.54-3.98-6.47-6.41l10.86,14.06c-1.46-2.02-2.69-4.08-3.75-6.33l7,16.59c-.94-2.26-1.63-4.5-2.08-6.91l2.48,18.46c-.31-2.37-.33-4.61-.02-6.98l-2.48,18.46c.28-1.41.64-2.67,1.13-4.01-2.33,5.53-4.67,11.06-7,16.59.62-1.36,1.28-2.54,2.12-3.78l-10.86,14.06c2.21-2.84,4.81-5.1,7.62-7.33l-14.06,10.86c6.71-5.11,13.94-9.28,21.69-12.63-5.53,2.33-11.06,4.67-16.59,7,9.78-4.06,19.97-6.68,30.46-8.11l-18.46,2.48c12.2-1.51,24.44-1.4,36.63.14l-18.46-2.48c17.41,2.39,34.19,7.59,50.37,14.36l-16.59-7c26.82,11.43,51.78,26.78,76.33,42.38,12.84,8.16,25.57,16.5,38.33,24.79,12.49,8.11,25.53,15.65,37.41,24.66l-14.06-10.86c14.16,11.12,25.02,25.74,38.57,37.55,10.77,9.38,22.18,18.22,34.08,26.14,3.94,2.62,7.95,5.14,12.2,7.25,13.47,6.7,21.75,9.48,35.65,11.35,12.67,1.7,24.55,1.84,37.09-2.56,14.57-5.12,24.83-10.78,35.93-21.85,16.9-16.87,24.28-39.69,25.7-63.01.79-12.85-1.56-26.47-6.26-38.5-3.18-8.14-7.2-16.01-8.46-24.75l2.48,18.46c-.16-1.76-.16-3.42.05-5.18l-2.48,18.46c.13-.83.34-1.64.64-2.42-2.33,5.53-4.67,11.06-7,16.59.29-.76.67-1.47,1.16-2.12l-10.86,14.06c.49-.66,1.08-1.22,1.76-1.69l-14.06,10.86,1.12-.64-16.59,7c.72-.34,1.47-.56,2.25-.64l-18.46,2.48c.76-.08,1.52-.04,2.27.12l-18.46-2.48c.78.17,1.54.42,2.26.77-5.53-2.33-11.06-4.67-16.59-7,1.2.63,2.24,1.3,3.33,2.1-4.69-3.62-9.37-7.24-14.06-10.86,3.19,2.64,5.79,5.75,8.41,8.94,3.95,4.81,8.62,8.07,13.61,11.93,5.2,4.02,9.68,7.67,15.6,10.32,8.15,3.65,16.57,7.93,25.47,9.57s18,3.47,26.93,2.99c7.31-.39,14.85-1.54,22.02-2.85,1.74-.32,3.45-.68,5.13-1.24,6.66-2.25,13.57-5.14,19.82-8.31,1.39-.7,2.69-1.48,3.98-2.35,14.85-10.04,20.2-16.63,30.73-30.77,5.08-7.97,7.82-16.58,8.24-25.82,2.07-9.23,1.65-18.46-1.24-27.7-4.44-16.11-16.89-33.57-31.92-41.51-16.12-8.52-35.65-12.79-53.52-7-5.53,2.33-11.06,4.67-16.59,7-10.44,6.17-18.74,14.48-24.92,24.92h0Z"/></g><g id="mid"><path class="cls-4" d="m1149.73,1186.95c14.55,1.52,29.22,1.41,43.74-.39,20.34-2.51,40.2-5.33,59.61-12.05,38.23-13.23,72.44-32.97,102.1-60.63,16.76-15.63,29.68-34.6,43.59-52.7-3.62,4.69-7.24,9.37-10.86,14.06,6.15-7.9,12.72-15.33,20.62-21.52-4.69,3.62-9.37,7.24-14.06,10.86,20.1-15.32,44.6-22.75,67.11-33.6,36.71-17.7,69.33-49.74,78.38-90.71,3.26-14.78,4.94-30.34,3.73-45.49-1.25-15.73-3.99-31.32-6.1-46.95.83,6.15,1.65,12.31,2.48,18.46-4.96-38.03-4.89-76.51.2-114.52l-2.48,18.46c2.23-16.08,5.72-32.21,6.09-48.46.06-2.67-.03-5.33-.26-7.99-.71-8.13-1.65-16.56-3.45-24.55-.56-2.47-1.37-4.81-2.28-7.16-2.68-6.89-5.16-14.41-9.23-20.68s-8.63-11.82-13.27-17.29c-1.32-1.55-2.77-2.93-4.32-4.24-13.33-11.26-22.22-16.76-38.58-22.56-1.83-.65-3.6-1.12-5.52-1.48-7.12-1.34-14.87-2.76-22.18-2.69-6.33.06-14.11,1.42-20.31,2.63-.81.16-1.62.27-2.42.49-3.59.99-7.59,3.04-10.66,4.34-3.67,1.55-7.2,2.77-10.58,4.7,31.68,31.68,63.35,63.35,95.03,95.03.54-.86,1.13-1.69,1.77-2.48-3.62,4.69-7.24,9.37-10.86,14.06,1.34-1.56,2.75-2.94,4.34-4.26-4.69,3.62-9.37,7.24-14.06,10.86,2.08-1.54,4.21-2.77,6.57-3.81l-16.59,7c1.93-.72,3.83-1.26,5.85-1.64l-18.46,2.48,1.51-.19c9.56.36,18.48-1.63,26.76-5.98,8.61-2.8,16.06-7.59,22.35-14.36,12.05-12.05,21.12-31.81,20.34-49.11s-6.7-36.59-20.34-49.11c-4.69-3.62-9.37-7.24-14.06-10.86-10.83-6.28-22.52-9.44-35.05-9.48-17.31,2.22-31.12,3.89-46.49,13.39-14.56,9-24.09,19.33-33.52,33.39-2.33,5.53-4.67,11.06-7,16.59-2.89,9.23-3.31,18.46-1.24,27.7.02,6.27,1.6,12.11,4.74,17.53,2.8,8.61,7.59,16.06,14.36,22.35,8.87,8.14,19.19,14.15,30.65,17.86,9.23,2.89,18.46,3.31,27.7,1.24,9.24-.42,17.85-3.17,25.82-8.24.73-.45,1.5-.85,2.29-1.2l-16.59,7c1.58-.62,3.12-1.05,4.79-1.33l-18.46,2.48c1.67-.17,3.27-.17,4.94-.03l-18.46-2.48c2.13.31,4.12.83,6.14,1.57l-16.59-7c2.46,1.04,4.7,2.32,6.88,3.87l-14.06-10.86c2.52,1.97,4.68,4.12,6.65,6.65-3.62-4.69-7.24-9.37-10.86-14.06,1.31,1.83,2.42,3.71,3.37,5.75-2.33-5.53-4.67-11.06-7-16.59,1.54,3.73,2.47,7.51,3.06,11.5l-2.48-18.46c.89,7.78.28,15.49-.73,23.23l2.48-18.46c-4.28,30.74-8.77,61.14-8.83,92.23-.06,30.93,4.3,61.18,8.45,91.78l-2.48-18.46c1.46,11.13,2.46,22.29,1.16,33.49l2.48-18.46c-.79,5.62-2.14,11.03-4.31,16.29,2.33-5.53,4.67-11.06,7-16.59-1.92,4.38-4.28,8.45-7.13,12.28l10.86-14.06c-3.81,4.93-8.24,9.19-13.15,13.02,4.69-3.62,9.37-7.24,14.06-10.86-18.94,14.34-42.14,21.43-63.39,31.5-15.9,7.53-29.47,17.2-43.1,28.49-16.21,13.42-27.65,32-40.33,48.57,3.62-4.69,7.24-9.37,10.86-14.06-10.18,13.16-21.82,24.92-34.93,35.16,4.69-3.62,9.37-7.24,14.06-10.86-13.86,10.66-28.97,19.46-45.05,26.35l16.59-7c-16.6,6.96-33.96,11.76-51.79,14.25,6.15-.83,12.31-1.65,18.46-2.48-15.29,2.01-30.69,2.28-46.03.68-9.56-.36-18.48,1.63-26.76,5.98-8.61,2.8-16.06,7.59-22.35,14.36-12.05,12.05-21.12,31.81-20.34,49.11s6.7,36.59,20.34,49.11c4.69,3.62,9.37,7.24,14.06,10.86,10.83,6.28,22.52,9.44,35.05,9.48h0Z"/><path class="cls-4" d="m429.76,1674.8c-29.1-17.34-60.62-31.24-92.73-41.95-32.58-10.86-66.25-16.57-100.34-20.2-9.56-.36-18.48,1.63-26.76,5.98-8.61,2.8-16.06,7.59-22.35,14.36-12.05,12.05-21.12,31.81-20.34,49.11s6.7,36.59,20.34,49.11c4.69,3.62,9.37,7.24,14.06,10.86,10.83,6.28,22.52,9.44,35.05,9.48,3.55.38,7.1.8,10.64,1.26l-18.46-2.48c34.28,4.63,67.75,13.78,99.63,27.18-5.53-2.33-11.06-4.67-16.59-7,16.45,7,32.38,15.08,47.74,24.23,15.41,9.18,36.28,11.75,53.52,7,16.11-4.44,33.57-16.89,41.51-31.92,8.52-16.12,12.79-35.65,7-53.52-5.6-17.32-16.02-32.03-31.92-41.51h0Z"/><path class="cls-4" d="m29.21,1885.49c3.29,11.51,8.17,22.68,13.39,33.42,2.73,5.61,5.97,10.97,9.6,16.04,10.72,14.94,22.09,29.23,36.5,40.73,14.84,11.86,29.59,22.92,46.72,31.17,18.57,8.94,37.93,16.62,57.72,22.44,16.73,4.92,33.77,8.71,50.78,12.49,18.15,4.03,37.19,2.56,53.52-7,14.41-8.43,28.15-24.95,31.92-41.51,4.05-17.78,3.17-37.74-7-53.52-9.53-14.78-23.81-27.99-41.51-31.92-27.53-6.11-55.14-12.35-81.28-23.15l16.59,7c-14.53-6.14-28.32-13.65-40.89-23.2,4.69,3.62,9.37,7.24,14.06,10.86-9.62-7.46-18.34-15.91-25.8-25.54l10.86,14.06c-5.75-7.6-10.57-15.74-14.3-24.52,2.33,5.53,4.67,11.06,7,16.59-1.51-3.73-2.82-7.5-3.93-11.37-4.83-16.9-16.7-32.6-31.92-41.51-7.97-5.08-16.58-7.82-25.82-8.24-9.23-2.07-18.46-1.65-27.7,1.24-16.81,5.44-33.02,15.85-41.51,31.92-8.69,16.45-12.22,35.23-7,53.52h0Z"/><path class="cls-4" d="m2064.42,346.85c23.97,11.26,47.94,22.51,71.91,33.77,22.03,10.35,45.9,19.37,65.5,34.06-4.69-3.62-9.37-7.24-14.06-10.86,11.26,8.76,19.74,20.03,29.01,30.74,4.1,4.74,8.38,9.36,13.2,13.4,6.69,5.61,13.54,11.23,20.93,15.92s16.53,8.03,24.2,11.02c24.53,9.56,51.02,6.94,76.22,2.59,15.46-2.67,30.44-7.54,45.99-9.71-6.15.83-12.31,1.65-18.46,2.48,7.81-.98,15.54-1.16,23.35-.19l-18.46-2.48c9.77,1.36,19.13,4.25,28.22,8.02l-16.59-7c17.22,7.32,33.03,17.38,49.07,26.92,20.04,11.91,41.45,23.28,64.04,29.35,13.4,3.6,27.84,5.84,41.75,5.3,9.68-.38,19.4-1.83,28.88-3.7,10.18-2.01,19.81-6.7,29.2-10.8,26.77-11.69,48-35.61,63.41-59.75,5.79-9.07,10.49-18.76,14.69-28.65,6.59-15.49,12.83-30.87,18.07-46.86,2.89-9.23,3.31-18.46,1.24-27.7-.42-9.24-3.17-17.85-8.24-25.82-8.43-14.41-24.95-28.15-41.51-31.92-17.78-4.05-37.74-3.17-53.52,7-15.63,10.08-26.08,23.68-31.92,41.51-3.35,10.21-6.93,20.34-11.06,30.27,2.33-5.53,4.67-11.06,7-16.59-5.6,13.24-12.2,26.07-20.92,37.55l10.86-14.06c-4.87,6.26-10.31,11.95-16.57,16.83,4.69-3.62,9.37-7.24,14.06-10.86-4.88,3.67-10.07,6.72-15.7,9.11l16.59-7c-5.27,2.12-10.69,3.58-16.3,4.42l18.46-2.48c-6.46.84-12.89.79-19.35-.05l18.46,2.48c-8.94-1.3-17.51-4.01-25.83-7.49l16.59,7c-22.55-9.66-42.59-24.1-64.14-35.66-15.52-8.32-31.96-15.91-48.95-20.63-11.22-3.11-23.18-4.46-34.67-5.53-9.94-.93-19.57.45-29.43,1.78-11.52,1.55-22.69,3.56-33.99,6.28-8.64,2.08-17.27,4.17-26.08,5.43l18.46-2.48c-6.88.89-13.72,1.18-20.62.37l18.46,2.48c-4.78-.69-9.35-1.9-13.83-3.72,5.53,2.33,11.06,4.67,16.59,7-4.4-1.94-8.43-4.39-12.26-7.29,4.69,3.62,9.37,7.24,14.06,10.86-11.93-9.43-20.58-22.03-30.74-33.18-15.26-16.75-34.64-29.73-54.93-39.61-36.48-17.78-73.48-34.56-110.21-51.82-7.97-5.08-16.58-7.82-25.82-8.24-9.23-2.07-18.46-1.65-27.7,1.24-16.11,4.44-33.57,16.89-41.51,31.92-8.52,16.12-12.79,35.65-7,53.52,5.28,16.32,15.77,33.92,31.92,41.51h0Z"/></g><g id="easy"><path class="cls-5" d="m1024.63,950.61c2.03,28.72,1.14,57.52-2.64,86.05l2.48-18.46c-.17,1.3-.36,2.59-.54,3.88-2.89,9.23-3.31,18.46-1.24,27.7.42,9.24,3.17,17.85,8.24,25.82,8.43,14.41,24.95,28.15,41.51,31.92,17.78,4.05,37.74,3.17,53.52-7,4.69-3.62,9.37-7.24,14.06-10.86,8.61-8.67,14.56-18.88,17.86-30.65,5.14-36.18,8.24-71.87,5.67-108.4.36-9.56-1.63-18.48-5.98-26.76-2.8-8.61-7.59-16.06-14.36-22.35-12.05-12.05-31.81-21.12-49.11-20.34s-36.59,6.7-49.11,20.34-21.63,30.82-20.34,49.11h0Z"/><path class="cls-5" d="m1406,633.33c-.68-3.15-1.25-6.29-1.71-9.48l2.48,18.46c-1.16-9.63-1.12-19.17.06-28.79l-2.48,18.46c1.5-10.41,4.25-20.4,8.28-30.12-2.33,5.53-4.67,11.06-7,16.59,3.9-8.88,8.72-17.12,14.59-24.85l-10.86,14.06c5.94-7.47,12.63-13.95,20.12-19.85l-14.06,10.86c13.01-10.02,26.84-19.17,38.95-30.3,15.66-14.39,27.24-32.99,33.45-53.3,8.17-26.72,3.25-54.38-8.67-78.96-9.47-19.53-25.29-33.81-42.69-46.11-32.91-23.26-80.41-24.71-117.19-10.93-17.93,6.72-34.47,14.77-50.21,25.56-10.34,7.09-20.8,13.88-32.29,18.99,5.53-2.33,11.06-4.67,16.59-7-5.85,2.43-11.72,4.31-18,5.25l18.46-2.48c-3.64.37-7.1.37-10.73-.09l18.46,2.48c-2.12-.42-4.04-.94-6.08-1.65,5.53,2.33,11.06,4.67,16.59,7-2.74-1.19-5.13-2.59-7.53-4.36l14.06,10.86c-1.9-1.63-3.5-3.25-5.12-5.16l10.86,14.06c-1.97-2.72-3.56-5.48-5-8.51,2.33,5.53,4.67,11.06,7,16.59-7.18-17.23-10.05-36.81-13.69-55.03-3.98-19.94-7.29-40-10.03-60.15.83,6.15,1.65,12.31,2.48,18.46-2.41-18.18-5.83-37.11-3.76-55.47l-2.48,18.46c.74-4.87,1.91-9.42,3.82-13.96-2.33,5.53-4.67,11.06-7,16.59,1.09-2.21,2.24-4.19,3.61-6.24l-10.86,14.06c1.94-2.5,3.98-4.67,6.36-6.75l-14.06,10.86c3.63-2.8,7.43-4.93,11.65-6.73l-16.59,7c19.01-7.25,39.91-7.08,59.21-13.58,31.16-10.5,56.82-25.97,82.21-46.49,47.28-38.2,81.06-98.3,72.74-160.19-5.45-40.55-26.64-76.1-61.97-97.76-11.68,43.14-23.37,86.28-35.05,129.42,122.67-8.26,245.97-4.22,367.83,12.05l-18.46-2.48c13.5,1.83,27.1,3.38,39.91,8.26-5.53-2.33-11.06-4.67-16.59-7,4.82,2.05,9.18,4.5,13.36,7.66l-14.06-10.86c3.28,2.76,6.13,5.76,8.76,9.15-3.62-4.69-7.24-9.37-10.86-14.06,4.2,5.81,7.4,12.09,10.23,18.67-2.33-5.53-4.67-11.06-7-16.59,7.33,17.64,12.93,36.22,22.18,53,11.33,20.52,29.75,39.72,50.9,50.2,17.71,8.77,35.09,14.16,54.33,17.55,14.76,2.6,29.6,4.94,43.53,10.7-5.53-2.33-11.06-4.67-16.59-7,7.73,3.45,14.52,8.24,21.7,12.65,10.78,6.62,23.05,12.24,35.43,14.95,19.15,4.2,33.08,3.52,52.05.46,12.03-1.94,23.2-7.18,34.23-12.2,27.44-12.49,48.59-35.36,76.19-47.63-5.53,2.33-11.06,4.67-16.59,7,9.5-3.9,19.25-6.33,29.42-7.74l-18.46,2.48c35.91-4.24,72.76,2.88,108.39,7.06,38.25,4.48,76.59,8.54,114.77,13.64l-18.46-2.48c32.93,4.52,64.64,11.68,95.38,24.5-5.53-2.33-11.06-4.67-16.59-7,28.78,12.18,56.88,26.39,86.66,36.02,29.71,9.6,61.31,14.21,92.38,16.27,57.88,3.84,116.89-5.76,173.15-18.69,30.01-6.9,59.67-15.17,89.27-23.61,16.9-4.81,32.61-16.71,41.51-31.92s12.4-36.83,7-53.52c-11.51-35.55-48-59.17-85.44-48.51-51.53,14.68-103.38,28.84-156.57,36.14l18.46-2.48c-36.65,4.83-73.66,6.2-110.39,1.38l18.46,2.48c-27.1-3.81-53-11.24-78.24-21.78,5.53,2.33,11.06,4.67,16.59,7-36.22-15.37-71.5-33.43-110.04-42.36-39.29-9.11-79.89-12.49-119.89-17.18-35.74-4.19-71.45-8.59-107.22-12.55-16.41-1.82-32.96-3.25-49.48-2.22-27.75,1.73-51.7,7.42-76.75,19.27-27.02,12.78-48.02,35.54-75.57,47.32,5.53-2.33,11.06-4.67,16.59-7-5.11,2.03-10.26,3.54-15.7,4.36l18.46-2.48c-4.06.45-7.99.48-12.06.05l18.46,2.48c-4.43-.67-8.55-1.84-12.71-3.52,5.53,2.33,11.06,4.67,16.59,7-9.77-4.54-18.11-11.52-27.8-16.18-13.36-6.42-27.03-11.92-41.5-15.08-18.55-4.06-37.75-5.55-55.49-12.77,5.53,2.33,11.06,4.67,16.59,7-5.37-2.36-10.31-5.18-14.97-8.76l14.06,10.86c-3.4-2.83-6.39-5.89-9.15-9.35,3.62,4.69,7.24,9.37,10.86,14.06-4.76-6.43-8.29-13.44-11.39-20.79,2.33,5.53,4.67,11.06,7,16.59-6.69-16.36-12.2-33.25-20.22-49.04-10.07-19.83-26.61-37.12-45.61-48.55-16.9-10.17-35.9-15.25-55.19-17.97-22.79-3.22-45.61-6.21-68.48-8.76C1611.23,3.59,1541.9-.17,1472.58,0c-39.91.1-79.81,1.54-119.64,4.22-15.77,1.06-29.41,5.12-42.08,14.91-11.48,8.87-21.58,21.53-24.89,36.08-6.96,30.58,4.78,61.79,31.92,78.43,1.96,1.2,3.81,2.45,5.66,3.83l-14.06-10.86c3.55,2.88,6.67,6.02,9.56,9.56l-10.86-14.06c3.24,4.3,5.87,8.77,8.11,13.66-2.33-5.53-4.67-11.06-7-16.59,2.7,6.45,4.49,13.05,5.48,19.98l-2.48-18.46c.69,6.18.73,12.26.07,18.44l2.48-18.46c-1.2,8.66-3.52,16.88-6.84,24.96l7-16.59c-4.25,9.65-9.64,18.53-15.95,26.97l10.86-14.06c-9.59,12.38-20.67,23.37-32.94,33.08l14.06-10.86c-12.33,9.48-25.58,17.36-39.91,23.42,5.53-2.33,11.06-4.67,16.59-7-30.48,12.29-65.1,9.9-93.44,28.28-24.25,15.72-43.41,39.75-48.96,68.66-4.03,21-3.51,39.93-1.05,60.85,4.76,40.35,10.98,80.5,20.02,120.12,5.8,25.42,13.75,49.41,31.79,69.14,18.71,20.47,48.94,32.89,76.67,30.77s50.59-10.99,73.07-24.96c14.76-9.17,28.35-19.52,44.44-26.41-5.53,2.33-11.06,4.67-16.59,7,7.58-3.04,15.27-5.31,23.35-6.57l-18.46,2.48c6.31-.77,12.42-.85,18.74-.17l-18.46-2.48c4.55.7,8.83,1.87,13.12,3.55l-16.59-7c4.97,2.19,9.44,4.84,13.75,8.15-4.69-3.62-9.37-7.24-14.06-10.86,3.51,2.93,6.62,6.08,9.45,9.68-3.62-4.69-7.24-9.37-10.86-14.06,2.17,3.02,4,6.09,5.57,9.46l-7-16.59c1.37,3.39,2.33,6.73,2.93,10.33l-2.48-18.46c.31,2.92.34,5.71.1,8.63l2.48-18.46c-.54,3.68-1.47,7.07-2.85,10.51l7-16.59c-1.5,3.25-3.26,6.21-5.33,9.11,3.62-4.69,7.24-9.37,10.86-14.06-4.99,6.41-10.99,11.67-17.36,16.67l14.06-10.86c-14.03,10.78-29.21,20.51-41.75,33.07s-24.92,28.78-32.71,45.52c-4.86,10.45-9.67,21.26-12.97,32.35-3.49,11.73-4.82,24.01-6.27,36.11-2.26,18.91.12,38.2,4.13,56.73,3.57,16.49,17.66,33.17,31.92,41.51s36.83,12.4,53.52,7c37.43-12.11,56.77-47.34,48.51-85.44h0Z"/><path class="cls-5" d="m2910.73,268c37.46-16.85,74.92-33.7,112.37-50.55,36.92-16.61,73.63-33.9,110.91-49.69l-16.59,7c16.97-7.11,34.35-13.23,52.62-15.93l-18.46,2.48c16.42-2.2,32.81-1.09,49.18,1.1l-18.46-2.48c28.78,3.99,57.35,9.17,86.41,10.83,23.6,1.35,47.27,1.6,70.74,4.62l-18.46-2.48c16.81,2.29,33.28,6.17,48.97,12.73l-16.59-7c9.78,4.2,19.03,9.36,27.53,15.78l-14.06-10.86c6.74,5.24,12.79,11.17,18.04,17.91-3.62-4.69-7.24-9.37-10.86-14.06,2.25,3,4.33,6,5.92,9.41-2.33-5.53-4.67-11.06-7-16.59.6,1.57,1.01,2.97,1.31,4.63l-2.48-18.46c.13,1.04.12,2.08-.03,3.12l2.48-18.46c-.15.98-.43,1.93-.85,2.83,2.33-5.53,4.67-11.06,7-16.59-.38.81-.84,1.57-1.4,2.28,3.62-4.69,7.24-9.37,10.86-14.06-1.2,1.43-2.5,2.63-3.95,3.8,4.69-3.62,9.37-7.24,14.06-10.86-15.26,11.56-28.04,20.13-37.55,37.37-9.45,17.14-12.04,31.37-13.9,50.56-1.36,14.01.77,28.06-1.03,42.06l2.48-18.46c-1.2,8.31-3.36,16.35-6.6,24.09l7-16.59c-2.74,6.25-6.11,12.08-10.26,17.51,3.62-4.69,7.24-9.37,10.86-14.06-3.62,4.54-7.66,8.58-12.25,12.15,4.69-3.62,9.37-7.24,14.06-10.86-3.68,2.72-7.52,5.03-11.71,6.89,5.53-2.33,11.06-4.67,16.59-7-4.87,2.02-9.87,3.35-15.08,4.09l18.46-2.48c-5.22.62-10.4.62-15.62-.02l18.46,2.48c-4.71-.69-9.23-1.87-13.65-3.62,5.53,2.33,11.06,4.67,16.59,7-3.91-1.67-7.54-3.73-10.95-6.28,4.69,3.62,9.37,7.24,14.06,10.86-3-2.38-5.65-5.04-8-8.07l10.86,14.06c-2.03-2.79-3.63-5.77-5.27-8.8-4.31-7.97-9.83-15.47-15.98-22.08-11.53-12.39-28.6-22.22-45.22-25.53-12.83-2.56-24.22-3.47-36.9-2.36-7.07.61-14.12,1.3-21.21.48l18.46,2.48c-3.76-.57-7.32-1.55-10.85-2.97,5.53,2.33,11.06,4.67,16.59,7-4.31-1.89-8.24-4.3-12-7.12l14.06,10.86c-10.12-7.9-18.16-17.95-26.48-27.64-4.14-4.82-8.36-9.52-13.28-13.59-8.97-7.42-18.41-15.46-29.02-20.61-7.56-3.67-15.32-7.06-23.27-9.78-8.41-2.87-18.08-3.48-26.55-4.49-11.25-1.35-23.32.18-34,3.83-16.28,5.56-32.01,14-43.23,27.4-8.02,9.59-14.35,20.01-21.81,29.92l10.86-14.06c-5.57,7.17-11.97,13.51-19.08,19.15l14.06-10.86c-9.26,7.15-19.39,12.88-30.14,17.46l16.59-7c-13.27,5.49-27.15,9.13-41.36,11.14l18.46-2.48c-27.55,3.65-55.32,1.54-82.75-2.13l18.46,2.48c-10.29-1.41-20.56-3.01-30.82-4.63-9.23-2.89-18.46-3.31-27.7-1.24-9.24.42-17.85,3.17-25.82,8.24-14.41,8.43-28.15,24.95-31.92,41.51-4.05,17.78-3.17,37.74,7,53.52l10.86,14.06c8.67,8.61,18.88,14.56,30.65,17.86,41.23,6.51,83.82,14.35,125.7,10,20.22-2.1,40.57-4.81,59.74-11.85s37.22-14.84,53.15-26.99c10.55-8.05,21.18-15.77,29.81-25.9,9.25-10.86,16.55-22.78,25.13-34.03l-10.86,14.06c1.71-2.08,3.5-3.94,5.59-5.64l-14.06,10.86c1.84-1.35,3.71-2.46,5.78-3.41-5.53,2.33-11.06,4.67-16.59,7,2.45-.98,4.89-1.63,7.5-2.01l-18.46,2.48c3.12-.32,6.13-.23,9.25.18l-18.46-2.48c4.2.7,8.18,1.93,12.11,3.57-5.53-2.33-11.06-4.67-16.59-7,5.47,2.43,10.51,5.5,15.28,9.1-4.69-3.62-9.37-7.24-14.06-10.86,8.6,6.73,15.31,15.16,22.39,23.39,10.85,12.62,22.77,23.17,36.63,32.63,8.68,5.93,19.17,10.02,28.99,13.27,2.49.82,5.01,1.34,7.59,1.76,8.17,1.3,16.57,2.83,24.9,2.89,10.87.08,21.69-2.43,32.56-1.11l-18.46-2.48c2.63.42,5.11,1.06,7.58,2.08l-16.59-7c1.61.77,3.07,1.65,4.51,2.7-4.69-3.62-9.37-7.24-14.06-10.86,1.55,1.29,2.87,2.65,4.13,4.22-3.62-4.69-7.24-9.37-10.86-14.06,2.33,3.27,4.07,6.83,6.02,10.32,4.4,7.85,10.33,15.08,16.24,21.8,5.68,6.45,13.22,11.45,20.04,16.46,2.73,2.01,5.55,3.8,8.62,5.25,7.84,3.71,15.98,7.49,24.35,9.92s18.89,3.41,27.32,4.29c12.4,1.3,25.23-.77,37.32-3.17,11.91-2.37,23.84-7.52,34.16-13.72,7.72-4.63,14.78-10.56,21.67-16.29,2.95-2.46,5.68-5.19,8.17-8.11,16.9-19.88,30.39-42.75,35.56-68.66,2.73-13.65,4.58-27.77,4.3-41.73-.18-8.68-.67-17.36.35-26.01l-2.48,18.46c.57-4.06,1.5-7.96,3.08-11.75l-7,16.59c.94-2.02,2.02-3.88,3.32-5.69l-10.86,14.06c1.74-2.2,3.67-4.03,5.89-5.75-4.69,3.62-9.37,7.24-14.06,10.86,7.17-5.29,15.03-10.18,21.25-16.53,4.91-5.01,9.63-10.54,12.97-16.67,5.49-10.08,8.24-18.81,9.73-29.83.19-1.42,1.36-7.49,1.36-10.79,0-5.84-1.35-14.31-2.57-20.03-1.57-7.32-5.22-14.89-8.31-21.22-2.97-6.06-7.23-11.1-11.35-16.43-14.38-18.61-31.91-34.27-52.71-45.63-11.71-6.4-24.27-11.51-36.8-16.03-7.48-2.7-15.15-4.85-22.92-6.53-23.4-5.07-47.57-7.31-71.47-8.54-22.63-1.16-45.29-1.61-67.77-4.6l18.46,2.48c-30.3-4.16-60.94-11.59-91.68-10.15-17.41.82-35.18,3.45-51.98,8.25-17,4.86-33.25,12.08-49.46,19.01-47.33,20.22-93.99,42.13-140.92,63.24-26.89,12.09-53.77,24.19-80.66,36.28-8.09,4.36-14.59,10.33-19.49,17.89-6.14,6.71-10.28,14.58-12.43,23.62-2.89,9.23-3.31,18.46-1.24,27.7.42,9.24,3.17,17.85,8.24,25.82,9.56,14.83,23.8,27.88,41.51,31.92l18.46,2.48c12.54-.04,24.22-3.2,35.05-9.48h0Z"/><path class="cls-5" d="m950.58,1522.49c5.16-.84,10.33-1.65,15.51-2.35l-18.46,2.48c12.63-1.64,25.33-2.51,38-.88l-18.46-2.48c6.21.92,12.18,2.43,18.02,4.74l-16.59-7c4.3,1.83,8.22,4.02,11.93,6.87l-14.06-10.86c3.43,2.78,6.46,5.89,9.18,9.36l-10.86-14.06c2.61,3.52,4.8,7.23,6.56,11.24-2.33-5.53-4.67-11.06-7-16.59,1.61,3.93,2.74,7.94,3.31,12.15l-2.48-18.46c.3,2.87.32,5.65.04,8.52l2.48-18.46c-.39,2.83-1.06,5.49-2.09,8.16,2.33-5.53,4.67-11.06,7-16.59-1,2.3-2.19,4.4-3.65,6.45l10.86-14.06c-2.32,2.98-5,5.46-7.95,7.82l14.06-10.86c-10.35,7.9-21.52,14.81-31,23.81-9.11,8.66-16.8,19.2-23.47,29.81-8.03,12.77-13.42,26.96-19.84,40.55-12.72,26.9-28.44,52.31-46.59,75.89l10.86-14.06c-21.97,28.32-47.4,53.78-75.73,75.74l14.06-10.86c-22.68,17.45-47.32,33.63-73.65,45.02l16.59-7c-8.99,3.76-18.19,6.7-27.85,8.08l18.46-2.48c-6,.72-11.92.8-17.93.1l18.46,2.48c-8.29-1.21-16.11-3.84-23.84-7.03l16.59,7c-21.81-9.25-43.13-19.67-65.88-26.49s-46.95-10.45-70.85-12.92c-18.03-1.86-36.23-2.01-54.29-.43-23.88,2.09-47.88,5.64-70.98,12.21-16.89,4.8-32.61,16.72-41.51,31.92-5.08,7.97-7.82,16.58-8.24,25.82-2.07,9.23-1.65,18.46,1.24,27.7,5.44,16.81,15.85,33.02,31.92,41.51s35.22,12.21,53.52,7c12.95-3.68,26.11-6.43,39.44-8.27l-18.46,2.48c25.56-3.37,51.39-3.3,76.94.13l-18.46-2.48c24.36,3.42,48.14,9.87,70.84,19.37l-16.59-7c7.13,3.04,14.13,6.36,21.25,9.4,12.08,5.16,24.65,11.35,37.79,13.62,9.27,1.6,18.84,3.25,28.3,3.42,6.72.12,13.31-.98,19.96-1.87,11.12-1.49,21.48-3.25,31.97-7.25,32.22-12.3,62.07-29.2,89.69-49.79,26.8-19.98,52.24-41.23,74.68-66.06,22.22-24.6,42.61-51.48,59.62-79.96,7.97-13.33,15.16-27.12,21.57-41.26,6.52-14.39,12.57-29.12,22.21-41.77-3.62,4.69-7.24,9.37-10.86,14.06,3.6-4.54,7.56-8.61,12.09-12.23-4.69,3.62-9.37,7.24-14.06,10.86,9.77-7.44,20.21-14.04,29.35-22.32,6.18-5.6,11.45-12.96,16.01-19.74,4.57-6.8,7.47-14.96,10.28-22.52.85-2.29,1.5-4.55,1.92-6.96,1.44-8.11,3.16-16.77,2.84-25.12s-1.63-16.56-3.21-24.6c-.53-2.7-1.36-5.32-2.33-7.89-5.48-14.46-10.36-24.25-19.48-36.05-3.41-4.41-6.65-9.03-10.66-12.93-5.93-5.77-12.85-10.75-19.56-15.5-2.12-1.5-4.31-2.86-6.65-4.02-8.07-4-16.54-7.65-25.11-10.43-12.01-3.89-25.14-5.16-37.62-6.08-21.99-1.63-44.46,2.82-66.04,6.33-9.04,2.15-16.91,6.29-23.62,12.43-7.56,4.9-13.52,11.39-17.89,19.49-5.08,7.97-7.82,16.58-8.24,25.82-2.07,9.23-1.65,18.46,1.24,27.7,5.44,16.81,15.85,33.02,31.92,41.51l16.59,7c12.31,3.31,24.62,3.31,36.93,0h0Z"/><path class="cls-5" d="m117.94,1787.19l.55,1.25-7-16.59c.44,1.32.74,2.52.96,3.89l-2.48-18.46c.11,1.37.1,2.62,0,4l2.48-18.46c-.33,2.3-.94,4.4-1.84,6.54,2.33-5.53,4.67-11.06,7-16.59-.83,1.69-1.77,3.24-2.87,4.77l10.86-14.06c-1.49,1.85-3.09,3.43-4.95,4.9l14.06-10.86c-2.14,1.49-4.36,2.66-6.76,3.68l16.59-7c-3.52,1.31-7.05,2.12-10.78,2.64l18.46-2.48c-9.56,1.06-19.25.35-28.77-.86l18.46,2.48c-14.11-1.95-27.81-5.65-40.98-11.05l16.59,7c-4.36-1.85-8.63-3.85-12.84-6.03-16.51-8.56-35.23-12.04-53.52-7-16.11,4.44-33.57,16.89-41.51,31.92-8.52,16.12-12.79,35.65-7,53.52,5.41,16.72,15.83,33.17,31.92,41.51,16.74,8.68,34.63,16.27,52.99,20.79,18.29,4.51,37.73,7.37,56.61,7.14,28.18-.33,57.84-9.05,77.82-29.94,2.65-2.77,5.03-6.29,7.25-9.16,2.38-3.09,5.35-6.41,7.35-9.95,3.19-5.66,5.6-12.41,7.96-18.44.5-1.28,1.04-2.54,1.36-3.88,2-8.16,3.42-16.71,2.96-25.12-.37-6.78-1.4-14.45-3.01-21.08s-5.22-12.81-7.98-19.12c-4.36-8.09-10.33-14.59-17.89-19.49-6.71-6.14-14.58-10.28-23.62-12.43-9.23-2.89-18.46-3.31-27.7-1.24-9.24.42-17.85,3.17-25.82,8.24-14.83,9.56-27.88,23.8-31.92,41.51l-2.48,18.46c.04,12.54,3.2,24.22,9.48,35.05h0Z"/><path class="cls-5" d="m1220.04,1921.37c1.41-1.94,2.84-3.87,4.29-5.78l-10.86,14.06c12.77-16.51,27.45-31.28,43.89-44.16l-14.06,10.86c3.18-2.44,6.39-4.81,9.67-7.12-34.01-13.84-68.02-27.67-102.03-41.51,3.25,11.55,7.43,22.54,12.1,33.6s9.21,21.72,16.28,31.39c11.73,16.03,23.41,29.43,40.82,39.71,16.61,9.8,36.49,15.1,55.75,15.2,31.58.16,63.79-14.66,84.06-38.91,18.49-22.12,30.99-47.11,38.83-74.93,6.37-22.62,9.43-46.32,13.7-69.4,4.82-26.08,9.63-52.16,14.45-78.24,9.8-53.07,19.61-106.15,29.41-159.22,2.67-14.46,5.4-28.92,8.01-43.39,3.1-17.2,6.39-34.97,6.12-52.52-.35-22.82-5.49-45.83-16.99-65.71-9.21-15.94-22.86-26.77-33.96-40.9l10.86,14.06c-2.91-4.02-5.26-8.17-7.22-12.72l7,16.59c-2.03-5.21-3.39-10.49-4.25-16.01l2.48,18.46c-1.08-8.57-.89-17.06.15-25.62l-2.48,18.46c2.34-16.72,7.77-32.57,14.31-48.07-2.33,5.53-4.67,11.06-7,16.59,13.27-30.94,31.27-59.41,51.81-86.01l-10.86,14.06c42.1-54.13,93.39-100.01,140.85-149.24,27.31-28.34,52.85-58.12,76.02-89.97,23.03-31.65,40.73-65.99,54.42-102.67,19.69-52.73,23.74-109.96,31.13-165.3l-2.48,18.46c3.65-26.95,8.77-53.42,14.72-79.95,6.97-31.08,13.6-63.2,13.19-95.17-.79-61.02-28.51-127.14-85-156.45-16.51-8.56-35.24-12.03-53.52-7-16.11,4.44-33.57,16.89-41.51,31.92-8.52,16.12-12.79,35.65-7,53.52,5.41,16.73,15.84,33.16,31.92,41.51,4.1,2.12,7.93,4.52,11.64,7.26-4.69-3.62-9.37-7.24-14.06-10.86,5.67,4.41,10.64,9.4,15.12,15l-10.86-14.06c5.64,7.37,10.14,15.34,13.79,23.87-2.33-5.53-4.67-11.06-7-16.59,4.34,10.64,7.2,21.68,8.8,33.04l-2.48-18.46c2.11,16.67,1.22,33.39-.99,50l2.48-18.46c-4.09,28.75-12.04,56.73-17.23,85.27-6.09,33.52-9.66,67.47-14.17,101.22l2.48-18.46c-5.28,39.01-12.3,77.79-27.51,114.31l7-16.59c-13.11,30.92-30.97,59.39-51.41,85.97l10.86-14.06c-42.36,54.7-94.18,100.93-142.02,150.63-27.32,28.38-52.87,58.21-76.01,90.13-23.18,31.96-41.15,66.78-54.73,103.87-10.19,27.82-13.99,57.82-10.05,87.14,2.46,18.33,7.41,36.29,17.87,51.95,5.96,8.92,12.8,17.55,20.3,25.26,4.28,4.4,8.63,8.67,12.41,13.53l-10.86-14.06c2.17,3.06,3.99,6.2,5.58,9.6l-7-16.59c2.26,5.46,3.64,11.01,4.44,16.86l-2.48-18.46c1.04,9.85.42,19.62-.86,29.41l2.48-18.46c-3.62,25.51-9.08,50.83-13.76,76.16-4.9,26.54-9.8,53.07-14.7,79.61-9.8,53.07-19.61,106.15-29.41,159.22-4.33,23.42-7.72,47.05-16.99,69.16,2.33-5.53,4.67-11.06,7-16.59-3.59,8.26-7.85,16.11-13.35,23.27,3.62-4.69,7.24-9.37,10.86-14.06-3.12,3.88-6.52,7.39-10.42,10.49l14.06-10.86c-2.98,2.22-6.05,4.07-9.44,5.6,5.53-2.33,11.06-4.67,16.59-7-3.48,1.41-6.94,2.34-10.67,2.86l18.46-2.48c-3.44.34-6.77.29-10.21-.08l18.46,2.48c-3.51-.53-6.81-1.41-10.12-2.69,5.53,2.33,11.06,4.67,16.59,7-3.71-1.62-7.03-3.6-10.26-6.04l14.06,10.86c-3.68-2.98-6.89-6.31-9.87-9.98l10.86,14.06c-5.78-7.53-10.17-15.82-13.88-24.53,2.33,5.53,4.67,11.06,7,16.59-3.4-8.26-6.18-16.71-8.6-25.31-5.91-20.97-20.44-36.66-40.21-45.01s-44.08-9.02-61.81,3.5c-15.89,11.22-31.51,23.26-45.39,36.95-13.9,13.71-25.92,29.27-37.37,45.03-9.98,13.74-11.32,37.83-7,53.52,4.44,16.11,16.89,33.57,31.92,41.51,16.12,8.52,35.65,12.79,53.52,7,5.53-2.33,11.06-4.67,16.59-7,10.44-6.17,18.74-14.48,24.92-24.92h0Z"/></g></g></g></g></svg>