<?xml version="1.0" encoding="UTF-8"?><svg id="Layer_2" xmlns="http://www.w3.org/2000/svg" viewBox="0 0 287.19 431.19"><defs><style>.cls-1,.cls-2{fill:#3fa9f5;}.cls-2{font-family:MyriadPro-Regular, 'Myriad Pro';font-size:200px;}</style></defs><g id="Layer_1-2"><path class="cls-1" d="m5.58,183.35c-3.64-12.63-5.58-25.97-5.58-39.76.92,13.26,2.8,26.51,5.58,39.76Z"/><path class="cls-1" d="m287.19,143.59c0,15.37-2.41,30.18-6.89,44.06,3.4-14.69,5.72-29.37,6.89-44.06Z"/><path class="cls-1" d="m143.59,0C64.29,0,0,64.29,0,143.59c.92,13.26,2.8,26.51,5.58,39.76,17.27,82.65,69.05,165.26,137.61,247.84,67.15-81.15,118.38-162.32,137.11-243.54,3.4-14.69,5.72-29.37,6.89-44.06C287.19,64.29,222.9,0,143.59,0Zm116.59,143.59c-.21,64.44-52.5,116.6-116.99,116.6S26.41,208.03,26.2,143.59c-.01-.13-.01-.27-.01-.4,0-64.62,52.38-117,117-117s117,52.38,117,117c0,.13,0,.27-.01.4Z"/><text class="cls-2" transform="translate(62.19 206.19)"><tspan x="0" y="0">C</tspan></text></g></svg>