<?xml version="1.0" encoding="UTF-8"?><svg id="Layer_2" xmlns="http://www.w3.org/2000/svg" viewBox="0 0 55.06 77"><defs><style>.cls-1{fill:#006837;}.cls-2{fill:#fff;}</style></defs><g id="Layer_1-2"><path class="cls-1" d="m28.44,76.69c-.52.43-1.27.41-1.77-.05C22.06,72.43.59,51.63,0,29.53-.45,12.1,15.36-6.42,38.02,2.17c13.76,5.21,16.9,18.24,17.04,27.37.2,12.68-5.68,22.37-11.59,30.91-5.17,7.47-10.77,12.77-15.04,16.25Z"/><path class="cls-2" d="m34.16,43.08c-.34-.35-.68-.7-1.01-1.04-.05.02-.06.03-.07.04-.02.03-.04.06-.06.1-.93,1.51-2.15,2.71-3.69,3.6-2.11,1.21-4.36,1.55-6.75,1.2-1.07-.16-2.08-.51-3.03-1.02-2.89-1.55-4.63-3.96-5.28-7.16-.25-1.23-.25-2.48-.01-3.7.63-3.2,2.39-5.59,5.26-7.16.14-.07.18-.16.18-.31,0-.66,0-1.32,0-1.98v-.22c-3.25,1.2-7.31,4.71-7.81,10.5-.29,3.4.7,6.45,2.93,9.05,2.22,2.59,5.05,4.03,8.46,4.34-.18.02-.34.04-.5.06h2.75l-.28-.07c.11-.03.21-.03.31-.04.11,0,.23,0,.34-.02,2.16-.31,4.13-1.09,5.87-2.43,1.12-.86,2.07-1.88,2.86-3.05.07-.1.05-.16-.03-.23-.16-.15-.31-.3-.45-.45Z"/><path class="cls-2" d="m22.39,17.36c1.28.81,2.57.81,3.86.03,1.53-.93,2.11-2.98,1.28-4.56-.54-1.04-1.38-1.7-2.54-1.93-.11-.02-.21-.06-.32-.09h-.75s-.04.06-.07.07c-.11.02-.23.02-.33.05-1.49.42-2.41,1.38-2.71,2.9-.25,1.3.41,2.78,1.58,3.52Z"/><path class="cls-2" d="m42.47,41.8c-1.34-1.34-2.68-2.68-4.02-4.02-1.3-1.3-2.59-2.59-3.88-3.89-.13-.13-.25-.18-.42-.18-2.48,0-4.96,0-7.44,0h-.21v-4.56s.05,0,.07,0c2.6,0,5.2,0,7.8,0,.32,0,.63-.05.93-.18,1.09-.46,1.47-1.47,1.42-2.2-.1-1.26-1.07-2.13-2.34-2.13-2.22,0-4.43,0-6.65,0-.41,0-.81,0-1.24,0,0-.06,0-.09,0-.12,0-.62.02-1.24,0-1.86-.01-.3-.06-.61-.15-.9-.39-1.22-1.83-1.99-3.02-1.37-.84.43-1.34,1.1-1.34,2.06,0,4.73,0,9.46,0,14.2,0,.13,0,.27.02.39.15.72.74,1.2,1.48,1.2,1.08,0,2.16,0,3.24,0,1.86,0,3.73,0,5.59,0,.12,0,.28.03.36.11,2.1,2.09,4.2,4.18,6.29,6.27.2.2.4.42.62.61,1,.83,2.6.58,3.3-.53.6-.95.45-2.06-.39-2.9Z"/></g></svg>