<?xml version="1.0" encoding="UTF-8"?><svg id="Layer_2" xmlns="http://www.w3.org/2000/svg" viewBox="0 0 3465.57 2090.58"><defs><style>.cls-1{fill:none;stroke:#333;stroke-miterlimit:10;stroke-width:3px;}.cls-2{fill:#333;}</style></defs><g id="trail"><g id="outline"><g id="outter"><path class="cls-2" d="m1463.61,13c44.38,0,89.35,1.1,115.16,3.87,57.19,6.13,202.21,53.11,214.47,71.49,12.26,18.38,4.08,42.89,9.45,49.02,5.37,6.13,100.85,85.79,123.31,85.79s67.4-57.19,96-69.45c15.99-6.85,56.87-7.96,94.81-7.96,18.09,0,35.51.25,49.24.25,8.99,0,16.4-.11,21.39-.46,26.56-1.9,23.16-24.94,73.28-24.94,3.84,0,8,.14,12.51.43,63.32,4.09,142.98,110.3,173.62,110.3s96-24.51,124.6-26.55c1.37-.1,2.68-.14,3.96-.14,24.18,0,33.08,16.63,53.92,16.63,1.1,0,2.23-.05,3.4-.14,24.51-2.04,43.92-21.96,59.23-26.72,15.32-4.76,36.77-1.37,62.81-10.56,26.04-9.19,47.49-22.98,61.28-22.98s180.77-67.4,191.49-76.6c10.72-9.19-18.38-19.91,18.38-24.51,26.19-2.38,53.76-3.39,81.72-3.39,151.98,0,314.94,29.91,322.71,32.5,9.19,3.06,26.04,21.45,21.45,30.64-4.6,9.19-42.89,45.96-44.43,64.34-1.53,18.38,22.98,50.55,16.85,67.4-6.08,16.71-79.94,81.21-106.56,81.21-.23,0-.46,0-.68-.01-23.49-1.02-33.7-36.77-44.39-50.04-4.71-5.86-21.86-6.94-41.23-6.94-11.45,0-23.68.38-34.56.38-12.44,0-23.14-.5-28.93-2.63-19-7-32.12-53.17-53.76-53.17-.46,0-.92.02-1.39.06-22.47,2.04-107.23,42.89-127.66,42.89-7.43,0-15.39.27-23.02.27-13.34,0-25.63-.83-32.13-5.38-10.21-7.15-33.7-10.21-51.06-16.34-17.36-6.13-40.85-21.45-55.15-23.49-.68-.1-1.34-.14-2-.14-13.21,0-22.84,18.72-50.08,22.61-28.6,4.08-100.08,21.45-108.26,28.6-8.17,7.15,12.26,13.28-15.32,76.6-27.57,63.32-66.38,72.51-76.6,78.64-10.21,6.13-7.15,48-57.19,54.13-1.95.24-3.93.35-5.94.35-49.65,0-116.93-69.96-124.78-73.89-1.52-.76-3.21-1.06-5.06-1.06-7.09,0-16.48,4.42-27.07,4.42-1.52,0-3.07-.09-4.64-.3-15.32-2.04-23.49-11.23-44.94-17.36-2.19-.63-4.2-.9-6.08-.9-13.35,0-20.21,13.83-39.27,13.83-4.53,0-9.76-.78-15.93-2.72-35.74-11.23-32.68-51.06-42.89-55.15-10.21-4.08-30.64-24.51-40.85-29.62-10.21-5.11-34.72-6.13-44.94-6.13s-46.98-22.47-54.13-34.72c-7.15-12.26-26.55-59.23-35.74-59.23s-65.36,46.98-67.4,56.17c-2.04,9.19,9.19,26.55-12.25,43.92-5.45,4.41-12.47,5.99-20.02,5.99-19.01,0-41.35-9.99-50.24-9.99-1.49,0-2.61.28-3.27.94-6.13,6.13,5.11,26.55,12.26,45.96,7.15,19.4-15.32,56.17-31.66,63.32-2.32,1.02-4.84,1.47-7.5,1.47-16.03,0-36.7-16.78-44.59-29.05-9.19-14.3-25.53-30.64-37.79-36.77-12.26-6.13-43.92-8.17-55.15-12.26-11.23-4.08-45.96-21.45-56.17-40.85-10.21-19.4-49.02-69.45-84.77-72.51-1.87-.16-3.79-.24-5.75-.24-35.51,0-84.18,25.12-85.15,31.9-1.02,7.15,7.15,22.47,17.36,27.57,10.21,5.11,29.62,16.34,34.72,18.38.94.38,2.3.48,4.01.48,1.87,0,4.15-.12,6.76-.12,7.91,0,18.81,1.09,30.08,9.85,18.38,14.3,49.02,72.51,59.23,81.7,10.21,9.19,48,27.57,62.3,48,14.3,20.43,25.53,46.98,31.66,68.43,6.13,21.45-2.04,134.81-2.04,150.13s8.17,4.09,8.17,19.4-27.57,89.87-31.66,97.02c-4.08,7.15,3.06,46.98,0,57.19-3.06,10.21-19.4,29.62-19.4,34.72s13.28,14.3,11.23,27.57c-2.04,13.28-63.32,85.79-76.6,92.94-13.28,7.15-37.79,5.11-45.96,15.32s-33.7,64.34-38.81,71.49c-5.11,7.15-23.49,3.06-25.53,7.15-2.04,4.08,0,25.53-1.02,42.89-1.02,17.36-89.87,115.4-102.13,134.81-12.26,19.4-22.47,99.06-21.45,103.15,1.02,4.09,25.53,23.49,25.53,35.74s-11.23,85.79-17.36,102.13c-6.13,16.34-19.4,241.02-21.45,252.26-2.04,11.23-37.79,94.98-46.98,106.21-9.19,11.23-20.43,8.17-25.53,13.28-5.11,5.11-2.04,10.21-15.32,15.32-4.17,1.6-10.46,2.2-17.37,2.2-15.1,0-33.19-2.84-38.8-4.24-8.17-2.04-33.7-29.62-35.74-36.77-1.89-6.6,10.18-28.03,3.16-28.03-.58,0-1.28.15-2.14.46-11.23,4.09-174.64,165.45-187.91,168.51-7.97,1.84-27.7,3.31-45.3,3.31-11.73,0-22.52-.65-28.24-2.29-14.3-4.09-51.06-13.28-64.34-17.36-.78-.24-2.08-.35-3.87-.35-28.71,0-179.96,29.37-196.3,36.1-17.36,7.15-41.87,22.47-49.02,28.6-7.15,6.13-4.08,24.51-14.3,28.6-3.4,1.36-12.37,1.82-23.07,1.82-21.41,0-49.78-1.82-54.54-1.82-7.15,0-48-18.38-61.28-24.51-13.28-6.13-32.68-3.06-48-6.13-15.12-3.02-164.57-78.68-178.25-78.68-.18,0-.34.01-.47.04-3.4.68-7.72.91-12.18.91-8.93,0-18.46-.91-22.54-.91-6.13,0-31.66-17.36-38.81-20.43-7.15-3.06-34.72-20.43-43.91-27.57-9.19-7.15-45.96-49.02-50.04-55.15-4.09-6.13-14.3-45.96-15.32-50.04s-19.4-24.51-23.49-31.66c-4.08-7.15-5.11-30.64-7.15-42.89-2.04-12.26,19.4-25.53,27.57-30.64,8.17-5.11,24.51-23.49,35.74-23.49,10.62,0,46.81,23.74,55.9,23.74.52,0,.96-.08,1.29-.25,6.13-3.06,31.66-78.64,56.17-79.66.79-.03,1.57-.05,2.33-.05,23.03,0,35.78,14.38,45.67,15.37,10.21,1.02,44.94,4.08,60.26,10.21s10.21,11.23,17.36,13.28c.78.22,1.54.31,2.33.31,3.07,0,6.57-1.36,13.62-1.36,7.61,0,19.37,1.59,39.2,8.2,42.89,14.3,42.89,35.74,51.06,38.81,2.45.92,22.91,1.1,50.89,1.1,18.65,0,40.64-.08,62.86-.08,55.53,0,112.47.51,122.17,4.09,19.4,7.15,16.34,25.53,28.6,25.53s78.64-38.81,94.98-49.02c16.34-10.21,77.62-76.6,92.94-87.83,15.32-11.23,13.28-18.38,23.49-32.68,10.21-14.3,29.62-22.47,37.79-28.6,8.17-6.13,2.04-29.62,15.32-42.89s60.26-54.13,56.17-58.21c-1.63-1.63-5.88-2.12-10.92-2.12-7.55,0-16.86,1.1-21.77,1.1-7.89,0-5.3-13.33-13.39-13.33-.29,0-.59.02-.91.05-8.92.99-52.48,32.77-68.11,32.77-.47,0-.92-.03-1.34-.09-14.3-2.04-14.3-13.28-15.32-24.51-1.02-11.23-24.51-17.36-21.45-31.66,3.06-14.3,8.17-18.38,14.3-26.55,6.13-8.17,3.06-26.55-4.09-52.08-7.15-25.53-24.51-35.74-29.62-49.02-5.11-13.28-7.15-50.04-11.23-64.34-4.09-14.3-29.62-18.38-35.74-33.7-6.13-15.32,2.04-38.81,2.04-43.91s-17.36-17.36-19.4-28.6c-2.04-11.23-12.26-59.23-7.15-76.29,5.11-17.06,33.7-39.11,46.98-50.34s5.11-37.79,11.23-54.13c6.13-16.34,13.28-4.09,40.85-35.74,27.57-31.66,64.34-135.83,79.66-144,4.64-2.47,8.62-3.36,12.26-3.36,8.38,0,14.94,4.69,23.49,5.4,1.4.12,3.03.17,4.84.17,10.75,0,27.8-1.77,40.87-1.77,3.94,0,7.52.16,10.46.58,14.3,2.04,52.08,56.17,54.13,66.38,2.04,10.21,10.21,177.7,14.3,204.26,4.09,26.55,6.13,55.15,21.45,61.28,4.29,1.72,8.41,2.55,12.4,2.55,10.27,0,19.62-5.53,28.45-15.83,12.26-14.3,9.19-33.7,38.81-52.09,29.62-18.38,100.09-21.45,104.17-28.6,4.08-7.15-2.04-24.51,17.36-37.79,19.4-13.28,96-33.7,103.15-42.89,7.15-9.19-15.32-31.66-15.32-45.96s24.51-172.6,18.38-182.81c-1.91-3.18-12.72-3.98-27.11-3.98s-33.21.84-49.71.84c-19.18,0-35.71-1.14-40.62-6.05-13.28-13.28-13.28-131.74-11.23-150.13,2.04-18.38,9.19-34.72,28.6-43.91,19.4-9.19,41.87-11.23,41.87-20.43,0-3.58-3.73-4.53-8.7-4.53-5.54,0-12.62,1.17-17.82,1.17-2.1,0-3.89-.19-5.15-.73-4.87-2.09-15.44-7.5-29.43-7.5-6.54,0-13.83,1.18-21.63,4.43-24.51,10.21-36.77,24.51-43.92,29.62-4.31,3.08-27.95,7.65-48.72,7.65-13.66,0-26.08-1.98-30.94-7.65-12.26-14.3-42.89-157.28-42.89-175.66s28.6-75.57,46.98-89.87c14.3-11.12,38.48-12.36,58.13-12.36,5.61,0,10.86.1,15.4.1,20.43,0,71.49-57.19,79.66-67.4,8.17-10.21-12.26-42.89-16.34-53.11-4.08-10.21,2.04-57.19,32.68-61.28,16.81-2.24,69.88-3.87,123.82-3.87m-227.23,244.07c-7.76,0-12.93-2.24-23.22-2.24-18.38,0-18.38,23.49-21.45,42.89-3.06,19.4,1.02,18.38,9.19,76.6,6.21,44.24,8.29,49.55,14.76,49.55,2.04,0,4.52-.53,7.71-.53,13.28,0,10.21-19.4,17.36-25.53,1.84-1.58,3.55-2.14,5.27-2.14,4.29,0,8.7,3.46,15.65,3.46,1.13,0,2.32-.09,3.59-.3,12.26-2.04,3.06-6.13,20.43-15.32,3.33-1.76,7.45-2.51,12.13-2.51,19.71,0,49.33,13.27,71.61,19.87,6.28,1.86,12.35,2.08,18.05,2.08,1.75,0,3.46-.02,5.14-.02,16.83,0,29.7,2.08,34,47.98,6.13,65.36-62.3,59.23-70.47,72.51-8.17,13.28-10.21,86.81,8.17,101.11,2.8,2.18,6.86,3.03,11.81,3.03,17.68,0,46.76-10.84,70.82-10.84,13.44,0,25.33,3.39,32.78,13.94,24.51,34.72-8.17,218.55-8.17,233.87s24.51,57.19,17.36,68.43c-7.15,11.23-3.06,17.36-74.55,36.77-71.49,19.4-28.6,22.47-50.04,51.06-21.45,28.6-22.47,11.23-80.68,24.51-58.21,13.27-37.79,11.24-50.04,20.43-12.26,9.19-15.32,31.66-32.68,49.02-12.73,12.73-66.05,22.71-98.85,22.71-11.95,0-21.18-1.33-24.72-4.32-13.28-11.23-13.28-9.19-20.43-75.57-7.15-66.38-15.32-217.53-17.36-231.83s-16.34-18.38-25.53-24.51c-4.92-3.28-14.81-5.39-24.35-5.39-8.29,0-16.31,1.59-20.58,5.39-9.19,8.17-54.13,108.26-63.32,126.64-9.19,18.38-28.6,19.4-42.89,37.79-14.3,18.38,4.09,38.81-12.26,60.26-16.34,21.45-48,13.28-49.02,31.66-1.02,18.38,29.62,38.81,33.7,57.19,4.09,18.38-8.17,28.6-4.09,49.02,4.09,20.43,20.43,2.04,34.72,25.53,14.3,23.49-4.09,33.7,6.13,65.36,10.21,31.66,22.47,39.83,30.64,64.34,8.17,24.51,7.15,35.74,6.13,60.26-1.02,24.51-21.45,11.23-10.21,32.68,2.3,4.39,5.5,6.17,9.28,6.17,14.66,0,37.99-26.83,50.98-31.7,3.04-1.14,5.69-1.64,8.12-1.64,10.65,0,17.13,9.67,33.76,17.98,20.43,10.21,44.94,6.13,52.09,28.6,7.15,22.47-2.04,52.09-22.47,73.53-20.43,21.45-32.68,37.79-37.79,56.17-5.11,18.38-27.57,32.68-39.83,39.83-12.26,7.15-11.23,21.45-30.64,40.85-19.4,19.4-184.85,154.21-227.74,156.26-1.58.08-3.1.11-4.57.11-38.29,0-38.29-24.89-63.86-31.77-6.64-1.79-23.35-2.36-45.06-2.36-39.06,0-94.26,1.86-135.8,1.86-27.7,0-49.33-.83-56.07-3.58-22.47-9.19-5.11-17.36-25.53-28.6s-28.6-4.09-64.34-14.3c-30.14-8.61-66.81-34.64-88.59-34.64-4.05,0-7.59.9-10.47,2.98-17.98,12.98-11.54,77.72-48.48,77.72-.84,0-1.7-.03-2.58-.1-31.23-2.4-49.9-18.62-64.38-18.62-3.99,0-7.66,1.23-11.19,4.32-16.34,14.3,9.19,22.47,19.4,34.72,10.21,12.26,5.11,23.49,10.21,38.81.82,2.45.95,3.67.83,4.22-.35-.17-.58-.23-.72-.23-.45,0-.01.63.36.63.15,0,.29-.11.36-.4,2.5,1.2,11.11,7.76,36.96,34.58,54.13,56.17,65.36,34.72,89.87,43.91,24.51,9.19,163.4,71.49,188.94,81.7,10.02,4.01,16.11,4.87,21.29,4.87,3.91,0,7.3-.49,11.47-.49,4.39,0,9.65.54,17.28,2.77,23.94,6.98,72.25,27.61,86.85,27.61.35,0,.67-.01.98-.04,13.28-1.02,18.38-36.77,73.53-55.15,52.2-17.4,205.94-42.12,236.97-42.12,1.75,0,3.12.08,4.05.24,17.36,3.06,33.7,12.26,46.98,14.3,8.18,1.26,21.02,3.68,33.97,3.68,8.06,0,16.17-.94,23.22-3.68,18.38-7.15,176.68-165.45,190.98-172.6,1.97-.99,4.43-1.43,7.22-1.43,17.46,0,48.03,17.28,55.08,26.96,8.17,11.23-6.13,39.83,13.28,48,3.46,1.46,6.14,2.07,8.24,2.07,9.69,0,7.15-13.01,12.18-16.37,6.13-4.09,14.3-4.09,17.36-10.21,3.06-6.13,20.43-55.15,24.51-67.4,4.08-12.26,5.11-52.09,8.17-112.34,3.06-60.26,10.21-116.43,13.28-137.87,3.06-21.45,20.43-69.45,19.4-76.6-1.02-7.15-23.49-19.4-26.55-26.55-3.06-7.15,4.08-50.04,7.15-79.66,3.06-29.62,6.13-42.89,20.43-70.99,14.3-28.1,34.72-44.41,53.11-63.82,18.38-19.4,24.51-38.81,35.74-57.19,11.23-18.38,9.19-46.98,14.3-67.4,5.11-20.43,23.49-19.4,39.83-30.64,16.34-11.23,25.53-43.92,38.81-59.23,13.28-15.32,45.96-16.34,60.26-19.4,14.3-3.06,19.4-29.62,29.42-42.89,10.01-13.28-.82-23.49,5.31-41.87,6.13-18.38,14.3-25.53,18.38-34.72,4.08-9.19-6.13-33.7-2.04-53.11,4.09-19.4,27.57-66.38,30.64-83.74,3.06-17.36-4.09,0-6.13-30.64-2.04-30.64,1.02-78.64-1.02-112.34-2.04-33.7,2.04-7.15-21.45-54.13-23.49-46.98-54.13-37.79-64.34-55.15s-33.7-69.45-61.28-77.62c-27.57-8.17-34.72-26.55-54.13-37.79-19.4-11.23-51.06-62.3-48-83.74,3.06-21.45,23.49-26.55,42.89-27.57,19.4-1.02,40.85-26.55,58.21-30.64,5.31-1.25,15.58-1.83,27.93-1.83,28.04,0,66.77,2.99,82.37,7.96,22.47,7.15,78.64,84.77,92.94,101.11,14.3,16.34,39.83,14.3,61.28,19.4,20.63,4.91,31.81,28.71,39.9,28.71.32,0,.64-.04.95-.12,8.17-2.04-17.23-62.36,0-75.57,6.35-4.87,13.54-6.76,20.95-6.76,25.35,0,53.32,22.04,59.51,22.04.73,0,1.15-.31,1.24-.99,1.02-8.17-69.45-41.87-86.81-56.17-17.36-14.3-58.21-34.72-68.43-46.98-10.21-12.26,8.17-29.62-7.15-52.09-15.32-22.47-140.94-41.87-170.55-52.09-15.76-5.44-70.28-8.85-119.08-8.85-42.89,0-81.35,2.64-85.17,8.85-8.17,13.28,27.57,70.47,21.45,87.83-6.13,17.36-93.96,82.72-123.57,93.96-13.03,4.94-20.72,6.33-26.82,6.33m1743.88-95.25c-2.04,0-3.59-.31-6.02-.31s-5.47.29-10.61,1.4c-23.49,5.11-56.17,15.62-57.19,27.21-1.02,11.6,42.38,11,49.53,14.06,6.49,2.78,20.24,10.46,29.5,10.46.94,0,1.83-.08,2.67-.25,15.29-3.14,39.83-11.74,56.17-24,16.34-12.26,50.04-33.62,70.47-33.62s40.85,16.34,60.26,45.96c15.93,24.31,31.17,32.8,58.71,32.8,6.01,0,12.61-.4,19.93-1.14,20-2,27.27-10.61,34.87-10.61,7.93,0,16.22,9.36,39.68,45.33.3.46.86.67,1.64.67,8.43,0,42.36-24.94,43.3-33.35,1.02-9.19-21.45-51.06-22.47-62.3-1.02-11.23,30.64-25.53,29.62-36.77-.91-9.97-197.23-26.37-266.42-26.37-8.78,0-15.51.26-19.54.84-35.75,5.11-17.36,13.28-71.49,35.74-29.9,12.41-37.67,14.23-42.6,14.23m-708.29,8.52c-1.25,0-2.51-.07-3.83-.27-.51-.08-1.07-.12-1.67-.12-15.1,0-58.31,23.68-76.97,25.65-1.91.2-3.92.29-6,.29-19.12,0-44.83-7.74-61.4-10.51-4.81-.8-10.45-1.18-16.18-1.18-16.2,0-33.11,3.05-33.86,8.33-1.02,7.15,35.74,49.02,48,54.13,12.26,5.11,42.89,14.3,59.23,17.36,16.34,3.06,26.55,22.47,38.81,26.55,12.26,4.08,23.49-2.04,36.77,8.17,12.55,9.66,4.11,37.57,9.19,37.57.29,0,.63-.09,1.02-.29,7.15-3.57,39.83-3.58,53.11-4.6.28-.02.57-.03.86-.03,13.45,0,37.19,22.52,49.18,23.52.38.03.76.05,1.14.05,7.34,0,15.51-5.51,26.86-5.51,7.22,0,15.73,2.24,26.13,9.55,27.28,19.2,72.57,66.4,88.36,66.4.17,0,.33,0,.49-.02,15.32-1.02,18.38-37.79,25.53-43.92,7.15-6.13,27.57-9.19,36.77-15.32,9.19-6.13,64.68-66.38,38.47-103.15-6.58-9.23-19.95-14.48-37.09-14.48-14.13,0-30.82,3.57-48.35,11.41-21.03,9.41-44.77,11.92-64.86,11.92-16.98,0-31.36-1.79-39.31-2.73-17.36-2.04-69.45-36.77-101.11-72.51-20.85-23.54-31.51-26.71-40.16-26.71-3.18,0-6.08.43-9.12.43M1463.61,0c-55.44,0-108.23,1.67-125.54,3.98-14.11,1.88-25.9,10.28-34.09,24.3-10.78,18.45-13.37,43.63-8.95,54.69,1.13,2.82,2.9,6.31,5.15,10.74,2.88,5.68,6.47,12.74,9.02,19.23,2.62,6.65,3.09,10,3.14,11.34-4.52,5.44-17.63,20.26-32.38,34.39-26.65,25.54-35.63,26.92-36.25,26.98-2.07,0-4.31-.02-6.69-.05-2.76-.03-5.62-.05-8.64-.05-23.1,0-49.01,1.79-66.12,15.09-14.19,11.04-28.48,37.05-33.96,47.72-5.42,10.55-18.03,36.78-18.03,52.41,0,11.57,8.85,56.19,17.18,92.28,18.38,79.63,25.98,88.5,28.84,91.83,7.03,8.2,20.38,12.19,40.81,12.19,17.24,0,47.2-3.59,56.28-10.07,2.25-1.61,4.54-3.61,7.19-5.93,7.41-6.47,17.55-15.34,34.17-22.27,5.47-2.28,11.06-3.43,16.63-3.43,8.21,0,15.11,2.48,19.92,4.52-2.08.84-4.18,1.75-6.27,2.74-11.45,5.42-20.34,13.37-26.42,23.63-5.07,8.55-8.19,18.56-9.53,30.6-1.2,10.8-1.54,46.86-.2,78.96.81,19.25,2.09,35.37,3.83,47.91,2.57,18.59,5.86,28.41,11.33,33.88,7.19,7.19,20.69,9.86,49.81,9.86,8.65,0,17.76-.22,26.57-.44,8.3-.21,16.15-.4,23.14-.4,7.41,0,12.13.24,15.11.52-.08,5.97-.78,18.02-3.43,42.15-2.69,24.45-6.41,52.81-9.69,77.83-4.11,31.33-6.25,47.92-6.25,53.29,0,9.77,5.31,19.28,10.45,28.47,1.63,2.92,4.07,7.28,5.38,10.35-7.95,3.93-26.48,10.45-39.4,15-24.46,8.62-47.57,16.76-58.6,24.3-18.55,12.69-20.19,29.4-21.07,38.38-.03.35-.07.73-.11,1.11-5.32,1.35-14.88,3.02-22.31,4.31-25.83,4.5-57.97,10.11-77.56,22.27-22.83,14.17-29.4,29.35-34.67,41.54-2.34,5.4-4.19,9.67-7.15,13.13-6.51,7.6-12.59,11.29-18.58,11.29-2.37,0-4.85-.53-7.58-1.62-.76-.3-3.44-1.97-6.2-10.75-2.59-8.24-4.12-18.99-5.75-30.37-.47-3.3-.96-6.7-1.48-10.07-2.23-14.51-5.95-76.37-8.93-126.07-3.2-53.33-4.5-73.93-5.47-78.76-2.36-11.82-22.58-38.58-24.88-41.59-4.6-6.03-11.56-14.68-18.65-21.69-8.46-8.37-15.1-12.51-21.5-13.42-3.35-.48-7.37-.71-12.3-.71-7.25,0-15.34.49-23.16.97-6.68.41-13,.8-17.71.8-1.52,0-2.79-.04-3.76-.12-2.42-.2-5-1.07-7.99-2.08-4.45-1.5-9.98-3.36-16.58-3.36-6.2,0-12.21,1.6-18.38,4.89-10.31,5.5-19.09,22.68-39.77,66.77-14.36,30.61-30.63,65.3-43.57,80.17-13.12,15.07-20.38,18.56-25.68,21.11-7.3,3.51-13.23,7.12-17.54,18.61-3.23,8.62-3.42,18.05-3.6,27.18-.17,8.74-.37,18.64-3.86,21.59-1.5,1.27-3.21,2.69-5.05,4.22-21.26,17.64-40.77,34.91-45.98,52.32-4.82,16.1.01,46.89,5.95,77.78.36,1.87.66,3.42.87,4.57,1.83,10.08,9.45,18.43,15.57,25.14.98,1.08,2.17,2.38,3.11,3.47-.14.65-.28,1.33-.41,1.96-2.33,10.97-6.22,29.34-.19,44.44,4.64,11.6,15.25,18.14,23.77,23.4,4.33,2.67,10.88,6.71,11.55,9.05,1.56,5.47,2.97,16.27,4.33,26.71,2,15.4,3.9,29.94,7.27,38.72,2.76,7.18,7.46,12.9,12.43,18.94,6.49,7.89,13.2,16.06,16.8,28.92,3.6,12.86,5.66,22.17,6.49,29.31,1,8.59-.2,11.26-.33,11.52-.97,1.29-1.96,2.53-2.92,3.73-5.16,6.45-10.49,13.12-13.65,27.84-3.37,15.74,8.55,25.55,15.67,31.42,1.87,1.54,4.61,3.8,5.63,5.08.03.37.06.75.1,1.12.51,6,1.09,12.81,4.18,19.06,2.89,5.86,9.07,13.23,22.07,15.08,1.02.15,2.09.22,3.18.22,11.94,0,27.93-8.86,50.97-22.36,4.56-2.67,10.21-5.99,14.39-8.23.68,1.36,1.53,2.79,2.64,4.17,3.58,4.47,8.7,6.93,14.41,6.93,1.97,0,4.26-.13,6.83-.3-8.01,7.85-17.55,16.71-23.58,22.3-6.61,6.14-12.33,11.44-15.93,15.04-10.5,10.5-12.31,24.29-13.64,34.37-.34,2.58-.83,6.29-1.36,8.08-1.79,1.21-4.31,2.7-6.96,4.26-9.97,5.89-23.63,13.95-32.54,26.42-4.32,6.04-6.79,11.05-8.77,15.08-2.99,6.06-4.63,9.4-11.83,14.68-7.69,5.64-23.49,21.46-41.79,39.78-17.98,18.01-42.61,42.67-50.35,47.5-7.95,4.97-27.62,16.61-46.47,26.92-25.54,13.98-36.19,18.28-40.19,19.59-.42-.7-.88-1.49-1.27-2.16-3.6-6.22-9.61-16.64-24.26-22.04-8.4-3.1-31.82-4.89-126.66-4.89-11.6,0-23.14.02-34.18.04-10.1.02-19.77.04-28.68.04-9.46,0-36.08,0-45.37-.52-.41-.59-.85-1.26-1.23-1.82-5.94-8.91-16.99-25.48-51.24-36.9-17.9-5.97-32.07-8.87-43.31-8.87-5.03,0-8.73.57-11.27.99-2.81-3.96-7.21-8.29-17.22-12.29-14.2-5.68-40.31-8.78-61.47-10.85-.85-.08-1.62-.16-2.28-.22-1.33-.24-5.01-2.24-7.71-3.71-8.57-4.67-21.51-11.72-39.29-11.72-.95,0-1.92.02-2.87.06-22.96.96-39.35,31.4-56.88,68.09-1.52,3.18-3.24,6.77-4.72,9.73-4.72-2.14-11.03-5.4-15.41-7.66-16.83-8.68-27.57-14.01-35.82-14.01-12.59,0-24.35,10.12-34.72,19.05-3.07,2.64-6.24,5.37-7.92,6.42l-.23.14c-11.92,7.45-36.73,22.95-33.28,43.66.59,3.52,1.11,8.32,1.66,13.41,1.8,16.52,3.17,27.04,7.02,33.79,2.24,3.92,6.35,9.1,12.85,17.18,3.26,4.05,8.04,9.99,9.64,12.46,1.05,4.1,3.56,13.74,6.29,23.37,5.96,20.98,8.57,26.55,10.5,29.45,4.79,7.18,42.68,50.26,52.88,58.2,9.56,7.43,38.17,25.58,46.78,29.26,1.81.77,7.34,4.08,11.78,6.74,17.53,10.47,25.34,14.74,32.15,14.74,1.27,0,3.79.15,6.45.3,4.63.27,10.39.61,16.09.61,4.95,0,9.09-.26,12.57-.78,2.7.75,10.83,3.58,34.37,14.19,18.45,8.31,40.86,18.89,62.54,29.11,50.17,23.67,71.36,33.46,78.88,34.96,7.16,1.43,14.59,1.7,21.77,1.96,8.72.32,17.73.64,23.33,3.22,8.48,3.91,21.69,9.84,33.35,14.74,24.11,10.12,29.71,10.97,33.37,10.97,1.22,0,5.6.21,10.24.43,11.73.55,29.45,1.39,44.3,1.39,18.49,0,24.34-1.32,27.9-2.75,12.03-4.81,14.8-16.84,16.63-24.79.48-2.08,1.19-5.15,1.77-6.4,6.6-5.4,29.15-19.51,45.04-26.05,13.78-5.67,163.51-35.12,191.35-35.12.37,0,.64,0,.82.01,8.06,2.44,22.79,6.3,37.05,10.04,10.69,2.8,20.79,5.45,26.77,7.16,6.48,1.85,17.18,2.79,31.81,2.79,18.49,0,39.22-1.57,48.22-3.64,4.91-1.13,10.63-4.15,44.18-34.59,19.97-18.12,44.79-41.45,68.79-64,19.55-18.37,42.04-39.51,57.98-53.98.11.85.29,1.7.53,2.54,2.06,7.2,11.28,17.95,18.66,25.69,16.88,17.73,24.07,19.52,26.43,20.11,6.26,1.56,25.6,4.63,41.95,4.63,9.47,0,16.68-1,22.04-3.07,12.68-4.88,16.53-11.26,19.14-16.85.13-.28.29-.62.43-.91.74-.22,1.81-.49,2.65-.7,5.88-1.46,15.73-3.91,24.02-14.04,6.32-7.72,18.73-34.8,28.03-56.15,2.02-4.64,19.8-45.65,21.68-55.97.74-4.07,2.04-22,5.3-68.43,2.43-34.64,5.46-77.75,8.36-113.42,4.43-54.47,6.51-65.92,7.22-68.31,6.92-18.67,18.14-93.34,18.14-106.55,0-12.41-10.03-23.85-22.14-36.45-1.03-1.07-2.27-2.36-3.28-3.45.58-6.94,2.55-23.26,5.93-42.21,6.58-36.98,11.92-47.5,13.4-49.84,3.84-6.07,17.99-23.08,32.98-41.08,14.95-17.96,31.89-38.31,45.28-55.72,20.96-27.26,25.43-37.11,25.85-44.18.48-8.16.33-16.86.2-24.53-.05-2.66-.1-5.79-.1-8.55,7.64-.51,18.06-1.76,24.06-10.17,2.55-3.57,6.93-12.09,15.1-28.1,7.69-15.08,19.31-37.86,23.29-42.83,0,0,.87-.96,4.55-2.11,3.53-1.11,7.98-1.91,12.68-2.76,8.49-1.53,17.28-3.11,24.74-7.12,11.65-6.27,38.41-37.79,46.33-47.29,34.91-41.9,36.44-51.84,36.95-55.11,2.12-13.76-5.27-23.95-9.71-30.05,1.4-2.28,3.29-5.15,4.73-7.34,5.23-7.92,10.63-16.1,12.75-23.15,2.05-6.82,1.43-16.88.26-32.72-.53-7.19-1.41-19.03-.82-22.88,3.75-7.46,12.45-31.14,17.76-46.53,15.01-43.48,15.01-52.76,15.01-55.82,0-9.29-2.55-15.45-8.17-19.47,0-3.53.53-13.86,1.14-25.8,2.95-57.76,5.2-111.01.4-127.83-7.39-25.86-19.91-52.89-33.51-72.31-11.09-15.85-32-29.1-48.81-39.74-6.64-4.2-12.9-8.18-15.44-10.46-2.88-2.63-11.69-16.49-18.13-26.61-13.66-21.48-29.14-45.83-41.82-55.69-14.51-11.29-28.67-12.59-38.06-12.59-1.58,0-3.02.04-4.28.07-.96.03-1.8.05-2.48.05-.07,0-.14,0-.2,0-3.03-1.45-9.99-5.26-15.25-8.14-6.25-3.42-12.71-6.96-17.48-9.35-3.88-1.94-7.69-7.61-9.37-11.6,4.45-3.01,13.28-7.91,25.32-12.68,17.15-6.81,33.5-10.55,46.03-10.55,1.62,0,3.18.06,4.63.19,12.2,1.05,27.8,10.42,43.91,26.41,14.12,14,25.69,30.14,30.46,39.21,12.98,24.67,53.18,43.36,63.23,47.01,5.93,2.16,14.64,3.56,24.72,5.19,10.04,1.62,23.79,3.84,29.06,6.47,9.74,4.87,24.39,19.3,32.67,32.17,4.98,7.75,13.47,16.25,22.7,22.73,7.98,5.6,20.15,12.29,32.82,12.29,4.54,0,8.82-.86,12.71-2.56,10.77-4.71,22.31-16.97,30.86-32.79,5.57-10.3,13.99-30.09,7.79-46.93-1.82-4.95-3.85-9.83-5.8-14.56-1.52-3.67-3.43-8.29-4.94-12.4.83.23,1.63.46,2.39.67,10.83,3.06,24.32,6.87,37.4,6.87,11.43,0,20.92-2.99,28.2-8.88,21.32-17.26,18.71-36.39,17.31-46.66-.16-1.18-.36-2.66-.45-3.72,2.9-3.79,12-13.02,26.41-25.05,11.57-9.67,20.75-16.29,26.12-19.65,1.43,2.05,3.42,5.22,6.09,10.06,4.15,7.53,8.4,16.31,12.15,24.07,3.34,6.89,6.22,12.85,8.38,16.55,5.93,10.16,21.48,20.91,30.22,26.41,10.7,6.73,25.49,14.76,35.14,14.76,14.56,0,33.17,1.78,39.12,4.76,3.46,1.73,10.66,7.62,16.44,12.34,8.34,6.82,16.27,13.31,23.09,16.68.82,1.76,1.94,5.01,2.8,7.51,5.1,14.84,13.64,39.67,43.33,49,7.11,2.23,13.59,3.32,19.82,3.32,14.01,0,23.27-5.62,30.04-9.72,4.33-2.63,6.9-4.11,9.23-4.11.75,0,1.57.13,2.51.4,9.02,2.58,15.38,5.76,21.52,8.84,7.41,3.71,15.07,7.55,25.27,8.91,2.06.27,4.2.41,6.35.41,7.39,0,13.99-1.62,19.29-2.92,2.75-.67,5.58-1.37,7.3-1.49,1.88,1.5,5.5,4.66,8.76,7.5,25.08,21.89,77.28,67.43,121.56,67.43,2.55,0,5.08-.15,7.52-.45,43.33-5.31,54.57-34.26,60.61-49.82.87-2.24,2.01-5.18,2.79-6.65,1.01-.5,2.39-1.13,3.73-1.75,7.86-3.6,21.02-9.63,35.25-22.17,16.78-14.79,30.82-35.01,41.74-60.09,18.72-42.98,16.82-63.05,15.06-73.25,5.74-2.29,18.08-6.35,40.22-11.94,21.79-5.51,45.19-10.46,58.22-12.32,18.4-2.63,30.1-10.87,38.64-16.89,3.53-2.49,7.93-5.59,9.6-5.59.05,0,.1,0,.16.01,6.3.9,17.6,6.54,27.57,11.52,8.43,4.21,17.15,8.56,25.09,11.36,7.22,2.55,15.09,4.53,22.7,6.44,9.79,2.46,20.89,5.25,25.23,8.29,9.16,6.41,22.45,7.73,39.59,7.73,3.95,0,7.98-.07,11.89-.14,3.89-.07,7.56-.13,11.13-.13,12.23,0,35.04-8.65,71.15-22.9,21.73-8.57,48.78-19.24,57.69-20.05.07,0,.14-.01.21-.01,1.48,0,4.03,1.75,6.83,4.69,4.19,4.41,8.56,10.96,12.78,17.3,8.43,12.67,17.15,25.76,29.66,30.37,6.61,2.44,16.3,3.43,33.42,3.43,5.48,0,11.37-.1,17.06-.19,5.81-.09,11.81-.19,17.5-.19,9.43,0,16.37.27,21.84.85,6.19.66,8.89,1.58,9.83,1.98,2.15,2.91,4.68,7.63,7.36,12.59,9.19,17.09,21.79,40.49,46.03,41.55.41.02.83.03,1.24.03,19.06,0,48.12-20.24,69.15-37.22,4.42-3.57,43.39-35.39,49.62-52.54,5.07-13.95-1.73-30.2-8.32-45.91-3.67-8.75-8.23-19.65-7.8-24.85.06-.77.8-5.18,9.03-16.66,5.87-8.18,13.17-16.71,19.61-24.23,8.05-9.4,12.35-14.51,14.46-18.72,2.04-4.08,3.67-10.89-.17-20.15-4.96-11.97-18.14-25.09-28.79-28.64-5.38-1.79-49.19-10-109.73-17.78-54.62-7.02-136.62-15.38-217.09-15.38-29.86,0-57.75,1.16-82.9,3.45l-.22.02-.22.03c-13.74,1.72-23.85,4.59-28.53,13.04-3.56,6.42-2.01,12.51-.41,16.52-11.53,5.93-43.61,19.98-86.74,37.32-51.99,20.9-86.53,33.1-93.08,34.13-11.05.17-23.44,5.79-37.75,12.28-8.27,3.75-17.65,8.01-27.36,11.44-13.65,4.82-26.29,5.8-37.44,6.67-8.83.69-17.17,1.33-24.9,3.74-7.33,2.28-14.46,6.69-22,11.37-10.94,6.78-22.25,13.79-34.45,14.8-.79.07-1.57.1-2.32.1-6.8,0-11.81-2.66-18.74-6.33-8.64-4.59-19.4-10.29-35.17-10.29-1.61,0-3.25.06-4.89.18-14.21,1.01-35.15,6.67-57.33,12.66-24.05,6.5-51.31,13.86-66.34,13.86-.45,0-4.75-.27-17.47-9.59-9.7-7.1-21.32-17.22-33.62-27.93-17.52-15.25-37.38-32.53-57.55-46.26-24.41-16.62-45.39-25.29-64.14-26.49-4.66-.3-9.15-.45-13.35-.45-33.89,0-47.67,10.15-57.73,17.56-6.04,4.45-9.37,6.9-16.48,7.41-4.12.29-10.62.43-20.46.43-6.35,0-13.55-.05-21.18-.11-9.02-.07-18.35-.14-28.06-.14-55.31,0-85.2,2.69-99.94,9.01-14.85,6.37-31.23,21.16-48.58,36.83-9.75,8.81-18.95,17.12-27.23,23.28-10.22,7.6-14.22,8.23-14.97,8.28-1.17-.16-13.66-2.65-60.49-38.09-24.71-18.69-45.97-36.67-51.9-42.1-.15-1.8-.14-4.78-.14-7.09.02-10.91.05-27.39-9.52-41.74-3.22-4.83-10.05-11.31-36.25-22.77-16.12-7.04-37.17-14.9-60.88-22.71-49.56-16.33-99.32-28.79-126.77-31.73C1548.15.51,1493.39,0,1463.61,0h0Zm-86.16,77.5c8.67-1.95,30.52-4.4,73.04-4.4,50.32,0,101.83,3.65,114.84,8.14,9.73,3.35,27.24,7.23,49.42,12.13,23.95,5.29,51.09,11.29,73.88,17.92,34.84,10.13,40.26,16.4,40.76,17.08,5.53,8.11,4.38,14.74,2.93,23.15-1.45,8.38-3.43,19.85,4.96,29.92,7.11,8.53,22.27,17.84,39.82,28.62,11.51,7.07,23.42,14.38,30.33,20.07,4.67,3.84,12.13,8.58,20.98,13.81-5.64,1.54-10.83,4.12-15.51,7.71-14.7,11.27-12.08,34.73-8.02,55.99-5.97-4.88-13.14-9.25-21.91-11.34-6.6-1.57-13.31-2.5-19.81-3.39-14.8-2.04-27.59-3.8-34.7-11.93-3.01-3.44-8.48-10.39-14.81-18.43-40.71-51.73-66.15-80.83-83.97-86.5-17.49-5.57-57.52-8.57-86.31-8.57-14.37,0-24.77.73-30.91,2.17-10.22,2.4-20.1,9.44-29.67,16.24-9.03,6.43-19.27,13.71-26.25,14.07-13.65.72-24.39,3.19-32.85,7.56-12.55,6.48-20.24,17.25-22.23,31.16-2.5,17.49,9.74,41.44,17.25,54.15,4.47,7.56,20.34,32.98,37.1,42.68,6.18,3.58,11.19,8.37,16.49,13.44,9.64,9.22,20.56,19.67,40.45,25.56,17.89,5.3,37.9,42.51,47.51,60.4,2.4,4.46,4.46,8.3,6.26,11.35,6,10.19,15.49,14.17,24.67,18.02,12.5,5.24,26.67,11.18,39.25,36.35,9.92,19.85,15.32,27.41,18.22,31.47.32.44.68.96.94,1.33.15,1.22.28,3.89.42,6.69.13,2.52.28,5.65.52,9.61,1,16.44.74,36.86.49,56.61-.26,20.59-.51,40.04.54,55.81.96,14.42,3.15,21.38,6.55,26.03-.07.43-.15.92-.25,1.48-1.3,7.37-8.24,24.14-14.37,38.93-7.16,17.29-13.92,33.62-16.19,44.4-2.67,12.68-.52,26.14,1.2,36.96.74,4.63,1.84,11.56,1.51,13.94-1.06,2.25-2.63,4.64-4.6,7.62-4.06,6.15-9.63,14.59-14.06,27.88-3.71,11.12-2.7,20.14-1.97,26.73.78,6.98.74,8.6-1.39,11.43-4.4,5.84-7.69,12.99-10.87,19.92-2.44,5.3-4.74,10.31-7.2,14.03-2.38,3.59-3.68,4.06-3.69,4.07-2.64.56-6.29,1.09-10.53,1.7-18.24,2.62-43.23,6.21-56.82,21.9-6.57,7.58-11.89,17.96-17.04,28-5.85,11.41-12.49,24.35-19.31,29.04-4.26,2.93-8.91,4.91-13.84,7-11.68,4.97-26.23,11.16-31.24,31.19-2.05,8.18-3.03,17.25-3.99,26.01-1.52,13.99-3.1,28.45-8.79,37.77-3.79,6.19-7,12.43-10.1,18.47-6.51,12.66-12.67,24.61-23.99,36.56-3.96,4.18-7.97,8.16-12.22,12.39-15.23,15.13-30.98,30.78-43.04,54.48-15.1,29.67-18.53,44.19-21.77,75.55-.9,8.65-2.17,18.66-3.4,28.34-4.67,36.67-6.02,50.18-2.76,57.78,2.72,6.35,9.15,11.42,16.59,17.3,2.53,2,6.39,5.04,8.55,7.14-1.17,5.54-4.55,17.01-7.14,25.77-4.73,16.04-10.1,34.22-11.78,45.99-1.64,11.47-9.99,72.09-13.39,139.05-.61,11.93-1.14,23.3-1.62,33.32-1.71,36.18-3.19,67.43-5.9,75.56-4.46,13.38-19.91,56.7-23.41,64.84-.81.38-2.17.88-3.22,1.27-2.91,1.08-6.54,2.41-10.12,4.8-5.34,3.56-7.32,8.93-8.53,12.97-2.19-1.16-2.87-4.1-2.36-16,.39-9.07.83-19.35-5.09-27.5-6.98-9.6-23.33-18.51-28.18-21.02-8.17-4.22-23.89-11.3-37.41-11.3-4.93,0-9.32.94-13.04,2.8-7.35,3.67-28.26,23.2-81.77,73.96-23.74,22.52-48.29,45.81-68.71,64.52-29.56,27.08-37.52,32.6-39.62,33.71-4.74,1.8-10.9,2.71-18.29,2.71-10.03,0-20.46-1.68-28.07-2.91-1.4-.23-2.71-.44-3.93-.62-5.07-.78-11.58-3.2-18.47-5.76-8.46-3.14-18.04-6.7-28.23-8.49-1.7-.3-3.71-.44-6.31-.44-33.56,0-188.67,25.31-241.08,42.78-39.27,13.09-56,34.68-66,47.58-1.91,2.47-4.22,5.44-5.65,6.86-8.46-.91-32.18-9.54-48.16-15.37-12.69-4.62-24.68-8.99-33.8-11.65-7.69-2.24-14.34-3.29-20.92-3.29-2.55,0-4.8.15-6.78.28-1.71.11-3.2.21-4.69.21-3.27,0-7.78-.47-16.46-3.94-11.13-4.45-44.93-19.31-80.72-35.03-46.47-20.42-94.52-41.54-108.48-46.77-9.01-3.38-16.54-3.56-23.18-3.72-7.26-.18-12.99-.31-21.47-4.32-10.98-5.19-24.21-15.89-40.43-32.73-19.24-19.96-29.2-28.99-34.61-33.26-.07-.21-.14-.43-.21-.64-1.51-4.53-1.85-8.84-2.21-13.42-.67-8.46-1.51-19-10.35-29.6-3.96-4.75-9.12-8.63-13.67-12.05-1.87-1.41-4.58-3.44-6.46-5.12.75-.51,1.28-.55,1.92-.55,3.56,0,9.85,2.69,16.52,5.54,11.35,4.85,26.91,11.5,46.87,13.04,1.21.09,2.41.14,3.58.14,10.28,0,24.7-3.71,34.96-21.41,6.02-10.37,9.36-23.23,12.3-34.58,1.7-6.56,3.31-12.76,5.18-17.58,2.11-5.46,3.59-6.57,3.66-6.62.45-.33,1.52-.52,2.86-.52,9.37,0,26.68,8.47,41.94,15.94,14.24,6.97,28.97,14.18,43.08,18.21,17.62,5.03,28.97,6.12,38.09,7,9.61.92,14.9,1.43,23.56,6.19,3.52,1.94,4.53,3.18,4.75,3.51.23.34.39,1.03.72,2.51,1.69,7.69,4.88,16.46,21.41,23.22,6.68,2.73,19.61,4.55,60.99,4.55,21.22,0,46.11-.49,70.18-.95,23.92-.47,46.51-.91,65.62-.91,30.08,0,39.03,1.2,41.68,1.91,7.29,1.96,11.74,6.14,17.36,11.44,9.84,9.26,22.08,20.78,49.88,20.78,1.68,0,3.43-.04,5.19-.13,12.4-.59,30.54-8.35,57.07-24.41,20.19-12.22,44.66-28.96,72.73-49.74,47.74-35.34,95.73-75.1,106.52-85.89,11.22-11.22,16.55-21.15,20.44-28.4,3.26-6.06,4.81-8.81,7.55-10.41,9.62-5.61,38.89-22.69,45.81-47.58,4.03-14.5,13.75-28.71,34.67-50.68,11.43-12,19.93-26.36,24.59-41.53,4.86-15.85,5.16-31.37.85-44.91-6.98-21.92-25.53-26.59-40.43-30.33-6.55-1.65-12.73-3.2-18.23-5.95-5.82-2.91-10.19-6-14.42-8.99-7.21-5.1-14.67-10.37-25.15-10.37-4.1,0-8.25.81-12.68,2.47-7.24,2.72-14.69,8.7-23.32,15.63-5.05,4.05-10.27,8.25-14.97,11.3-1.68,1.09-3.05,1.88-4.17,2.45,4.52-4,9.43-10.89,9.97-23.81.06-1.35.11-2.66.17-3.93.95-22.17,1.53-35.55-6.95-60.98-4.22-12.67-9.46-21.49-14.52-30.02-5.43-9.14-11.04-18.59-16.08-34.2-3.93-12.19-2.64-20.1-1.27-28.48,1.79-10.93,3.81-23.31-6.13-39.64-10.5-17.24-23.76-19.09-30.88-20.08-.62-.09-1.35-.19-1.98-.29-.07-.26-.14-.57-.22-.95-1.47-7.34.03-12.75,1.92-19.6,2.15-7.79,4.82-17.48,2.11-29.69-2.54-11.42-11.02-21.58-19.22-31.4-5.94-7.11-14.02-16.78-14.2-21.84,1.86-1.13,6.71-2.54,10.03-3.51,10.87-3.16,25.76-7.49,36.36-21.41,11.45-15.03,10.29-30.14,9.44-41.17-.71-9.24-.91-14.28,2.74-18.98,5.21-6.69,11.55-10.62,18.27-14.78,9.1-5.64,19.42-12.03,25.99-25.17,2.39-4.78,6.95-14.54,12.72-26.91,8.32-17.82,18.68-40,28.09-59.18,13.73-27.99,18.37-35.05,19.71-36.78,1.04-.62,4.74-1.97,11.75-1.97,8.72,0,15.47,2.09,17.14,3.21,2.51,1.67,5.12,3.11,7.65,4.5,8.03,4.41,11.61,6.79,12.22,11.03.72,5.03,2.51,32.37,4.59,64.03,3.5,53.32,8.3,126.33,12.71,167.35,3.65,33.85,5.37,49.24,8.01,59.42,3.47,13.35,9.14,18.12,15.71,23.65l1.23,1.04c6.05,5.12,16.26,7.4,33.12,7.4s39.65-2.57,59.69-6.87c24.27-5.21,40.54-11.82,48.36-19.64,10.45-10.45,16.36-22.28,21.11-31.79,3.44-6.9,6.7-13.41,10.18-16.02,4.25-3.19,6.42-5.99,7.94-8.55,6.37-2.58,29.3-7.81,37.19-9.61,21.28-4.85,34.36-5.38,43.91-5.77,18.5-.75,28.11-2.06,44.28-23.62,10.94-14.59,9.71-25.75,8.98-32.43-.06-.51-.12-1.11-.17-1.64,2.28-1.68,9.79-5.62,34.24-12.25,62.71-17.02,72.28-24.72,80.46-39.47.56-1.01,1.09-1.96,1.66-2.86,7.69-12.09.67-30.19-7.46-51.14-3.13-8.08-7.87-20.29-7.87-24.26.03-2.56,1.74-15.16,3.39-27.35,3.95-29.18,9.92-73.29,12.58-114.39,4.51-70-3.64-90.39-10.17-99.63-9.1-12.9-23.7-19.44-43.39-19.44-14.36,0-29.81,3.37-43.44,6.34-10.6,2.31-20.62,4.5-27.38,4.5-2.47,0-3.62-.31-3.98-.43-.63-.61-3.04-3.43-5.31-12.37-1.89-7.47-3.11-17.06-3.54-27.75-.83-20.95,1.66-37.7,3.54-42.86,2.33-1.18,7.69-2.81,11.74-4.04,11.81-3.59,27.97-8.51,40.74-19.56,15.75-13.64,22.56-33.1,20.24-57.84-2.31-24.63-7.17-39.7-15.76-48.88-10.2-10.89-23.34-10.89-31.19-10.89-.85,0-1.72,0-2.59.01-.84,0-1.69.01-2.55.01-5.65,0-10.02-.26-14.36-1.54-6.26-1.86-13.22-4.29-20.57-6.87-18.99-6.66-38.62-13.54-54.73-13.54-7.14,0-13.1,1.32-18.22,4.02-9.98,5.28-13.96,9.95-16.49,13.99-.5.08-.97.12-1.44.12-1.6,0-3.03-.47-5.41-1.31-2.73-.96-6.14-2.15-10.24-2.15-5.03,0-9.66,1.77-13.73,5.27-5.78,4.96-7.76,12-9.34,17.66-.41,1.45-.96,3.42-1.47,4.78-.45.02-.88.04-1.29.07-2.3-8.71-5.09-28.6-6.4-37.94-3.22-22.98-5.86-37.05-7.6-46.37-2.66-14.21-3.14-16.77-1.62-26.39.47-2.95.86-5.96,1.24-8.87.99-7.54,2.01-15.34,4.09-20.1,1.29-2.96,1.87-2.96,3.27-2.96,4.48,0,7.78.52,11.27,1.08,3.6.57,7.32,1.16,11.95,1.16,8.66,0,18.35-2.21,31.43-7.17,18.08-6.86,51.06-29.31,73.81-46.45,14.11-10.63,26.63-20.88,36.2-29.64,15.9-14.54,19.69-21.37,21.21-25.69,4.34-12.3-1.44-28.64-11.48-54.1-3.09-7.84-6.01-15.24-8.04-21.66-1.13-3.57-1.73-6.1-2.06-7.85h0Zm1602.8,97.32c7.4,0,16.41-2.28,47.58-15.22,28.25-11.72,38.62-20.31,45.48-26,5.97-4.94,8.21-6.79,22.86-8.89,1.85-.26,6.61-.71,17.7-.71h0c30.91,0,90.21,3.41,147.55,8.48,51.91,4.59,82.09,8.72,97.76,11.59-.72.61-1.41,1.18-2.02,1.69-10.11,8.42-20.56,17.13-19.43,29.55.63,6.96,4.93,17.2,11.9,33.31,3.31,7.65,8.56,19.8,10.13,25.44-2.02,2.37-6.51,6.77-13.86,12.26-4.8,3.58-8.87,6.18-11.9,7.91-20.73-31.38-30.93-43.45-45.46-43.45-6.03,0-10.92,2.31-15.64,4.54-5.14,2.43-10.96,5.18-20.53,6.14-7.21.72-13.3,1.07-18.63,1.07-23.14,0-34.32-6.29-47.84-26.92-22.53-34.39-46.47-51.83-71.13-51.83-28.53,0-70.2,30.17-78.27,36.22-14.09,10.57-36.24,18.62-50.89,21.65-.03,0-.08,0-.14,0-4.41,0-14.3-4.7-19.06-6.96-2.01-.96-3.75-1.78-5.32-2.45-3.82-1.64-8.9-2.23-18.28-3.23-3.31-.35-8.8-.93-13.97-1.71,1.88-.86,4.08-1.79,6.68-2.77,8.7-3.31,19.66-6.47,30.88-8.91,3.43-.74,5.99-1.11,7.85-1.11.74,0,1.39.05,2.22.12,1.02.08,2.3.19,3.81.19h0Zm-708.29,8.52c1.96,0,3.78-.13,5.38-.24,1.33-.09,2.59-.18,3.74-.18,3.19,0,10.65,0,30.43,22.33,15.09,17.04,36.3,35.6,58.19,50.92,12.74,8.92,36.32,24.14,51.13,25.88l1.08.13c8.51,1.01,22.75,2.69,39.75,2.69,27.2,0,50.81-4.39,70.17-13.05,15.03-6.72,29.92-10.28,43.04-10.28,12.57,0,22.48,3.37,26.51,9.02,4.17,5.85,5.46,13.06,3.95,22.04-2.49,14.75-11.8,30.02-19.18,40.22-8.89,12.3-17.69,20.97-19.89,22.54-2.88,1.91-9.25,3.95-14.87,5.75-8.94,2.87-17.38,5.58-23.11,10.49-5.43,4.65-7.89,12.26-11,21.9-1.51,4.68-3.07,9.52-4.86,13.5-1.15,2.56-2.08,4.05-2.7,4.89-2.13-.93-6.7-3.41-15.24-9.97-8.74-6.72-19-15.63-28.92-24.24-12.41-10.78-25.25-21.93-35.73-29.31-11.4-8.02-22.39-11.92-33.61-11.92-8.31,0-14.95,2.12-20.29,3.82-2.49.79-5.32,1.7-6.57,1.7h-.03c-2.96-.51-11.41-5.86-16.46-9.06-11.78-7.46-22.91-14.5-33.83-14.5-.63,0-1.25.02-1.86.07-3.47.27-8.7.47-14.24.69-11.98.47-20.91.94-27.69,1.64-.15-10.45-1.76-24.11-12.47-32.35-11.6-8.92-22.61-9.07-30.66-9.17-3.98-.05-7.13-.09-9.93-1.03-2.62-.87-6.95-4.98-10.77-8.61-7.48-7.11-16.8-15.96-29.76-18.39-15.76-2.95-45.26-11.85-56.63-16.58-1.94-.89-9.95-7.1-22.06-20.47-5.58-6.16-10.01-11.63-13.13-15.84,4.17-.65,9.64-1.16,16.05-1.16,5.24,0,10.09.35,14.04,1.01,4.94.82,11.02,2.18,17.46,3.62,14.83,3.31,31.63,7.06,46.08,7.06,2.59,0,5.06-.12,7.36-.36,10.99-1.16,26.27-7.43,42.44-14.07,11.11-4.56,27.86-11.44,33.09-11.5,1.79.26,3.62.39,5.58.39h0Z"/></g><path id="inner" class="cls-1" d="m3451.79,119.51c4.6-9.19-12.26-27.57-21.45-30.64-9.19-3.06-235.91-44.43-404.43-29.11-36.77,4.6-7.66,15.32-18.38,24.51-10.72,9.19-177.7,76.6-191.49,76.6s-35.23,13.79-61.28,22.98c-26.04,9.19-47.49,5.8-62.81,10.56-15.32,4.76-34.72,24.67-59.23,26.72-24.51,2.04-32.68-18.38-61.28-16.34-28.6,2.04-93.96,26.55-124.6,26.55s-110.3-106.21-173.62-110.3c-63.32-4.08-57.19,22.47-85.79,24.51-28.6,2.04-136.85-4.09-165.45,8.17s-73.53,69.45-96,69.45-117.95-79.66-123.31-85.79c-5.37-6.13,2.8-30.64-9.45-49.02-12.26-18.38-157.28-65.36-214.47-71.49-57.19-6.13-208.34-4.08-238.98,0-30.64,4.09-36.77,51.06-32.68,61.28,4.08,10.21,24.51,42.89,16.34,53.11-8.17,10.21-59.23,67.4-79.66,67.4s-55.15-2.04-73.53,12.26c-18.38,14.3-46.98,71.49-46.98,89.87s30.64,161.36,42.89,175.66c12.26,14.3,72.51,5.11,79.66,0s19.4-19.4,43.91-29.62c24.51-10.21,43.91,0,51.06,3.06,7.15,3.06,31.66-5.11,31.66,4.09s-22.47,11.23-41.87,20.43c-19.4,9.19-26.55,25.53-28.6,43.91-2.04,18.38-2.04,136.85,11.23,150.13,13.28,13.28,111.32-1.02,117.45,9.19,6.13,10.21-18.38,168.51-18.38,182.81s22.47,36.77,15.32,45.96c-7.15,9.19-83.74,29.62-103.15,42.89-19.4,13.28-13.28,30.64-17.36,37.79-4.09,7.15-74.55,10.21-104.17,28.6-29.62,18.38-26.55,37.79-38.81,52.08-12.26,14.3-25.53,19.4-40.85,13.28-15.32-6.13-17.36-34.72-21.45-61.28-4.09-26.55-12.26-194.04-14.3-204.26-2.04-10.21-39.83-64.34-54.13-66.38-14.3-2.04-43.91,2.04-56.17,1.02-12.26-1.02-20.43-10.21-35.74-2.04-15.32,8.17-52.09,112.34-79.66,144-27.57,31.66-34.72,19.4-40.85,35.74-6.13,16.34,2.04,42.89-11.23,54.13-13.28,11.23-41.87,33.29-46.98,50.35-5.11,17.06,5.11,65.06,7.15,76.29,2.04,11.23,19.4,23.49,19.4,28.6s-8.17,28.6-2.04,43.91c6.13,15.32,31.66,19.4,35.74,33.7,4.09,14.3,6.13,51.06,11.23,64.34,5.11,13.28,22.47,23.49,29.62,49.02,7.15,25.53,10.21,43.92,4.09,52.09-6.13,8.17-11.23,12.26-14.3,26.55s20.43,20.43,21.45,31.66c1.02,11.23,1.02,22.47,15.32,24.51s60.26-31.66,69.45-32.68c9.19-1.02,6.13,13.28,14.3,13.28s28.6-3.06,32.68,1.02c4.09,4.09-42.89,44.94-56.17,58.21-13.28,13.28-7.15,36.77-15.32,42.89-8.17,6.13-27.57,14.3-37.79,28.6-10.21,14.3-8.17,21.45-23.49,32.68-15.32,11.23-76.6,77.62-92.94,87.83-16.34,10.21-82.72,49.02-94.98,49.02s-9.19-18.38-28.6-25.53-227.74-2.04-235.91-5.11c-8.17-3.06-8.17-24.51-51.06-38.81-42.89-14.3-48-5.11-55.15-7.15-7.15-2.04-2.04-7.15-17.36-13.28-15.32-6.13-50.04-9.19-60.26-10.21-10.21-1.02-23.49-16.34-48-15.32-24.51,1.02-50.04,76.6-56.17,79.66-6.13,3.06-45.96-23.49-57.19-23.49s-27.57,18.38-35.74,23.49-29.62,18.38-27.57,30.64,3.06,35.74,7.15,42.89c4.09,7.15,22.47,27.57,23.49,31.66,1.02,4.09,11.23,43.91,15.32,50.04,4.09,6.13,40.85,48,50.04,55.15,9.19,7.15,36.77,24.51,43.91,27.57,7.15,3.06,32.68,20.43,38.81,20.43s24.51,2.04,34.72,0c10.21-2.04,163.4,75.57,178.72,78.64,15.32,3.06,34.72,0,48,6.13,13.28,6.13,54.13,24.51,61.28,24.51s67.4,4.09,77.62,0c10.21-4.09,7.15-22.47,14.3-28.6,7.15-6.13,31.66-21.45,49.02-28.6,17.36-7.15,186.89-39.83,200.17-35.74,13.28,4.09,50.04,13.28,64.34,17.36,14.3,4.09,60.26,2.04,73.53-1.02,13.28-3.06,176.68-164.43,187.91-168.51,11.23-4.09-3.06,20.43-1.02,27.57,2.04,7.15,27.57,34.72,35.74,36.77s42.89,7.15,56.17,2.04c13.28-5.11,10.21-10.21,15.32-15.32s16.34-2.04,25.53-13.28c9.19-11.23,44.94-94.98,46.98-106.21,2.04-11.23,15.32-235.91,21.45-252.26,6.13-16.34,17.36-89.87,17.36-102.13s-24.51-31.66-25.53-35.74c-1.02-4.09,9.19-83.74,21.45-103.15,12.26-19.4,101.11-117.45,102.13-134.81,1.02-17.36-1.02-38.81,1.02-42.89,2.04-4.09,20.43,0,25.53-7.15,5.11-7.15,30.64-61.28,38.81-71.49,8.17-10.21,32.68-8.17,45.96-15.32,13.28-7.15,74.55-79.66,76.6-92.94,2.04-13.28-11.23-22.47-11.23-27.57s16.34-24.51,19.4-34.72-4.08-50.04,0-57.19c4.09-7.15,31.66-81.7,31.66-97.02s-8.17-4.09-8.17-19.4,8.17-128.68,2.04-150.13c-6.13-21.45-17.36-48-31.66-68.43-14.3-20.43-52.09-38.81-62.3-48-10.21-9.19-40.85-67.4-59.23-81.7-18.38-14.3-35.74-8.17-40.85-10.21-5.11-2.04-24.51-13.28-34.72-18.38-10.21-5.11-18.38-20.43-17.36-27.57,1.02-7.15,55.15-34.72,90.89-31.66,35.74,3.06,74.55,53.11,84.77,72.51,10.21,19.4,44.94,36.77,56.17,40.85,11.23,4.09,42.89,6.13,55.15,12.26,12.26,6.13,28.6,22.47,37.79,36.77,9.19,14.3,35.74,34.72,52.09,27.57s38.81-43.91,31.66-63.32-18.38-39.83-12.26-45.96c6.13-6.13,52.08,20.43,73.53,3.06,21.45-17.36,10.21-34.72,12.26-43.92,2.04-9.19,58.21-56.17,67.4-56.17s28.6,46.98,35.74,59.23c7.15,12.26,43.92,34.72,54.13,34.72s34.72,1.02,44.94,6.13c10.21,5.11,30.64,25.53,40.85,29.62,10.21,4.09,7.15,43.92,42.89,55.15,35.74,11.23,39.83-16.34,61.28-10.21,21.45,6.13,29.62,15.32,44.94,17.36,15.32,2.04,28.6-7.15,36.77-3.06,8.17,4.08,80.68,79.66,130.72,73.53,50.04-6.13,46.98-48,57.19-54.13,10.21-6.13,49.02-15.32,76.6-78.64,27.57-63.32,7.15-69.45,15.32-76.6,8.17-7.15,79.66-24.51,108.26-28.6,28.6-4.09,37.79-24.51,52.09-22.47,14.3,2.04,37.79,17.36,55.15,23.49,17.36,6.13,40.85,9.19,51.06,16.34,10.21,7.15,34.72,5.11,55.15,5.11s105.19-40.85,127.66-42.89c22.47-2.04,35.74,45.96,55.15,53.11s94.03-4.08,104.72,9.19c10.69,13.28,20.9,49.02,44.39,50.04,26.02,1.13,101.11-64.34,107.23-81.19,6.13-16.85-18.38-49.02-16.85-67.4,1.53-18.38,39.83-55.15,44.43-64.34Zm-1630.98,142.47c-17.23,13.21,8.17,73.53,0,75.57-8.17,2.04-19.4-23.49-40.85-28.6-21.45-5.11-46.98-3.06-61.28-19.4-14.3-16.34-70.47-93.96-92.94-101.11-22.47-7.15-92.94-10.21-110.3-6.13-17.36,4.09-38.81,29.62-58.21,30.64-19.4,1.02-39.83,6.13-42.89,27.57-3.06,21.45,28.6,72.51,48,83.74,19.4,11.23,26.55,29.62,54.13,37.79,27.57,8.17,51.06,60.26,61.28,77.62,10.21,17.36,40.85,8.17,64.34,55.15,23.49,46.98,19.4,20.43,21.45,54.13,2.04,33.7-1.02,81.7,1.02,112.34,2.04,30.64,9.19,13.28,6.13,30.64-3.06,17.36-26.55,64.34-30.64,83.74-4.08,19.4,6.13,43.91,2.04,53.11-4.08,9.19-12.26,16.34-18.38,34.72-6.13,18.38,4.7,28.6-5.31,41.87-10.01,13.28-15.12,39.83-29.41,42.89-14.3,3.06-46.98,4.09-60.26,19.4-13.28,15.32-22.47,48-38.81,59.23-16.34,11.23-34.72,10.21-39.83,30.64-5.11,20.43-3.06,49.02-14.3,67.4-11.23,18.38-17.36,37.79-35.74,57.19-18.38,19.4-38.81,35.72-53.11,63.82-14.3,28.1-17.36,41.37-20.43,70.99-3.06,29.62-10.21,72.51-7.15,79.66s25.53,19.4,26.55,26.55c1.02,7.15-16.34,55.15-19.4,76.6-3.06,21.45-10.21,77.62-13.28,137.87-3.06,60.26-4.09,100.09-8.17,112.34s-21.45,61.28-24.51,67.4c-3.06,6.13-11.23,6.13-17.36,10.21-6.13,4.09-1.02,22.47-20.43,14.3-19.4-8.17-5.11-36.77-13.28-48-8.17-11.23-48-32.68-62.3-25.53-14.3,7.15-172.6,165.45-190.98,172.6s-43.91,2.04-57.19,0c-13.28-2.04-29.62-11.23-46.98-14.3-17.36-3.06-185.87,23.49-241.02,41.87-55.15,18.38-60.26,54.13-73.53,55.15-13.28,1.02-63.32-20.43-87.83-27.57s-24.51,3.06-50.04-7.15c-25.53-10.21-164.43-72.51-188.94-81.7s-35.74,12.26-89.87-43.91c-25.85-26.83-34.46-33.38-36.96-34.58-.28,1.25-1.9-.91,0,0,.12-.55-.01-1.77-.83-4.22-5.11-15.32,0-26.55-10.21-38.81s-35.74-20.43-19.4-34.72c16.34-14.3,35.74,11.23,75.57,14.3,39.83,3.06,32.68-64.34,51.06-77.62s63.32,21.45,99.06,31.66,43.91,3.06,64.34,14.3c20.43,11.23,3.06,19.4,25.53,28.6,22.47,9.19,210.38-3.06,236.94,4.09,26.55,7.15,25.53,33.7,68.43,31.66,42.89-2.04,208.34-136.85,227.74-156.26,19.4-19.4,18.38-33.7,30.64-40.85,12.26-7.15,34.72-21.45,39.83-39.83,5.11-18.38,17.36-34.72,37.79-56.17,20.43-21.45,29.62-51.06,22.47-73.53-7.15-22.47-31.66-18.38-52.09-28.6-20.43-10.21-25.53-22.47-41.87-16.34-16.34,6.13-49.02,46.98-60.26,25.53-11.23-21.45,9.19-8.17,10.21-32.68,1.02-24.51,2.04-35.74-6.13-60.26-8.17-24.51-20.43-32.68-30.64-64.34-10.21-31.66,8.17-41.87-6.13-65.36-14.3-23.49-30.64-5.11-34.72-25.53-4.08-20.43,8.17-30.64,4.09-49.02-4.09-18.38-34.72-38.81-33.7-57.19,1.02-18.38,32.68-10.21,49.02-31.66,16.34-21.45-2.04-41.87,12.26-60.26,14.3-18.38,33.7-19.4,42.89-37.79,9.19-18.38,54.13-118.47,63.32-126.64s35.74-6.13,44.94,0c9.19,6.13,23.49,10.21,25.53,24.51,2.04,14.3,10.21,165.45,17.36,231.83,7.15,66.38,7.15,64.34,20.43,75.57,13.28,11.23,106.21-1.02,123.57-18.38,17.36-17.36,20.43-39.83,32.68-49.02,12.26-9.19-8.17-7.16,50.04-20.43,58.21-13.27,59.23,4.09,80.68-24.51,21.45-28.6-21.45-31.66,50.04-51.06,71.49-19.4,67.4-25.53,74.55-36.77,7.15-11.23-17.36-53.11-17.36-68.43s32.68-199.15,8.17-233.87c-24.51-34.72-97.02,8.17-115.4-6.13-18.38-14.3-16.34-87.83-8.17-101.11,8.17-13.28,76.6-7.15,70.47-72.51-6.13-65.36-29.62-41.87-57.19-50.04-27.57-8.17-66.38-26.55-83.74-17.36-17.36,9.19-8.17,13.28-20.43,15.32-12.26,2.04-17.36-7.15-24.51-1.02-7.15,6.13-4.09,25.53-17.36,25.53s-14.3,9.19-22.47-49.02c-8.17-58.21-12.26-57.19-9.19-76.6,3.06-19.4,3.06-42.89,21.45-42.89s20.43,7.15,50.04-4.09c29.62-11.23,117.45-76.6,123.57-93.96,6.13-17.36-29.62-74.55-21.45-87.83,8.17-13.28,174.64-10.21,204.26,0,29.62,10.21,155.23,29.62,170.55,52.08,15.32,22.47-3.06,39.83,7.15,52.09,10.21,12.26,51.06,32.68,68.43,46.98s87.83,48,86.81,56.17c-1.02,8.17-51.06-37.79-81.7-14.3Zm752.68,104.17c-9.19,6.13-29.62,9.19-36.77,15.32-7.15,6.13-10.21,42.89-25.53,43.92-15.32,1.02-61.28-46.98-88.85-66.38-27.57-19.4-41.87-3.06-54.13-4.09-12.26-1.02-36.77-24.51-50.04-23.49-13.28,1.02-45.96,1.04-53.11,4.6s3.06-27.07-10.21-37.28c-13.28-10.21-24.51-4.09-36.77-8.17-12.26-4.08-22.47-23.49-38.81-26.55-16.34-3.06-46.98-12.26-59.23-17.36-12.26-5.11-49.02-46.98-48-54.13,1.02-7.15,31.66-10.21,50.04-7.15,18.38,3.06,48,12.26,67.4,10.21,19.4-2.04,65.36-27.57,78.64-25.53,13.28,2.04,21.45-9.19,53.11,26.55,31.66,35.74,83.74,70.47,101.11,72.51,17.36,2.04,65.36,8.17,104.17-9.19,38.81-17.36,73.44-13.77,85.45,3.06,26.21,36.77-29.28,97.02-38.47,103.15Zm777.19-192c1.02,11.23,23.49,53.11,22.47,62.3-1.02,9.19-41.41,38.09-44.94,32.68-45.96-70.47-33.7-38.81-74.55-34.72-40.85,4.09-59.23-2.04-78.64-31.66-19.4-29.62-39.83-45.96-60.26-45.96s-54.13,21.36-70.47,33.62c-16.34,12.26-40.88,20.86-56.17,24-9.06,1.86-25.02-7.15-32.17-10.21-7.15-3.06-50.55-2.47-49.53-14.06,1.02-11.6,33.7-22.11,57.19-27.21,23.49-5.11,5.11,7.15,59.23-15.32,54.13-22.47,35.74-30.64,71.49-35.74s284.94,14.3,285.96,25.53c1.02,11.23-30.64,25.53-29.62,36.77Z"/></g></g></svg>