<?xml version="1.0" encoding="UTF-8"?><svg id="Layer_2" xmlns="http://www.w3.org/2000/svg" viewBox="0 0 1510.85 713.86"><defs><style>.cls-1,.cls-2{fill:#fff;}.cls-3{fill:#ff1d1d;}.cls-4{fill:#ff781d;}.cls-5{fill:#7f4721;}.cls-6{fill:#7f7f7f;}.cls-7{fill:#999;}.cls-8{fill:#996537;}.cls-9{fill:#b7b7b7;}.cls-10{fill:#b27a50;}.cls-11{fill:#bc722f;}.cls-12{fill:#bf8143;}.cls-13{fill:#33ff38;}.cls-14{fill:#4c2c13;}.cls-15{font-family:HanWangZonYi, HanWangZonYi;font-size:48px;}.cls-2{opacity:.5;}</style></defs><g id="UI"><rect class="cls-13" x="68.1" y="129.82" width="252.26" height="70.39"/><rect class="cls-4" x="314.45" y="137.38" width="333.09" height="61.81"/><rect class="cls-3" x="644.57" y="129.82" width="413.41" height="69.37"/><path class="cls-4" d="m1049.38,195.98H71.56v-56.49h977.82v56.49Zm-964.64-13.18h951.46v-30.14H84.74v30.14Z"/><rect class="cls-2" width="1510.85" height="713.86"/><text class="cls-15" transform="translate(113.64 653.57)"><tspan x="0" y="0">asphalt</tspan></text><text class="cls-15" transform="translate(440.58 653.57)"><tspan x="0" y="0">dirt</tspan></text><text class="cls-15" transform="translate(627.14 653.57)"><tspan x="0" y="0">small rocks</tspan></text><text class="cls-15" transform="translate(985.13 653.57)"><tspan x="0" y="0">roots</tspan></text><text class="cls-15" transform="translate(1256.29 653.57)"><tspan x="0" y="0">muddy</tspan></text><text class="cls-15" transform="translate(72.58 324.03)"><tspan x="0" y="0">ROAD TYPE</tspan></text><text class="cls-15" transform="translate(137.89 239.84)"><tspan x="0" y="0">easy</tspan></text><text class="cls-15" transform="translate(375.66 239.84)"><tspan x="0" y="0">watchout</tspan></text><text class="cls-15" transform="translate(697.86 239.84)"><tspan x="0" y="0">hard to walk</tspan></text><text class="cls-15" transform="translate(71.56 112.32)"><tspan x="0" y="0">ROAD DIFFICULTY</tspan></text><g id="asphalt"><rect id="road" class="cls-9" x="71.56" y="354.42" width="251.23" height="251.23"/><rect id="white" class="cls-1" x="287.05" y="354.42" width="23.49" height="251.23"/><rect id="white-2" class="cls-1" x="83.09" y="354.42" width="23.49" height="251.23"/></g><g id="dirt"><rect class="cls-12" x="353.43" y="354.42" width="251.23" height="251.23"/><path class="cls-11" d="m384.07,393.06c7.66,0,7.67-11.91,0-11.91s-7.67,11.91,0,11.91h0Z"/><path class="cls-11" d="m488.24,405.31c7.66,0,7.67-11.91,0-11.91s-7.67,11.91,0,11.91h0Z"/><path class="cls-11" d="m447.39,509.48c7.66,0,7.67-11.91,0-11.91s-7.67,11.91,0,11.91h0Z"/><path class="cls-11" d="m416.75,462.5c7.66,0,7.67-11.91,0-11.91s-7.67,11.91,0,11.91h0Z"/><path class="cls-11" d="m520.92,560.55c7.66,0,7.67-11.91,0-11.91s-7.67,11.91,0,11.91h0Z"/><path class="cls-11" d="m402.45,580.97c7.66,0,7.67-11.91,0-11.91s-7.67,11.91,0,11.91h0Z"/><path class="cls-11" d="m578.11,466.59c7.66,0,7.67-11.91,0-11.91s-7.67,11.91,0,11.91h0Z"/><path class="cls-11" d="m549.52,419.61c7.66,0,7.67-11.91,0-11.91s-7.67,11.91,0,11.91h0Z"/><path class="cls-11" d="m569.94,591.18c7.66,0,7.67-11.91,0-11.91s-7.67,11.91,0,11.91h0Z"/><path class="cls-11" d="m508.67,487.01c7.66,0,7.67-11.91,0-11.91s-7.67,11.91,0,11.91h0Z"/><path class="cls-11" d="m386.11,519.69c7.66,0,7.67-11.91,0-11.91s-7.67,11.91,0,11.91h0Z"/><path class="cls-11" d="m590.37,382.84c7.66,0,7.67-11.91,0-11.91s-7.67,11.91,0,11.91h0Z"/></g><g id="smallrocks"><rect class="cls-7" x="635.31" y="354.42" width="251.23" height="251.23"/><path class="cls-6" d="m686.39,604.06c-.26.59-.62,1.13-1.05,1.59h-9.27c-.33-.56-.57-1.23-.7-2.03-.42-2.61-.82-5.33-1.35-8.04,0,0-.01,0,0-.02-.86-4.38-2.03-8.75-4.08-12.62h0c-1.02-1.95-2.27-3.74-3.8-5.36-6.22-6.58-18.06-9.48-26.75-10.05-1.78-.12-3.14-.85-4.08-1.91v-8.64c.95-.92,2.31-1.47,4.08-1.35,1.18.08,2.39.19,3.61.33h.01c5.43.61,11.17,1.86,16.54,3.88,1.97.74,3.88,1.59,5.7,2.54,1.45.75,2.83,1.58,4.15,2.48,1.11.75,2.17,1.56,3.17,2.43.32.27.63.55.94.84,3.62,3.38,6.19,7.42,8.09,11.8,1.39,3.19,2.42,6.56,3.24,9.99.83,3.5,1.45,7.05,2.01,10.53.22,1.36.02,2.58-.46,3.61Z"/><path class="cls-6" d="m886.54,573.26v9.38c-.57.41-1.25.71-2.05.91-6.8,1.65-13.66,3.69-19.87,6.96-2.63,1.38-5.19,2.94-7.38,4.94-1.48,1.35-5.34,4.92-5.01,7.18.16,1.11.05,2.12-.27,3.02h-11.23c-.44-3.18-.13-6.1.79-8.77,1-2.96,2.74-5.62,4.97-8h.01c2.3-2.47,5.13-4.64,8.23-6.54,8.48-5.19,19-8.41,26.43-10.24.05-.01.11-.03.16-.04,2.15-.52,3.94.05,5.22,1.2Z"/><path class="cls-6" d="m725.13,397.29c-1,3.7-2.96,7.15-5.49,10.24-1.55,1.89-3.25,3.75-5.09,5.53-5.61,5.46-12.44,10.27-19.72,13.37h-.01c-2.67,1.14-5.4,2.05-8.15,2.68h0c-1.5.34-3.01.6-4.51.77-5.49.6-11.05.03-16.3-1.56,0,0-.01-.01-.01,0-5.17-1.56-10.03-4.1-14.24-7.48-1.61-1.29-3.12-2.7-4.52-4.23-.37-.41-.74-.82-1.1-1.25-.22-.26-.42-.53-.58-.8,0-.01,0-.01,0-.01h0c-2.56-4.13.7-9.12,4.51-9.62,1.55-.22,3.19.32,4.56,1.95,8.58,10.19,22.66,14.2,35.09,8.79,6.48-2.82,12.34-7.39,17.46-12.21,4.6-4.34,8.79-9.6,5.8-16.1-2.75-5.95-8.85-10.75-13.69-14.95-5.76-5.01-12.07-8.92-19.77-9.98-12.97-1.78-30.83-.25-38.86,11.52-1.35,1.98-3.29,2.76-5.18,2.69v-14.8c3.4-3.2,7.3-5.62,11.51-7.42h46.09c6.8,3.09,12.86,7.64,18.69,13.09,1.08,1,2.15,2.04,3.21,3.1,2.54,2.53,5.03,5.32,7,8.39,1.81,2.81,3.18,5.86,3.77,9.18.55,3.16.35,6.22-.45,9.11Z"/><path class="cls-6" d="m653.92,412.24c-.64,2.32-3.14,4.45-5.67,4.51-.39,0-.78-.04-1.17-.14-.19-.04-.37-.1-.55-.18-2.87-1.18-5.49-2.63-7.87-4.39h-.01c-1.17-.86-2.28-1.79-3.34-2.79v-15.18c2.03.04,3.98,1.15,5.18,2.95,2.23,3.34,5.48,6.29,9.24,7.83.06.02.12.05.17.08,2.91,1.26,4.94,3.93,4.02,7.31Z"/><path class="cls-6" d="m868.63,390.36h-.01c-1.61-.58-3.31-1.01-5.09-1.28-2.47-.38-4.98-.64-7.51-.77h-.02c-11.38-.59-23.09,1.4-33.13,6.6-3.67,1.89-7.12,4.22-10.25,7-2.27,2.02-4.31,4.23-6.11,6.59-5.75,7.5-9.15,16.55-10,25.87h0c-.33,3.54-.29,7.1.13,10.64.28,2.38.74,4.75,1.37,7.08.45,1.7,1,3.38,1.64,5.04,1.33,3.43,4.72,4.47,7.54,3.81.77.37,1.54.73,2.32,1.08,4.82,2.21,9.73,4.12,14.67,5.47,11.75,3.22,23.72,3.2,35.35-3.88.69-.42,1.38-.85,2.07-1.3,2.41-1.56,4.77-3.28,7.04-5.14h0c7.46-6.1,13.87-13.72,17.32-22.55.2-.51.39-1.02.57-1.54v-24.4c-3.08-8.36-9.36-15.31-17.91-18.32Zm-10.45,59.88c-6.7,4.85-13.72,8.27-22.17,7.71-8.6-.57-16.81-4.34-24.44-8.08-.66-.32-1.32-.52-1.96-.6-3.09-11.79-1.11-24.54,6.85-34.22,8.98-10.92,21.37-14.24,35-14.59,6.45-.16,13.51-.43,18.64,4.1,4.12,3.64,6.32,9.35,6.64,14.75.75,12.86-8.77,23.83-18.56,30.93Z"/><path class="cls-6" d="m886.54,379.27v9.5c-.9.83-2.1,1.4-3.59,1.54-4.78.44-9.57.45-14.32.05h-.01c-4.25-.36-8.47-1.05-12.61-2.05h-.01c-16.59-4.01-31.93-13.02-43.32-25.93-2.31-2.62-1.81-5.82-.09-7.96h8.93c15.54,17.33,38.24,26.14,61.43,23.99,1.49-.14,2.69.2,3.59.86Z"/><path class="cls-6" d="m751.65,399.63c-6.34,4.72-12.19-1.89-15.16-7.21-1.39-2.49-4.81-7.68-3.05-10.54,1.54-2.51,6.79-3.35,9.34-4.2,15.74-5.24,32.77-10.54,49.38-6.23,6.78,1.76,14.01,5.21,18.25,11.02,4.67,6.39-.01,11.03-5.91,13.92-14.91,7.31-34,8.06-50.19,6.39-7.61-.79-7.56,11.12,0,11.91,18.17,1.88,38.87.31,55.56-7.7,6.49-3.11,12.7-8.39,14.18-15.76,1.68-8.43-3.22-16.25-9.47-21.47-13.64-11.37-31.81-13.26-48.79-10.56-9.86,1.57-19.41,4.7-28.84,7.9-7.43,2.52-15.18,6.33-15.75,15.2-1.04,16.44,19.73,40.08,36.46,27.61,6.07-4.53.14-14.87-6.01-10.28h0Z"/><path class="cls-6" d="m747.66,592.49l-29.35.73c-8,.2-16.27,1.05-24.25.22-7.44-.78-12.87-4.33-12.54-12.47.28-6.91,3.52-13.97,7.28-19.67,4.15-6.29,10.05-10.69,17.79-10.91s15.96,2.58,22.48,6.64c12.41,7.73,19.39,23.8,10.34,36.78-4.39,6.3,5.92,12.26,10.28,6.01,9.09-13.03,6.79-30.75-2.84-42.79-9.53-11.91-26.69-19.56-41.96-18.48-16.59,1.17-26.97,14.51-32.46,29.06-5.45,14.44-2.79,31.58,13.8,36.4,8.69,2.52,18.29,1.44,27.19,1.22,11.41-.28,22.82-.56,34.24-.85,7.65-.19,7.68-12.1,0-11.91h0Z"/><path class="cls-6" d="m755.76,564.46c-4.37-5.84-8.87-12.28-11.41-19.17-2.51-6.81.25-11.66,5.85-15.62s12.17-6.65,18.57-9c3.47-1.28,6.97-2.5,10.48-3.63,3.78-1.22,6.29-1.46,9.59.97,8.24,6.05,20.74,21.24,7.88,29.29-11.66,7.3-28.32,5.79-41.42,5.33-7.66-.27-7.65,11.64,0,11.91,14.91.52,30.77.93,44.62-5.5,13.6-6.32,17.5-21.24,10.72-34.25-3.12-5.98-8.18-10.98-13.37-15.18-5.92-4.8-11.91-6.73-19.4-4.62-7.84,2.2-15.69,5.26-23.1,8.63-6.31,2.87-12.87,6.39-17.49,11.69-12.62,14.47-1.39,32.38,8.19,45.18,4.54,6.06,14.88.13,10.28-6.01h0Z"/><path class="cls-6" d="m848.38,570.62c-1.23-7.69-6.55-13.68-13.41-17.08-.35-.17-.7-.34-1.05-.49h0c-6.91-3.21-14.68-4.71-22.52-4.84-8.18-.16-16.45,1.17-23.87,3.59-7.8,2.55-16.92,6.87-23.97,12.96-3.54,3.05-6.54,6.53-8.62,10.47h0c-1.23,2.34-2.12,4.83-2.59,7.47-.71,3.99-.34,7.5.84,10.58,2.06,5.38,6.59,9.44,12.15,12.37h52.6c1.4-.19,2.81-.41,4.21-.65,7.1-1.23,14.33-2.98,19.37-8.12.78-.8,1.51-1.67,2.18-2.64,1.12-1.63,2.05-3.44,2.79-5.36h.01c.93-2.4,1.56-4.96,1.92-7.55.53-3.64.5-7.34-.04-10.71Zm-12,10.03c-.62,3.37-1.72,6.94-4.57,9.08-2.97,2.24-7.43,2.77-10.98,3.46-9.31,1.79-18.81,2.05-28.24,1.27-3.78-.32-5.68,2.44-5.72,5.38-6.21-.62-12.39-2.33-17.6-5.68-7.51-4.82-5.85-11.81-.43-17.66,9.73-10.52,25.35-15.97,39.42-16.28,6.9-.14,14.39.59,20.7,3.61,7.16,3.42,8.8,9.29,7.42,16.82Z"/><path class="cls-6" d="m886.54,527.15c-2.32-4.57-5.74-8.68-10.1-11.21-2.09-1.22-4.4-2.06-6.91-2.43-3.23-.47-6.68-.39-10.08.16h-.01c-.66.1-1.3.22-1.95.36h-.01c-3.79.81-7.45,2.2-10.62,4.06-5.93,3.48-9.72,8.74-11.44,15.09-.34,1.21-.59,2.45-.77,3.73-.72,5.15-1.02,10.69-.73,16.13h0c.19,3.68.66,7.31,1.44,10.74,1.64,7.19,5.66,15.1,13.06,17.55.35.12.71.23,1.08.32,1.67.41,3.42.63,5.23.69,7.46.26,15.8-2.11,22.32-4.26,2.98-.98,4.21-3.51,4.11-5.98-.02-.69-.15-1.37-.38-2.01,2.27-3.07,4.22-6.36,5.76-9.8v-33.14Zm-40.03,31.81c-.96-5.56-.74-11.52-.43-17.13.32-5.66,1.72-10.41,6.79-13.46,3.99-2.39,9.41-3.6,14.06-3.21,5.49.45,8.87,5.91,10.44,10.74,3.52,10.86-1.27,21.97-8.52,30.08-.71.79-1.16,1.64-1.39,2.49-4.12,1.01-8.33,1.67-12.58,1.74-5.91.08-7.52-6.27-8.37-11.25Z"/><path class="cls-6" d="m854.35,514.2c-7.86,2.54-15.73,5.09-23.59,7.62-2.96.95-6.25,2.58-9.2.89-2.63-1.51-4.38-4.6-5.46-7.32-5.35-13.35,2.11-27.35,12.34-35.9,5.08-4.25,11.71-8.65,18.57-8.66s14.03,4.18,19.07,8.54c11.28,9.76,8.72,26.39-4.56,32.7-6.92,3.29-.88,13.55,6.01,10.28,13.69-6.5,21.07-22.51,16.37-37.1-4.56-14.19-20.55-25.21-35.19-26.26-15.28-1.09-30.56,11.31-38.69,23.25-8.35,12.26-10.61,29.74-2.39,42.69,4.47,7.05,11.71,11.7,20.23,10.09,10-1.89,19.97-6.21,29.65-9.33,7.26-2.35,4.16-13.85-3.17-11.48h0Z"/><path class="cls-6" d="m773.68,500.15c-10.38-3.24-21.45-9.87-14.07-21.85,5.1-8.27,14.15-13.81,23.64-15.42,4.56-.78,10.57-1.09,14.09,2.45,2.99,3,3.7,7.69,2.73,11.67-2.66,10.91-14.39,16.51-23.81,20.47-2.98,1.26-5.05,3.92-4.16,7.32.74,2.8,4.36,5.41,7.32,4.16,14.55-6.13,30.94-15.12,32.81-32.68.74-6.94-1.5-14.36-6.47-19.36-5.96-6-14.65-6.99-22.66-5.96-14.92,1.9-29.48,11.23-35.77,25.19-3.43,7.61-2.97,15.77,2.03,22.57,5.16,7.02,13.09,10.41,21.16,12.93,7.33,2.29,10.47-9.2,3.17-11.48h0Z"/><path class="cls-6" d="m733.15,466.06c-6.4-3.62-12.19-7.96-17.29-13.28-4.41-4.59-9.42-10.29-10.53-16.78-1.24-7.24,5.61-9.28,11.3-10.73,7.89-2.01,15.96-2.94,24.08-3.39,7.65-.43,15.41-.69,23.08-.5s13.45,5.66,18.07,11.36c1.51,1.87,4.67,5.35,3.69,7.9-.93,2.41-5.11,4.11-7.29,5.13-5.41,2.54-11.44,3.78-17.26,4.97-13.15,2.69-26.53,5.1-36.6,14.72-5.55,5.31,2.88,13.72,8.42,8.42,11.08-10.6,28.38-10.08,42.28-14.3,7.11-2.16,15.49-5.43,19.95-11.7,5.6-7.88,1.05-16.35-4.25-22.92-5.47-6.79-13.02-13.61-21.9-15.04-9.63-1.55-20.35-.47-30.05.16-14.58.94-42.32,2.04-45.33,20.77-1.52,9.46,3.79,18.27,9.5,25.32,6.65,8.21,14.93,14.97,24.11,20.16,6.68,3.77,12.69-6.51,6.01-10.28h0Z"/><path class="cls-6" d="m708.42,534.11c-13.04-1.94-13.71-17.91-9.62-27.8,4.08-9.86,13.38-18.08,24.17-19.35,6.34-.74,11.19,1.68,15.58,6.09s8.6,10.31,6.08,16.49c-4.56,11.2-19.2,18.15-30.16,20.78-7.45,1.79-4.29,13.27,3.17,11.48,13.49-3.24,26.79-10.89,34.96-22.32,9.28-12.97,2.81-28.03-8.39-37.38-22.19-18.54-53.62,2.24-58.68,27.1-3.01,14.8,2.65,33.85,19.72,36.39,7.5,1.11,10.73-10.36,3.17-11.48h0Z"/><path class="cls-6" d="m690.86,537.03c-.35,1.31-.73,2.6-1.15,3.87-.43,1.3-.89,2.6-1.42,3.89-2.88,7.2-7.21,14.04-13.75,17.87-1.58.92-3.29,1.67-5.14,2.2-.77.23-1.57.41-2.39.56-2.33.41-4.25-.4-5.56-1.76-1.02-1.05-1.68-2.43-1.9-3.82-.41-2.66.81-5.39,4.26-6,.47-.08.93-.19,1.38-.31,7.57-2.08,10.96-9.56,13.21-16.68,2.49-7.86,4.21-16.97,0-24.57-9.51-17.1-32.18-2.79-37.29,10.28-1.07,2.73-3.43,3.95-5.79,4.02v-17.74c5.06-6.85,12.03-12.15,20.42-14.75,2.48-.77,5.04-1.22,7.59-1.34.03,0,.06-.01.09,0,4.66-.22,9.31.64,13.47,2.57,1.61.74,3.16,1.65,4.6,2.71,2.11,1.55,4.01,3.44,5.62,5.66.01.01.02.01.02.02,7.03,9.73,6.73,22.15,3.74,33.32Z"/><path class="cls-6" d="m665.25,562.38c-.25.16-.53.31-.83.44-.99.44-1.98.71-2.97.84-5.92.8-11.84-3.39-16.78-6.58-.56-.36-1.11-.73-1.66-1.12h-.01c-2.81-1.95-5.43-4.13-7.69-6.63v-16.85c2.01-.26,4.04.58,5.18,3.05,1.9,4.1,4.69,7.29,8.35,9.93,1.85,1.33,3.82,2.5,5.8,3.61,1.17.66,6.09,2.33,3.72,3.39,2.62-1.17,5.11-.45,6.83,1.07,2.7,2.36,3.52,6.68.06,8.85Z"/><path class="cls-6" d="m675.78,489.44c-8.28-10.24-18.78-23.14-15.98-37.32,1.04-5.24,4.41-10.45,9.52-12.5,6.19-2.48,13.87.72,19.47,3.46,4.73,2.32,9.64,5.44,12,10.35,2.86,5.93,1.12,13.11-1.4,18.85-5.61,12.74-17.79,14.36-30.34,15.11-7.61.45-7.67,12.36,0,11.91,13.24-.78,27.63-2.51,36.29-13.78s12.46-27.84,4.68-39.9c-6.99-10.84-22.39-18.11-35.03-18.67-14.18-.63-25.23,11.18-27.11,24.61-2.53,18.06,8.79,33.11,19.47,46.32,4.82,5.96,13.19-2.51,8.42-8.42h0Z"/><path class="cls-6" d="m657.26,447.69c-.29,9.19-2.21,18.26-5.56,26.77-2.77,7.09-6.55,13.78-11.21,19.84-1.32,1.71-3.17,2.92-5.18,2.98v-16.64c4.85-8.09,8.19-17.02,9.44-26.45,1.05-7.87,2.64-30.21-9.44-30.46v-12c1.17.02,2.28.13,3.34.31h.01c2.56.43,4.79,1.3,6.73,2.5h0s0,.01,0,.02c1.04.63,1.98,1.37,2.85,2.19,1.28,1.2,2.39,2.58,3.35,4.09,2.48,3.88,3.99,8.64,4.82,13.53.77,4.51.97,9.14.84,13.32Z"/><path class="cls-6" d="m766.42,359.1c-.32.52-.78,1.03-1.38,1.5-10.69,8.37-21.17,14.28-35.21,12.46-1.18-.15-2.35-.35-3.5-.59-5.12-1.04-9.99-2.83-14.73-4.96-6.25-2.8-12.28-6.2-18.42-9.23-1.86-.92-2.77-2.34-2.98-3.86h21.39c5.25,2.65,10.63,5.02,16.38,6.3,10.07,2.25,17.89-.79,25.65-6.3h12.86c.79,1.45.91,3.15-.06,4.68Z"/><path class="cls-6" d="m879.3,463.54c-1.04,4.27,3.22,8.45,7.24,11.7v13.15c-.61.05-1.23-.01-1.85-.17-.81-.21-1.62-.6-2.39-1.21-6.72-5.31-15.63-12.59-15.37-21.91,0-.46.05-.94.11-1.41.28-2.19.83-4.37,1.6-6.52h0c2.7-7.56,7.98-14.76,12.77-20.57,1.36-1.66,3-2.2,4.55-1.98.19.02.38.06.57.11v14.68c-3.15,4.33-6.06,9.29-7.24,14.13Z"/></g><g id="roots"><rect class="cls-8" x="917.18" y="354.42" width="251.23" height="251.23"/><path class="cls-10" d="m1168.41,537.85v40.06c-2.58.99-6.08.13-7.79-2.48-3.16,1.23-6.66,1.77-10.15,2.11-2.36.23-4.71.44-7.07.63-13.29,2.99-27.8,3.03-41.13,3.38-16.61.44-33.22.05-49.82-.09-32.89-.28-66.07.47-97.64,10.71-7.38,2.39-10.27-8.9-3.17-11.48.15-.05.31-.1.46-.14h-.01s.01-.02.01-.02c-.06-1.86.76-3.74,2.81-4.99,30.48-18.64,66.91-16.54,101.22-16.2,32.24.31,63.53-4.41,92.78-18.6,5.73-2.78,12.25-7.02,18.31-3.2.4.07.8.18,1.19.31Z"/><path class="cls-10" d="m952.1,580.55c-.15.04-.31.09-.46.14.15-.06.3-.11.45-.15h.01Z"/><path class="cls-10" d="m1051.15,546.67c-3.73-1.6-7.46-3.19-11.19-4.78,3.8,1.4,7.53,2.98,11.19,4.78Z"/><path class="cls-10" d="m1057.16,536.39c-4.21-1.8-8.42-3.6-12.63-5.4,4.28,1.57,8.49,3.36,12.63,5.4Z"/><path class="cls-10" d="m1090.07,533.66c-26.5-12.15-54.73-23.38-84.44-19.22-.35.05-.71.1-1.06.15,13.4,5.2,26.67,10.75,39.89,16.37.03.01.05.02.07.03,4.21,1.8,8.42,3.6,12.63,5.4,7,3.45.85,13.22-6.01,10.28-3.66-1.8-7.39-3.38-11.19-4.78-17.31-6.4-35.88-9.03-54.11-11.6-23.21-3.26-46.11-7.49-68.67-13.83v-27.61c.25.01.51.05.77.09,9.37,1.68,18.62,3.75,27.78,6.16,50.5,7.36,105.5-1.02,150.35,28.28,6.52,4.26.88,13.44-6.01,10.28Z"/><path class="cls-10" d="m1168.41,389.28v34.44c-2.83,3.2-7.21,4.99-10.94,6.88-6.75,3.41-13.67,6.5-20.7,9.28-.01.02-.02.02-.03.02-2.97,1.18-5.97,2.31-8.98,3.39-7.55,1.77-10.31-8.91-3.16-11.48,2.36-.55,4.55-1.37,6.54-2.45,3.33-1.78,6.13-4.28,8.36-7.47l-.18-2.67c-15.35,3.67-29.76,9.73-43.33,18.01-14.87,9.08-30.84,18.65-48.91,13.69-5.92-1.63-5.4-9.64,0-11.48,10.5-3.59,20.54-8.26,30.01-14.05,8.4-5.14,15.94-11.44,24.01-17.05.48-.34.96-.67,1.45-1,1.4-.95,2.81-1.85,4.25-2.7.25-.15.5-.3.75-.45.47-.27.95-.54,1.43-.8,16.66-9.26,35.58-12.62,54.37-15.52,2.05-.32,3.78.31,5.06,1.41Z"/><path class="cls-10" d="m1131.14,429.36c-1.99,1.08-4.18,1.9-6.54,2.45,2.19-.78,4.37-1.6,6.54-2.45Z"/><path class="cls-10" d="m1136.74,439.9c-2.8,1.51-5.82,2.66-8.98,3.39,3.01-1.08,6.01-2.21,8.98-3.39Z"/><path class="cls-10" d="m998.95,423.11c-15.59,1.01-31.2,1.69-46.82,1.99-7.49.15-14.97.21-22.46.19-3.52-.01-8.31.6-12.49-.04v-33.76c.63-.24,1.32-.41,2.02-.5,14.15-1.83,28.2,1.35,41.57,5.8,13.39,4.46,26.58,9.59,39.76,14.63,6.26,2.39,5.3,11.25-1.58,11.69Z"/></g><g id="muddy"><rect class="cls-14" x="1199.05" y="354.42" width="251.23" height="251.23"/><path class="cls-5" d="m1329.77,461.99c7.66,0,7.67-11.91,0-11.91s-7.67,11.91,0,11.91h0Z"/><path class="cls-5" d="m1405.6,416.8c7.66,0,7.67-11.91,0-11.91s-7.67,11.91,0,11.91h0Z"/><path class="cls-5" d="m1246.28,410.67c7.66,0,7.67-11.91,0-11.91s-7.67,11.91,0,11.91h0Z"/><path class="cls-5" d="m1240.15,525.57c7.66,0,7.67-11.91,0-11.91s-7.67,11.91,0,11.91h0Z"/><path class="cls-5" d="m1347.39,574.59c7.66,0,7.67-11.91,0-11.91s-7.67,11.91,0,11.91h0Z"/><path class="cls-5" d="m1410.2,520.21c7.66,0,7.67-11.91,0-11.91s-7.67,11.91,0,11.91h0Z"/><path class="cls-5" d="m1276.15,584.55c7.66,0,7.67-11.91,0-11.91s-7.67,11.91,0,11.91h0Z"/><path class="cls-5" d="m1319.81,393.06c7.66,0,7.67-11.91,0-11.91s-7.67,11.91,0,11.91h0Z"/><path class="cls-5" d="m1283.81,497.23c7.66,0,7.67-11.91,0-11.91s-7.67,11.91,0,11.91h0Z"/><path class="cls-5" d="m1425.52,589.14c7.66,0,7.67-11.91,0-11.91s-7.67,11.91,0,11.91h0Z"/><path class="cls-5" d="m1427.81,470.42c7.66,0,7.67-11.91,0-11.91s-7.67,11.91,0,11.91h0Z"/><path class="cls-5" d="m1214.88,465.06c7.66,0,7.67-11.91,0-11.91s-7.67,11.91,0,11.91h0Z"/></g><rect class="cls-6" x="74.74" y="143.31" width="968.09" height="48.17"/></g></svg>