<?xml version="1.0" encoding="UTF-8"?><svg id="Layer_2" xmlns="http://www.w3.org/2000/svg" xmlns:xlink="http://www.w3.org/1999/xlink" viewBox="0 0 1510.9 1368.5"><defs><style>.cls-1{fill:none;}.cls-2{clip-path:url(#clippath);}.cls-3{fill:#006837;}.cls-4{fill:#fff;}.cls-5{fill:#ed1c24;}.cls-6{fill:red;}.cls-7{fill:#fbb03b;}.cls-8{fill:#ff781d;}.cls-9{fill:#7f4721;}.cls-10{fill:#7f7f7f;}.cls-11{fill:#999;}.cls-12{fill:#996537;}.cls-13{fill:#b7b7b7;}.cls-14{fill:#91009e;}.cls-15{fill:#b27a50;}.cls-16{fill:#bc722f;}.cls-17{fill:#bf8143;}.cls-18{fill:#39b54a;}.cls-19{fill:#4c2c13;}.cls-20,.cls-21{isolation:isolate;}.cls-21{opacity:.5;}</style><clipPath id="clippath"><path class="cls-1" d="m1049.4,850.6H71.6v-56.5h977.8v56.5Zm-964.6-13.2h951.5v-30.1H84.8v30.1Z"/></clipPath></defs><g id="_圖層_1"><g id="UI"><g class="cls-21"><rect class="cls-4" width="1510.9" height="1368.5"/></g><g class="cls-20"><path d="m120.6,1283.5c.8-.2,1.6-.4,2.3-.4h9.1c2.6.1,4.7,1.2,6.3,3.4.4,1.2.6,2.8.7,4.5v15.2c0,.9-.5,1.4-1.4,1.4h-3.8c-.9,0-1.4-.3-1.4-1,0-.8-.5-.7-1.5.2-.7.4-1.4.7-2.1.8h-8.2c-2.5-.3-4.1-1.4-4.8-3.5-.4-1.2-.5-3.4-.4-6.6.6-3.1,2.7-4.7,6.3-4.9h9.5c.8,0,1.2-.4,1.2-1.2,0-1.8-.9-2.8-2.7-3.1h-4c-1.4-.1-2.4.5-2.9,1.8-.1.4-.5.7-1.3.7h-3.9c-.9,0-1.4-.5-1.4-1.4.3-2.8,1.7-4.8,4.4-5.9Zm3.2,14c-1.3.4-1.9,1.1-1.6,2.3-.2,1.2.3,2,1.7,2.4h5.1c1.8.3,3.1-.9,3.7-3.5,0-.8-.3-1.2-1.1-1.2h-7.8Z"/><path d="m142.8,1288.8c.3-3.6,2.6-5.4,6.7-5.6h10.3c3.2,0,5.2,2,5.9,5.8,0,1.1-.5,1.6-1.4,1.6h-3.5c-.9,0-1.4-.2-1.5-.5-.6-1.2-1.5-1.8-2.8-1.5h-5.3c-1.3.3-1.9,1.1-1.8,2.2-.2,1,.4,1.6,1.7,1.9h9.2c3.4.2,5.5,1.9,6,5.1v4.5c-.2,1.5-.8,2.8-1.8,3.8-1.4,1-3.4,1.6-5.9,1.8h-10.4c-4.2-.8-6.3-3-6.5-6.5,0-1,.4-1.5,1.4-1.5h4.3c.9,0,1.5.2,1.5.7.5,1.3,1.5,1.9,3,1.8h4.4c.9.2,1.7-.1,2.5-.7.3-.3.4-.8.4-1.5.3-1.3-.4-2.1-2.1-2.3h-9.3c-2.8,0-4.4-1.3-5.1-4v-5.1h.1Z"/><path d="m177.2,1284.3c.4-.7,1.5-1.1,3.2-1.2h6.9c3.8.8,5.7,3.5,5.8,7.8v8.8c-.1,1.3-.4,2.6-.8,3.8-.5,1.4-1.2,2.4-2.2,3.2-1.3.6-2.6.9-3.8.9h-6.1c-1.1,0-2-.2-2.8-.7-.7-.6-1-.4-1,.4v8.1c0,.9-.5,1.4-1.4,1.4h-4.1c-.9,0-1.4-.5-1.4-1.4v-30.7c0-.9.5-1.4,1.4-1.4h4.1c.9,0,1.4.2,1.4.5l.1.7c.2.5.5.4.7-.2Zm1.4,4.8c-1.6.5-2.4,1.7-2.2,3.5v6.7c.4,1.2,1.2,2,2.4,2.1h4.5c2.1-.3,3.1-1.4,2.8-3.2v-6.2c-.2-1.5-1.1-2.5-2.5-2.9h-5Z"/><path d="m196.3,1277.2c0-1,.5-1.5,1.4-1.5h4c.9,0,1.4.5,1.4,1.4v7.8c0,.8.5.8,1.5,0,1.2-.8,2.3-1.4,3.2-1.5,3.4-.8,6.6-.2,9.8,1.7,1.5,1.5,2.2,3.6,2.3,6.1v15c0,.9-.5,1.4-1.4,1.4h-3.9c-.9,0-1.4-.5-1.4-1.4v-13.5c-.2-1.5-1-2.5-2.7-3-2.9-.4-5.1.1-6.6,1.4-.5.4-.8,1-.8,1.6v13.5c0,.9-.5,1.4-1.4,1.4h-4c-.9,0-1.4-.5-1.4-1.4v-29h0Z"/><path d="m228.6,1283.5c.8-.2,1.6-.4,2.3-.4h9.1c2.6.1,4.7,1.2,6.3,3.4.4,1.2.6,2.8.7,4.5v15.2c0,.9-.5,1.4-1.4,1.4h-3.8c-.9,0-1.4-.3-1.4-1,0-.8-.5-.7-1.5.2-.7.4-1.4.7-2.1.8h-8.2c-2.5-.3-4.1-1.4-4.8-3.5-.4-1.2-.5-3.4-.4-6.6.6-3.1,2.7-4.7,6.3-4.9h9.5c.8,0,1.2-.4,1.2-1.2,0-1.8-.9-2.8-2.7-3.1h-4c-1.4-.1-2.4.5-2.9,1.8-.1.4-.5.7-1.3.7h-3.9c-.9,0-1.4-.5-1.4-1.4.2-2.8,1.6-4.8,4.4-5.9Zm3.1,14c-1.3.4-1.9,1.1-1.6,2.3-.2,1.2.3,2,1.7,2.4h5.1c1.8.3,3.1-.9,3.7-3.5,0-.8-.3-1.2-1.1-1.2h-7.8Z"/><path d="m251.1,1277.2c0-1,.5-1.5,1.4-1.5h4.2c.9,0,1.4.5,1.4,1.4v29.2c0,.9-.5,1.4-1.4,1.4h-4.1c-.9,0-1.4-.5-1.4-1.4v-29.1h-.1Z"/><path d="m265.1,1277.7c0-1,.5-1.5,1.4-1.5h4.2c.9,0,1.4.5,1.4,1.4v4.4c0,.8.4,1.2,1.2,1.2h4.5c.9,0,1.4.5,1.4,1.4v3.3c0,.9-.5,1.4-1.4,1.4h-4.3c-.8,0-1.2.4-1.2,1.2v8.3c.2,1.4,1,2.3,2.5,2.6h3.3c.9,0,1.4.5,1.4,1.4v3.5c0,.9-.5,1.4-1.4,1.4h-6.6c-4.4-.8-6.5-3.3-6.4-7.5v-9.7c0-.8-.5-1.2-1.5-1.2s-1.5-.5-1.5-1.4v-3.3c0-.9.5-1.4,1.4-1.4,1,0,1.5-.4,1.5-1.2v-4.3h.1Z"/></g><g class="cls-20"><path d="m458.5,1277.2c0-1,.5-1.5,1.4-1.5h4.4c.9,0,1.4.5,1.4,1.4v29.2c0,.9-.5,1.4-1.4,1.4h-4.1c-.9,0-1.4-.3-1.4-.8,0-.6-.5-.6-1.5,0-.7.4-1.5.6-2.4.8h-6.4c-3.1-.3-5-2-5.8-5.2-.3-.8-.4-1.7-.4-2.5v-9c.2-3.2,1.6-5.4,4.3-6.8.8-.4,2-.7,3.5-.9h4.9c.9.2,1.7.5,2.5.9.8.6,1.2.5,1.2-.4v-6.6h-.2Zm-6.4,12.3c-2,.5-3,1.7-3.1,3.7v4.9c-.2,1.9.8,3,2.9,3.4h3.9c1.7-.4,2.6-1.4,2.6-2.9v-6.3c-.1-1.2-.7-2-1.8-2.4-.8-.4-2.3-.5-4.5-.4Z"/><path d="m469.3,1277.2c0-1,.5-1.5,1.4-1.5h4.3c.9,0,1.4.5,1.4,1.4v1.5c0,.9-.5,1.4-1.4,1.4h-4.3c-.9,0-1.4-.5-1.4-1.4v-1.4Zm0,7.5c0-1,.4-1.5,1.3-1.5h4.4c.9,0,1.4.5,1.4,1.4v21.7c0,.9-.5,1.4-1.4,1.4h-4.3c-.9,0-1.4-.5-1.4-1.4v-21.6Z"/><path d="m480.4,1284.7c0-1,.4-1.5,1.3-1.5h4.1c.9,0,1.4.4,1.4,1.3,0,1,.5,1,1.5.1.9-.7,2.2-1.2,3.8-1.4h5.4c.9,0,1.4.5,1.4,1.4v3.5c0,.9-.5,1.4-1.4,1.4h-5c-2.3.4-4,1.6-5.1,3.7-.4,1-.6,2.1-.7,3.3v9.8c0,.9-.5,1.4-1.4,1.4h-4c-.9,0-1.4-.5-1.4-1.4v-21.6h.1Z"/><path d="m504.5,1277.7c0-1,.5-1.5,1.4-1.5h4.2c.9,0,1.4.5,1.4,1.4v4.4c0,.8.4,1.2,1.2,1.2h4.5c.9,0,1.4.5,1.4,1.4v3.3c0,.9-.5,1.4-1.4,1.4h-4.3c-.8,0-1.2.4-1.2,1.2v8.3c.2,1.4,1,2.3,2.5,2.6h3.3c.9,0,1.4.5,1.4,1.4v3.5c0,.9-.5,1.4-1.4,1.4h-6.6c-4.4-.8-6.5-3.3-6.4-7.5v-9.7c0-.8-.5-1.2-1.5-1.2s-1.5-.5-1.5-1.4v-3.3c0-.9.5-1.4,1.4-1.4,1,0,1.5-.4,1.5-1.2v-4.3h.1Z"/></g><g class="cls-20"><path d="m629.9,1288.8c.3-3.6,2.6-5.4,6.7-5.6h10.3c3.2,0,5.2,2,5.9,5.8,0,1.1-.5,1.6-1.4,1.6h-3.5c-.9,0-1.4-.2-1.5-.5-.6-1.2-1.5-1.8-2.8-1.5h-5.3c-1.3.3-1.9,1.1-1.8,2.2-.2,1,.4,1.6,1.7,1.9h9.2c3.4.2,5.5,1.9,6,5.1v4.5c-.2,1.5-.8,2.8-1.8,3.8-1.4,1-3.4,1.6-5.9,1.8h-10.4c-4.2-.8-6.3-3-6.5-6.5,0-1,.4-1.5,1.4-1.5h4.3c.9,0,1.5.2,1.5.7.5,1.3,1.5,1.9,3,1.8h4.4c.9.2,1.7-.1,2.5-.7.3-.3.4-.8.4-1.5.3-1.3-.4-2.1-2.1-2.3h-9.3c-2.8,0-4.4-1.3-5.1-4v-5.1h.1Z"/><path d="m664.6,1284.5c1.6-1.2,3.5-1.6,5.8-1.2.8.2,1.8.8,2.8,1.6s1.9.7,2.7-.2c.9-.9,2.1-1.4,3.8-1.5,4.2-.7,6.7,1.3,7.5,5.8v17.3c0,.9-.5,1.4-1.4,1.4h-4c-.9,0-1.4-.5-1.4-1.4v-13.8c.1-2.2-.9-3.2-2.8-3-1.8.2-2.6,1-2.4,2.6v14.2c0,.9-.5,1.4-1.4,1.4h-3.9c-.9,0-1.4-.5-1.4-1.4v-15.2c0-.6-.4-1-1.1-1.5-1.9-.3-3.2-.2-3.8.5-.2.2-.3.5-.4.9v15.3c0,.9-.5,1.4-1.4,1.4h-3.7c-.9,0-1.4-.5-1.4-1.4v-21.5c0-.9.5-1.4,1.4-1.4h3.7c.9,0,1.4.4,1.4,1.2-.1.8.4.8,1.4-.1Z"/><path d="m695.5,1283.5c.8-.2,1.6-.4,2.3-.4h9.1c2.6.1,4.7,1.2,6.3,3.4.4,1.2.6,2.8.7,4.5v15.2c0,.9-.5,1.4-1.4,1.4h-3.8c-.9,0-1.4-.3-1.4-1,0-.8-.5-.7-1.5.2-.7.4-1.4.7-2.1.8h-8.2c-2.5-.3-4.1-1.4-4.8-3.5-.4-1.2-.5-3.4-.4-6.6.6-3.1,2.7-4.7,6.3-4.9h9.5c.8,0,1.2-.4,1.2-1.2,0-1.8-.9-2.8-2.7-3.1h-4c-1.4-.1-2.4.5-2.9,1.8-.1.4-.5.7-1.3.7h-3.9c-.9,0-1.4-.5-1.4-1.4.2-2.8,1.6-4.8,4.4-5.9Zm3.1,14c-1.3.4-1.9,1.1-1.6,2.3-.3,1.2.3,2,1.7,2.4h5.1c1.8.3,3.1-.9,3.7-3.5,0-.8-.3-1.2-1.1-1.2h-7.8Z"/><path d="m718,1277.2c0-1,.5-1.5,1.4-1.5h4.2c.9,0,1.4.5,1.4,1.4v29.2c0,.9-.5,1.4-1.4,1.4h-4.1c-.9,0-1.4-.5-1.4-1.4v-29.1h-.1Z"/><path d="m730.4,1277.2c0-1,.5-1.5,1.4-1.5h4.2c.9,0,1.4.5,1.4,1.4v29.2c0,.9-.5,1.4-1.4,1.4h-4.1c-.9,0-1.4-.5-1.4-1.4v-29.1h-.1Z"/><path d="m766,1284.7c0-1,.4-1.5,1.3-1.5h4.1c.9,0,1.4.4,1.4,1.3,0,1,.5,1,1.5.1.9-.7,2.2-1.2,3.8-1.4h5.4c.9,0,1.4.5,1.4,1.4v3.5c0,.9-.5,1.4-1.4,1.4h-5c-2.3.4-4,1.6-5.1,3.7-.4,1-.6,2.1-.7,3.3v9.8c0,.9-.5,1.4-1.4,1.4h-4c-.9,0-1.4-.5-1.4-1.4v-21.6h.1Z"/><path d="m792.8,1283.4l1.1-.2h12.1c2.8.2,5,1.7,6.4,4.6.3.9.5,1.8.6,2.7v10.6c-.3,3.2-1.9,5.2-5,6-1.1.3-2.3.5-3.6.6h-10.5c-3.1-.1-5.2-1.7-6.4-4.7-.3-.9-.5-1.8-.6-2.6v-10c1-4,2.9-6.4,5.9-7Zm4.2,5.7c-2.4.6-3.5,1.8-3.2,3.8v6c.1,1.5,1.1,2.5,2.9,2.9h6.4c1.7-.1,2.7-1,3.3-2.7v-7.1c-.5-2.1-1.8-3-3.8-2.8h-5.6v-.1Z"/><path d="m819.9,1284.2c1.3-.5,3-.9,4.9-1h6.4c5.7.4,8.6,3.1,8.5,8,0,.9-.5,1.4-1.4,1.4h-4c-.9,0-1.4-.2-1.4-.5-.2-1.8-1.2-2.7-3-2.8h-5c-1.5.4-2.4,1.3-2.5,2.6v6.8c.4,1.4,1.5,2.3,3.2,2.5h4.9c1.7-.4,2.4-1.3,2.2-2.8,0-.9.5-1.4,1.4-1.4h4.3c.9,0,1.4.5,1.4,1.4.2,2.3-.3,4.4-1.4,6.4-1.5,1.8-3.4,2.8-5.9,2.9h-9.5c-4-.3-6.4-2.6-7.2-6.8v-10.8c.4-2.5,1.7-4.5,4.1-5.9Z"/><path d="m843.1,1277.2c0-1,.5-1.5,1.4-1.5h4.2c.9,0,1.4.5,1.4,1.4v15.1c0,.8.4.8,1.2-.2l5.7-7.5c.7-.9,1.5-1.4,2.5-1.4h4.6c.9,0,1.1.5.4,1.4l-5.9,7.9c-.6.8-.7,1.6-.2,2.2,2.5,3.8,5,7.6,7.6,11.4.7,1,.5,1.5-.3,1.5h-5.3c-.9,0-1.7-.5-2.3-1.4-2.2-3.3-4.3-6.6-6.4-9.8-.7-.8-1.1-1.3-1.4-1.3-.2.2-.3.7-.3,1.5v9.6c0,.9-.5,1.4-1.4,1.4h-4.2c-.9,0-1.4-.5-1.4-1.4v-28.9h.1Z"/><path d="m870.2,1288.8c.3-3.6,2.6-5.4,6.7-5.6h10.3c3.2,0,5.2,2,5.9,5.8,0,1.1-.5,1.6-1.4,1.6h-3.5c-.9,0-1.4-.2-1.5-.5-.6-1.2-1.5-1.8-2.8-1.5h-5.3c-1.3.3-1.9,1.1-1.8,2.2-.2,1,.4,1.6,1.7,1.9h9.2c3.4.2,5.5,1.9,6,5.1v4.5c-.2,1.5-.8,2.8-1.8,3.8-1.4,1-3.4,1.6-5.9,1.8h-10.4c-4.2-.8-6.3-3-6.5-6.5,0-1,.4-1.5,1.4-1.5h4.3c.9,0,1.5.2,1.5.7.5,1.3,1.5,1.9,3,1.8h4.4c.9.2,1.7-.1,2.5-.7.3-.3.4-.8.4-1.5.3-1.3-.4-2.1-2.1-2.3h-9.3c-2.8,0-4.4-1.3-5.1-4v-5.1h.1Z"/></g><g class="cls-20"><path d="m987.3,1284.7c0-1,.4-1.5,1.3-1.5h4.1c.9,0,1.4.4,1.4,1.3,0,1,.5,1,1.5.1.9-.7,2.2-1.2,3.8-1.4h5.4c.9,0,1.4.5,1.4,1.4v3.5c0,.9-.5,1.4-1.4,1.4h-5c-2.3.4-4,1.6-5.1,3.7-.4,1-.6,2.1-.7,3.3v9.8c0,.9-.5,1.4-1.4,1.4h-4c-.9,0-1.4-.5-1.4-1.4v-21.6h.1Z"/><path d="m1014.2,1283.4l1.1-.2h12.1c2.8.2,5,1.7,6.4,4.6.3.9.5,1.8.6,2.7v10.6c-.3,3.2-1.9,5.2-5,6-1.1.3-2.3.5-3.6.6h-10.5c-3.1-.1-5.2-1.7-6.4-4.7-.3-.9-.5-1.8-.6-2.6v-10c.9-4,2.8-6.4,5.9-7Zm4.1,5.7c-2.4.6-3.5,1.8-3.2,3.8v6c.1,1.5,1.1,2.5,2.9,2.9h6.4c1.7-.1,2.7-1,3.3-2.7v-7.1c-.5-2.1-1.8-3-3.8-2.8h-5.6v-.1Z"/><path d="m1042.9,1283.4l1.1-.2h12.1c2.8.2,5,1.7,6.4,4.6.3.9.5,1.8.6,2.7v10.6c-.3,3.2-1.9,5.2-5,6-1.1.3-2.3.5-3.6.6h-10.5c-3.1-.1-5.2-1.7-6.4-4.7-.3-.9-.5-1.8-.6-2.6v-10c1-4,2.9-6.4,5.9-7Zm4.2,5.7c-2.4.6-3.5,1.8-3.2,3.8v6c.1,1.5,1.1,2.5,2.9,2.9h6.4c1.7-.1,2.7-1,3.3-2.7v-7.1c-.5-2.1-1.8-3-3.8-2.8h-5.6v-.1Z"/><path d="m1068.9,1277.7c0-1,.5-1.5,1.4-1.5h4.2c.9,0,1.4.5,1.4,1.4v4.4c0,.8.4,1.2,1.2,1.2h4.5c.9,0,1.4.5,1.4,1.4v3.3c0,.9-.5,1.4-1.4,1.4h-4.3c-.8,0-1.2.4-1.2,1.2v8.3c.2,1.4,1,2.3,2.5,2.6h3.3c.9,0,1.4.5,1.4,1.4v3.5c0,.9-.5,1.4-1.4,1.4h-6.6c-4.4-.8-6.5-3.3-6.4-7.5v-9.7c0-.8-.5-1.2-1.5-1.2s-1.5-.5-1.5-1.4v-3.3c0-.9.5-1.4,1.4-1.4,1,0,1.5-.4,1.5-1.2v-4.3h.1Z"/><path d="m1087.1,1288.8c.3-3.6,2.6-5.4,6.7-5.6h10.3c3.2,0,5.2,2,5.9,5.8,0,1.1-.5,1.6-1.4,1.6h-3.5c-.9,0-1.4-.2-1.5-.5-.6-1.2-1.5-1.8-2.8-1.5h-5.3c-1.3.3-1.9,1.1-1.8,2.2-.2,1,.4,1.6,1.7,1.9h9.2c3.4.2,5.5,1.9,6,5.1v4.5c-.2,1.5-.8,2.8-1.8,3.8-1.4,1-3.4,1.6-5.9,1.8h-10.4c-4.2-.8-6.3-3-6.5-6.5,0-1,.4-1.5,1.4-1.5h4.3c.9,0,1.5.2,1.5.7.5,1.3,1.5,1.9,3,1.8h4.4c.9.2,1.7-.1,2.5-.7.3-.3.4-.8.4-1.5.3-1.3-.4-2.1-2.1-2.3h-9.3c-2.8,0-4.4-1.3-5.1-4v-5.1h.1Z"/></g><g class="cls-20"><path d="m1266.5,1284.5c1.6-1.2,3.5-1.6,5.8-1.2.8.2,1.8.8,2.8,1.6s1.9.7,2.7-.2c.9-.9,2.1-1.4,3.8-1.5,4.2-.7,6.7,1.3,7.5,5.8v17.3c0,.9-.5,1.4-1.4,1.4h-4c-.9,0-1.4-.5-1.4-1.4v-13.8c.1-2.2-.9-3.2-2.8-3-1.8.2-2.6,1-2.4,2.6v14.2c0,.9-.5,1.4-1.4,1.4h-3.9c-.9,0-1.4-.5-1.4-1.4v-15.2c0-.6-.4-1-1.1-1.5-1.9-.3-3.2-.2-3.8.5-.2.2-.3.5-.4.9v15.3c0,.9-.5,1.4-1.4,1.4h-3.7c-.9,0-1.4-.5-1.4-1.4v-21.5c0-.9.5-1.4,1.4-1.4h3.7c.9,0,1.4.4,1.4,1.2-.1.8.4.8,1.4-.1Z"/><path d="m1292.6,1284.7c0-1,.4-1.5,1.3-1.5h3.9c.9,0,1.4.5,1.4,1.4v13.5c0,1.7,1.1,2.8,3.3,3.4h3.6c1.8-.4,2.7-1.6,2.8-3.5v-13.3c0-.9.5-1.4,1.4-1.4h3.8c.9,0,1.4.5,1.4,1.4v21.7c0,.9-.5,1.4-1.4,1.4h-3.8c-.9,0-1.4-.5-1.4-1.5,0-1.2-.3-1.2-1-.1-.8.9-2.1,1.4-3.7,1.5h-5.1c-1.3-.1-2.6-.4-3.8-.9-1.7-1.4-2.5-3.4-2.7-6v-16.1h0Z"/><path d="m1335,1277.2c0-1,.5-1.5,1.4-1.5h4.4c.9,0,1.4.5,1.4,1.4v29.2c0,.9-.5,1.4-1.4,1.4h-4.1c-.9,0-1.4-.3-1.4-.8,0-.6-.5-.6-1.5,0-.7.4-1.5.6-2.4.8h-6.4c-3.1-.3-5-2-5.8-5.2-.2-.8-.4-1.7-.4-2.5v-9c.2-3.2,1.6-5.4,4.3-6.8.8-.4,2-.7,3.5-.9h4.9c.9.2,1.7.5,2.5.9.8.6,1.2.5,1.2-.4v-6.6h-.2Zm-6.4,12.3c-2,.5-3,1.7-3.1,3.7v4.9c-.2,1.9.8,3,2.9,3.4h3.9c1.7-.4,2.6-1.4,2.6-2.9v-6.3c-.1-1.2-.7-2-1.8-2.4-.8-.4-2.3-.5-4.5-.4Z"/><path d="m1361.6,1277.2c0-1,.5-1.5,1.4-1.5h4.4c.9,0,1.4.5,1.4,1.4v29.2c0,.9-.5,1.4-1.4,1.4h-4.1c-.9,0-1.4-.3-1.4-.8,0-.6-.5-.6-1.5,0-.7.4-1.5.6-2.4.8h-6.4c-3.1-.3-5-2-5.8-5.2-.2-.8-.4-1.7-.4-2.5v-9c.2-3.2,1.6-5.4,4.3-6.8.8-.4,2-.7,3.5-.9h4.9c.9.2,1.7.5,2.5.9.8.6,1.2.5,1.2-.4v-6.6h-.2Zm-6.4,12.3c-2,.5-3,1.7-3.1,3.7v4.9c-.2,1.9.8,3,2.9,3.4h3.9c1.7-.4,2.6-1.4,2.6-2.9v-6.3c-.1-1.2-.7-2-1.8-2.4-.8-.4-2.3-.5-4.5-.4Z"/><path d="m1372.1,1284.6c-.5-1-.3-1.5.6-1.5h5.1c.9,0,1.6.5,2,1.4l4.9,11.7c.4,1,.7,1.1.8.1l3-11.8c.2-.9.8-1.4,1.8-1.4h4.5c.9,0,1.3.5,1,1.4-2.5,8.6-5,17.2-7.4,25.8-.3,2.3-1.4,4.1-3.2,5.4-1.8.8-3.4,1.2-4.9,1.2h-7.5c-.9,0-1.4-.5-1.4-1.4v-2.7c0-.9.5-1.4,1.4-1.4h5.1c1.6.1,2.8-1,3.8-3.3l.3-.6c.3-.7.3-1.5-.2-2.5l-9.7-20.4Z"/></g><g class="cls-20"><path d="m74.8,947.6c0-1,.5-1.5,1.4-1.5h22.7c1.4.1,2.6.4,3.8.8,2,.9,3.1,2.3,3.3,4.2v7.1c-.1,1.6-.7,2.8-1.6,3.8-1,.7-1,1.3-.1,1.9,1.2,1.1,1.8,2.4,1.9,4v8.9c0,.9-.5,1.4-1.4,1.4h-4.9c-.9,0-1.4-.5-1.4-1.4v-6.9c0-1.6-1-2.7-3-3.3h-11.7c-.8,0-1.2.4-1.2,1.2v9.1c0,.9-.5,1.4-1.4,1.4h-4.9c-.9,0-1.4-.5-1.4-1.4v-29.3h-.1Zm20.7,4.7h-11.8c-.8,0-1.2.4-1.2,1.2v5.3c0,.8.4,1.2,1.2,1.2h12c1.2-.1,2-.7,2.4-2,.2-1.8,0-3.2-.4-4.2-.6-.9-1.3-1.4-2.2-1.5Z"/><path d="m113.1,947.8c1.6-.9,3.5-1.4,5.6-1.6h14.4c2.8.3,5.3,1.6,7.5,3.9,1.2,1.9,1.8,4,1.9,6.4v12.2c-.1,1-.3,2.2-.8,3.8-.9,2.8-3,4.5-6.3,5.2-.8.3-1.9.5-3.1.5h-15.2c-4.2-.4-6.7-2.4-7.5-6-.2-.8-.3-1.7-.4-2.6v-14.4c.2-3,1.5-5.4,3.9-7.4Zm8.3,5.1c-2.5,0-4.2,1.2-4.9,3.8v11.4c.4,1.9,1.7,2.9,3.9,3.2h10.4c2.1-.1,3.4-1.2,3.8-3.4v-11.2c-.2-2.2-1.4-3.5-3.6-3.9h-9.6v.1Z"/><path d="m156.9,947.6c.4-1,1-1.5,1.9-1.5h6.5c.9,0,1.6.5,2,1.4l11.4,29.1c.4,1,.1,1.5-.8,1.5h-5.2c-.9,0-1.6-.5-2-1.4l-1.2-2.8c-.3-.8-.9-1.1-1.6-1.1h-11.7c-.8,0-1.3.5-1.7,1.5-.3.8-.6,1.5-.8,2.2-.4,1.1-1,1.6-2,1.6h-5.7c-.9,0-1.2-.5-.8-1.4,3.9-9.6,7.8-19.3,11.7-29.1Zm5.7,7.4c-.4-1.1-.8-1.1-1.1-.2l-3.7,10c-.3,1-.1,1.5.7,1.5h7.2c.8,0,1-.4.7-1.3l-3.8-10Z"/><path d="m181.3,947.6c0-1,.5-1.5,1.4-1.5h22.1c5.2.7,8.3,3.8,9.3,9.3.1.3.1.6.1,1v12.4c-.1,1.2-.3,2.5-.8,3.8-.4,1.5-1.3,2.6-2.7,3.5-1.4,1-3.4,1.7-6,2h-22.1c-.9,0-1.4-.5-1.4-1.4v-29.1h.1Zm25.5,10.3c-.1-3-1.6-4.8-4.5-5.2h-12c-.8,0-1.2.4-1.2,1.2v16.8c0,.8.4,1.2,1.2,1.2h11.5c2.8-.3,4.5-1.9,5-4.8v-9.2Z"/><path d="m240.9,947.6c0-1,.5-1.5,1.4-1.5h28.6c.9,0,1.4.5,1.4,1.4v3.9c0,.9-.5,1.4-1.4,1.4h-9c-.8,0-1.2.4-1.2,1.2v22.6c0,.9-.5,1.4-1.4,1.4h-5.2c-.9,0-1.4-.5-1.4-1.4v-22.6c0-.8-.4-1.2-1.2-1.2h-9.2c-.9,0-1.4-.5-1.4-1.4v-3.8h0Z"/><path d="m275.6,947.6c-.7-1-.6-1.5.3-1.5h6.1c.9,0,1.7.5,2.3,1.4l6,8.8c.6.8,1.2.8,1.8-.2l5.9-8.5c.7-1,1.5-1.5,2.3-1.5h5.9c.9,0,1.1.5.4,1.4l-10.2,14.5c-1.1,1.2-1.6,2.2-1.3,3v11.6c0,.9-.5,1.4-1.4,1.4h-5c-.9,0-1.4-.5-1.4-1.4v-11.6c0-.8-.2-1.4-.7-2.1l-11-15.3Z"/><path d="m310.1,947.6c0-1,.5-1.5,1.4-1.5h22.3c1.4.2,2.6.5,3.8,1,2.2,1.3,3.3,3.3,3.4,5.9v6.5c-.1,1.3-.4,2.6-1,3.8-.9,1.6-2,2.6-3.3,3-1,.4-2.2.7-3.6.8h-13.9c-.8,0-1.2.4-1.2,1.2v8.4c0,.9-.5,1.4-1.4,1.4h-5c-.9,0-1.4-.5-1.4-1.4v-29.1h-.1Zm22.2,6.4c-.5-.6-1.2-.9-2.2-1.1h-11.2c-.8,0-1.2.4-1.2,1.2v5.2c0,.8.4,1.2,1.2,1.2h11.3c2-.4,2.9-1.5,2.6-3.3.4-1.4.2-2.4-.5-3.2Z"/><path d="m343.9,947.6c0-1,.5-1.5,1.4-1.5h25.4c.9,0,1.4.5,1.4,1.4v3.9c0,.9-.5,1.4-1.4,1.4h-17.9c-.8,0-1.2.4-1.2,1.2v3.6c0,.8.4,1.2,1.2,1.2h16.3c.9,0,1.4.5,1.4,1.4v3.6c0,.9-.5,1.4-1.4,1.4h-16.3c-.8,0-1.2.4-1.2,1.2v3.6c0,.8.4,1.2,1.2,1.2h18.7c.9,0,1.4.5,1.4,1.4v4.1c0,.9-.5,1.4-1.4,1.4h-26.2c-.9,0-1.4-.5-1.4-1.4v-29.1Z"/></g><g class="cls-20"><path d="m144,870.2c1-.4,2-.7,2.9-.8h10.4c3.5,0,5.6,1.8,6.3,5.3v4.5c-.1,1.6-.5,2.8-1.1,3.8-.9.9-2.4,1.2-4.3,1h-10.9c-.8,0-1.2.5-1.2,1.5-.3,1.8.5,2.8,2.4,3h4.9c1.8.3,2.9-.5,3.2-2.3,0-.3.5-.5,1.4-.5h4c.9,0,1.4.5,1.4,1.4-.3,2.8-1.5,4.9-3.5,6.1-1.1.4-2.2.7-3.3.8h-11c-2-.2-3.5-1-4.6-2.3-.8-1.2-1.3-2.9-1.5-5.1v-9.4c.3-3.1,1.7-5.4,4.5-7Zm3.9,4.7c-1.3.3-1.9,1.1-1.7,2.2-.2,1.1.3,1.9,1.6,2.2h6.3c2,.1,2.9-.8,2.5-2.6-.1-1.5-1-2.1-2.6-1.9h-6.1v.1Z"/><path d="m171.6,869.8c.8-.2,1.6-.4,2.3-.4h9.1c2.6.1,4.7,1.2,6.3,3.4.4,1.2.6,2.8.7,4.5v15.2c0,.9-.5,1.4-1.4,1.4h-3.8c-.9,0-1.4-.3-1.4-1,0-.8-.5-.7-1.5.2-.7.4-1.4.7-2.1.8h-8.2c-2.5-.3-4.1-1.4-4.8-3.5-.4-1.2-.5-3.4-.4-6.6.6-3.1,2.7-4.7,6.3-4.9h9.5c.8,0,1.2-.4,1.2-1.2,0-1.8-.9-2.8-2.7-3.1h-4c-1.4-.1-2.4.5-2.9,1.8-.1.4-.5.7-1.3.7h-3.9c-.9,0-1.4-.5-1.4-1.4.2-2.9,1.6-4.8,4.4-5.9Zm3.1,13.9c-1.3.4-1.9,1.1-1.6,2.3-.3,1.2.3,2,1.7,2.4h5.1c1.8.3,3.1-.9,3.7-3.5,0-.8-.3-1.2-1.1-1.2h-7.8Z"/><path d="m193.7,875.1c.3-3.6,2.6-5.4,6.7-5.6h10.3c3.2,0,5.2,2,5.9,5.8,0,1.1-.5,1.6-1.4,1.6h-3.5c-.9,0-1.4-.2-1.5-.5-.6-1.2-1.5-1.8-2.8-1.5h-5.3c-1.3.3-1.9,1.1-1.8,2.2-.2,1,.4,1.6,1.7,1.9h9.2c3.4.2,5.5,1.9,6,5.1v4.5c-.2,1.5-.8,2.8-1.8,3.8-1.4,1-3.4,1.6-5.9,1.8h-10.4c-4.2-.8-6.3-3-6.5-6.5,0-1,.4-1.5,1.4-1.5h4.3c.9,0,1.5.2,1.5.7.5,1.3,1.5,1.9,3,1.8h4.4c.9.2,1.7-.1,2.5-.7.3-.3.4-.8.4-1.5.3-1.3-.4-2.1-2.1-2.3h-9.3c-2.8,0-4.4-1.3-5.1-4v-5.1h.1Z"/><path d="m220.1,870.9c-.5-1-.3-1.5.6-1.5h5.1c.9,0,1.6.5,2,1.4l4.9,11.7c.4,1,.7,1.1.8.1l3-11.8c.2-.9.8-1.4,1.8-1.4h4.5c.9,0,1.3.5,1,1.4-2.5,8.6-5,17.2-7.4,25.8-.3,2.3-1.4,4.1-3.2,5.4-1.8.8-3.4,1.2-4.9,1.2h-7.5c-.9,0-1.4-.5-1.4-1.4v-2.7c0-.9.5-1.4,1.4-1.4h5.1c1.6.1,2.8-1,3.8-3.3l.3-.6c.3-.7.3-1.5-.2-2.5l-9.7-20.4Z"/></g><g class="cls-20"><path d="m377.2,870.9c-.3-1,.1-1.5.9-1.5h3.9c.9,0,1.5.5,1.7,1.4l1.9,10.8c.1.7.3,1.4.5,2.1.2.2.3.2.4.2.2-.3.4-1,.7-2.1.8-3.6,1.5-7.2,2.4-10.9.2-1,.8-1.5,1.7-1.5h4.8c.9,0,1.5.5,1.7,1.4.7,3.6,1.5,7.2,2.3,10.8.2.6.4,1,.5,1.2.2,0,.4-.4.8-1.4.6-3.5,1.2-7.1,1.8-10.6.2-.9.7-1.4,1.6-1.4h4.2c.9,0,1.3.5,1.1,1.4l-5.4,21.6c-.3,1-.8,1.5-1.7,1.5h-4.5c-.9,0-1.5-.5-1.7-1.4l-3-13.9c-.2-.2-.3-.3-.4-.3-.1.1-.3.6-.6,1.5l-2.5,12.6c-.2.9-.8,1.4-1.7,1.4h-4.6c-.9,0-1.5-.5-1.7-1.4l-5.1-21.5Z"/><path d="m417.6,869.8c.8-.2,1.6-.4,2.3-.4h9.1c2.6.1,4.7,1.2,6.3,3.4.4,1.2.6,2.8.7,4.5v15.2c0,.9-.5,1.4-1.4,1.4h-3.8c-.9,0-1.4-.3-1.4-1,0-.8-.5-.7-1.5.2-.7.4-1.4.7-2.1.8h-8.2c-2.5-.3-4.1-1.4-4.8-3.5-.4-1.2-.5-3.4-.4-6.6.6-3.1,2.7-4.7,6.3-4.9h9.5c.8,0,1.2-.4,1.2-1.2,0-1.8-.9-2.8-2.7-3.1h-4c-1.4-.1-2.4.5-2.9,1.8-.1.4-.5.7-1.3.7h-3.9c-.9,0-1.4-.5-1.4-1.4.2-2.9,1.6-4.8,4.4-5.9Zm3.1,13.9c-1.3.4-1.9,1.1-1.6,2.3-.3,1.2.3,2,1.7,2.4h5.1c1.8.3,3.1-.9,3.7-3.5,0-.8-.3-1.2-1.1-1.2h-7.8Z"/><path d="m441.7,864c0-1,.5-1.5,1.4-1.5h4.2c.9,0,1.4.5,1.4,1.4v4.4c0,.8.4,1.2,1.2,1.2h4.5c.9,0,1.4.5,1.4,1.4v3.3c0,.9-.5,1.4-1.4,1.4h-4.3c-.8,0-1.2.4-1.2,1.2v8.3c.2,1.4,1,2.3,2.5,2.6h3.3c.9,0,1.4.5,1.4,1.4v3.5c0,.9-.5,1.4-1.4,1.4h-6.6c-4.4-.8-6.5-3.3-6.4-7.5v-9.7c0-.8-.5-1.2-1.5-1.2s-1.5-.5-1.5-1.4v-3.3c0-.9.5-1.4,1.4-1.4,1,0,1.5-.4,1.5-1.2v-4.3h.1Z"/><path d="m462.8,870.4c1.3-.5,3-.9,4.9-1h6.4c5.7.4,8.6,3.1,8.5,8,0,.9-.5,1.4-1.4,1.4h-4c-.9,0-1.4-.2-1.4-.5-.2-1.8-1.2-2.7-3-2.8h-5c-1.5.4-2.4,1.3-2.5,2.6v6.8c.4,1.4,1.5,2.3,3.2,2.5h4.9c1.7-.4,2.4-1.3,2.2-2.8,0-.9.5-1.4,1.4-1.4h4.3c.9,0,1.4.5,1.4,1.4.2,2.3-.3,4.4-1.4,6.4-1.5,1.8-3.4,2.8-5.9,2.9h-9.5c-4-.3-6.4-2.6-7.2-6.8v-10.8c.5-2.4,1.8-4.4,4.1-5.9Z"/><path d="m486,863.4c0-1,.5-1.5,1.4-1.5h4c.9,0,1.4.5,1.4,1.4v7.8c0,.8.5.8,1.5,0,1.2-.8,2.3-1.4,3.2-1.5,3.4-.8,6.6-.2,9.8,1.7,1.5,1.5,2.2,3.6,2.3,6.1v15c0,.9-.5,1.4-1.4,1.4h-3.9c-.9,0-1.4-.5-1.4-1.4v-13.5c-.2-1.5-1-2.5-2.7-3-2.9-.4-5.1.1-6.6,1.4-.5.4-.8,1-.8,1.6v13.5c0,.9-.5,1.4-1.4,1.4h-4c-.9,0-1.4-.5-1.4-1.4v-29h0Z"/><path d="m518.7,869.6l1.1-.2h12.1c2.8.2,5,1.7,6.4,4.6.3.9.5,1.8.6,2.7v10.6c-.3,3.2-1.9,5.2-5,6-1.1.3-2.3.5-3.6.6h-10.5c-3.1-.1-5.2-1.7-6.4-4.7-.3-.9-.5-1.8-.6-2.6v-10c1-4,2.9-6.3,5.9-7Zm4.2,5.8c-2.4.6-3.5,1.8-3.2,3.8v6c.1,1.5,1.1,2.5,2.9,2.9h6.4c1.7-.1,2.7-1,3.3-2.7v-7.1c-.5-2.1-1.8-3-3.8-2.8h-5.6v-.1Z"/><path d="m542.3,870.9c0-1,.4-1.5,1.3-1.5h3.9c.9,0,1.4.5,1.4,1.4v13.5c0,1.7,1.1,2.8,3.3,3.4h3.6c1.8-.4,2.7-1.6,2.8-3.5v-13.3c0-.9.5-1.4,1.4-1.4h3.8c.9,0,1.4.5,1.4,1.4v21.7c0,.9-.5,1.4-1.4,1.4h-3.8c-.9,0-1.4-.5-1.4-1.5,0-1.2-.3-1.2-1-.1-.8.9-2.1,1.4-3.7,1.5h-5.1c-1.3-.1-2.6-.4-3.8-.9-1.7-1.4-2.5-3.4-2.7-6v-16.1Z"/><path d="m571.4,864c0-1,.5-1.5,1.4-1.5h4.2c.9,0,1.4.5,1.4,1.4v4.4c0,.8.4,1.2,1.2,1.2h4.5c.9,0,1.4.5,1.4,1.4v3.3c0,.9-.5,1.4-1.4,1.4h-4.3c-.8,0-1.2.4-1.2,1.2v8.3c.2,1.4,1,2.3,2.5,2.6h3.3c.9,0,1.4.5,1.4,1.4v3.5c0,.9-.5,1.4-1.4,1.4h-6.6c-4.4-.8-6.5-3.3-6.4-7.5v-9.7c0-.8-.5-1.2-1.5-1.2s-1.5-.5-1.5-1.4v-3.3c0-.9.5-1.4,1.4-1.4,1,0,1.5-.4,1.5-1.2v-4.3h.1Z"/></g><g class="cls-20"><path d="m700,863.4c0-1,.5-1.5,1.4-1.5h4c.9,0,1.4.5,1.4,1.4v7.8c0,.8.5.8,1.5,0,1.2-.8,2.3-1.4,3.2-1.5,3.4-.8,6.6-.2,9.8,1.7,1.5,1.5,2.2,3.6,2.3,6.1v15c0,.9-.5,1.4-1.4,1.4h-3.9c-.9,0-1.4-.5-1.4-1.4v-13.5c-.2-1.5-1-2.5-2.7-3-2.9-.4-5.1.1-6.6,1.4-.5.4-.8,1-.8,1.6v13.5c0,.9-.5,1.4-1.4,1.4h-4c-.9,0-1.4-.5-1.4-1.4v-29Z"/><path d="m732.3,869.8c.8-.2,1.6-.4,2.3-.4h9.1c2.6.1,4.7,1.2,6.3,3.4.4,1.2.6,2.8.7,4.5v15.2c0,.9-.5,1.4-1.4,1.4h-3.8c-.9,0-1.4-.3-1.4-1,0-.8-.5-.7-1.5.2-.7.4-1.4.7-2.1.8h-8.2c-2.5-.3-4.1-1.4-4.8-3.5-.4-1.2-.5-3.4-.4-6.6.6-3.1,2.7-4.7,6.3-4.9h9.5c.8,0,1.2-.4,1.2-1.2,0-1.8-.9-2.8-2.7-3.1h-4c-1.4-.1-2.4.5-2.9,1.8-.1.4-.5.7-1.3.7h-3.9c-.9,0-1.4-.5-1.4-1.4.2-2.9,1.6-4.8,4.4-5.9Zm3.1,13.9c-1.3.4-1.9,1.1-1.6,2.3-.3,1.2.3,2,1.7,2.4h5.1c1.8.3,3.1-.9,3.7-3.5,0-.8-.3-1.2-1.1-1.2h-7.8Z"/><path d="m753.9,870.9c0-1,.4-1.5,1.3-1.5h4.1c.9,0,1.4.4,1.4,1.3,0,1,.5,1,1.5.1.9-.7,2.2-1.2,3.8-1.4h5.4c.9,0,1.4.5,1.4,1.4v3.5c0,.9-.5,1.4-1.4,1.4h-5c-2.3.4-4,1.6-5.1,3.7-.4,1-.6,2.1-.7,3.3v9.8c0,.9-.5,1.4-1.4,1.4h-4c-.9,0-1.4-.5-1.4-1.4v-21.6h.1Z"/><path d="m791.2,863.4c0-1,.5-1.5,1.4-1.5h4.4c.9,0,1.4.5,1.4,1.4v29.2c0,.9-.5,1.4-1.4,1.4h-4.1c-.9,0-1.4-.3-1.4-.8,0-.6-.5-.6-1.5,0-.7.4-1.5.6-2.4.8h-6.4c-3.1-.3-5-2-5.8-5.2-.3-.8-.4-1.7-.4-2.5v-9c.2-3.2,1.6-5.4,4.3-6.8.8-.4,2-.7,3.5-.9h4.9c.9.2,1.7.5,2.5.9.8.6,1.2.5,1.2-.4v-6.6h-.2Zm-6.4,12.4c-2,.5-3,1.7-3.1,3.7v4.9c-.2,1.9.8,3,2.9,3.4h3.9c1.7-.4,2.6-1.4,2.6-2.9v-6.3c-.1-1.2-.7-2-1.8-2.4-.8-.4-2.3-.5-4.5-.4Z"/><path d="m828.5,864c0-1,.5-1.5,1.4-1.5h4.2c.9,0,1.4.5,1.4,1.4v4.4c0,.8.4,1.2,1.2,1.2h4.5c.9,0,1.4.5,1.4,1.4v3.3c0,.9-.5,1.4-1.4,1.4h-4.3c-.8,0-1.2.4-1.2,1.2v8.3c.2,1.4,1,2.3,2.5,2.6h3.3c.9,0,1.4.5,1.4,1.4v3.5c0,.9-.5,1.4-1.4,1.4h-6.6c-4.4-.8-6.5-3.3-6.4-7.5v-9.7c0-.8-.5-1.2-1.5-1.2s-1.5-.5-1.5-1.4v-3.3c0-.9.5-1.4,1.4-1.4,1,0,1.5-.4,1.5-1.2v-4.3h.1Z"/><path d="m851.4,869.6l1.1-.2h12.1c2.8.2,5,1.7,6.4,4.6.3.9.5,1.8.6,2.7v10.6c-.3,3.2-1.9,5.2-5,6-1.1.3-2.3.5-3.6.6h-10.5c-3.1-.1-5.2-1.7-6.4-4.7-.3-.9-.5-1.8-.6-2.6v-10c.9-4,2.8-6.3,5.9-7Zm4.1,5.8c-2.4.6-3.5,1.8-3.2,3.8v6c.1,1.5,1.1,2.5,2.9,2.9h6.4c1.7-.1,2.7-1,3.3-2.7v-7.1c-.5-2.1-1.8-3-3.8-2.8h-5.6v-.1Z"/><path d="m898.2,870.9c-.3-1,.1-1.5.9-1.5h3.9c.9,0,1.5.5,1.7,1.4l1.9,10.8c.1.7.3,1.4.5,2.1.2.2.3.2.4.2.2-.3.4-1,.7-2.1.8-3.6,1.5-7.2,2.4-10.9.2-1,.8-1.5,1.7-1.5h4.8c.9,0,1.5.5,1.7,1.4.7,3.6,1.5,7.2,2.3,10.8.2.6.4,1,.5,1.2.2,0,.4-.4.8-1.4.6-3.5,1.2-7.1,1.8-10.6.2-.9.7-1.4,1.6-1.4h4.2c.9,0,1.3.5,1.1,1.4l-5.4,21.6c-.3,1-.8,1.5-1.7,1.5h-4.5c-.9,0-1.5-.5-1.7-1.4l-3-13.9c-.2-.2-.3-.3-.4-.3-.1.1-.3.6-.6,1.5l-2.5,12.6c-.2.9-.8,1.4-1.7,1.4h-4.6c-.9,0-1.5-.5-1.7-1.4l-5.1-21.5Z"/><path d="m938.6,869.8c.8-.2,1.6-.4,2.3-.4h9.1c2.6.1,4.7,1.2,6.3,3.4.4,1.2.6,2.8.7,4.5v15.2c0,.9-.5,1.4-1.4,1.4h-3.8c-.9,0-1.4-.3-1.4-1,0-.8-.5-.7-1.5.2-.7.4-1.4.7-2.1.8h-8.2c-2.5-.3-4.1-1.4-4.8-3.5-.4-1.2-.5-3.4-.4-6.6.6-3.1,2.7-4.7,6.3-4.9h9.5c.8,0,1.2-.4,1.2-1.2,0-1.8-.9-2.8-2.7-3.1h-4c-1.4-.1-2.4.5-2.9,1.8-.1.4-.5.7-1.3.7h-3.9c-.9,0-1.4-.5-1.4-1.4.2-2.9,1.6-4.8,4.4-5.9Zm3.1,13.9c-1.3.4-1.9,1.1-1.6,2.3-.3,1.2.3,2,1.7,2.4h5.1c1.8.3,3.1-.9,3.7-3.5,0-.8-.3-1.2-1.1-1.2h-7.8Z"/><path d="m961.1,863.4c0-1,.5-1.5,1.4-1.5h4.2c.9,0,1.4.5,1.4,1.4v29.2c0,.9-.5,1.4-1.4,1.4h-4.1c-.9,0-1.4-.5-1.4-1.4v-29.1h-.1Z"/><path d="m972.6,863.4c0-1,.5-1.5,1.4-1.5h4.2c.9,0,1.4.5,1.4,1.4v15.1c0,.8.4.8,1.2-.2l5.7-7.5c.7-.9,1.5-1.4,2.5-1.4h4.6c.9,0,1.1.5.4,1.4l-5.9,7.9c-.6.8-.7,1.6-.2,2.2,2.5,3.8,5,7.6,7.6,11.4.7,1,.5,1.5-.3,1.5h-5.3c-.9,0-1.7-.5-2.3-1.4-2.2-3.3-4.3-6.6-6.4-9.8-.7-.8-1.1-1.3-1.4-1.3-.2.2-.3.7-.3,1.5v9.6c0,.9-.5,1.4-1.4,1.4h-4.2c-.9,0-1.4-.5-1.4-1.4v-28.9h.1Z"/></g><g class="cls-20"><path d="m73.7,735.9c0-1,.5-1.5,1.4-1.5h22.7c1.4.1,2.6.4,3.8.8,2,.9,3.1,2.3,3.3,4.2v7.1c-.1,1.6-.7,2.8-1.6,3.8-1,.7-1,1.3-.1,1.9,1.2,1.1,1.8,2.4,1.9,4v8.9c0,.9-.5,1.4-1.4,1.4h-4.9c-.9,0-1.4-.5-1.4-1.4v-6.9c0-1.6-1-2.7-3-3.3h-11.7c-.8,0-1.2.4-1.2,1.2v9.1c0,.9-.5,1.4-1.4,1.4h-4.9c-.9,0-1.4-.5-1.4-1.4v-29.3h-.1Zm20.8,4.7h-11.8c-.8,0-1.2.4-1.2,1.2v5.3c0,.8.4,1.2,1.2,1.2h12c1.2-.1,2-.7,2.4-2,.2-1.8,0-3.2-.4-4.2-.6-.9-1.3-1.4-2.2-1.5Z"/><path d="m112.1,736.1c1.6-.9,3.5-1.4,5.6-1.6h14.4c2.8.3,5.3,1.6,7.5,3.9,1.2,1.9,1.8,4,1.9,6.4v12.2c-.1,1-.3,2.2-.8,3.8-.9,2.8-3,4.5-6.3,5.2-.8.3-1.9.5-3.1.5h-15.2c-4.2-.4-6.7-2.4-7.5-6-.2-.8-.3-1.7-.4-2.6v-14.4c.1-3,1.4-5.4,3.9-7.4Zm8.3,5.1c-2.5,0-4.2,1.2-4.9,3.8v11.4c.4,1.9,1.7,2.9,3.9,3.2h10.4c2.1-.1,3.4-1.2,3.8-3.4v-11.2c-.2-2.2-1.4-3.5-3.6-3.9h-9.6v.1Z"/><path d="m155.9,735.9c.4-1,1-1.5,1.9-1.5h6.5c.9,0,1.6.5,2,1.4l11.4,29.1c.4,1,.1,1.5-.8,1.5h-5.2c-.9,0-1.6-.5-2-1.4l-1.2-2.8c-.3-.8-.9-1.1-1.6-1.1h-11.7c-.8,0-1.3.5-1.7,1.5-.3.8-.6,1.5-.8,2.2-.4,1.1-1,1.6-2,1.6h-5.7c-.9,0-1.2-.5-.8-1.4,3.9-9.7,7.8-19.4,11.7-29.1Zm5.6,7.4c-.4-1.1-.8-1.1-1.1-.2l-3.7,10c-.3,1-.1,1.5.7,1.5h7.2c.8,0,1-.4.7-1.3l-3.8-10Z"/><path d="m180.3,735.9c0-1,.5-1.5,1.4-1.5h22.1c5.2.7,8.3,3.8,9.3,9.3.1.3.1.6.1,1v12.4c-.1,1.2-.3,2.5-.8,3.8-.4,1.5-1.3,2.6-2.7,3.5-1.4,1-3.4,1.7-6,2h-22.1c-.9,0-1.4-.5-1.4-1.4v-29.1h.1Zm25.4,10.3c-.1-3-1.6-4.8-4.5-5.2h-12c-.8,0-1.2.4-1.2,1.2v16.8c0,.8.4,1.2,1.2,1.2h11.5c2.8-.3,4.5-1.9,5-4.8v-9.2Z"/><path d="m240.7,735.9c0-1,.5-1.5,1.4-1.5h22.1c5.2.7,8.3,3.8,9.3,9.3.1.3.1.6.1,1v12.4c-.1,1.2-.3,2.5-.8,3.8-.4,1.5-1.3,2.6-2.7,3.5-1.4,1-3.4,1.7-6,2h-22.1c-.9,0-1.4-.5-1.4-1.4v-29.1h.1Zm25.5,10.3c-.1-3-1.6-4.8-4.5-5.2h-12c-.8,0-1.2.4-1.2,1.2v16.8c0,.8.4,1.2,1.2,1.2h11.5c2.8-.3,4.5-1.9,5-4.8v-9.2Z"/><path d="m278,735.9c0-1,.5-1.5,1.4-1.5h4.5c.9,0,1.4.5,1.4,1.4v29.2c0,.9-.5,1.4-1.4,1.4h-4.5c-.9,0-1.4-.5-1.4-1.4v-29.1Z"/><path d="m290.2,735.9c0-1,.5-1.5,1.4-1.5h26.2c.9,0,1.4.5,1.4,1.4v3.9c0,.9-.5,1.4-1.4,1.4h-18.9c-.8,0-1.2.4-1.2,1.2v4.5c0,.8.4,1.2,1.2,1.2h15.8c.9,0,1.4.5,1.4,1.4v3.6c0,.9-.5,1.4-1.4,1.4h-15.8c-.8,0-1.2.4-1.2,1.2v9.4c0,.9-.5,1.4-1.4,1.4h-4.6c-.9,0-1.4-.5-1.4-1.4v-29.1h-.1Z"/><path d="m322.7,735.9c0-1,.5-1.5,1.4-1.5h26.2c.9,0,1.4.5,1.4,1.4v3.9c0,.9-.5,1.4-1.4,1.4h-19c-.8,0-1.2.4-1.2,1.2v4.5c0,.8.4,1.2,1.2,1.2h15.8c.9,0,1.4.5,1.4,1.4v3.6c0,.9-.5,1.4-1.4,1.4h-15.8c-.8,0-1.2.4-1.2,1.2v9.4c0,.9-.5,1.4-1.4,1.4h-4.6c-.9,0-1.4-.5-1.4-1.4v-29.1h0Z"/><path d="m356.1,735.9c0-1,.5-1.5,1.4-1.5h4.5c.9,0,1.4.5,1.4,1.4v29.2c0,.9-.5,1.4-1.4,1.4h-4.5c-.9,0-1.4-.5-1.4-1.4v-29.1Z"/><path d="m373.9,735.2c1-.3,2.4-.5,4-.7h14.2c2.5.2,4.4.8,5.6,1.7,2.8,2.8,4,5.9,3.5,9.3,0,.9-.5,1.4-1.4,1.4h-5c-.9,0-1.4-.5-1.4-1.4.2-2.5-1-4-3.8-4.5h-9.4c-2.5.1-4.1,1.5-4.6,4.3v10.1c0,2.1,1.4,3.5,4.2,4.2h10.3c2.4-.5,3.7-2,3.8-4.4,0-1.2.5-1.8,1.5-1.8h4.5c.9,0,1.4.5,1.4,1.4.3,3.3-.6,6.3-2.7,8.9-.8.8-1.7,1.4-2.8,1.8-1.4.6-3,.9-4.7,1h-13.9c-1.5-.1-2.8-.4-3.8-.7-3.3-1.2-5.1-3.6-5.5-7.4v-13.4c0-2.7.8-5.2,2.3-7.5.9-1.1,2.1-1.9,3.7-2.3Z"/><path d="m404.3,735.9c0-1,.5-1.5,1.4-1.5h5c.9,0,1.4.5,1.4,1.4v19.4c.4,2.6,1.8,4,4.4,4.2h6.7c2.4,0,3.9-1.2,4.5-3.5v-20.1c0-.9.5-1.4,1.4-1.4h5c.9,0,1.4.5,1.4,1.4v20.6c-.1,1.2-.4,2.4-.8,3.8-1.2,3.1-3.2,5-6.2,5.7-.9.2-1.8.4-2.8.5h-12c-5.7-.8-8.8-4.2-9.4-10v-20.5h0Z"/><path d="m439,735.9c0-1,.5-1.5,1.4-1.5h4.8c.9,0,1.4.5,1.4,1.4v23.1c0,.8.4,1.2,1.2,1.2h16.1c.9,0,1.4.5,1.4,1.4v3.5c0,.9-.5,1.4-1.4,1.4h-23.4c-.9,0-1.4-.5-1.4-1.4v-29.1h-.1Z"/><path d="m467.2,735.9c0-1,.5-1.5,1.4-1.5h28.6c.9,0,1.4.5,1.4,1.4v3.9c0,.9-.5,1.4-1.4,1.4h-9c-.8,0-1.2.4-1.2,1.2v22.6c0,.9-.5,1.4-1.4,1.4h-5.2c-.9,0-1.4-.5-1.4-1.4v-22.6c0-.8-.4-1.2-1.2-1.2h-9.2c-.9,0-1.4-.5-1.4-1.4v-3.8h0Z"/><path d="m501.8,735.9c-.7-1-.6-1.5.3-1.5h6.1c.9,0,1.7.5,2.3,1.4l6,8.8c.6.8,1.2.8,1.8-.2l5.9-8.5c.7-1,1.5-1.5,2.3-1.5h5.9c.9,0,1.1.5.4,1.4l-10.2,14.5c-1.1,1.2-1.6,2.2-1.3,3v11.6c0,.9-.5,1.4-1.4,1.4h-5c-.9,0-1.4-.5-1.4-1.4v-11.6c0-.8-.2-1.4-.7-2.1l-11-15.3Z"/></g><g class="cls-20"><path d="m73.7,56.5c0-1,.5-1.5,1.4-1.5h22.7c1.4.1,2.6.4,3.8.8,2,.9,3.1,2.3,3.3,4.2v7.1c-.1,1.6-.7,2.8-1.6,3.8-1,.7-1,1.3-.1,1.9,1.2,1.1,1.8,2.4,1.9,4v8.9c0,.9-.5,1.4-1.4,1.4h-4.9c-.9,0-1.4-.5-1.4-1.4v-6.9c0-1.6-1-2.7-3-3.3h-11.7c-.8,0-1.2.4-1.2,1.2v9.1c0,.9-.5,1.4-1.4,1.4h-4.9c-.9,0-1.4-.5-1.4-1.4v-29.3h-.1Zm20.8,4.6h-11.8c-.8,0-1.2.4-1.2,1.2v5.3c0,.8.4,1.2,1.2,1.2h12c1.2-.1,2-.7,2.4-2,.2-1.8,0-3.2-.4-4.2-.6-.9-1.3-1.3-2.2-1.5Z"/><path d="m112.1,56.7c1.6-.9,3.5-1.4,5.6-1.6h14.4c2.8.3,5.3,1.6,7.5,3.9,1.2,1.9,1.8,4,1.9,6.4v12.2c-.1,1-.3,2.2-.8,3.8-.9,2.8-3,4.5-6.3,5.2-.8.3-1.9.5-3.1.5h-15.2c-4.2-.4-6.7-2.4-7.5-6-.2-.8-.3-1.7-.4-2.6v-14.4c.1-3,1.4-5.5,3.9-7.4Zm8.3,5.1c-2.5,0-4.2,1.2-4.9,3.8v11.4c.4,1.9,1.7,2.9,3.9,3.2h10.4c2.1-.1,3.4-1.2,3.8-3.4v-11.2c-.2-2.2-1.4-3.5-3.6-3.9h-9.6v.1Z"/><path d="m155.9,56.5c.4-1,1-1.5,1.9-1.5h6.5c.9,0,1.6.5,2,1.4l11.4,29.1c.4,1,.1,1.5-.8,1.5h-5.2c-.9,0-1.6-.5-2-1.4l-1.2-2.8c-.3-.8-.9-1.1-1.6-1.1h-11.7c-.8,0-1.3.5-1.7,1.5-.3.8-.6,1.5-.8,2.2-.4,1.1-1,1.6-2,1.6h-5.7c-.9,0-1.2-.5-.8-1.4,3.9-9.7,7.8-19.4,11.7-29.1Zm5.6,7.3c-.4-1.1-.8-1.1-1.1-.2l-3.7,10c-.3,1-.1,1.5.7,1.5h7.2c.8,0,1-.4.7-1.3l-3.8-10Z"/><path d="m180.3,56.5c0-1,.5-1.5,1.4-1.5h22.1c5.2.7,8.3,3.8,9.3,9.3.1.3.1.6.1,1v12.4c-.1,1.2-.3,2.5-.8,3.8-.4,1.5-1.3,2.6-2.7,3.5-1.4,1-3.4,1.7-6,2h-22.1c-.9,0-1.4-.5-1.4-1.4v-29.1h.1Zm25.4,10.3c-.1-3-1.6-4.8-4.5-5.2h-12c-.8,0-1.2.4-1.2,1.2v16.8c0,.8.4,1.2,1.2,1.2h11.5c2.8-.3,4.5-1.9,5-4.8v-9.2Z"/><path d="m241.6,56.5c0-1,.5-1.5,1.4-1.5h4.5c.9,0,1.4.5,1.4,1.4v29.2c0,.9-.5,1.4-1.4,1.4h-4.5c-.9,0-1.4-.5-1.4-1.4v-29.1Z"/><path d="m253.6,56.5c0-1,.5-1.5,1.4-1.5h5.7c.9,0,1.7.5,2.3,1.4,4.1,6.6,8.4,13.2,12.7,19.8.2.5.6.5.9.1.1-.2.1-.7.1-1.4v-18.6c0-.9.5-1.4,1.4-1.4h4.5c.9,0,1.4.5,1.4,1.4v29.2c0,.9-.5,1.4-1.4,1.4h-5.8c-.9,0-1.7-.5-2.3-1.4l-12.9-19.7c-.6-1-.9-1.1-.9-.2v19.9c0,.9-.5,1.4-1.4,1.4h-4.2c-.9,0-1.4-.5-1.4-1.4v-29h-.1Z"/><path d="m287.5,56.5c0-1,.5-1.5,1.4-1.5h26.2c.9,0,1.4.5,1.4,1.4v3.9c0,.9-.5,1.4-1.4,1.4h-18.9c-.8,0-1.2.4-1.2,1.2v4.5c0,.8.4,1.2,1.2,1.2h15.8c.9,0,1.4.5,1.4,1.4v3.6c0,.9-.5,1.4-1.4,1.4h-15.8c-.8,0-1.2.4-1.2,1.2v9.4c0,.9-.5,1.4-1.4,1.4h-4.6c-.9,0-1.4-.5-1.4-1.4v-29.1h-.1Z"/><path d="m323.5,56.7c1.6-.9,3.5-1.4,5.6-1.6h14.4c2.8.3,5.3,1.6,7.5,3.9,1.2,1.9,1.8,4,1.9,6.4v12.2c-.1,1-.3,2.2-.8,3.8-.9,2.8-3,4.5-6.3,5.2-.8.3-1.9.5-3.1.5h-15.2c-4.2-.4-6.7-2.4-7.5-6-.2-.8-.3-1.7-.4-2.6v-14.4c.2-3,1.5-5.5,3.9-7.4Zm8.3,5.1c-2.5,0-4.2,1.2-4.9,3.8v11.4c.4,1.9,1.7,2.9,3.9,3.2h10.4c2.1-.1,3.4-1.2,3.8-3.4v-11.2c-.2-2.2-1.4-3.5-3.6-3.9h-9.6v.1Z"/><path d="m356,56.5c0-1,.5-1.5,1.4-1.5h22.7c1.4.1,2.6.4,3.8.8,2,.9,3.1,2.3,3.3,4.2v7.1c-.1,1.6-.7,2.8-1.6,3.8-1,.7-1,1.3-.1,1.9,1.2,1.1,1.8,2.4,1.9,4v8.9c0,.9-.5,1.4-1.4,1.4h-4.9c-.9,0-1.4-.5-1.4-1.4v-6.9c0-1.6-1-2.7-3-3.3h-11.7c-.8,0-1.2.4-1.2,1.2v9.1c0,.9-.5,1.4-1.4,1.4h-4.9c-.9,0-1.4-.5-1.4-1.4v-29.3h-.1Zm20.7,4.6h-11.8c-.8,0-1.2.4-1.2,1.2v5.3c0,.8.4,1.2,1.2,1.2h12c1.2-.1,2-.7,2.4-2,.2-1.8,0-3.2-.4-4.2-.6-.9-1.3-1.3-2.2-1.5Z"/><path d="m390.8,56.5c0-1,.5-1.5,1.4-1.5h7.6c.9,0,1.5.5,1.7,1.4l4.7,18.6c.2.8.5,1.1.8,1.1.4,0,.7-.5,1-1.4l4.8-18.3c.2-.9.8-1.4,1.8-1.4h7.6c.9,0,1.4.5,1.4,1.4v29.2c0,.9-.5,1.4-1.4,1.4h-4c-.9,0-1.4-.5-1.4-1.4v-20.3c-.1-1-.3-1.4-.4-1.3-.4.5-.6,1.1-.7,1.9l-4.7,19.7c-.2.9-.8,1.4-1.7,1.4h-4.3c-.9,0-1.5-.5-1.7-1.4l-4.8-19.2c-.2-.9-.5-1.4-1-1.3-.2.1-.2.6-.2,1.4v19.1c0,.9-.5,1.4-1.4,1.4h-3.7c-.9,0-1.4-.5-1.4-1.4v-29.1h0Z"/><path d="m438.5,56.5c.4-1,1-1.5,1.9-1.5h6.5c.9,0,1.6.5,2,1.4l11.4,29.1c.4,1,.1,1.5-.8,1.5h-5.2c-.9,0-1.6-.5-2-1.4l-1.2-2.8c-.3-.8-.9-1.1-1.6-1.1h-11.7c-.8,0-1.3.5-1.7,1.5-.3.8-.6,1.5-.8,2.2-.4,1.1-1,1.6-2,1.6h-5.7c-.9,0-1.2-.5-.8-1.4,3.8-9.7,7.7-19.4,11.7-29.1Zm5.6,7.3c-.4-1.1-.8-1.1-1.1-.2l-3.7,10c-.3,1-.1,1.5.7,1.5h7.2c.8,0,1-.4.7-1.3l-3.8-10Z"/><path d="m462,56.5c0-1,.5-1.5,1.4-1.5h28.6c.9,0,1.4.5,1.4,1.4v3.9c0,.9-.5,1.4-1.4,1.4h-9c-.8,0-1.2.4-1.2,1.2v22.6c0,.9-.5,1.4-1.4,1.4h-5.2c-.9,0-1.4-.5-1.4-1.4v-22.6c0-.8-.4-1.2-1.2-1.2h-9.2c-.9,0-1.4-.5-1.4-1.4v-3.8h0Z"/><path d="m496.9,56.5c0-1,.5-1.5,1.4-1.5h4.5c.9,0,1.4.5,1.4,1.4v29.2c0,.9-.5,1.4-1.4,1.4h-4.5c-.9,0-1.4-.5-1.4-1.4v-29.1Z"/><path d="m512.7,56.7c1.6-.9,3.5-1.4,5.6-1.6h14.4c2.8.3,5.3,1.6,7.5,3.9,1.2,1.9,1.8,4,1.9,6.4v12.2c-.1,1-.3,2.2-.8,3.8-.9,2.8-3,4.5-6.3,5.2-.8.3-1.9.5-3.1.5h-15.2c-4.2-.4-6.7-2.4-7.5-6-.2-.8-.3-1.7-.4-2.6v-14.4c.1-3,1.4-5.5,3.9-7.4Zm8.3,5.1c-2.5,0-4.2,1.2-4.9,3.8v11.4c.4,1.9,1.7,2.9,3.9,3.2h10.4c2.1-.1,3.4-1.2,3.8-3.4v-11.2c-.2-2.2-1.4-3.5-3.6-3.9h-9.6v.1Z"/><path d="m544.9,56.5c0-1,.5-1.5,1.4-1.5h5.7c.9,0,1.7.5,2.3,1.4,4.1,6.6,8.4,13.2,12.7,19.8.2.5.6.5.9.1.1-.2.1-.7.1-1.4v-18.6c0-.9.5-1.4,1.4-1.4h4.5c.9,0,1.4.5,1.4,1.4v29.2c0,.9-.5,1.4-1.4,1.4h-5.8c-.9,0-1.7-.5-2.3-1.4l-12.9-19.7c-.6-1-.9-1.1-.9-.2v19.9c0,.9-.5,1.4-1.4,1.4h-4.2c-.9,0-1.4-.5-1.4-1.4v-29h-.1Z"/><path d="m581.6,57.5c1.8-1.5,4.3-2.3,7.4-2.5h13.3c4.6.9,7,3.5,7.1,7.8,0,.9-.5,1.4-1.4,1.4h-5.1c-.9,0-1.4-.2-1.4-.8,0-1-.7-1.7-2.2-2.2h-10c-1.9.5-2.8,1.6-2.4,3.5-.3,1.5.4,2.5,2.1,2.9h14.4c1.2.1,2.5.4,3.8,1,1.9,1.2,3,3,3.1,5.3v6.7c-.7,4.1-3.1,6.2-7.4,6.3h-15.6c-1.6-.1-2.8-.4-3.8-.8-3.4-1.5-4.9-4.1-4.5-8,0-.9.5-1.4,1.4-1.4h4.9c.9,0,1.4.2,1.4.7-.1,1.3.5,2.1,1.9,2.5h11.6c2-.3,2.8-1.4,2.5-3.1.4-1.6-.4-2.6-2.6-3h-13.1c-1.4-.1-2.7-.4-3.8-.9-1.2-.4-2.3-1.4-3.1-3.1-.9-2.4-1-5.3-.4-8.7.1-1.3.7-2.6,1.9-3.6Z"/></g><g id="asphalt"><g id="road"><rect class="cls-13" x="71.6" y="1009" width="251.2" height="251.2"/></g><g id="white"><rect class="cls-4" x="287.1" y="1009" width="23.5" height="251.2"/></g><g id="white-2"><rect class="cls-4" x="83.1" y="1009" width="23.5" height="251.2"/></g></g><g id="dirt"><rect class="cls-17" x="353.5" y="1009" width="251.2" height="251.2"/><path class="cls-16" d="m384.1,1045.7c5.1,0,5.1-7.9,0-7.9-5.1-.1-5.1,7.9,0,7.9h0Z"/><path class="cls-16" d="m488.3,1057.9c5.1,0,5.1-7.9,0-7.9-5.1,0-5.2,7.9,0,7.9h0Z"/><path class="cls-16" d="m447.4,1162.1c5.1,0,5.1-7.9,0-7.9-5.1-.1-5.1,7.9,0,7.9h0Z"/><path class="cls-16" d="m416.8,1115.1c5.1,0,5.1-7.9,0-7.9-5.1,0-5.1,7.9,0,7.9h0Z"/><path class="cls-16" d="m520.9,1213.1c5.1,0,5.1-7.9,0-7.9-5.1,0-5.1,7.9,0,7.9h0Z"/><path class="cls-16" d="m402.5,1233.6c5.1,0,5.1-7.9,0-7.9-5.1-.1-5.1,7.9,0,7.9h0Z"/><path class="cls-16" d="m578.1,1119.2c5.1,0,5.1-7.9,0-7.9s-5.1,7.9,0,7.9h0Z"/><path class="cls-16" d="m549.5,1072.2c5.1,0,5.1-7.9,0-7.9s-5.1,7.9,0,7.9h0Z"/><path class="cls-16" d="m570,1243.8c5.1,0,5.1-7.9,0-7.9-5.1-.1-5.1,7.9,0,7.9h0Z"/><path class="cls-16" d="m508.7,1139.6c5.1,0,5.1-7.9,0-7.9-5.1,0-5.1,7.9,0,7.9h0Z"/><path class="cls-16" d="m386.1,1172.3c5.1,0,5.1-7.9,0-7.9s-5.1,7.9,0,7.9h0Z"/><path class="cls-16" d="m590.4,1035.4c5.1,0,5.1-7.9,0-7.9-5.1,0-5.1,7.9,0,7.9h0Z"/></g><g id="smallrocks"><rect class="cls-11" x="635.3" y="1009" width="251.2" height="251.2"/><path class="cls-10" d="m686.4,1258.7c-.3.6-.6,1.1-1.1,1.6h-9.3c-.3-.6-.6-1.2-.7-2-.4-2.6-.8-5.3-1.4-8h0c-.9-4.4-2-8.8-4.1-12.6h0c-1-1.9-2.3-3.7-3.8-5.4-6.2-6.6-18.1-9.5-26.8-10.1-1.8-.1-3.1-.8-4.1-1.9v-8.6c.9-.9,2.3-1.5,4.1-1.4,1.2.1,2.4.2,3.6.3h0c5.4.6,11.2,1.9,16.5,3.9,2,.7,3.9,1.6,5.7,2.5,1.4.8,2.8,1.6,4.1,2.5,1.1.8,2.2,1.6,3.2,2.4.3.3.6.6.9.8,3.6,3.4,6.2,7.4,8.1,11.8,1.4,3.2,2.4,6.6,3.2,10,.8,3.5,1.5,7.1,2,10.5.6,1.4.4,2.6-.1,3.7Z"/><path class="cls-10" d="m886.6,1227.9v9.4c-.6.4-1.2.7-2.1.9-6.8,1.7-13.7,3.7-19.9,7-2.6,1.4-5.2,2.9-7.4,4.9-1.5,1.3-5.3,4.9-5,7.2.2,1.1,0,2.1-.3,3h-11.2c-.4-3.2-.1-6.1.8-8.8,1-3,2.7-5.6,5-8h0c2.3-2.5,5.1-4.6,8.2-6.5,8.5-5.2,19-8.4,26.4-10.2h.2c2.2-.7,4-.1,5.3,1.1Z"/><path class="cls-10" d="m725.2,1051.9c-1,3.7-3,7.2-5.5,10.2-1.6,1.9-3.2,3.8-5.1,5.5-5.6,5.5-12.4,10.3-19.7,13.4h0c-2.7,1.1-5.4,2.1-8.1,2.7h0c-1.5.3-3,.6-4.5.8-5.5.6-11,0-16.3-1.6h0c-5.2-1.6-10-4.1-14.2-7.5-1.6-1.3-3.1-2.7-4.5-4.2-.4-.4-.7-.8-1.1-1.2-.2-.3-.4-.5-.6-.8h0c-2.6-4.1.7-9.1,4.5-9.6,1.5-.2,3.2.3,4.6,1.9,8.6,10.2,22.7,14.2,35.1,8.8,6.5-2.8,12.3-7.4,17.5-12.2,4.6-4.3,8.8-9.6,5.8-16.1-2.8-5.9-8.9-10.8-13.7-14.9-5.8-5-12.1-8.9-19.8-10-13-1.8-30.8-.2-38.9,11.5-1.3,2-3.3,2.8-5.2,2.7v-14.8c3.4-3.2,7.3-5.6,11.5-7.4h46.1c6.8,3.1,12.9,7.6,18.7,13.1,1.1,1,2.1,2,3.2,3.1,2.5,2.5,5,5.3,7,8.4,1.8,2.8,3.2,5.9,3.8,9.2.4,3,.2,6.1-.6,9Z"/><path class="cls-10" d="m653.9,1066.8c-.6,2.3-3.1,4.4-5.7,4.5-.4,0-.8,0-1.2-.1-.2,0-.4-.1-.6-.2-2.9-1.2-5.5-2.6-7.9-4.4h0c-1.2-.9-2.3-1.8-3.3-2.8v-15.2c2,0,4,1.2,5.2,2.9,2.2,3.3,5.5,6.3,9.2,7.8.1,0,.1.1.2.1,3,1.4,5.1,4.1,4.1,7.4Z"/><path class="cls-10" d="m868.7,1045h0c-1.6-.6-3.3-1-5.1-1.3-2.5-.4-5-.6-7.5-.8h0c-11.4-.6-23.1,1.4-33.1,6.6-3.7,1.9-7.1,4.2-10.2,7-2.3,2-4.3,4.2-6.1,6.6-5.8,7.5-9.1,16.5-10,25.9h0c-.3,3.5-.3,7.1.1,10.6.3,2.4.7,4.8,1.4,7.1.5,1.7,1,3.4,1.6,5,1.3,3.4,4.7,4.5,7.5,3.8.8.4,1.5.7,2.3,1.1,4.8,2.2,9.7,4.1,14.7,5.5,11.8,3.2,23.7,3.2,35.3-3.9.7-.4,1.4-.8,2.1-1.3,2.4-1.6,4.8-3.3,7-5.1h0c7.5-6.1,13.9-13.7,17.3-22.6.2-.5.4-1,.6-1.5v-24.4c-3.1-8.4-9.4-15.3-17.9-18.3Zm-10.5,59.8c-6.7,4.8-13.7,8.3-22.2,7.7-8.6-.6-16.8-4.3-24.4-8.1-.7-.3-1.3-.5-2-.6-3.1-11.8-1.1-24.5,6.9-34.2,9-10.9,21.4-14.2,35-14.6,6.5-.2,13.5-.4,18.6,4.1,4.1,3.6,6.3,9.4,6.6,14.8.8,12.9-8.7,23.8-18.5,30.9Z"/><path class="cls-10" d="m886.6,1033.9v9.5c-.9.8-2.1,1.4-3.6,1.5-4.8.4-9.6.5-14.3.1h0c-4.2-.4-8.5-1.1-12.6-2.1h0c-16.6-4-31.9-13-43.3-25.9-2.3-2.6-1.8-5.8-.1-8h8.9c15.5,17.3,38.2,26.1,61.4,24,1.5-.1,2.7.2,3.6.9Z"/><path class="cls-10" d="m751.7,1054.2c-6.3,4.7-12.2-1.9-15.2-7.2-1.4-2.5-4.8-7.7-3.1-10.5,1.5-2.5,6.8-3.3,9.3-4.2,15.7-5.2,32.8-10.5,49.4-6.2,6.8,1.8,14,5.2,18.3,11,4.7,6.4,0,11-5.9,13.9-14.9,7.3-34,8.1-50.2,6.4-7.6-.8-7.6,11.1,0,11.9,18.2,1.9,38.9.3,55.6-7.7,6.5-3.1,12.7-8.4,14.2-15.8,1.7-8.4-3.2-16.3-9.5-21.5-13.6-11.4-31.8-13.3-48.8-10.6-9.9,1.6-19.4,4.7-28.8,7.9-7.4,2.5-15.2,6.3-15.7,15.2-1,16.4,19.7,40.1,36.5,27.6,6-4.4,0-14.8-6.1-10.2h0Z"/><path class="cls-10" d="m747.7,1247.1c-9.8.2-19.6.5-29.3.7-8,.2-16.3,1.1-24.2.2-7.4-.8-12.9-4.3-12.5-12.5.3-6.9,3.5-14,7.3-19.7,4.2-6.3,10.1-10.7,17.8-10.9,7.7-.2,16,2.6,22.5,6.6,12.4,7.7,19.4,23.8,10.3,36.8-4.4,6.3,5.9,12.3,10.3,6,9.1-13,6.8-30.8-2.8-42.8-9.5-11.9-26.7-19.6-42-18.5-16.6,1.2-27,14.5-32.5,29.1-5.4,14.4-2.8,31.6,13.8,36.4,8.7,2.5,18.3,1.4,27.2,1.2,11.4-.3,22.8-.6,34.2-.8,7.5-.1,7.6-12-.1-11.8h0Z"/><path class="cls-10" d="m755.8,1219c-4.4-5.8-8.9-12.3-11.4-19.2-2.5-6.8.2-11.7,5.8-15.6,5.6-4,12.2-6.6,18.6-9,3.5-1.3,7-2.5,10.5-3.6,3.8-1.2,6.3-1.5,9.6,1,8.2,6,20.7,21.2,7.9,29.3-11.7,7.3-28.3,5.8-41.4,5.3-7.7-.3-7.7,11.6,0,11.9,14.9.5,30.8.9,44.6-5.5,13.6-6.3,17.5-21.2,10.7-34.2-3.1-6-8.2-11-13.4-15.2-5.9-4.8-11.9-6.7-19.4-4.6-7.8,2.2-15.7,5.3-23.1,8.6-6.3,2.9-12.9,6.4-17.5,11.7-12.6,14.5-1.4,32.4,8.2,45.2,4.5,6,14.9.1,10.3-6.1h0Z"/><path class="cls-10" d="m848.4,1225.2c-1.2-7.7-6.5-13.7-13.4-17.1-.3-.2-.7-.3-1-.5h0c-6.9-3.2-14.7-4.7-22.5-4.8-8.2-.2-16.5,1.2-23.9,3.6-7.8,2.6-16.9,6.9-24,13-3.5,3-6.5,6.5-8.6,10.5h0c-1.2,2.3-2.1,4.8-2.6,7.5-.7,4-.3,7.5.8,10.6,2.1,5.4,6.6,9.4,12.1,12.4h52.6c1.4-.2,2.8-.4,4.2-.6,7.1-1.2,14.3-3,19.4-8.1.8-.8,1.5-1.7,2.2-2.6,1.1-1.6,2.1-3.4,2.8-5.4h0c.9-2.4,1.6-4.9,1.9-7.5.6-3.9.5-7.6,0-11Zm-12,10c-.6,3.4-1.7,6.9-4.6,9.1-3,2.2-7.4,2.8-11,3.5-9.3,1.8-18.8,2.1-28.2,1.3-3.8-.3-5.7,2.4-5.7,5.4-6.2-.6-12.4-2.3-17.6-5.7-7.5-4.8-5.9-11.8-.4-17.7,9.7-10.5,25.4-16,39.4-16.3,6.9-.1,14.4.6,20.7,3.6,7.1,3.4,8.8,9.3,7.4,16.8Z"/><path class="cls-10" d="m886.6,1181.7c-2.3-4.6-5.7-8.7-10.1-11.2-2.1-1.2-4.4-2.1-6.9-2.4-3.2-.5-6.7-.4-10.1.2h0c-.7.1-1.3.2-2,.4h0c-3.8.8-7.5,2.2-10.6,4.1-5.9,3.5-9.7,8.7-11.4,15.1-.3,1.2-.6,2.4-.8,3.7-.7,5.1-1,10.7-.7,16.1h0c.2,3.7.7,7.3,1.4,10.7,1.6,7.2,5.7,15.1,13.1,17.6.4.1.7.2,1.1.3,1.7.4,3.4.6,5.2.7,7.5.3,15.8-2.1,22.3-4.3,3-1,4.2-3.5,4.1-6,0-.7-.2-1.4-.4-2,2.3-3.1,4.2-6.4,5.8-9.8v-33.2Zm-40.1,31.9c-1-5.6-.7-11.5-.4-17.1.3-5.7,1.7-10.4,6.8-13.5,4-2.4,9.4-3.6,14.1-3.2,5.5.4,8.9,5.9,10.4,10.7,3.5,10.9-1.3,22-8.5,30.1-.7.8-1.2,1.6-1.4,2.5-4.1,1-8.3,1.7-12.6,1.7-5.9.1-7.5-6.3-8.4-11.2Z"/><path class="cls-10" d="m854.4,1168.8c-7.9,2.5-15.7,5.1-23.6,7.6-3,1-6.2,2.6-9.2.9-2.6-1.5-4.4-4.6-5.5-7.3-5.4-13.4,2.1-27.3,12.3-35.9,5.1-4.2,11.7-8.6,18.6-8.7,6.8,0,14,4.2,19.1,8.5,11.3,9.8,8.7,26.4-4.6,32.7-6.9,3.3-.9,13.6,6,10.3,13.7-6.5,21.1-22.5,16.4-37.1-4.6-14.2-20.5-25.2-35.2-26.3-15.3-1.1-30.6,11.3-38.7,23.2-8.4,12.3-10.6,29.7-2.4,42.7,4.5,7,11.7,11.7,20.2,10.1,10-1.9,20-6.2,29.7-9.3,7.3-2.3,4.2-13.8-3.1-11.4h0Z"/><path class="cls-10" d="m773.7,1154.7c-10.4-3.2-21.5-9.9-14.1-21.9,5.1-8.3,14.2-13.8,23.6-15.4,4.6-.8,10.6-1.1,14.1,2.4,3,3,3.7,7.7,2.7,11.7-2.7,10.9-14.4,16.5-23.8,20.5-3,1.3-5.1,3.9-4.2,7.3.7,2.8,4.4,5.4,7.3,4.2,14.6-6.1,30.9-15.1,32.8-32.7.7-6.9-1.5-14.4-6.5-19.4-6-6-14.6-7-22.7-6-14.9,1.9-29.5,11.2-35.8,25.2-3.4,7.6-3,15.8,2,22.6,5.2,7,13.1,10.4,21.2,12.9,7.6,2.4,10.7-9.1,3.4-11.4h0Z"/><path class="cls-10" d="m733.2,1120.6c-6.4-3.6-12.2-8-17.3-13.3-4.4-4.6-9.4-10.3-10.5-16.8-1.2-7.2,5.6-9.3,11.3-10.7,7.9-2,16-2.9,24.1-3.4,7.7-.4,15.4-.7,23.1-.5s13.5,5.7,18.1,11.4c1.5,1.9,4.7,5.3,3.7,7.9-.9,2.4-5.1,4.1-7.3,5.1-5.4,2.5-11.4,3.8-17.3,5-13.1,2.7-26.5,5.1-36.6,14.7-5.5,5.3,2.9,13.7,8.4,8.4,11.1-10.6,28.4-10.1,42.3-14.3,7.1-2.2,15.5-5.4,19.9-11.7,5.6-7.9,1-16.3-4.2-22.9-5.5-6.8-13-13.6-21.9-15-9.6-1.6-20.3-.5-30,.2-14.6.9-42.3,2-45.3,20.8-1.5,9.5,3.8,18.3,9.5,25.3,6.7,8.2,14.9,15,24.1,20.2,6.5,3.7,12.6-6.6,5.9-10.4h0Z"/><path class="cls-10" d="m708.4,1188.7c-13-1.9-13.7-17.9-9.6-27.8,4.1-9.9,13.4-18.1,24.2-19.3,6.3-.7,11.2,1.7,15.6,6.1,4.2,4.2,8.6,10.3,6.1,16.5-4.6,11.2-19.2,18.2-30.2,20.8-7.4,1.8-4.3,13.3,3.2,11.5,13.5-3.2,26.8-10.9,35-22.3,9.3-13,2.8-28-8.4-37.4-22.2-18.5-53.6,2.2-58.7,27.1-3,14.8,2.7,33.9,19.7,36.4,7.5,1,10.7-10.5,3.1-11.6h0Z"/><path class="cls-10" d="m690.9,1191.6c-.4,1.3-.7,2.6-1.1,3.9-.4,1.3-.9,2.6-1.4,3.9-2.9,7.2-7.2,14-13.8,17.9-1.6.9-3.3,1.7-5.1,2.2-.8.2-1.6.4-2.4.6-2.3.4-4.2-.4-5.6-1.8-1-1.1-1.7-2.4-1.9-3.8-.4-2.7.8-5.4,4.3-6,.5-.1.9-.2,1.4-.3,7.6-2.1,11-9.6,13.2-16.7,2.5-7.9,4.2-17,0-24.6-9.5-17.1-32.2-2.8-37.3,10.3-1.1,2.7-3.4,4-5.8,4v-17.7c5.1-6.8,12-12.1,20.4-14.8,2.5-.8,5-1.2,7.6-1.3h.1c4.7-.2,9.3.6,13.5,2.6,1.6.7,3.2,1.7,4.6,2.7,2.1,1.6,4,3.4,5.6,5.7h0c7,9.6,6.7,22.1,3.7,33.2Z"/><path class="cls-10" d="m665.3,1217c-.2.2-.5.3-.8.4-1,.4-2,.7-3,.8-5.9.8-11.8-3.4-16.8-6.6-.6-.4-1.1-.7-1.7-1.1h0c-2.8-1.9-5.4-4.1-7.7-6.6v-16.8c2-.3,4,.6,5.2,3,1.9,4.1,4.7,7.3,8.4,9.9,1.9,1.3,3.8,2.5,5.8,3.6,1.2.7,6.1,2.3,3.7,3.4,2.6-1.2,5.1-.4,6.8,1.1,2.7,2.4,3.5,6.7.1,8.9Z"/><path class="cls-10" d="m675.8,1144c-8.3-10.2-18.8-23.1-16-37.3,1-5.2,4.4-10.5,9.5-12.5,6.2-2.5,13.9.7,19.5,3.5,4.7,2.3,9.6,5.4,12,10.3,2.9,5.9,1.1,13.1-1.4,18.8-5.6,12.7-17.8,14.4-30.3,15.1-7.6.5-7.7,12.4,0,11.9,13.2-.8,27.6-2.5,36.3-13.8,8.3-10.7,12.5-27.8,4.7-39.9-7-10.8-22.4-18.1-35-18.7-14.2-.6-25.2,11.2-27.1,24.6-2.5,18.1,8.8,33.1,19.5,46.3,4.7,6.1,13.1-2.4,8.3-8.3h0Z"/><path class="cls-10" d="m657.3,1102.3c-.3,9.2-2.2,18.3-5.6,26.8-2.8,7.1-6.5,13.8-11.2,19.8-1.3,1.7-3.2,2.9-5.2,3v-16.6c4.9-8.1,8.2-17,9.4-26.4,1-7.9,2.6-30.2-9.4-30.5v-12c1.2,0,2.3.1,3.3.3h0c2.6.4,4.8,1.3,6.7,2.5h0c1,.6,2,1.4,2.9,2.2,1.3,1.2,2.4,2.6,3.4,4.1,2.5,3.9,4,8.6,4.8,13.5.8,4.5,1,9.1.9,13.3Z"/><path class="cls-10" d="m766.4,1013.7c-.3.5-.8,1-1.4,1.5-10.7,8.4-21.2,14.3-35.2,12.5-1.2-.1-2.4-.3-3.5-.6-5.1-1-10-2.8-14.7-5-6.2-2.8-12.3-6.2-18.4-9.2-1.9-.9-2.8-2.3-3-3.9h21.4c5.2,2.6,10.6,5,16.4,6.3,10.1,2.2,17.9-.8,25.7-6.3h12.9c.7,1.5.8,3.2-.2,4.7Z"/><path class="cls-10" d="m879.3,1118.1c-1,4.3,3.2,8.5,7.2,11.7v13.1c-.6.1-1.2,0-1.9-.2-.8-.2-1.6-.6-2.4-1.2-6.7-5.3-15.6-12.6-15.4-21.9,0-.5,0-.9.1-1.4.3-2.2.8-4.4,1.6-6.5h0c2.7-7.6,8-14.8,12.8-20.6,1.4-1.7,3-2.2,4.5-2,.2,0,.4.1.6.1v14.7c-3,4.4-5.9,9.4-7.1,14.2Z"/></g><g id="roots"><rect class="cls-12" x="917.2" y="1009" width="251.2" height="251.2"/><path class="cls-15" d="m1168.4,1192.4v40.1c-2.6,1-6.1.1-7.8-2.5-3.2,1.2-6.7,1.8-10.2,2.1-2.4.2-4.7.4-7.1.6-13.3,3-27.8,3-41.1,3.4-16.6.4-33.2.1-49.8-.1-32.9-.3-66.1.5-97.6,10.7-7.4,2.4-10.3-8.9-3.2-11.5.1-.1.3-.1.5-.1h0c-.1-1.9.8-3.7,2.8-5,30.5-18.6,66.9-16.5,101.2-16.2,32.2.3,63.5-4.4,92.8-18.6,5.7-2.8,12.2-7,18.3-3.2.4.1.8.2,1.2.3Z"/><path class="cls-15" d="m952.1,1235.1c-.2,0-.3.1-.5.1.2,0,.4,0,.5-.1h0Z"/><path class="cls-15" d="m1051.2,1201.3c-3.7-1.6-7.5-3.2-11.2-4.8,3.8,1.4,7.5,3,11.2,4.8Z"/><path class="cls-15" d="m1057.2,1191c-4.2-1.8-8.4-3.6-12.6-5.4,4.2,1.6,8.4,3.3,12.6,5.4Z"/><path class="cls-15" d="m1090.1,1188.3c-26.5-12.1-54.7-23.4-84.4-19.2-.4.1-.7.1-1.1.1,13.4,5.2,26.7,10.8,39.9,16.4h.1c4.2,1.8,8.4,3.6,12.6,5.4,7,3.4.8,13.2-6,10.3-3.7-1.8-7.4-3.4-11.2-4.8-17.3-6.4-35.9-9-54.1-11.6-23.2-3.3-46.1-7.5-68.7-13.8v-27.6c.2,0,.5.1.8.1,9.4,1.7,18.6,3.8,27.8,6.2,50.5,7.4,105.5-1,150.4,28.3,6.4,4.1.8,13.3-6.1,10.2Z"/><path class="cls-15" d="m1168.4,1043.9v34.4c-2.8,3.2-7.2,5-10.9,6.9-6.8,3.4-13.7,6.5-20.7,9.3h0c-3,1.2-6,2.3-9,3.4-7.5,1.8-10.3-8.9-3.2-11.5,2.4-.5,4.5-1.4,6.5-2.4,3.3-1.8,6.1-4.3,8.4-7.5l-.2-2.7c-15.4,3.7-29.8,9.7-43.3,18-14.9,9.1-30.8,18.6-48.9,13.7-5.9-1.6-5.4-9.6,0-11.5,10.5-3.6,20.5-8.3,30-14.1,8.4-5.1,15.9-11.4,24-17.1.5-.3,1-.7,1.4-1,1.4-.9,2.8-1.8,4.2-2.7.2-.1.5-.3.8-.4.5-.3,1-.5,1.4-.8,16.7-9.3,35.6-12.6,54.4-15.5,2.1-.3,3.9.4,5.1,1.5Z"/><path class="cls-15" d="m1131.2,1084c-2,1.1-4.2,1.9-6.5,2.4,2.1-.8,4.3-1.6,6.5-2.4Z"/><path class="cls-15" d="m1136.8,1094.5c-2.8,1.5-5.8,2.7-9,3.4,3-1.1,6-2.2,9-3.4Z"/><path class="cls-15" d="m999,1077.7c-15.6,1-31.2,1.7-46.8,2-7.5.2-15,.2-22.5.2-3.5,0-8.3.6-12.5,0v-33.8c.6-.2,1.3-.4,2-.5,14.2-1.8,28.2,1.3,41.6,5.8s26.6,9.6,39.8,14.6c6.2,2.4,5.3,11.3-1.6,11.7Z"/></g><g id="muddy"><rect class="cls-19" x="1199.1" y="1009" width="251.2" height="251.2"/><path class="cls-9" d="m1329.8,1114.6c5.1,0,5.1-7.9,0-7.9-5.1,0-5.1,7.9,0,7.9h0Z"/><path class="cls-9" d="m1405.6,1069.4c5.1,0,5.1-7.9,0-7.9-5.1,0-5.1,7.9,0,7.9h0Z"/><path class="cls-9" d="m1246.3,1063.3c5.1,0,5.1-7.9,0-7.9-5.1-.1-5.1,7.9,0,7.9h0Z"/><path class="cls-9" d="m1240.2,1178.2c5.1,0,5.1-7.9,0-7.9-5.1-.1-5.1,7.9,0,7.9h0Z"/><path class="cls-9" d="m1347.4,1227.2c5.1,0,5.1-7.9,0-7.9s-5.1,7.9,0,7.9h0Z"/><path class="cls-9" d="m1410.2,1172.8c5.1,0,5.1-7.9,0-7.9s-5.1,7.9,0,7.9h0Z"/><path class="cls-9" d="m1276.2,1237.1c5.1,0,5.1-7.9,0-7.9-5.1,0-5.1,7.9,0,7.9h0Z"/><path class="cls-9" d="m1319.8,1045.7c5.1,0,5.1-7.9,0-7.9-5.1-.1-5.1,7.9,0,7.9h0Z"/><path class="cls-9" d="m1283.8,1149.8c5.1,0,5.1-7.9,0-7.9s-5.1,7.9,0,7.9h0Z"/><path class="cls-9" d="m1425.5,1241.7c5.1,0,5.1-7.9,0-7.9s-5.1,7.9,0,7.9h0Z"/><path class="cls-9" d="m1427.8,1123c5.1,0,5.1-7.9,0-7.9s-5.1,7.9,0,7.9h0Z"/><path class="cls-9" d="m1214.9,1117.7c5.1,0,5.1-7.9,0-7.9-5.1-.1-5.1,7.9,0,7.9h0Z"/></g><rect class="cls-10" x="74.8" y="797.9" width="968.1" height="48.2"/><g id="bar"><g id="SVGID"><path class="cls-8" d="m1049.4,850.6H71.6v-56.5h977.8v56.5Zm-964.6-13.2h951.5v-30.1H84.8v30.1Z"/></g><g class="cls-2"><g id="_圖層_13"><rect class="cls-18" x="68.1" y="784.4" width="252.3" height="70.4"/><rect class="cls-7" x="314.5" y="792" width="333.1" height="61.8"/><rect class="cls-5" x="644.6" y="784.4" width="413.4" height="69.4"/></g></g></g><g class="cls-20"><path d="m309.8,159.4c.4-1,1-1.5,1.9-1.5h6.5c.9,0,1.6.5,2,1.4l11.4,29.1c.4,1,.1,1.5-.8,1.5h-5.2c-.9,0-1.6-.5-2-1.4l-1.2-2.8c-.3-.8-.9-1.1-1.6-1.1h-11.7c-.8,0-1.3.5-1.7,1.5-.3.8-.6,1.5-.8,2.2-.4,1.1-1,1.6-2,1.6h-5.7c-.9,0-1.2-.5-.8-1.4,3.9-9.6,7.8-19.3,11.7-29.1Zm5.6,7.4c-.4-1.1-.8-1.1-1.1-.2l-3.7,10c-.3,1-.1,1.5.7,1.5h7.2c.8,0,1-.4.7-1.3l-3.8-10Z"/><path d="m334.2,167c0-.9.5-1.4,1.4-1.4h4.2c.9,0,1.4.3,1.4,1,0,.8.5.8,1.5.2,1.9-1.1,4.4-1.6,7.4-1.4,2.4.2,4.3.9,5.6,2.2,1.2,1.2,1.8,2.8,1.9,4.6v16.4c0,.9-.5,1.4-1.4,1.4h-3.9c-.9,0-1.4-.5-1.4-1.4v-14.3c-.1-1.3-.8-2.2-2.2-2.7-1.6-.1-3.2-.1-4.8-.1-1.4.1-2.3,1-2.7,2.7v14.3c0,.9-.5,1.4-1.4,1.4h-4.2c-.9,0-1.4-.5-1.4-1.4v-21.5h0Z"/><path d="m361.4,159.4c0-1,.5-1.5,1.4-1.5h4.3c.9,0,1.4.5,1.4,1.4v1.5c0,.9-.5,1.4-1.4,1.4h-4.3c-.9,0-1.4-.5-1.4-1.4v-1.4Zm0,7.5c0-1,.4-1.5,1.3-1.5h4.4c.9,0,1.4.5,1.4,1.4v21.7c0,.9-.5,1.4-1.4,1.4h-4.3c-.9,0-1.4-.5-1.4-1.4v-21.6Z"/><path d="m380.5,166.8c1.6-1.2,3.5-1.6,5.8-1.2.8.2,1.8.8,2.8,1.6,1,.8,1.9.7,2.7-.2.9-.9,2.1-1.4,3.8-1.5,4.2-.7,6.7,1.3,7.5,5.8v17.3c0,.9-.5,1.4-1.4,1.4h-4c-.9,0-1.4-.5-1.4-1.4v-13.8c.1-2.2-.9-3.2-2.8-3-1.8.2-2.6,1-2.4,2.6v14.2c0,.9-.5,1.4-1.4,1.4h-3.9c-.9,0-1.4-.5-1.4-1.4v-15.2c0-.6-.4-1-1.1-1.5-1.9-.3-3.2-.2-3.8.5-.2.2-.3.5-.4.9v15.3c0,.9-.5,1.4-1.4,1.4h-3.7c-.9,0-1.4-.5-1.4-1.4v-21.5c0-.9.5-1.4,1.4-1.4h3.7c.9,0,1.4.4,1.4,1.2-.1.8.4.8,1.4-.1Z"/><path d="m411.5,165.8c.8-.2,1.6-.4,2.3-.4h9.1c2.6.1,4.7,1.2,6.3,3.4.4,1.2.6,2.8.7,4.5v15.2c0,.9-.5,1.4-1.4,1.4h-3.8c-.9,0-1.4-.3-1.4-1,0-.8-.5-.7-1.5.2-.7.4-1.4.7-2.1.8h-8.2c-2.5-.3-4.1-1.4-4.8-3.5-.4-1.2-.5-3.4-.4-6.6.6-3.1,2.7-4.7,6.3-4.9h9.5c.8,0,1.2-.4,1.2-1.2,0-1.8-.9-2.8-2.7-3.1h-4c-1.4-.1-2.4.5-2.9,1.8-.1.4-.5.7-1.3.7h-3.9c-.9,0-1.4-.5-1.4-1.4.2-2.9,1.6-4.9,4.4-5.9Zm3.1,13.9c-1.3.4-1.9,1.1-1.6,2.3-.3,1.2.3,2,1.7,2.4h5.1c1.8.3,3.1-.9,3.7-3.5,0-.8-.3-1.2-1.1-1.2h-7.8Z"/><path d="m434,159.4c0-1,.5-1.5,1.4-1.5h4.2c.9,0,1.4.5,1.4,1.4v29.2c0,.9-.5,1.4-1.4,1.4h-4.1c-.9,0-1.4-.5-1.4-1.4v-29.1h-.1Z"/><path d="m446.1,171.1c.3-3.6,2.6-5.4,6.7-5.6h10.3c3.2,0,5.2,2,5.9,5.8,0,1.1-.5,1.6-1.4,1.6h-3.5c-.9,0-1.4-.2-1.5-.5-.6-1.2-1.5-1.8-2.8-1.5h-5.3c-1.3.3-1.9,1.1-1.8,2.2-.2,1,.4,1.6,1.7,1.9h9.2c3.4.2,5.5,1.9,6,5.1v4.5c-.2,1.5-.8,2.8-1.8,3.8-1.4,1-3.4,1.6-5.9,1.8h-10.4c-4.2-.8-6.3-3-6.5-6.5,0-1,.4-1.5,1.4-1.5h4.3c.9,0,1.5.2,1.5.7.5,1.3,1.5,1.9,3,1.8h4.4c.9.2,1.7-.1,2.5-.7.3-.3.4-.8.4-1.5.3-1.3-.4-2.1-2.1-2.3h-9.3c-2.8,0-4.4-1.3-5.1-4v-5.1h.1Z"/></g><g class="cls-20"><path d="m301.2,218.1c1.8-1.5,4.3-2.3,7.4-2.5h13.3c4.6.9,7,3.5,7.1,7.8,0,.9-.5,1.4-1.4,1.4h-5.1c-.9,0-1.4-.2-1.4-.8,0-1-.7-1.7-2.2-2.2h-10.1c-1.9.5-2.8,1.6-2.4,3.5-.3,1.5.4,2.5,2.1,2.9h14.4c1.2.1,2.5.4,3.8,1,1.9,1.2,3,3,3.1,5.3v6.7c-.7,4.1-3.1,6.2-7.4,6.3h-15.6c-1.6-.1-2.8-.4-3.8-.8-3.4-1.5-4.9-4.1-4.5-8,0-.9.5-1.4,1.4-1.4h4.9c.9,0,1.4.2,1.4.7-.1,1.3.5,2.1,1.9,2.5h11.6c2-.3,2.8-1.4,2.5-3.1.4-1.6-.4-2.6-2.6-3h-13.1c-1.4-.1-2.7-.4-3.8-.9-1.2-.4-2.3-1.4-3.1-3.1-.9-2.4-1-5.3-.4-8.7.2-1.4.8-2.6,2-3.6Z"/><path d="m340.6,224.2c.4-.7,1.5-1.1,3.2-1.2h6.9c3.8.8,5.7,3.5,5.8,7.8v8.8c-.1,1.3-.4,2.6-.8,3.8-.5,1.4-1.2,2.4-2.2,3.2-1.3.6-2.6.9-3.8.9h-6.1c-1.1,0-2-.2-2.8-.7-.7-.6-1-.4-1,.4v8.1c0,.9-.5,1.4-1.4,1.4h-4.1c-.9,0-1.4-.5-1.4-1.4v-30.7c0-.9.5-1.4,1.4-1.4h4.1c.9,0,1.4.2,1.4.5l.1.7c.2.4.4.4.7-.2Zm1.4,4.8c-1.6.5-2.4,1.7-2.2,3.5v6.7c.4,1.2,1.2,2,2.4,2.1h4.5c2.1-.3,3.1-1.4,2.8-3.2v-6.2c-.2-1.5-1.1-2.5-2.5-2.9h-5Z"/><path d="m365,223.2l1.1-.2h12.1c2.8.2,5,1.7,6.4,4.6.3.9.5,1.8.6,2.7v10.6c-.3,3.2-1.9,5.2-5,6-1.1.3-2.3.5-3.6.6h-10.5c-3.1-.1-5.2-1.7-6.4-4.7-.3-.9-.5-1.8-.6-2.6v-10c.9-4,2.8-6.3,5.9-7Zm4.1,5.8c-2.4.6-3.5,1.8-3.2,3.8v6c.1,1.5,1.1,2.5,2.9,2.9h6.4c1.7-.1,2.7-1,3.3-2.7v-7.1c-.5-2.1-1.8-3-3.8-2.8h-5.6v-.1Z"/><path d="m390.9,217.6c0-1,.5-1.5,1.4-1.5h4.2c.9,0,1.4.5,1.4,1.4v4.4c0,.8.4,1.2,1.2,1.2h4.5c.9,0,1.4.5,1.4,1.4v3.3c0,.9-.5,1.4-1.4,1.4h-4.3c-.8,0-1.2.4-1.2,1.2v8.3c.2,1.4,1,2.3,2.5,2.6h3.3c.9,0,1.4.5,1.4,1.4v3.5c0,.9-.5,1.4-1.4,1.4h-6.6c-4.4-.8-6.5-3.3-6.4-7.5v-9.7c0-.8-.5-1.2-1.5-1.2s-1.5-.5-1.5-1.4v-3.3c0-.9.5-1.4,1.4-1.4,1,0,1.5-.4,1.5-1.2v-4.3h.1Z"/><path d="m411,217.6c0-1,.5-1.5,1.4-1.5h4.2c.9,0,1.4.5,1.4,1.4v4.4c0,.8.4,1.2,1.2,1.2h4.5c.9,0,1.4.5,1.4,1.4v3.3c0,.9-.5,1.4-1.4,1.4h-4.3c-.8,0-1.2.4-1.2,1.2v8.3c.2,1.4,1,2.3,2.5,2.6h3.3c.9,0,1.4.5,1.4,1.4v3.5c0,.9-.5,1.4-1.4,1.4h-6.6c-4.4-.8-6.5-3.3-6.4-7.5v-9.7c0-.8-.5-1.2-1.5-1.2s-1.5-.5-1.5-1.4v-3.3c0-.9.5-1.4,1.4-1.4,1,0,1.5-.4,1.5-1.2v-4.3h.1Z"/><path d="m428.6,217c0-1,.5-1.5,1.4-1.5h4.3c.9,0,1.4.5,1.4,1.4v1.5c0,.9-.5,1.4-1.4,1.4h-4.3c-.9,0-1.4-.5-1.4-1.4v-1.4Zm0,7.5c0-1,.4-1.5,1.3-1.5h4.4c.9,0,1.4.5,1.4,1.4v21.7c0,.9-.5,1.4-1.4,1.4h-4.3c-.9,0-1.4-.5-1.4-1.4v-21.6Z"/><path d="m439.7,224.6c0-.9.5-1.4,1.4-1.4h4.2c.9,0,1.4.3,1.4,1,0,.8.5.8,1.5.2,1.9-1.1,4.4-1.6,7.4-1.4,2.4.2,4.3.9,5.6,2.2,1.2,1.2,1.8,2.8,1.9,4.6v16.4c0,.9-.5,1.4-1.4,1.4h-3.9c-.9,0-1.4-.5-1.4-1.4v-14.2c-.1-1.3-.8-2.2-2.2-2.7-1.6-.1-3.2-.1-4.8-.1-1.4.1-2.3,1-2.7,2.7v14.3c0,.9-.5,1.4-1.4,1.4h-4.2c-.9,0-1.4-.5-1.4-1.4v-21.6h0Z"/><path d="m488.3,223.7c.6-1.2,1.5-1.7,2.9-1.5.8,0,1.2.5,1.2,1.4v3.6c0,.9-.2,1.4-.7,1.4-1-.1-1.7.4-2.1,1.6-.3,1.2-.4,2.6-.4,4,0,.9-.6,1.8-1.8,2.6-.8.4-1.9.7-3.3.8h-7.9c-.8,0-1.2.1-1.4.2-.7.6-.9,1.6-.7,2.8.1.2.5.2,1.3.2h10.9c1.2.1,2.5.5,3.8,1.2,1.1.9,1.7,2,1.8,3.4v7.1c-.1,1.2-.7,2.3-1.7,3.2-1,.6-2.2,1-3.8,1.1h-15.9c-2.6,0-4.1-1.2-4.6-3.6v-7.2c-.1-.8.3-1.6,1.2-2.4.4-.3.5-.8.3-1.5-.3-1.4.1-2.8,1.2-4.3.8-.7.7-1.3-.2-2-.8-.8-1.1-1.7-.9-2.8v-5.2c.1-1.8,1.1-3.2,3-4.1.8-.3,1.8-.6,2.9-.7h10.8c.9,0,1.8.2,2.8.7.8.3,1.2.3,1.3,0Zm-3.3,24.2c.2-1.5-.5-2.2-2-2.2h-8.3c-1.7-.1-2.4.6-2.1,2.2-.3,1.8,0,3,.8,3.7.2.1.7.1,1.5.1h7.8c1.7.3,2.5-.4,2.3-2.2v-1.6Zm-9.8-20.1c-.4,0-.7.4-1.1,1.1-.1,1.1-.1,2.2,0,3.4.5.8,1.3,1,2.2.8h4c2,0,2.7-.9,2.3-2.7.3-1.8-.4-2.7-2.3-2.7-1.6,0-3.3,0-5.1.1Z"/><path d="m519.4,217c0-1,.5-1.5,1.4-1.5h22.3c1.4.2,2.6.5,3.8,1,2.2,1.3,3.3,3.3,3.4,5.9v6.5c-.1,1.3-.4,2.6-1,3.8-.9,1.6-2,2.6-3.3,3-1,.4-2.2.7-3.6.8h-14.1c-.8,0-1.2.4-1.2,1.2v8.4c0,.9-.5,1.4-1.4,1.4h-5c-.9,0-1.4-.5-1.4-1.4v-29.1h.1Zm22.2,6.4c-.5-.6-1.2-.9-2.2-1.1h-11.1c-.8,0-1.2.4-1.2,1.2v5.2c0,.8.4,1.2,1.2,1.2h11.3c2-.4,2.9-1.5,2.6-3.3.3-1.4.1-2.4-.6-3.2Z"/><path d="m554.1,217c0-1,.5-1.5,1.4-1.5h4.2c.9,0,1.4.5,1.4,1.4v29.2c0,.9-.5,1.4-1.4,1.4h-4.1c-.9,0-1.4-.5-1.4-1.4v-29.1h-.1Z"/><path d="m570.4,223.4c.8-.2,1.6-.4,2.3-.4h9.1c2.6.1,4.7,1.2,6.3,3.4.4,1.2.6,2.8.7,4.5v15.2c0,.9-.5,1.4-1.4,1.4h-3.8c-.9,0-1.4-.3-1.4-1,0-.8-.5-.7-1.5.2-.7.4-1.4.7-2.1.8h-8.2c-2.5-.3-4.1-1.4-4.8-3.5-.4-1.2-.5-3.4-.4-6.6.6-3.1,2.7-4.7,6.3-4.9h9.5c.8,0,1.2-.4,1.2-1.2,0-1.8-.9-2.8-2.7-3.1h-4c-1.4-.1-2.4.5-2.9,1.8-.1.4-.5.7-1.3.7h-3.9c-.9,0-1.4-.5-1.4-1.4.2-2.9,1.6-4.9,4.4-5.9Zm3.2,13.9c-1.3.4-1.9,1.1-1.6,2.3-.3,1.2.3,2,1.7,2.4h5.1c1.8.3,3.1-.9,3.7-3.5,0-.8-.3-1.2-1.1-1.2h-7.8Z"/><path d="m595.6,224c1.3-.5,3-.9,4.9-1h6.4c5.7.4,8.6,3.1,8.5,8,0,.9-.5,1.4-1.4,1.4h-4c-.9,0-1.4-.2-1.4-.5-.2-1.8-1.2-2.7-3-2.8h-5c-1.5.4-2.4,1.3-2.5,2.6v6.8c.4,1.4,1.5,2.3,3.2,2.5h4.9c1.7-.4,2.4-1.3,2.2-2.8,0-.9.5-1.4,1.4-1.4h4.3c.9,0,1.4.5,1.4,1.4.2,2.3-.3,4.4-1.4,6.4-1.5,1.8-3.4,2.8-5.9,2.9h-9.5c-4-.3-6.4-2.6-7.2-6.8v-10.8c.4-2.4,1.7-4.4,4.1-5.9Z"/><path d="m622.7,223.8c1-.4,2-.7,2.9-.8h10.4c3.5,0,5.6,1.8,6.3,5.3v4.5c-.1,1.6-.5,2.8-1.1,3.8-.9.9-2.4,1.2-4.3,1h-10.8c-.8,0-1.2.5-1.2,1.5-.3,1.8.5,2.8,2.4,3h4.9c1.8.3,2.9-.5,3.2-2.3,0-.3.5-.5,1.4-.5h4c.9,0,1.4.5,1.4,1.4-.3,2.8-1.5,4.9-3.5,6.1-1.1.4-2.2.7-3.3.8h-11c-2-.2-3.5-1-4.6-2.3-.8-1.2-1.3-2.9-1.5-5.1v-9.4c.2-3.1,1.7-5.4,4.4-7Zm3.9,4.7c-1.3.3-1.9,1.1-1.7,2.2-.2,1.1.3,1.9,1.6,2.2h6.3c2,.1,2.9-.8,2.5-2.6-.1-1.5-1-2.1-2.6-1.9h-6.1v.1Z"/><path d="m646,228.7c.3-3.6,2.6-5.4,6.7-5.6h10.3c3.2,0,5.2,2,5.9,5.8,0,1.1-.5,1.6-1.4,1.6h-3.5c-.9,0-1.4-.2-1.5-.5-.6-1.2-1.5-1.8-2.8-1.5h-5.3c-1.3.3-1.9,1.1-1.8,2.2-.2,1,.4,1.6,1.7,1.9h9.2c3.4.2,5.5,1.9,6,5.1v4.5c-.2,1.5-.8,2.8-1.8,3.8-1.4,1-3.4,1.6-5.9,1.8h-10.4c-4.2-.8-6.3-3-6.5-6.5,0-1,.4-1.5,1.4-1.5h4.3c.9,0,1.5.2,1.5.7.5,1.3,1.5,1.9,3,1.8h4.4c.9.2,1.7-.1,2.5-.7.3-.3.4-.8.4-1.5.3-1.3-.4-2.1-2.1-2.3h-9.3c-2.8,0-4.4-1.3-5.1-4v-5.1h.1Z"/></g><g class="cls-20"><path d="m298.4,356.4c0-1,.5-1.5,1.4-1.5h4.8c.9,0,1.4.5,1.4,1.4v23.1c0,.8.4,1.2,1.2,1.2h16.1c.9,0,1.4.5,1.4,1.4v3.5c0,.9-.5,1.4-1.4,1.4h-23.4c-.9,0-1.4-.5-1.4-1.4v-29.1h-.1Z"/><path d="m332.3,362.8c.8-.2,1.6-.4,2.3-.4h9.1c2.6.1,4.7,1.2,6.3,3.4.4,1.2.6,2.8.7,4.5v15.2c0,.9-.5,1.4-1.4,1.4h-3.8c-.9,0-1.4-.3-1.4-1,0-.8-.5-.7-1.5.2-.7.4-1.4.7-2.1.8h-8.2c-2.5-.3-4.1-1.4-4.8-3.5-.4-1.2-.5-3.4-.4-6.6.6-3.1,2.7-4.7,6.3-4.9h9.5c.8,0,1.2-.4,1.2-1.2,0-1.8-.9-2.8-2.7-3.1h-4c-1.4-.1-2.4.5-2.9,1.8-.1.4-.5.7-1.3.7h-3.9c-.9,0-1.4-.5-1.4-1.4.2-2.9,1.6-4.9,4.4-5.9Zm3.1,13.9c-1.3.4-1.9,1.1-1.6,2.3-.3,1.2.3,2,1.7,2.4h5.1c1.8.3,3.1-.9,3.7-3.5,0-.8-.3-1.2-1.1-1.2h-7.8Z"/><path d="m353.9,363.9c0-.9.5-1.4,1.4-1.4h4.2c.9,0,1.4.3,1.4,1,0,.8.5.8,1.5.2,1.9-1.1,4.4-1.6,7.4-1.4,2.4.2,4.3.9,5.6,2.2,1.2,1.2,1.8,2.8,1.9,4.6v16.4c0,.9-.5,1.4-1.4,1.4h-3.9c-.9,0-1.4-.5-1.4-1.4v-14.2c-.1-1.3-.8-2.2-2.2-2.7-1.6-.1-3.2-.1-4.8-.1-1.4.1-2.3,1-2.7,2.7v14.3c0,.9-.5,1.4-1.4,1.4h-4.2c-.9,0-1.4-.5-1.4-1.4v-21.6h0Z"/><path d="m396.8,356.4c0-1,.5-1.5,1.4-1.5h4.4c.9,0,1.4.5,1.4,1.4v29.2c0,.9-.5,1.4-1.4,1.4h-4.1c-.9,0-1.4-.3-1.4-.8,0-.6-.5-.6-1.5,0-.7.4-1.5.6-2.4.8h-6.4c-3.1-.3-5-2-5.8-5.2-.3-.8-.4-1.7-.4-2.5v-9c.2-3.2,1.6-5.4,4.3-6.8.8-.4,2-.7,3.5-.9h4.9c.9.2,1.7.5,2.5.9.8.6,1.2.5,1.2-.4v-6.6h-.2Zm-6.4,12.3c-2,.5-3,1.7-3.1,3.7v4.9c-.2,1.9.8,3,2.9,3.4h3.9c1.7-.4,2.6-1.4,2.6-2.9v-6.3c-.1-1.2-.7-2-1.8-2.4-.8-.4-2.3-.5-4.5-.4Z"/><path d="m408.1,368c.3-3.6,2.6-5.4,6.7-5.6h10.3c3.2,0,5.2,2,5.9,5.8,0,1.1-.5,1.6-1.4,1.6h-3.5c-.9,0-1.4-.2-1.5-.5-.6-1.2-1.5-1.8-2.8-1.5h-5.3c-1.3.3-1.9,1.1-1.8,2.2-.2,1,.4,1.6,1.7,1.9h9.2c3.4.2,5.5,1.9,6,5.1v4.5c-.2,1.5-.8,2.8-1.8,3.8-1.4,1-3.4,1.6-5.9,1.8h-10.4c-4.2-.8-6.3-3-6.5-6.5,0-1,.4-1.5,1.4-1.5h4.3c.9,0,1.5.2,1.5.7.5,1.3,1.5,1.9,3,1.8h4.4c.9.2,1.7-.1,2.5-.7.3-.3.4-.8.4-1.5.3-1.3-.4-2.1-2.1-2.3h-9.3c-2.8,0-4.4-1.3-5.1-4v-5.1h.1Z"/><path d="m438.4,363.4c1.3-.5,3-.9,4.9-1h6.4c5.7.4,8.6,3.1,8.5,8,0,.9-.5,1.4-1.4,1.4h-4c-.9,0-1.4-.2-1.4-.5-.2-1.8-1.2-2.7-3-2.8h-5c-1.5.4-2.4,1.3-2.5,2.6v6.8c.4,1.4,1.5,2.3,3.2,2.5h4.9c1.7-.4,2.4-1.3,2.2-2.8,0-.9.5-1.4,1.4-1.4h4.3c.9,0,1.4.5,1.4,1.4.2,2.3-.3,4.4-1.4,6.4-1.5,1.8-3.4,2.8-5.9,2.9h-9.5c-4-.3-6.4-2.6-7.2-6.8v-10.8c.4-2.5,1.7-4.5,4.1-5.9Z"/><path d="m466.4,362.8c.8-.2,1.6-.4,2.3-.4h9.1c2.6.1,4.7,1.2,6.3,3.4.4,1.2.6,2.8.7,4.5v15.2c0,.9-.5,1.4-1.4,1.4h-3.8c-.9,0-1.4-.3-1.4-1,0-.8-.5-.7-1.5.2-.7.4-1.4.7-2.1.8h-8.2c-2.5-.3-4.1-1.4-4.8-3.5-.4-1.2-.5-3.4-.4-6.6.6-3.1,2.7-4.7,6.3-4.9h9.5c.8,0,1.2-.4,1.2-1.2,0-1.8-.9-2.8-2.7-3.1h-4c-1.4-.1-2.4.5-2.9,1.8-.1.4-.5.7-1.3.7h-3.9c-.9,0-1.4-.5-1.4-1.4.2-2.9,1.6-4.9,4.4-5.9Zm3.2,13.9c-1.3.4-1.9,1.1-1.6,2.3-.3,1.2.3,2,1.7,2.4h5.1c1.8.3,3.1-.9,3.7-3.5,0-.8-.3-1.2-1.1-1.2h-7.8Z"/><path d="m495.8,363.6c.4-.7,1.5-1.1,3.2-1.2h6.9c3.8.8,5.7,3.5,5.8,7.8v8.8c-.1,1.3-.4,2.6-.8,3.8-.5,1.4-1.2,2.4-2.2,3.2-1.3.6-2.6.9-3.8.9h-6.1c-1.1,0-2-.2-2.8-.7-.7-.6-1-.4-1,.4v8.1c0,.9-.5,1.4-1.4,1.4h-4.1c-.9,0-1.4-.5-1.4-1.4v-30.7c0-.9.5-1.4,1.4-1.4h4.1c.9,0,1.4.2,1.4.5l.1.7c.2.4.4.3.7-.2Zm1.4,4.7c-1.6.5-2.4,1.7-2.2,3.5v6.7c.4,1.2,1.2,2,2.4,2.1h4.5c2.1-.3,3.1-1.4,2.8-3.2v-6.2c-.2-1.5-1.1-2.5-2.5-2.9h-5Z"/><path d="m518.8,363.1c1-.4,2-.7,2.9-.8h10.4c3.5,0,5.6,1.8,6.3,5.3v4.5c-.1,1.6-.5,2.8-1.1,3.8-.9.9-2.4,1.2-4.3,1h-10.8c-.8,0-1.2.5-1.2,1.5-.3,1.8.5,2.8,2.4,3h4.9c1.8.3,2.9-.5,3.2-2.3,0-.3.5-.5,1.4-.5h4c.9,0,1.4.5,1.4,1.4-.3,2.8-1.5,4.9-3.5,6.1-1.1.4-2.2.7-3.3.8h-11c-2-.2-3.5-1-4.6-2.3-.8-1.2-1.3-2.9-1.5-5.1v-9.4c.1-3,1.6-5.3,4.4-7Zm3.8,4.8c-1.3.3-1.9,1.1-1.7,2.2-.2,1.1.3,1.9,1.6,2.2h6.3c2,.1,2.9-.8,2.5-2.6-.1-1.5-1-2.1-2.6-1.9h-6.1v.1Z"/></g><g class="cls-20"><path d="m301.2,415c1.8-1.5,4.3-2.3,7.4-2.5h13.3c4.6.9,7,3.5,7.1,7.8,0,.9-.5,1.4-1.4,1.4h-5.1c-.9,0-1.4-.2-1.4-.8,0-1-.7-1.7-2.2-2.2h-10.1c-1.9.5-2.8,1.6-2.4,3.5-.3,1.5.4,2.5,2.1,2.9h14.4c1.2.1,2.5.4,3.8,1,1.9,1.2,3,3,3.1,5.3v6.7c-.7,4.1-3.1,6.2-7.4,6.3h-15.6c-1.6-.1-2.8-.4-3.8-.8-3.4-1.5-4.9-4.1-4.5-8,0-.9.5-1.4,1.4-1.4h4.9c.9,0,1.4.2,1.4.7-.1,1.3.5,2.1,1.9,2.5h11.6c2-.3,2.8-1.4,2.5-3.1.4-1.6-.4-2.6-2.6-3h-13.1c-1.4-.1-2.7-.4-3.8-.9-1.2-.4-2.3-1.4-3.1-3.1-.9-2.4-1-5.3-.4-8.7.2-1.3.8-2.5,2-3.6Z"/><path d="m332.9,414c0-1,.5-1.5,1.4-1.5h4c.9,0,1.4.5,1.4,1.4v7.8c0,.8.5.8,1.5,0,1.2-.8,2.3-1.4,3.2-1.5,3.4-.8,6.6-.2,9.8,1.7,1.5,1.5,2.2,3.6,2.3,6.1v15c0,.9-.5,1.4-1.4,1.4h-3.9c-.9,0-1.4-.5-1.4-1.4v-13.5c-.2-1.5-1-2.5-2.7-3-2.9-.4-5.1.1-6.6,1.4-.5.4-.8,1-.8,1.6v13.5c0,.9-.5,1.4-1.4,1.4h-4c-.9,0-1.4-.5-1.4-1.4v-29h0Z"/><path d="m365.6,420.2l1.1-.2h12.1c2.8.2,5,1.7,6.4,4.6.3.9.5,1.8.6,2.7v10.6c-.3,3.2-1.9,5.2-5,6-1.1.3-2.3.5-3.6.6h-10.5c-3.1-.1-5.2-1.7-6.4-4.7-.3-.9-.5-1.8-.6-2.6v-10c.9-4,2.9-6.3,5.9-7Zm4.2,5.7c-2.4.6-3.5,1.8-3.2,3.8v6c.1,1.5,1.1,2.5,2.9,2.9h6.4c1.7-.1,2.7-1,3.3-2.7v-7.1c-.5-2.1-1.8-3-3.8-2.8h-5.6v-.1Z"/><path d="m394.4,420.2l1.1-.2h12.1c2.8.2,5,1.7,6.4,4.6.3.9.5,1.8.6,2.7v10.6c-.3,3.2-1.9,5.2-5,6-1.1.3-2.3.5-3.6.6h-10.5c-3.1-.1-5.2-1.7-6.4-4.7-.3-.9-.5-1.8-.6-2.6v-10c.9-4,2.8-6.3,5.9-7Zm4.1,5.7c-2.4.6-3.5,1.8-3.2,3.8v6c.1,1.5,1.1,2.5,2.9,2.9h6.4c1.7-.1,2.7-1,3.3-2.7v-7.1c-.5-2.1-1.8-3-3.8-2.8h-5.6v-.1Z"/><path d="m420.3,414.5c0-1,.5-1.5,1.4-1.5h4.2c.9,0,1.4.5,1.4,1.4v4.4c0,.8.4,1.2,1.2,1.2h4.5c.9,0,1.4.5,1.4,1.4v3.3c0,.9-.5,1.4-1.4,1.4h-4.3c-.8,0-1.2.4-1.2,1.2v8.3c.2,1.4,1,2.3,2.5,2.6h3.3c.9,0,1.4.5,1.4,1.4v3.5c0,.9-.5,1.4-1.4,1.4h-6.6c-4.4-.8-6.5-3.3-6.4-7.5v-9.7c0-.8-.5-1.2-1.5-1.2s-1.5-.5-1.5-1.4v-3.3c0-.9.5-1.4,1.4-1.4,1,0,1.5-.4,1.5-1.2v-4.3h.1Z"/><path d="m437.9,414c0-1,.5-1.5,1.4-1.5h4.3c.9,0,1.4.5,1.4,1.4v1.5c0,.9-.5,1.4-1.4,1.4h-4.3c-.9,0-1.4-.5-1.4-1.4v-1.4Zm0,7.5c0-1,.4-1.5,1.3-1.5h4.4c.9,0,1.4.5,1.4,1.4v21.7c0,.9-.5,1.4-1.4,1.4h-4.3c-.9,0-1.4-.5-1.4-1.4v-21.6Z"/><path d="m449.1,421.5c0-.9.5-1.4,1.4-1.4h4.2c.9,0,1.4.3,1.4,1,0,.8.5.8,1.5.2,1.9-1.1,4.4-1.6,7.4-1.4,2.4.2,4.3.9,5.6,2.2,1.2,1.2,1.8,2.8,1.9,4.6v16.4c0,.9-.5,1.4-1.4,1.4h-3.9c-.9,0-1.4-.5-1.4-1.4v-14.2c-.1-1.3-.8-2.2-2.2-2.7-1.6-.1-3.2-.1-4.8-.1-1.4.1-2.3,1-2.7,2.7v14.3c0,.9-.5,1.4-1.4,1.4h-4.2c-.9,0-1.4-.5-1.4-1.4v-21.6h0Z"/><path d="m497.7,420.6c.6-1.2,1.5-1.7,2.9-1.5.8,0,1.2.5,1.2,1.4v3.6c0,.9-.2,1.4-.7,1.4-1-.1-1.7.4-2.1,1.6-.3,1.2-.4,2.6-.4,4,0,.9-.6,1.8-1.8,2.6-.8.4-1.9.7-3.3.8h-7.9c-.8,0-1.2.1-1.4.2-.7.6-.9,1.6-.7,2.8.1.2.5.2,1.3.2h10.9c1.2.1,2.5.5,3.8,1.2,1.1.9,1.7,2,1.8,3.4v7.1c-.1,1.2-.7,2.3-1.7,3.2-1,.6-2.2,1-3.8,1.1h-15.9c-2.6,0-4.1-1.2-4.6-3.6v-7.2c-.1-.8.3-1.6,1.2-2.4.4-.3.5-.8.3-1.5-.3-1.4.1-2.8,1.2-4.3.8-.7.7-1.3-.2-2-.8-.8-1.1-1.7-.9-2.8v-5.2c.1-1.8,1.1-3.2,3-4.1.8-.3,1.8-.6,2.9-.7h10.8c.9,0,1.8.2,2.8.7.7.4,1.2.4,1.3,0Zm-3.4,24.3c.2-1.5-.5-2.2-2-2.2h-8.3c-1.7-.1-2.4.6-2.1,2.2-.3,1.8,0,3,.8,3.7.2.1.7.1,1.5.1h7.8c1.7.3,2.5-.4,2.3-2.2v-1.6Zm-9.7-20.2c-.4,0-.7.4-1.1,1.1-.1,1.1-.1,2.2,0,3.4.5.8,1.3,1,2.2.8h4c2,0,2.7-.9,2.3-2.7.3-1.8-.4-2.7-2.3-2.7-1.7,0-3.4,0-5.1.1Z"/><path d="m531.5,415c1.8-1.5,4.3-2.3,7.4-2.5h13.3c4.6.9,7,3.5,7.1,7.8,0,.9-.5,1.4-1.4,1.4h-5.1c-.9,0-1.4-.2-1.4-.8,0-1-.7-1.7-2.2-2.2h-10.1c-1.9.5-2.8,1.6-2.4,3.5-.3,1.5.4,2.5,2.1,2.9h14.4c1.2.1,2.5.4,3.8,1,1.9,1.2,3,3,3.1,5.3v6.7c-.7,4.1-3.1,6.2-7.4,6.3h-15.6c-1.6-.1-2.8-.4-3.8-.8-3.4-1.5-4.9-4.1-4.5-8,0-.9.5-1.4,1.4-1.4h4.9c.9,0,1.4.2,1.4.7-.1,1.3.5,2.1,1.9,2.5h11.6c2-.3,2.8-1.4,2.5-3.1.4-1.6-.4-2.6-2.6-3h-13.1c-1.4-.1-2.7-.4-3.8-.9-1.2-.4-2.3-1.4-3.1-3.1-.9-2.4-1-5.3-.4-8.7.2-1.3.8-2.5,2-3.6Z"/><path d="m570.9,421.2c.4-.7,1.5-1.1,3.2-1.2h6.9c3.8.8,5.7,3.5,5.8,7.8v8.8c-.1,1.3-.4,2.6-.8,3.8-.5,1.4-1.2,2.4-2.2,3.2-1.3.6-2.6.9-3.8.9h-6.1c-1.1,0-2-.2-2.8-.7-.7-.6-1-.4-1,.4v8.1c0,.9-.5,1.4-1.4,1.4h-4.1c-.9,0-1.4-.5-1.4-1.4v-30.7c0-.9.5-1.4,1.4-1.4h4.1c.9,0,1.4.2,1.4.5l.1.7c.2.4.4.3.7-.2Zm1.4,4.7c-1.6.5-2.4,1.7-2.2,3.5v6.7c.4,1.2,1.2,2,2.4,2.1h4.5c2.1-.3,3.1-1.4,2.8-3.2v-6.2c-.2-1.5-1.1-2.5-2.5-2.9h-5Z"/><path d="m595.3,420.2l1.1-.2h12.1c2.8.2,5,1.7,6.4,4.6.3.9.5,1.8.6,2.7v10.6c-.3,3.2-1.9,5.2-5,6-1.1.3-2.3.5-3.6.6h-10.5c-3.1-.1-5.2-1.7-6.4-4.7-.3-.9-.5-1.8-.6-2.6v-10c.9-4,2.8-6.3,5.9-7Zm4.1,5.7c-2.4.6-3.5,1.8-3.2,3.8v6c.1,1.5,1.1,2.5,2.9,2.9h6.4c1.7-.1,2.8-1,3.3-2.7v-7.1c-.5-2.1-1.8-3-3.8-2.8h-5.6v-.1Z"/><path d="m621.2,414.5c0-1,.5-1.5,1.4-1.5h4.2c.9,0,1.4.5,1.4,1.4v4.4c0,.8.4,1.2,1.2,1.2h4.5c.9,0,1.4.5,1.4,1.4v3.3c0,.9-.5,1.4-1.4,1.4h-4.3c-.8,0-1.2.4-1.2,1.2v8.3c.2,1.4,1,2.3,2.5,2.6h3.3c.9,0,1.4.5,1.4,1.4v3.5c0,.9-.5,1.4-1.4,1.4h-6.6c-4.4-.8-6.5-3.3-6.4-7.5v-9.7c0-.8-.5-1.2-1.5-1.2s-1.5-.5-1.5-1.4v-3.3c0-.9.5-1.4,1.4-1.4,1,0,1.5-.4,1.5-1.2v-4.3h.1Z"/><path d="m639.4,425.6c.3-3.6,2.6-5.4,6.7-5.6h10.3c3.2,0,5.2,2,5.9,5.8,0,1.1-.5,1.6-1.4,1.6h-3.5c-.9,0-1.4-.2-1.5-.5-.6-1.2-1.5-1.8-2.8-1.5h-5.3c-1.3.3-1.9,1.1-1.8,2.2-.2,1,.4,1.6,1.7,1.9h9.2c3.4.2,5.5,1.9,6,5.1v4.5c-.2,1.5-.8,2.8-1.8,3.8-1.4,1-3.4,1.6-5.9,1.8h-10.4c-4.2-.8-6.3-3-6.5-6.5,0-1,.4-1.5,1.4-1.5h4.3c.9,0,1.5.2,1.5.7.5,1.3,1.5,1.9,3,1.8h4.4c.9.2,1.7-.1,2.5-.7.3-.3.4-.8.4-1.5.3-1.3-.4-2.1-2.1-2.3h-9.3c-2.8,0-4.4-1.3-5.1-4v-5.1h.1Z"/></g><g class="cls-20"><path d="m298.4,589.4c0-1,.5-1.5,1.4-1.5h22.7c1.4.1,2.6.4,3.8.8,2,.9,3.1,2.3,3.3,4.2v7.1c-.1,1.6-.7,2.8-1.6,3.8-1,.7-1,1.3-.1,1.9,1.2,1.1,1.8,2.4,1.9,4v8.9c0,.9-.5,1.4-1.4,1.4h-4.9c-.9,0-1.4-.5-1.4-1.4v-6.9c0-1.6-1-2.7-3-3.3h-11.8c-.8,0-1.2.4-1.2,1.2v9.1c0,.9-.5,1.4-1.4,1.4h-4.9c-.9,0-1.4-.5-1.4-1.4v-29.3h0Zm20.7,4.7h-11.8c-.8,0-1.2.4-1.2,1.2v5.3c0,.8.4,1.2,1.2,1.2h12c1.2-.1,2-.7,2.4-2,.2-1.8,0-3.2-.4-4.2-.5-.9-1.2-1.4-2.2-1.5Z"/><path d="m337.1,596.2c1-.4,2-.7,2.9-.8h10.4c3.5,0,5.6,1.8,6.3,5.3v4.5c-.1,1.6-.5,2.8-1.1,3.8-.9.9-2.4,1.2-4.3,1h-10.8c-.8,0-1.2.5-1.2,1.5-.3,1.8.5,2.8,2.4,3h4.9c1.8.3,2.9-.5,3.2-2.3,0-.3.5-.5,1.4-.5h4c.9,0,1.4.5,1.4,1.4-.3,2.8-1.5,4.9-3.5,6.1-1.1.4-2.2.7-3.3.8h-11c-2-.2-3.5-1-4.6-2.3-.8-1.2-1.3-2.9-1.5-5.1v-9.4c.2-3.1,1.6-5.4,4.4-7Zm3.9,4.7c-1.3.3-1.9,1.1-1.7,2.2-.2,1.1.3,1.9,1.6,2.2h6.3c2,.1,2.9-.8,2.5-2.6-.1-1.5-1-2.1-2.6-1.9h-6.1v.1Z"/><path d="m360.4,601.1c.3-3.6,2.6-5.4,6.7-5.6h10.3c3.2,0,5.2,2,5.9,5.8,0,1.1-.5,1.6-1.4,1.6h-3.5c-.9,0-1.4-.2-1.5-.5-.6-1.2-1.5-1.8-2.8-1.5h-5.3c-1.3.3-1.9,1.1-1.8,2.2-.2,1,.4,1.6,1.7,1.9h9.2c3.4.2,5.5,1.9,6,5.1v4.5c-.2,1.5-.8,2.8-1.8,3.8-1.4,1-3.4,1.6-5.9,1.8h-10.4c-4.2-.8-6.3-3-6.5-6.5,0-1,.4-1.5,1.4-1.5h4.3c.9,0,1.5.2,1.5.7.5,1.3,1.5,1.9,3,1.8h4.4c.9.2,1.7-.1,2.5-.7.3-.3.4-.8.4-1.5.3-1.3-.4-2.1-2.1-2.3h-9.3c-2.8,0-4.4-1.3-5.1-4v-5.1h.1Z"/><path d="m389.6,589.9c0-1,.5-1.5,1.4-1.5h4.2c.9,0,1.4.5,1.4,1.4v4.4c0,.8.4,1.2,1.2,1.2h4.5c.9,0,1.4.5,1.4,1.4v3.3c0,.9-.5,1.4-1.4,1.4h-4.3c-.8,0-1.2.4-1.2,1.2v8.3c.2,1.4,1,2.3,2.5,2.6h3.3c.9,0,1.4.5,1.4,1.4v3.5c0,.9-.5,1.4-1.4,1.4h-6.6c-4.4-.8-6.5-3.3-6.4-7.5v-9.7c0-.8-.5-1.2-1.5-1.2s-1.5-.5-1.5-1.4v-3.3c0-.9.5-1.4,1.4-1.4,1,0,1.5-.4,1.5-1.2v-4.3h.1Z"/><path d="m407.2,596.9c0-1,.4-1.5,1.3-1.5h4.1c.9,0,1.4.4,1.4,1.3,0,1,.5,1,1.5.1.9-.7,2.2-1.2,3.8-1.4h5.4c.9,0,1.4.5,1.4,1.4v3.5c0,.9-.5,1.4-1.4,1.4h-5c-2.3.4-4,1.6-5.1,3.7-.4,1-.6,2.1-.7,3.3v9.8c0,.9-.5,1.4-1.4,1.4h-4c-.9,0-1.4-.5-1.4-1.4v-21.6h.1Z"/><path d="m434,595.6l1.1-.2h12.1c2.8.2,5,1.7,6.4,4.6.3.9.5,1.8.6,2.7v10.6c-.3,3.2-1.9,5.2-5,6-1.1.3-2.3.5-3.6.6h-10.3c-3.1-.1-5.2-1.7-6.4-4.7-.3-.9-.5-1.8-.6-2.6v-10c.8-4,2.7-6.3,5.7-7Zm4.2,5.8c-2.4.6-3.5,1.8-3.2,3.8v6c.1,1.5,1.1,2.5,2.9,2.9h6.4c1.7-.1,2.7-1,3.3-2.7v-7.1c-.5-2.1-1.8-3-3.8-2.8h-5.6v-.1Z"/><path d="m462.8,595.6l1.1-.2h12.1c2.8.2,5,1.7,6.4,4.6.3.9.5,1.8.6,2.7v10.6c-.3,3.2-1.9,5.2-5,6-1.1.3-2.3.5-3.6.6h-10.5c-3.1-.1-5.2-1.7-6.4-4.7-.3-.9-.5-1.8-.6-2.6v-10c1-4,2.9-6.3,5.9-7Zm4.2,5.8c-2.4.6-3.5,1.8-3.2,3.8v6c.1,1.5,1.1,2.5,2.9,2.9h6.4c1.7-.1,2.7-1,3.3-2.7v-7.1c-.5-2.1-1.8-3-3.8-2.8h-5.6v-.1Z"/><path d="m494.3,596.7c1.6-1.2,3.5-1.6,5.8-1.2.8.2,1.8.8,2.8,1.6,1,.8,1.9.7,2.7-.2.9-.9,2.1-1.4,3.8-1.5,4.2-.7,6.7,1.3,7.5,5.8v17.3c0,.9-.5,1.4-1.4,1.4h-4c-.9,0-1.4-.5-1.4-1.4v-13.8c.1-2.2-.9-3.2-2.8-3-1.8.2-2.6,1-2.4,2.6v14.2c0,.9-.5,1.4-1.4,1.4h-3.9c-.9,0-1.4-.5-1.4-1.4v-15.2c0-.6-.4-1-1.1-1.5-1.9-.3-3.2-.2-3.8.5-.2.2-.3.5-.4.9v15.3c0,.9-.5,1.4-1.4,1.4h-3.7c-.9,0-1.4-.5-1.4-1.4v-21.5c0-.9.5-1.4,1.4-1.4h3.7c.9,0,1.4.4,1.4,1.2-.1.9.4.9,1.4-.1Z"/></g><g class="cls-20"><path d="m978.5,404.1c0-1,.5-1.5,1.4-1.5h22.7c1.4.1,2.6.4,3.8.8,2,.9,3.1,2.3,3.3,4.2v7.1c-.1,1.6-.7,2.8-1.6,3.8-1,.7-1,1.3-.1,1.9,1.2,1.1,1.8,2.4,1.9,4v8.9c0,.9-.5,1.4-1.4,1.4h-4.9c-.9,0-1.4-.5-1.4-1.4v-6.9c0-1.6-1-2.7-3-3.3h-11.7c-.8,0-1.2.4-1.2,1.2v9.1c0,.9-.5,1.4-1.4,1.4h-4.9c-.9,0-1.4-.5-1.4-1.4v-29.3h-.1Zm20.7,4.7h-11.8c-.8,0-1.2.4-1.2,1.2v5.3c0,.8.4,1.2,1.2,1.2h12c1.2-.1,2-.7,2.4-2,.2-1.8,0-3.2-.4-4.2-.6-.9-1.3-1.4-2.2-1.5Z"/><path d="m1018.6,410.3l1.1-.2h12.1c2.8.2,5,1.7,6.4,4.6.3.9.5,1.8.6,2.7v10.6c-.3,3.2-1.9,5.2-5,6-1.1.3-2.3.5-3.6.6h-10.5c-3.1-.1-5.2-1.7-6.4-4.7-.3-.9-.5-1.8-.6-2.6v-10c.9-4,2.8-6.3,5.9-7Zm4.1,5.8c-2.4.6-3.5,1.8-3.2,3.8v6c.1,1.5,1.1,2.5,2.9,2.9h6.4c1.7-.1,2.8-1,3.3-2.7v-7.1c-.5-2.1-1.8-3-3.8-2.8h-5.6v-.1Z"/><path d="m1046.9,410.5c.8-.2,1.6-.4,2.3-.4h9.1c2.6.1,4.7,1.2,6.3,3.4.4,1.2.6,2.8.7,4.5v15.2c0,.9-.5,1.4-1.4,1.4h-3.8c-.9,0-1.4-.3-1.4-1,0-.8-.5-.7-1.5.2-.7.4-1.4.7-2.1.8h-8.2c-2.5-.3-4.1-1.4-4.8-3.5-.4-1.2-.5-3.4-.4-6.6.6-3.1,2.7-4.7,6.3-4.9h9.5c.8,0,1.2-.4,1.2-1.2,0-1.8-.9-2.8-2.7-3.1h-4c-1.4-.1-2.4.5-2.9,1.8-.1.4-.5.7-1.3.7h-3.9c-.9,0-1.4-.5-1.4-1.4.2-2.9,1.6-4.9,4.4-5.9Zm3.1,13.9c-1.3.4-1.9,1.1-1.6,2.3-.2,1.2.3,2,1.7,2.4h5.1c1.8.3,3.1-.9,3.7-3.5,0-.8-.3-1.2-1.1-1.2h-7.8Z"/><path d="m1084.2,404.1c0-1,.5-1.5,1.4-1.5h4.4c.9,0,1.4.5,1.4,1.4v29.2c0,.9-.5,1.4-1.4,1.4h-4.1c-.9,0-1.4-.3-1.4-.8,0-.6-.5-.6-1.5,0-.7.4-1.5.6-2.4.8h-6.4c-3.1-.3-5-2-5.8-5.2-.2-.8-.4-1.7-.4-2.5v-9c.2-3.2,1.6-5.4,4.3-6.8.8-.4,2-.7,3.5-.9h4.9c.9.2,1.7.5,2.5.9.8.6,1.2.5,1.2-.4v-6.6h-.2Zm-6.4,12.3c-2,.5-3,1.7-3.1,3.7v4.9c-.2,1.9.8,3,2.9,3.4h3.9c1.7-.4,2.6-1.4,2.6-2.9v-6.3c-.1-1.2-.7-2-1.8-2.4-.8-.3-2.3-.4-4.5-.4Z"/><path d="m1119.9,404.1c0-1,.5-1.5,1.4-1.5h4.5c.9,0,1.4.5,1.4,1.4v29.2c0,.9-.5,1.4-1.4,1.4h-4.5c-.9,0-1.4-.5-1.4-1.4v-29.1Z"/><path d="m1132.1,411.7c0-.9.5-1.4,1.4-1.4h4.2c.9,0,1.4.3,1.4,1,0,.8.5.8,1.5.2,1.9-1.1,4.4-1.6,7.4-1.4,2.4.2,4.3.9,5.6,2.2,1.2,1.2,1.8,2.8,1.9,4.6v16.4c0,.9-.5,1.4-1.4,1.4h-3.9c-.9,0-1.4-.5-1.4-1.4v-14.2c-.1-1.3-.8-2.2-2.2-2.7-1.6-.1-3.2-.1-4.8-.1-1.4.1-2.3,1-2.7,2.7v14.3c0,.9-.5,1.4-1.4,1.4h-4.2c-.9,0-1.4-.5-1.4-1.4v-21.6Z"/><path d="m1161.8,404.6c0-1,.5-1.5,1.4-1.5h4.2c.9,0,1.4.5,1.4,1.4v4.4c0,.8.4,1.2,1.2,1.2h4.5c.9,0,1.4.5,1.4,1.4v3.3c0,.9-.5,1.4-1.4,1.4h-4.3c-.8,0-1.2.4-1.2,1.2v8.3c.2,1.4,1,2.3,2.5,2.6h3.3c.9,0,1.4.5,1.4,1.4v3.5c0,.9-.5,1.4-1.4,1.4h-6.6c-4.4-.8-6.5-3.3-6.4-7.5v-9.7c0-.8-.5-1.2-1.5-1.2s-1.5-.5-1.5-1.4v-3.3c0-.9.5-1.4,1.4-1.4,1,0,1.5-.4,1.5-1.2v-4.3h.1Z"/><path d="m1183.3,410.9c1-.4,2-.7,2.9-.8h10.4c3.5,0,5.6,1.8,6.3,5.3v4.5c-.1,1.6-.5,2.8-1.1,3.8-.9.9-2.4,1.2-4.3,1h-10.8c-.8,0-1.2.5-1.2,1.5-.3,1.8.5,2.8,2.4,3h4.9c1.8.3,2.9-.5,3.2-2.3,0-.3.5-.5,1.4-.5h4c.9,0,1.4.5,1.4,1.4-.3,2.8-1.5,4.9-3.5,6.1-1.1.4-2.2.7-3.3.8h-11c-2-.2-3.5-1-4.6-2.3-.8-1.2-1.3-2.9-1.5-5.1v-9.4c.1-3.1,1.6-5.4,4.4-7Zm3.8,4.7c-1.3.3-1.9,1.1-1.7,2.2-.2,1.1.3,1.9,1.6,2.2h6.3c2,.1,2.9-.8,2.5-2.6-.1-1.5-1-2.1-2.6-1.9h-6.1v.1Z"/><path d="m1206,411.6c0-1,.4-1.5,1.3-1.5h4.1c.9,0,1.4.4,1.4,1.3,0,1,.5,1,1.5.1.9-.7,2.2-1.2,3.8-1.4h5.4c.9,0,1.4.5,1.4,1.4v3.5c0,.9-.5,1.4-1.4,1.4h-5c-2.3.4-4,1.6-5.1,3.7-.4,1-.6,2.1-.7,3.3v9.8c0,.9-.5,1.4-1.4,1.4h-4c-.9,0-1.4-.5-1.4-1.4v-21.6h.1Z"/><path d="m1228.1,415.7c.3-3.6,2.6-5.4,6.7-5.6h10.3c3.2,0,5.2,2,5.9,5.8,0,1.1-.5,1.6-1.4,1.6h-3.5c-.9,0-1.4-.2-1.5-.5-.6-1.2-1.5-1.8-2.8-1.5h-5.3c-1.3.3-1.9,1.1-1.8,2.2-.2,1,.4,1.6,1.7,1.9h9.2c3.4.2,5.5,1.9,6,5.1v4.5c-.2,1.5-.8,2.8-1.8,3.8-1.4,1-3.4,1.6-5.9,1.8h-10.4c-4.2-.8-6.3-3-6.5-6.5,0-1,.4-1.5,1.4-1.5h4.3c.9,0,1.5.2,1.5.7.5,1.3,1.5,1.9,3,1.8h4.4c.9.2,1.7-.1,2.5-.7.3-.3.4-.8.4-1.5.3-1.3-.4-2.1-2.1-2.3h-9.3c-2.8,0-4.4-1.3-5.1-4v-5.1h.1Z"/><path d="m1258.8,410.9c1-.4,2-.7,2.9-.8h10.4c3.5,0,5.6,1.8,6.3,5.3v4.5c-.1,1.6-.5,2.8-1.1,3.8-.9.9-2.4,1.2-4.3,1h-10.8c-.8,0-1.2.5-1.2,1.5-.3,1.8.5,2.8,2.4,3h4.9c1.8.3,2.9-.5,3.2-2.3,0-.3.5-.5,1.4-.5h4c.9,0,1.4.5,1.4,1.4-.3,2.8-1.5,4.9-3.5,6.1-1.1.4-2.2.7-3.3.8h-11c-2-.2-3.5-1-4.6-2.3-.8-1.2-1.3-2.9-1.5-5.1v-9.4c.1-3.1,1.6-5.4,4.4-7Zm3.8,4.7c-1.3.3-1.9,1.1-1.7,2.2-.2,1.1.3,1.9,1.6,2.2h6.3c2,.1,2.9-.8,2.5-2.6-.1-1.5-1-2.1-2.6-1.9h-6.1v.1Z"/><path d="m1285,411.1c1.3-.5,3-.9,4.9-1h6.4c5.7.4,8.6,3.1,8.5,8,0,.9-.5,1.4-1.4,1.4h-4c-.9,0-1.4-.2-1.4-.5-.2-1.8-1.2-2.7-3-2.8h-5c-1.5.4-2.4,1.3-2.5,2.6v6.8c.4,1.4,1.5,2.3,3.2,2.5h4.9c1.7-.4,2.4-1.3,2.2-2.8,0-.9.5-1.4,1.4-1.4h4.3c.9,0,1.4.5,1.4,1.4.2,2.3-.3,4.4-1.4,6.4-1.5,1.8-3.4,2.8-5.9,2.9h-9.5c-4-.3-6.4-2.6-7.2-6.8v-10.8c.5-2.5,1.8-4.5,4.1-5.9Z"/><path d="m1310.7,404.6c0-1,.5-1.5,1.4-1.5h4.2c.9,0,1.4.5,1.4,1.4v4.4c0,.8.4,1.2,1.2,1.2h4.5c.9,0,1.4.5,1.4,1.4v3.3c0,.9-.5,1.4-1.4,1.4h-4.3c-.8,0-1.2.4-1.2,1.2v8.3c.2,1.4,1,2.3,2.5,2.6h3.3c.9,0,1.4.5,1.4,1.4v3.5c0,.9-.5,1.4-1.4,1.4h-6.6c-4.4-.8-6.5-3.3-6.4-7.5v-9.7c0-.8-.5-1.2-1.5-1.2s-1.5-.5-1.5-1.4v-3.3c0-.9.5-1.4,1.4-1.4,1,0,1.5-.4,1.5-1.2v-4.3h.1Z"/><path d="m1328.3,404.1c0-1,.5-1.5,1.4-1.5h4.3c.9,0,1.4.5,1.4,1.4v1.5c0,.9-.5,1.4-1.4,1.4h-4.3c-.9,0-1.4-.5-1.4-1.4v-1.4Zm0,7.5c0-1,.4-1.5,1.3-1.5h4.4c.9,0,1.4.5,1.4,1.4v21.7c0,.9-.5,1.4-1.4,1.4h-4.3c-.9,0-1.4-.5-1.4-1.4v-21.6Z"/><path d="m1344.8,410.3l1.1-.2h12.1c2.8.2,5,1.7,6.4,4.6.3.9.5,1.8.6,2.7v10.6c-.3,3.2-1.9,5.2-5,6-1.1.3-2.3.5-3.6.6h-10.5c-3.1-.1-5.2-1.7-6.4-4.7-.3-.9-.5-1.8-.6-2.6v-10c.9-4,2.8-6.3,5.9-7Zm4.1,5.8c-2.4.6-3.5,1.8-3.2,3.8v6c.1,1.5,1.1,2.5,2.9,2.9h6.4c1.7-.1,2.8-1,3.3-2.7v-7.1c-.5-2.1-1.8-3-3.8-2.8h-5.6v-.1Z"/><path d="m1368.3,411.7c0-.9.5-1.4,1.4-1.4h4.2c.9,0,1.4.3,1.4,1,0,.8.5.8,1.5.2,1.9-1.1,4.4-1.6,7.4-1.4,2.4.2,4.3.9,5.6,2.2,1.2,1.2,1.8,2.8,1.9,4.6v16.4c0,.9-.5,1.4-1.4,1.4h-3.9c-.9,0-1.4-.5-1.4-1.4v-14.2c-.1-1.3-.8-2.2-2.2-2.7-1.6-.1-3.2-.1-4.8-.1-1.4.1-2.3,1-2.7,2.7v14.3c0,.9-.5,1.4-1.4,1.4h-4.2c-.9,0-1.4-.5-1.4-1.4v-21.6Z"/><path d="m1396,415.7c.3-3.6,2.6-5.4,6.7-5.6h10.3c3.2,0,5.2,2,5.9,5.8,0,1.1-.5,1.6-1.4,1.6h-3.5c-.9,0-1.4-.2-1.5-.5-.6-1.2-1.5-1.8-2.8-1.5h-5.3c-1.3.3-1.9,1.1-1.8,2.2-.2,1,.4,1.6,1.7,1.9h9.2c3.4.2,5.5,1.9,6,5.1v4.5c-.2,1.5-.8,2.8-1.8,3.8-1.4,1-3.4,1.6-5.9,1.8h-10.4c-4.2-.8-6.3-3-6.5-6.5,0-1,.4-1.5,1.4-1.5h4.3c.9,0,1.5.2,1.5.7.5,1.3,1.5,1.9,3,1.8h4.4c.9.2,1.7-.1,2.5-.7.3-.3.4-.8.4-1.5.3-1.3-.4-2.1-2.1-2.3h-9.3c-2.8,0-4.4-1.3-5.1-4v-5.1h.1Z"/></g><g class="cls-20"><path d="m981.4,195.5c0-1,.5-1.5,1.4-1.5h22.7c1.4.1,2.6.4,3.8.8,2,.9,3.1,2.3,3.3,4.2v7.1c-.1,1.6-.7,2.8-1.6,3.8-1,.7-1,1.3-.1,1.9,1.2,1.1,1.8,2.4,1.9,4v8.9c0,.9-.5,1.4-1.4,1.4h-4.9c-.9,0-1.4-.5-1.4-1.4v-6.9c0-1.6-1-2.7-3-3.3h-11.8c-.8,0-1.2.4-1.2,1.2v9.1c0,.9-.5,1.4-1.4,1.4h-4.9c-.9,0-1.4-.5-1.4-1.4v-29.3Zm20.7,4.6h-11.8c-.8,0-1.2.4-1.2,1.2v5.3c0,.8.4,1.2,1.2,1.2h12c1.2-.1,2-.7,2.4-2,.2-1.8,0-3.2-.4-4.2-.5-.9-1.2-1.3-2.2-1.5Z"/><path d="m1021.5,201.6l1.1-.2h12.1c2.8.2,5,1.7,6.4,4.6.3.9.5,1.8.6,2.7v10.6c-.3,3.2-1.9,5.2-5,6-1.1.3-2.3.5-3.6.6h-10.5c-3.1-.1-5.2-1.7-6.4-4.7-.3-.9-.5-1.8-.6-2.6v-10c1-4,2.9-6.3,5.9-7Zm4.2,5.8c-2.4.6-3.5,1.8-3.2,3.8v6c.1,1.5,1.1,2.5,2.9,2.9h6.4c1.7-.1,2.7-1,3.3-2.7v-7.1c-.5-2.1-1.8-3-3.8-2.8h-5.6v-.1Z"/><path d="m1049.8,201.8c.8-.2,1.6-.4,2.3-.4h9.1c2.6.1,4.7,1.2,6.3,3.4.4,1.2.6,2.8.7,4.5v15.2c0,.9-.5,1.4-1.4,1.4h-3.8c-.9,0-1.4-.3-1.4-1,0-.8-.5-.7-1.5.2-.7.4-1.4.7-2.1.8h-8.2c-2.5-.3-4.1-1.4-4.8-3.5-.4-1.2-.5-3.4-.4-6.6.6-3.1,2.7-4.7,6.3-4.9h9.5c.8,0,1.2-.4,1.2-1.2,0-1.8-.9-2.8-2.7-3.1h-4c-1.4-.1-2.4.5-2.9,1.8-.1.4-.5.7-1.3.7h-3.9c-.9,0-1.4-.5-1.4-1.4.2-2.9,1.6-4.8,4.4-5.9Zm3.2,14c-1.3.4-1.9,1.1-1.6,2.3-.3,1.2.3,2,1.7,2.4h5.1c1.8.3,3.1-.9,3.7-3.5,0-.8-.3-1.2-1.1-1.2h-7.8Z"/><path d="m1087.1,195.5c0-1,.5-1.5,1.4-1.5h4.4c.9,0,1.4.5,1.4,1.4v29.2c0,.9-.5,1.4-1.4,1.4h-4.1c-.9,0-1.4-.3-1.4-.8,0-.6-.5-.6-1.5,0-.7.4-1.5.6-2.4.8h-6.4c-3.1-.3-5-2-5.8-5.2-.3-.8-.4-1.7-.4-2.5v-9c.2-3.2,1.6-5.4,4.3-6.8.8-.4,2-.7,3.5-.9h4.9c.9.2,1.7.5,2.5.9.8.6,1.2.5,1.2-.4v-6.6h-.2Zm-6.3,12.3c-2,.5-3,1.7-3.1,3.7v4.9c-.2,1.9.8,3,2.9,3.4h3.9c1.7-.4,2.6-1.4,2.6-2.9v-6.3c-.1-1.2-.7-2-1.8-2.4-.8-.4-2.4-.5-4.5-.4Z"/><path d="m1127.6,194.7c1-.3,2.4-.5,4-.7h14.2c2.5.2,4.4.8,5.6,1.7,2.8,2.8,4,5.9,3.5,9.3,0,.9-.5,1.4-1.4,1.4h-5c-.9,0-1.4-.5-1.4-1.4.2-2.5-1-4-3.8-4.5h-9.4c-2.5.1-4.1,1.5-4.6,4.3v10.1c0,2.1,1.4,3.5,4.2,4.2h10.3c2.4-.5,3.7-2,3.8-4.4,0-1.2.5-1.8,1.5-1.8h4.5c.9,0,1.4.5,1.4,1.4.3,3.3-.6,6.3-2.7,8.9-.8.8-1.7,1.4-2.8,1.8-1.4.6-3,.9-4.7,1h-13.9c-1.5-.1-2.8-.4-3.8-.7-3.3-1.2-5.1-3.6-5.5-7.4v-13.4c0-2.7.8-5.2,2.3-7.5.9-1.1,2.1-1.9,3.7-2.3Z"/><path d="m1163.3,201.6l1.1-.2h12.1c2.8.2,5,1.7,6.4,4.6.3.9.5,1.8.6,2.7v10.6c-.3,3.2-1.9,5.2-5,6-1.1.3-2.3.5-3.6.6h-10.5c-3.1-.1-5.2-1.7-6.4-4.7-.3-.9-.5-1.8-.6-2.6v-10c.9-4,2.8-6.3,5.9-7Zm4.1,5.8c-2.4.6-3.5,1.8-3.2,3.8v6c.1,1.5,1.1,2.5,2.9,2.9h6.4c1.7-.1,2.7-1,3.3-2.7v-7.1c-.5-2.1-1.8-3-3.8-2.8h-5.6v-.1Z"/><path d="m1187.6,195.5c0-1,.5-1.5,1.4-1.5h4.2c.9,0,1.4.5,1.4,1.4v29.2c0,.9-.5,1.4-1.4,1.4h-4.1c-.9,0-1.4-.5-1.4-1.4v-29.1h-.1Z"/><path d="m1200.1,195.5c0-1,.5-1.5,1.4-1.5h4.2c.9,0,1.4.5,1.4,1.4v29.2c0,.9-.5,1.4-1.4,1.4h-4.1c-.9,0-1.4-.5-1.4-1.4v-29.1h-.1Z"/><path d="m1216.4,201.8c.8-.2,1.6-.4,2.3-.4h9.1c2.6.1,4.7,1.2,6.3,3.4.4,1.2.6,2.8.7,4.5v15.2c0,.9-.5,1.4-1.4,1.4h-3.8c-.9,0-1.4-.3-1.4-1,0-.8-.5-.7-1.5.2-.7.4-1.4.7-2.1.8h-8.2c-2.5-.3-4.1-1.4-4.8-3.5-.4-1.2-.5-3.4-.4-6.6.6-3.1,2.7-4.7,6.3-4.9h9.5c.8,0,1.2-.4,1.2-1.2,0-1.8-.9-2.8-2.7-3.1h-4c-1.4-.1-2.4.5-2.9,1.8-.1.4-.5.7-1.3.7h-3.9c-.9,0-1.4-.5-1.4-1.4.2-2.9,1.6-4.8,4.4-5.9Zm3.2,14c-1.3.4-1.9,1.1-1.6,2.3-.3,1.2.3,2,1.7,2.4h5.1c1.8.3,3.1-.9,3.7-3.5,0-.8-.3-1.2-1.1-1.2h-7.8Z"/><path d="m1245.8,202.6c.4-.7,1.5-1.1,3.2-1.2h6.9c3.8.8,5.7,3.5,5.8,7.8v8.8c-.1,1.3-.4,2.6-.8,3.8-.5,1.4-1.2,2.4-2.2,3.2-1.3.6-2.6.9-3.8.9h-6.1c-1.1,0-2-.2-2.8-.7-.7-.6-1-.4-1,.4v8.1c0,.9-.5,1.4-1.4,1.4h-4.1c-.9,0-1.4-.5-1.4-1.4v-30.7c0-.9.5-1.4,1.4-1.4h4.1c.9,0,1.4.2,1.4.5l.1.7c.2.5.4.4.7-.2Zm1.4,4.8c-1.6.5-2.4,1.7-2.2,3.5v6.7c.4,1.2,1.2,2,2.4,2.1h4.5c2.1-.3,3.1-1.4,2.8-3.2v-6.2c-.2-1.5-1.1-2.5-2.5-2.9h-5Z"/><path d="m1265.4,207.1c.3-3.6,2.6-5.4,6.7-5.6h10.3c3.2,0,5.2,2,5.9,5.8,0,1.1-.5,1.6-1.4,1.6h-3.5c-.9,0-1.4-.2-1.5-.5-.6-1.2-1.5-1.8-2.8-1.5h-5.3c-1.3.3-1.9,1.1-1.8,2.2-.2,1,.4,1.6,1.7,1.9h9.2c3.4.2,5.5,1.9,6,5.1v4.5c-.2,1.5-.8,2.8-1.8,3.8-1.4,1-3.4,1.6-5.9,1.8h-10.4c-4.2-.8-6.3-3-6.5-6.5,0-1,.4-1.5,1.4-1.5h4.3c.9,0,1.5.2,1.5.7.5,1.3,1.5,1.9,3,1.8h4.4c.9.2,1.7-.1,2.5-.7.3-.3.4-.8.4-1.5.3-1.3-.4-2.1-2.1-2.3h-9.3c-2.8,0-4.4-1.3-5.1-4v-5.1h.1Z"/><path d="m1296,202.2c1-.4,2-.7,2.9-.8h10.4c3.5,0,5.6,1.8,6.3,5.3v4.5c-.1,1.6-.5,2.8-1.1,3.8-.9.9-2.4,1.2-4.3,1h-10.9c-.8,0-1.2.5-1.2,1.5-.3,1.8.5,2.8,2.4,3h4.9c1.8.3,2.9-.5,3.2-2.3,0-.3.5-.5,1.4-.5h4c.9,0,1.4.5,1.4,1.4-.3,2.8-1.5,4.9-3.5,6.1-1.1.4-2.2.7-3.3.8h-11c-2-.2-3.5-1-4.6-2.3-.8-1.2-1.3-2.9-1.5-5.1v-9.4c.3-3.1,1.7-5.4,4.5-7Zm3.8,4.7c-1.3.3-1.9,1.1-1.7,2.2-.2,1.1.3,1.9,1.6,2.2h6.3c2,.1,2.9-.8,2.5-2.6-.1-1.5-1-2.1-2.6-1.9h-6.1v.1Z"/></g><path class="cls-3" d="m182.7,295.1c-1.1.9-2.7.9-3.7-.1-9.7-8.9-55-53-56.2-99.9-1-37,32.4-76.2,80.1-58,29,11.1,35.6,38.7,35.9,58,.4,26.9-12,47.4-24.4,65.5-10.9,15.9-22.7,27.1-31.7,34.5Z"/><path class="cls-4" d="m218.5,170.9c-.2-.3-.6-.6-1-.8-3.1-1.5-6.2-2.9-9.4-4.3-.3-.2-.5-.4-.6-.7-.2-.7-.4-1.3-.7-2-2.1-5-6.8-8.4-12.1-8.1-2.8.2-5.3,1-7.5,2.8-3.3,2.7-4.6,6.4-4.8,10.5-.1,1.4-.4,2.8-1.1,4-1.3,2.3-3,4.4-4.7,6.4-2.7,3.2-5.7,6.2-8.8,9-2.5,2.2-5.1,4.3-7.6,6.4q-.1.1-.2.3c1,.4,2,.7,2.9,1,3.7,1.2,7.4,1.5,11.2.6,4.1-.9,7.6-2.8,10.4-6,1.5-1.8,2.7-3.7,2.8-6.2,0-1.1.8-1.7,2-1.7,1,0,1.6.8,1.7,1.8,0,1.6-.4,3.1-1,4.5-1.3,2.8-3.3,5-5.7,6.9-5.4,4.1-11.5,5.5-18.2,4.6-3.3-.4-6.4-1.4-9.3-3-.3-.2-.5-.1-.8.1-1.7,1.1-3.4,2.3-5.2,3.4-2.8,1.7-5.8,3.2-8.8,4.5-1.5.6-1.8,1.8-.8,3.1.4.5.9,1.1,1.3,1.6,1.9,2.3,3.7,4.7,5.6,7,.9,1.1,1.7,1.2,2.9.4,3-2,6-3.9,9-5.9.4-.3.8-.3,1.2-.1,4.6,1.7,9.4,2.6,14.3,2.7.3,0,.4.1.5.4.4,1.7.9,3.3,1.4,5,.2.9.5,1.8.8,2.8h-12.3c-1.2.1-2,1.1-1.7,2.3.3,1,.9,1.4,2.1,1.4h36.1c.7,0,1.3-.3,1.6-1s.3-1.4-.2-2c-.4-.6-1.1-.7-1.8-.7h-8.6c-.7,0-.6,0-.8-.6l-3-10.5c.3-.2.6-.3.8-.5,4.1-2.1,7.4-5,10.2-8.7,2.1-2.8,3.8-5.8,5-9.2,1.1-3.3,1.9-6.6,2.2-10,.2-1.8.1-3.6.2-5.4,0-.3.1-.5.4-.6,2.2-.7,4.4-1.4,6.6-2.1.9-.3,1.8-.6,2.7-1,1.1-.2,1.4-1.4.8-2.4Zm-30.8,51.2h-5.2c-.4,0-.6-.1-.7-.5-.6-2.5-1.3-4.9-2-7.3-.1-.4,0-.4.3-.5,1.9-.4,3.8-.8,5.7-1.3.3-.1.5,0,.6.3.8,3,1.7,6,2.6,9,0,.1,0,.2.1.3h-1.4Z"/><path class="cls-14" d="m182.9,494.3c-1.1.9-2.7.9-3.7-.1-9.7-8.9-55-53-56.2-99.9-1-37,32.4-76.2,80.1-58,29,11.1,35.6,38.7,35.9,58,.4,26.9-12,47.4-24.4,65.5-10.9,15.9-22.8,27.1-31.7,34.5Z"/><path class="cls-4" d="m194.1,398.2c0,6.9-5.6,12.4-12.4,12.4s-12.4-5.6-12.4-12.4,5.6-12.4,12.4-12.4c6.9-.1,12.4,5.5,12.4,12.4Z"/><path class="cls-4" d="m224.2,374.6s0-.7-1.6-2.9c-1.8-2.6-4.1-2.2-4.1-2.2h-23.2s-4.1-7.9-5.1-8.5-15.6-.6-17,0-5.3,8.5-5.3,8.5h-7.5c0-5.2-1-3.8-8.6-4-5.9-.2-5.2.6-5.4,3.9q0,.1-.1.1c-4.1-.1-7.2,1-7.3,6.2l.1,44.8s0,4.1,2.3,5.6c2.4,1.5,3.7,1,3.7,1h73.9s2.3-.9,3.7-2.2c1.4-1.3,1.5-3.1,1.5-3.1v-47.2Zm-42.5,41.1c-9.7,0-17.6-7.9-17.6-17.6s7.9-17.6,17.6-17.6,17.6,7.9,17.6,17.6-7.9,17.6-17.6,17.6Zm34.3-34.1c-.5.5-1.1.8-1.8.8h-7.8c-1.4,0-2.6-1.1-2.6-2.5,0-.7.3-1.3.8-1.8s1.1-.8,1.8-.8h7.8c1.4,0,2.6,1.1,2.6,2.6-.1.6-.4,1.3-.8,1.7Z"/><path class="cls-4" d="m194.1,398.2c0,6.9-5.6,12.4-12.4,12.4s-12.4-5.6-12.4-12.4,5.6-12.4,12.4-12.4c6.9-.1,12.4,5.5,12.4,12.4Z"/><path class="cls-4" d="m194.1,398.2c0,6.9-5.6,12.4-12.4,12.4s-12.4-5.6-12.4-12.4,5.6-12.4,12.4-12.4c6.9-.1,12.4,5.5,12.4,12.4Z"/><path d="m183.4,691c-1.1.9-2.6.8-3.6-.1-9.4-8.7-53.3-51.5-54.5-96.9-.9-35.9,31.4-73.9,77.7-56.3,28.1,10.7,34.6,37.5,34.8,56.3.4,26.1-11.6,46-23.7,63.6-10.5,15.3-22,26.2-30.7,33.4Z"/><path d="m181.6,694.1c-1.3,0-2.5-.5-3.5-1.4-9-8.3-54.1-52.1-55.3-98.7-.5-20.8,9.7-41.7,26.1-53.4,15.5-11,35-12.9,55-5.3,31.1,11.9,36.2,41.8,36.4,58.6.4,27-12.2,47.7-24.1,65-8.7,12.7-19.2,24.1-31.2,33.9h0c-1,.9-2.2,1.3-3.4,1.3Zm-1.5-158.4c-12.3,0-21.8,4.4-28.3,9-15.1,10.7-24.5,30-24,49.2,1.2,44.6,45,87.1,53.7,95.2.1.1.3.1.4,0h0c11.6-9.6,21.8-20.6,30.3-32.9,11.5-16.7,23.7-36.6,23.3-62.1-.2-15.5-4.9-43.2-33.3-54-8.2-3.2-15.6-4.4-22.1-4.4Z"/><path class="cls-4" d="m204.5,605.9v20.7c0,.6.1,1.3.2,1.9.2,1.4,1.3,2.5,2.7,2.8,1.5.3,2.8-.3,3.7-1.5.6-.9.7-1.8.7-2.8v-21.2h1.8c1.6,0,2.3-.9,2-2.4-.8-4.1-1.5-8.2-2.3-12.2-.5-2.9-1.1-5.8-1.6-8.7-.1-.3-.1-.6-.1-.9.2.4.4.8.5,1.2,1.5,4.3,2.9,8.5,4.4,12.8.2.4.3.9.6,1.3,1.1,1.9,3.7,2,4.9.2.6-.9.6-1.9.3-2.9-.7-2.1-1.4-4.2-2.1-6.3-.7-2-1.4-3.9-2-5.9-.9-2.7-1.8-5.5-3-8.1s-3.2-4.1-6.1-4.1h-10c-2.8,0-4.8,1.5-6,4-.7,1.5-1.3,3-1.8,4.6-1.5,4.3-2.9,8.5-4.4,12.8-.4,1.2-.8,2.4-1.1,3.6-.4,1.5.4,3,1.9,3.4,1.3.4,2.8-.1,3.5-1.5.1-.3.3-.6.4-.9.7-1.8,1.3-3.6,1.9-5.4.8-2.2,1.5-4.4,2.3-6.6.3-.8.6-1.6.9-2.3.1.2,0,.4,0,.5-.4,2-.8,4-1.2,6-.8,4-1.5,8-2.3,12-.2,1.3-.5,2.6-.7,3.9-.1,1,.5,1.7,1.5,1.9.7.1,1.4.1,2,.1.3,0,.4.1.4.4v19.1c0,1,0,2.1.1,3.1.2,1.4,1.3,2.5,2.6,2.8,1.4.3,2.8-.2,3.7-1.3.5-.7.7-1.5.7-2.3v-21.8s.5,0,1,0Zm-23.2-12.6h0v-31.6c0-.3,0-.7-.1-1-.2-1-1.2-1.8-2.3-1.7-1.1,0-2,.8-2.1,1.9-.1,1-.1,2-.1,3v59.1c0,.9,0,1.7.1,2.6.1,1,.7,1.6,1.7,1.9.9.3,1.7-.1,2.3-.8.5-.6.5-1.3.5-2,0-10.5,0-20.9,0-31.4Zm-19.1-32.1c0-3.5-2.8-6.3-6.2-6.3s-6.1,2.8-6.2,6.3c0,3.4,2.8,6.3,6.1,6.3,3.5,0,6.3-2.8,6.3-6.3Zm41.6,6.5c3.4,0,6.1-2.8,6.1-6.2s-2.8-6.2-6.2-6.2-6.1,2.8-6.1,6.2,2.8,6.2,6.2,6.2Z"/><path class="cls-4" d="m140.8,576c0,.5.1,1,.1,1.4v6.7h.1v-6.5c0-1.2-.1-2.3.4-3.4,1.1-2.6,3-4.2,5.8-4.6.8-.1,1.5-.1,2.3-.1h13.5c1.1,0,2.3,0,3.3.4,2.8.9,4.7,3.5,4.9,6.5v21.4c0,.6,0,1.2-.1,1.7-.2,1.5-1.5,2.6-3,2.6s-2.8-1.2-2.8-2.8c-.1-1.8-.1-3.6-.1-5.4v-17.2c0-.5-.3-.6-.7-.6-.3,0-.5.2-.6.7v50.5c0,.9-.1,1.9-.6,2.7-.8,1.3-2.3,1.9-3.7,1.6-1.5-.4-2.6-1.6-2.7-3.1-.1-.8-.1-1.6-.1-2.5v-27.1h-1.5v28.5c0,1-.1,2.1-.8,2.9-.9,1.1-2,1.6-3.4,1.3-1.4-.3-2.4-1.2-2.8-2.6-.1-.6-.2-1.1-.2-1.7v-49.7c0-.3,0-.6-.1-.8-.1-.3-.3-.5-.6-.4-.3,0-.5.2-.5.5v1.1c0,6.6,0,13.2-.1,19.7,0,.7,0,1.4-.1,2.1-.2,1.3-1.3,2.3-2.5,2.5s-2.5-.5-3-1.7c-.1-.2-.1-.5-.2-.8,0,.1-.1.1-.1.2-.1-8.1-.1-16-.1-24Z"/><path class="cls-4" d="m204.5,605.9h-1.6v21.8c0,.8-.2,1.6-.7,2.3-.8,1.2-2.2,1.7-3.7,1.3-1.3-.3-2.4-1.5-2.6-2.8-.1-1-.1-2.1-.1-3.1v-19.1c0-.3-.1-.4-.4-.4-.7,0-1.4,0-2-.1-1-.1-1.6-.8-1.5-1.9.2-1.3.4-2.6.7-3.9.8-4,1.5-8,2.3-12,.4-2,.8-4,1.2-6,0-.2.1-.3,0-.5-.3.8-.6,1.6-.9,2.3-.8,2.2-1.5,4.4-2.3,6.6-.6,1.8-1.3,3.6-1.9,5.4-.1.3-.2.6-.4.9-.7,1.4-2.2,1.9-3.5,1.5-1.4-.5-2.2-1.9-1.9-3.4.3-1.2.7-2.4,1.1-3.6,1.5-4.3,2.9-8.6,4.4-12.8.5-1.6,1.1-3.1,1.8-4.6,1.2-2.5,3.2-4,6-4h10c2.9,0,4.9,1.5,6.1,4.1,1.2,2.6,2.1,5.4,3,8.1.7,2,1.4,3.9,2,5.9.7,2.1,1.4,4.2,2.1,6.3.3,1,.3,2-.3,2.9-1.2,1.8-3.8,1.7-4.9-.2-.2-.4-.4-.8-.6-1.3-1.5-4.3-2.9-8.5-4.4-12.8-.1-.4-.3-.8-.5-1.2,0,.3.1.6.1.9.5,2.9,1.1,5.8,1.6,8.7.8,4.1,1.5,8.2,2.3,12.2.3,1.5-.4,2.4-2,2.4h-1.8v21.2c0,1-.1,2-.7,2.8-.8,1.2-2.2,1.8-3.7,1.5-1.3-.3-2.4-1.4-2.7-2.8-.1-.6-.2-1.3-.2-1.9v-20.2c.6-.2.6-.3.6-.5Z"/><path class="cls-4" d="m181.3,593.3v31.4c0,.7,0,1.4-.5,2-.6.8-1.4,1.1-2.3.8-.9-.2-1.5-.9-1.7-1.9-.1-.9-.1-1.7-.1-2.6v-59.1c0-1,0-2,.1-3,.1-1.1,1-1.9,2.1-1.9,1,0,2,.7,2.3,1.7.1.3.1.7.1,1,0,10.6-.1,21.1,0,31.6h0Z"/><path class="cls-4" d="m162.2,561.2c0,3.5-2.8,6.2-6.2,6.2s-6.1-2.9-6.1-6.3,2.8-6.3,6.2-6.3c3.4.1,6.1,2.9,6.1,6.4Z"/><path class="cls-4" d="m203.8,567.7c-3.4,0-6.1-2.8-6.1-6.2s2.8-6.2,6.1-6.2,6.2,2.8,6.2,6.2c-.1,3.4-2.9,6.2-6.2,6.2Z"/><polygon points="862.4 355.9 796.1 470.7 928.7 470.7 862.4 355.9"/><polygon class="cls-4" points="858.5 142.7 788.3 264.2 928.7 264.2 858.5 142.7"/><path class="cls-6" d="m918.4,259.2h-119.4l59.8-103.3,59.6,103.3Zm-102.5-9.8h85.6l-42.7-74.1-42.9,74.1Z"/></g></g></svg>